<svg width="30" height="31" viewBox="0 0 30 31" fill="none" xmlns="http://www.w3.org/2000/svg">
<path fill-rule="evenodd" clip-rule="evenodd" d="M15 23.25C19.1421 23.25 22.5 19.7802 22.5 15.5C22.5 11.2198 19.1421 7.75 15 7.75C10.8579 7.75 7.5 11.2198 7.5 15.5C7.5 19.7802 10.8579 23.25 15 23.25ZM15 20.6667C17.7614 20.6667 20 18.3534 20 15.5C20 12.6465 17.7614 10.3333 15 10.3333C12.2386 10.3333 10 12.6465 10 15.5C10 18.3534 12.2386 20.6667 15 20.6667Z" fill="white"/>
<path d="M22.5 6.45825C21.8096 6.45825 21.25 7.03656 21.25 7.74992C21.25 8.46328 21.8096 9.04159 22.5 9.04159C23.1904 9.04159 23.75 8.46328 23.75 7.74992C23.75 7.03656 23.1904 6.45825 22.5 6.45825Z" fill="white"/>
<path fill-rule="evenodd" clip-rule="evenodd" d="M2.06745 5.52333C1.25 7.18114 1.25 9.35135 1.25 13.6917V17.3084C1.25 21.6488 1.25 23.8191 2.06745 25.4768C2.7865 26.9351 3.93385 28.1207 5.34508 28.8637C6.94941 29.7084 9.04961 29.7084 13.25 29.7084H16.75C20.9504 29.7084 23.0506 29.7084 24.6549 28.8637C26.0661 28.1207 27.2135 26.9351 27.9325 25.4768C28.75 23.8191 28.75 21.6488 28.75 17.3084V13.6917C28.75 9.35135 28.75 7.18114 27.9325 5.52333C27.2135 4.06506 26.0661 2.87946 24.6549 2.13645C23.0506 1.29175 20.9504 1.29175 16.75 1.29175H13.25C9.04961 1.29175 6.94941 1.29175 5.34508 2.13645C3.93385 2.87946 2.7865 4.06506 2.06745 5.52333ZM16.75 3.87508H13.25C11.1086 3.87508 9.65281 3.8771 8.5276 3.97209C7.43155 4.06462 6.87105 4.23234 6.48005 4.43821C5.53924 4.93356 4.77434 5.72396 4.29496 6.69613C4.09574 7.10017 3.93343 7.67935 3.84388 8.81194C3.75195 9.97466 3.75 11.4789 3.75 13.6917V17.3084C3.75 19.5213 3.75195 21.0254 3.84388 22.1882C3.93343 23.3209 4.09574 23.9 4.29496 24.3041C4.77434 25.2762 5.53924 26.0666 6.48005 26.5619C6.87105 26.7678 7.43155 26.9356 8.5276 27.0281C9.65281 27.123 11.1086 27.1251 13.25 27.1251H16.75C18.8915 27.1251 20.3471 27.123 21.4724 27.0281C22.5685 26.9356 23.129 26.7678 23.52 26.5619C24.4608 26.0666 25.2256 25.2762 25.705 24.3041C25.9043 23.9 26.0666 23.3209 26.1561 22.1882C26.248 21.0254 26.25 19.5213 26.25 17.3084V13.6917C26.25 11.4789 26.248 9.97466 26.1561 8.81194C26.0666 7.67935 25.9043 7.10017 25.705 6.69613C25.2256 5.72396 24.4608 4.93356 23.52 4.43821C23.129 4.23234 22.5685 4.06462 21.4724 3.97209C20.3471 3.8771 18.8915 3.87508 16.75 3.87508Z" fill="white"/>
</svg>
