<svg width="29" height="29" viewBox="0 0 29 29" fill="none" xmlns="http://www.w3.org/2000/svg">
<g clip-path="url(#clip0_134_1125)">
<path d="M25.9806 0.833506H3.1744C2.88045 0.819737 2.58665 0.864069 2.30985 0.963989C2.03305 1.06391 1.77868 1.21744 1.56127 1.41577C1.34389 1.61413 1.16774 1.85342 1.04295 2.11992C0.918154 2.38643 0.847139 2.67494 0.833984 2.96892V25.8265C0.851204 26.4416 1.10332 27.0271 1.53855 27.4622C1.97378 27.8975 2.55913 28.1496 3.1744 28.1669H25.9806C26.5787 28.1402 27.1427 27.8802 27.5515 27.4427C27.9603 27.0052 28.1813 26.4251 28.1673 25.8265V2.96892C28.1723 2.68278 28.1186 2.39866 28.0098 2.13398C27.901 1.8693 27.7392 1.62964 27.5344 1.42968C27.3297 1.22974 27.0863 1.07373 26.8191 0.971215C26.5519 0.868698 26.2666 0.821838 25.9806 0.833506ZM9.37565 23.6227H5.39523V11.4423H9.37565V23.6227ZM7.4794 9.59726C7.20164 9.60694 6.92488 9.55908 6.66651 9.45668C6.40812 9.35428 6.1737 9.19956 5.978 9.00223C5.78227 8.8049 5.62946 8.56923 5.52918 8.31003C5.42889 8.05082 5.38329 7.77368 5.39523 7.49601C5.38295 7.21533 5.42947 6.93519 5.53182 6.67356C5.63416 6.41192 5.79006 6.17456 5.98951 5.97672C6.18898 5.77886 6.42758 5.62489 6.69003 5.52467C6.9525 5.42445 7.23301 5.3802 7.51357 5.39476C7.79133 5.38509 8.06809 5.43294 8.32646 5.53534C8.58485 5.63773 8.81926 5.79246 9.01497 5.98979C9.21069 6.18712 9.3635 6.42278 9.46378 6.68199C9.56408 6.94119 9.60968 7.21833 9.59773 7.49601C9.61002 7.77669 9.5635 8.05682 9.46115 8.31845C9.35881 8.5801 9.2029 8.81745 9.00346 9.0153C8.80399 9.21316 8.56539 9.36713 8.30294 9.46734C8.04047 9.56757 7.75996 9.61181 7.4794 9.59726ZM23.6231 23.6227H19.6257V16.9602C19.6257 15.3715 19.0619 14.2781 17.644 14.2781C17.2036 14.2819 16.775 14.4218 16.4172 14.6787C16.0593 14.9357 15.7898 15.297 15.6452 15.7131C15.5342 16.0251 15.4877 16.3563 15.5086 16.6869V23.6227H11.5794V11.4423H15.5086V13.1506C15.8579 12.5088 16.3778 11.9762 17.0109 11.6113C17.644 11.2465 18.3656 11.0639 19.0961 11.0835C21.6756 11.0835 23.6231 12.7919 23.6231 16.4306V23.6227Z" fill="white"/>
</g>
<defs>
<clipPath id="clip0_134_1125">
<rect width="29" height="29" fill="white"/>
</clipPath>
</defs>
</svg>
