<svg width="26" height="26" viewBox="0 0 26 26" fill="none" xmlns="http://www.w3.org/2000/svg">
<path fill-rule="evenodd" clip-rule="evenodd" d="M13 19.5002C16.5898 19.5002 19.5 16.5901 19.5 13.0002C19.5 9.41039 16.5898 6.50024 13 6.50024C9.41015 6.50024 6.5 9.41039 6.5 13.0002C6.5 16.5901 9.41015 19.5002 13 19.5002ZM13 17.3336C15.3932 17.3336 17.3333 15.3934 17.3333 13.0002C17.3333 10.607 15.3932 8.66691 13 8.66691C10.6068 8.66691 8.66667 10.607 8.66667 13.0002C8.66667 15.3934 10.6068 17.3336 13 17.3336Z" fill="#6A11D6"/>
<path d="M19.5003 5.41724C18.902 5.41724 18.417 5.90227 18.417 6.50057C18.417 7.09887 18.902 7.5839 19.5003 7.5839C20.0987 7.5839 20.5837 7.09887 20.5837 6.50057C20.5837 5.90227 20.0987 5.41724 19.5003 5.41724Z" fill="#6A11D6"/>
<path fill-rule="evenodd" clip-rule="evenodd" d="M1.79244 4.63281C1.08398 6.02323 1.08398 7.8434 1.08398 11.4837V14.5171C1.08398 18.1574 1.08398 19.9776 1.79244 21.368C2.41562 22.591 3.40999 23.5854 4.63305 24.2086C6.02348 24.9171 7.84365 24.9171 11.484 24.9171H14.5173C18.1576 24.9171 19.9779 24.9171 21.3682 24.2086C22.5913 23.5854 23.5857 22.591 24.2088 21.368C24.9173 19.9776 24.9173 18.1574 24.9173 14.5171V11.4837C24.9173 7.8434 24.9173 6.02323 24.2088 4.63281C23.5857 3.40974 22.5913 2.41537 21.3682 1.7922C19.9779 1.08374 18.1576 1.08374 14.5173 1.08374H11.484C7.84365 1.08374 6.02348 1.08374 4.63305 1.7922C3.40999 2.41537 2.41562 3.40974 1.79244 4.63281ZM14.5173 3.25041H11.484C9.62806 3.25041 8.36642 3.2521 7.39124 3.33176C6.44133 3.40937 5.95556 3.55005 5.61669 3.72271C4.80132 4.13817 4.13841 4.80108 3.72295 5.61645C3.55029 5.95532 3.40962 6.44108 3.33201 7.39099C3.25234 8.36618 3.25065 9.62782 3.25065 11.4837V14.5171C3.25065 16.373 3.25234 17.6346 3.33201 18.6098C3.40962 19.5598 3.55029 20.0455 3.72295 20.3844C4.13841 21.1997 4.80132 21.8626 5.61669 22.2781C5.95556 22.4508 6.44133 22.5915 7.39124 22.669C8.36642 22.7487 9.62806 22.7504 11.484 22.7504H14.5173C16.3733 22.7504 17.6348 22.7487 18.61 22.669C19.56 22.5915 20.0458 22.4508 20.3846 22.2781C21.2 21.8626 21.8629 21.1997 22.2783 20.3844C22.451 20.0455 22.5917 19.5598 22.6693 18.6098C22.7489 17.6346 22.7506 16.373 22.7506 14.5171V11.4837C22.7506 9.62782 22.7489 8.36618 22.6693 7.39099C22.5917 6.44108 22.451 5.95532 22.2783 5.61645C21.8629 4.80108 21.2 4.13817 20.3846 3.72271C20.0458 3.55005 19.56 3.40937 18.61 3.33176C17.6348 3.2521 16.3733 3.25041 14.5173 3.25041Z" fill="#6A11D6"/>
</svg>
