<?xml version="1.0" encoding="utf-8"?>
<!-- Generator: Adobe Illustrator 27.9.0, SVG Export Plug-In . SVG Version: 6.00 Build 0)  -->
<svg version="1.1" id="Capa_1" xmlns="http://www.w3.org/2000/svg" xmlns:xlink="http://www.w3.org/1999/xlink" x="0px" y="0px"
	 viewBox="0 0 140 104" style="enable-background:new 0 0 140 104;" xml:space="preserve">
<style type="text/css">
	.st0{fill:#FFFFFF;}
</style>
<g transform="translate(1.4065934065934016 1.4065934065934016) scale(2.81 2.81)">
	<path class="st0" d="M40.2,36.5H8.8c-4.1,0-7.4-3.3-7.4-7.4V9.2c0-4.1,3.3-7.4,7.4-7.4h31.4c4.1,0,7.4,3.3,7.4,7.4v19.8
		C47.6,33.2,44.3,36.5,40.2,36.5z M8.8,4C5.9,4,3.5,6.3,3.5,9.2v19.8c0,2.9,2.4,5.3,5.3,5.3h31.4c2.9,0,5.3-2.4,5.3-5.3V9.2
		c0-2.9-2.4-5.3-5.3-5.3H8.8z"/>
	<path class="st0" d="M7,9.3c5.6,5.4,11.1,10.8,16.7,16.2c1,1,2.6-0.6,1.6-1.6C19.7,18.6,14.2,13.2,8.6,7.8C7.6,6.7,6,8.3,7,9.3
		L7,9.3z"/>
	<path class="st0" d="M25.3,25.6C30.8,20.2,36.4,14.8,42,9.3c1-1-0.6-2.6-1.6-1.6C34.8,13.2,29.3,18.6,23.7,24
		C22.7,25,24.2,26.6,25.3,25.6L25.3,25.6z"/>
	<path class="st0" d="M41.9,29.4c-3.7-3.5-7.4-7-11.1-10.5c-1-1-2.6,0.6-1.6,1.6c3.7,3.5,7.4,7,11.1,10.5
		C41.4,32,42.9,30.4,41.9,29.4L41.9,29.4z"/>
	<path class="st0" d="M8.8,31c3.7-3.5,7.4-7,11.1-10.5c1.1-1-0.5-2.6-1.6-1.6c-3.7,3.5-7.4,7-11.1,10.5C6.1,30.4,7.7,32,8.8,31
		L8.8,31z"/>
</g>
</svg>
