<svg width="26" height="14" viewBox="0 0 26 14" fill="none" xmlns="http://www.w3.org/2000/svg">
<path d="M0.973633 13.3721C0.770508 13.3721 0.597005 13.3001 0.453125 13.1562C0.309245 13.0039 0.237305 12.8219 0.237305 12.6104C0.237305 12.4157 0.309245 12.2464 0.453125 12.1025C0.597005 11.9502 0.770508 11.874 0.973633 11.874H24.8789C25.082 11.874 25.2555 11.9502 25.3994 12.1025C25.5518 12.2464 25.6279 12.4157 25.6279 12.6104C25.6279 12.8219 25.5518 13.0039 25.3994 13.1562C25.2555 13.3001 25.082 13.3721 24.8789 13.3721H0.973633ZM0.973633 7.6084C0.770508 7.6084 0.597005 7.53646 0.453125 7.39258C0.309245 7.2487 0.237305 7.0752 0.237305 6.87207C0.237305 6.66895 0.309245 6.49544 0.453125 6.35156C0.597005 6.19922 0.770508 6.12305 0.973633 6.12305H24.8789C25.082 6.12305 25.2555 6.19922 25.3994 6.35156C25.5518 6.49544 25.6279 6.66895 25.6279 6.87207C25.6279 7.0752 25.5518 7.2487 25.3994 7.39258C25.2555 7.53646 25.082 7.6084 24.8789 7.6084H0.973633ZM0.973633 1.85742C0.770508 1.85742 0.597005 1.78548 0.453125 1.6416C0.309245 1.49772 0.237305 1.32422 0.237305 1.12109C0.237305 0.909505 0.309245 0.736003 0.453125 0.600586C0.597005 0.456706 0.770508 0.384766 0.973633 0.384766H24.8789C25.082 0.384766 25.2555 0.456706 25.3994 0.600586C25.5518 0.736003 25.6279 0.909505 25.6279 1.12109C25.6279 1.32422 25.5518 1.49772 25.3994 1.6416C25.2555 1.78548 25.082 1.85742 24.8789 1.85742H0.973633Z" fill="white"/>
</svg>
