<svg width="188" height="56" viewBox="0 0 188 56" fill="none" xmlns="http://www.w3.org/2000/svg">
<path d="M56.436 35C56.205 35 56.058 34.853 56.058 34.622V20.909C56.058 20.531 56.289 20.3 56.709 20.3H57.213C57.633 20.3 57.801 20.426 57.969 20.804L61.896 29.204L65.802 20.804C65.97 20.426 66.138 20.3 66.558 20.3H67.02C67.44 20.3 67.671 20.531 67.671 20.909V34.622C67.671 34.853 67.524 35 67.272 35H66.873C66.621 35 66.474 34.853 66.474 34.622V22.064L62.463 30.527C62.316 30.821 62.127 30.947 61.854 30.947C61.602 30.947 61.413 30.821 61.266 30.527L57.255 22.064V34.622C57.255 34.853 57.087 35 56.856 35H56.436ZM72.2705 35C72.0395 35 71.8925 34.853 71.8925 34.622V20.678C71.8925 20.447 72.0395 20.3 72.2705 20.3H72.7535C73.0055 20.3 73.1525 20.447 73.1525 20.678V34.622C73.1525 34.853 73.0055 35 72.7535 35H72.2705ZM86.5006 35C86.2276 35.21 85.8496 35.168 85.5976 34.832L80.8096 28.847C80.6416 28.616 80.5576 28.448 80.5576 28.28V28.259C80.5576 27.944 80.7466 27.776 81.0616 27.776H82.1536C84.3166 27.776 85.4926 26.768 85.4926 24.941V24.185C85.4926 22.337 84.3166 21.35 82.1536 21.35H78.6256V34.622C78.6256 34.853 78.4786 35 78.2266 35H77.7436C77.5126 35 77.3656 34.853 77.3656 34.622V20.972C77.3656 20.552 77.6176 20.3 78.0586 20.3H82.1536C85.1146 20.3 86.7526 21.686 86.7526 24.206V24.941C86.7526 27.44 85.1356 28.784 82.3006 28.784L86.6266 34.097C86.8786 34.412 86.7946 34.769 86.5006 35ZM88.4382 35C88.1652 35 88.0392 34.874 88.0392 34.664C88.0392 34.58 88.0602 34.454 88.1442 34.202L92.5962 20.783C92.7432 20.342 92.9322 20.195 93.3102 20.195H93.9612C94.3392 20.195 94.5282 20.342 94.6752 20.783L99.1272 34.202C99.2112 34.454 99.2322 34.58 99.2322 34.664C99.2322 34.874 99.1062 35 98.8332 35H98.4972C98.1612 35 98.0562 34.895 97.9512 34.559L96.5652 30.254H90.6852L89.2992 34.559C89.1942 34.895 89.0892 35 88.7532 35H88.4382ZM91.0422 29.162H96.2082L93.6252 21.245L91.0422 29.162ZM92.9322 18.851C92.7852 18.851 92.7222 18.767 92.7222 18.662V18.62C92.7222 18.473 92.7432 18.41 92.8482 18.305L94.4862 16.436C94.6122 16.31 94.7382 16.226 94.9692 16.226H95.5782C95.7462 16.226 95.8092 16.31 95.8092 16.415V16.478C95.8092 16.604 95.7672 16.688 95.6622 16.793L93.8562 18.641C93.7092 18.809 93.5622 18.851 93.3102 18.851H92.9322ZM106.932 35C106.533 35 106.302 34.769 106.302 34.37V20.909C106.302 20.531 106.533 20.3 106.932 20.3H114.639C114.87 20.3 115.017 20.447 115.017 20.657V20.993C115.017 21.203 114.87 21.35 114.639 21.35H107.562V26.999H113.547C113.841 26.999 114.051 27.188 114.051 27.461V27.566C114.051 27.839 113.841 28.049 113.547 28.049H107.562V33.95H114.639C114.87 33.95 115.017 34.076 115.017 34.307V34.622C115.017 34.853 114.87 35 114.639 35H106.932ZM118.458 35C118.059 35 117.828 34.769 117.828 34.37V20.678C117.828 20.447 117.975 20.3 118.206 20.3H118.689C118.941 20.3 119.088 20.447 119.088 20.678V33.95H125.808C126.06 33.95 126.207 34.076 126.207 34.307V34.622C126.207 34.853 126.06 35 125.808 35H118.458ZM136.705 35.105C136.327 35.105 136.138 34.958 135.991 34.517L131.539 21.077C131.455 20.846 131.434 20.72 131.434 20.636C131.434 20.426 131.56 20.3 131.833 20.3H132.19C132.526 20.3 132.61 20.384 132.736 20.741L137.02 33.95L141.304 20.741C141.409 20.384 141.514 20.3 141.829 20.3H142.144C142.417 20.3 142.543 20.426 142.543 20.636C142.543 20.72 142.522 20.846 142.438 21.077L138.007 34.517C137.86 34.958 137.671 35.105 137.293 35.105H136.705ZM145.791 35C145.56 35 145.413 34.853 145.413 34.622V20.678C145.413 20.447 145.56 20.3 145.791 20.3H146.274C146.526 20.3 146.673 20.447 146.673 20.678V34.622C146.673 34.853 146.526 35 146.274 35H145.791ZM151.516 35C151.117 35 150.886 34.769 150.886 34.37V20.909C150.886 20.531 151.117 20.3 151.516 20.3H154.855C158.845 20.3 160.945 21.917 160.945 25.97V29.33C160.945 33.383 158.845 35 154.855 35H151.516ZM152.146 33.95H154.876C158.068 33.95 159.664 32.711 159.664 29.351V25.928C159.664 22.568 158.068 21.35 154.876 21.35H152.146V33.95ZM165.277 35C164.878 35 164.647 34.769 164.647 34.37V20.909C164.647 20.531 164.878 20.3 165.277 20.3H172.984C173.215 20.3 173.362 20.447 173.362 20.657V20.993C173.362 21.203 173.215 21.35 172.984 21.35H165.907V26.999H171.892C172.186 26.999 172.396 27.188 172.396 27.461V27.566C172.396 27.839 172.186 28.049 171.892 28.049H165.907V33.95H172.984C173.215 33.95 173.362 34.076 173.362 34.307V34.622C173.362 34.853 173.215 35 172.984 35H165.277ZM180.88 20.09C184.156 20.09 186.151 21.77 186.151 24.941V30.359C186.151 33.53 184.156 35.21 180.88 35.21C177.604 35.21 175.588 33.53 175.588 30.359V24.941C175.588 21.77 177.604 20.09 180.88 20.09ZM176.869 30.401C176.869 32.879 178.297 34.181 180.88 34.181C183.442 34.181 184.87 32.879 184.87 30.401V24.878C184.87 22.421 183.442 21.098 180.88 21.098C178.297 21.098 176.869 22.421 176.869 24.878V30.401Z" fill="#F2F2F2"/>
<path d="M23.5 47.8203C20.7786 47.8203 18.2135 47.2995 15.8047 46.2578C13.4089 45.2161 11.293 43.7773 9.45703 41.9414C7.62109 40.1055 6.18229 37.9896 5.14062 35.5938C4.09896 33.1849 3.57812 30.6198 3.57812 27.8984C3.57812 25.1771 4.09896 22.6185 5.14062 20.2227C6.18229 17.8138 7.61458 15.6914 9.4375 13.8555C11.2734 12.0195 13.3893 10.5807 15.7852 9.53906C18.194 8.4974 20.7591 7.97656 23.4805 7.97656C26.2018 7.97656 28.7669 8.4974 31.1758 9.53906C33.5846 10.5807 35.707 12.0195 37.543 13.8555C39.3789 15.6914 40.8177 17.8138 41.8594 20.2227C42.901 22.6185 43.4219 25.1771 43.4219 27.8984C43.4219 30.6198 42.901 33.1849 41.8594 35.5938C40.8177 37.9896 39.3789 40.1055 37.543 41.9414C35.707 43.7773 33.5846 45.2161 31.1758 46.2578C28.7799 47.2995 26.2214 47.8203 23.5 47.8203ZM23.5 44.5C25.8047 44.5 27.9596 44.0703 29.9648 43.2109C31.9701 42.3516 33.7344 41.1667 35.2578 39.6562C36.7812 38.1328 37.9661 36.3685 38.8125 34.3633C39.6719 32.3581 40.1016 30.2031 40.1016 27.8984C40.1016 25.5938 39.6719 23.4388 38.8125 21.4336C37.9531 19.4284 36.7617 17.6641 35.2383 16.1406C33.7279 14.6172 31.9635 13.4323 29.9453 12.5859C27.9401 11.7266 25.7852 11.2969 23.4805 11.2969C21.1758 11.2969 19.0208 11.7266 17.0156 12.5859C15.0104 13.4323 13.2526 14.6172 11.7422 16.1406C10.2318 17.6641 9.04688 19.4284 8.1875 21.4336C7.34115 23.4388 6.91797 25.5938 6.91797 27.8984C6.91797 30.2031 7.34115 32.3581 8.1875 34.3633C9.04688 36.3685 10.2318 38.1328 11.7422 39.6562C13.2656 41.1667 15.0299 42.3516 17.0352 43.2109C19.0404 44.0703 21.1953 44.5 23.5 44.5ZM19.8477 35.5352C19.5482 35.7174 19.2487 35.7956 18.9492 35.7695C18.6497 35.7435 18.3958 35.6393 18.1875 35.457C17.9922 35.2617 17.8945 35.0078 17.8945 34.6953V21.1211C17.8945 20.8086 17.9987 20.5612 18.207 20.3789C18.4154 20.1966 18.6693 20.099 18.9688 20.0859C19.2812 20.0599 19.5742 20.125 19.8477 20.2812L30.9805 26.8828C31.2409 27.0391 31.4167 27.2539 31.5078 27.5273C31.599 27.7878 31.599 28.0547 31.5078 28.3281C31.4297 28.5885 31.2539 28.8034 30.9805 28.9727L19.8477 35.5352Z" fill="white"/>
</svg>
