<?xml version="1.0" standalone="no"?>
<!DOCTYPE svg PUBLIC "-//W3C//DTD SVG 1.1//EN" "http://www.w3.org/Graphics/SVG/1.1/DTD/svg11.dtd" >
<svg xmlns="http://www.w3.org/2000/svg" xmlns:xlink="http://www.w3.org/1999/xlink" version="1.1">
<metadata>
Created by FontForge 20200511 at Tue Sep 12 00:36:03 2023
 By convertio
Copyright (c)2019 XYZ Type LLC. All Rights Reserved. |DCNT
</metadata>
<defs>
<font id="AgletSans-Bold" horiz-adv-x="1228" >
  <font-face 
    font-family="Aglet Sans"
    font-weight="700"
    font-stretch="normal"
    units-per-em="2048"
    panose-1="2 15 8 3 3 2 2 4 2 3"
    ascent="1456"
    descent="-592"
    x-height="1042"
    cap-height="1434"
    bbox="-346 -436 2378 1939"
    underline-thickness="0"
    underline-position="0"
    unicode-range="U+0020-1F504"
  />
<missing-glyph 
d="M975 -205h-721q-68 0 -99.5 31.5t-31.5 99.5v1377q0 67 31.5 99t99.5 32h721q67 0 99 -32t32 -99v-1377q0 -68 -32 -99.5t-99 -31.5zM883 1235h-537v-1241h537v1241z" />
    <glyph glyph-name="fi" unicode="fi" horiz-adv-x="1390" 
d="M1087 1147h-147q-49 0 -75.5 25.5t-26.5 72.5v92q0 101 102 101h147q103 0 103 -101v-92q0 -47 -26.5 -72.5t-76.5 -25.5zM451 0h-179q-35 0 -55 20.5t-20 55.5v723h-107q-25 0 -40 15t-15 38v137q0 23 15 38t40 15h107v105q0 152 71 219.5t230 67.5h131q49 0 71.5 -19.5
t22.5 -62.5v-78q0 -35 -21 -54.5t-59 -19.5h-76q-27 0 -39 -11.5t-12 -39.5v-107h582q50 0 73 -23t23 -73v-645q0 -29 11.5 -41t37.5 -12h66q25 0 39 -14t14 -39v-123q0 -72 -74 -72h-123q-162 0 -231.5 62.5t-69.5 211.5v531h-338v-729q0 -35 -20 -55.5t-55 -20.5z" />
    <glyph glyph-name="f_f" unicode="ff" horiz-adv-x="1417" 
d="M451 0h-179q-35 0 -55 20.5t-20 55.5v723h-107q-25 0 -40 15t-15 38v137q0 23 15 38t40 15h107v105q0 152 71 219.5t230 67.5h137q50 0 73 -19.5t23 -62.5v-78q0 -35 -22 -54.5t-60 -19.5h-82q-27 0 -39 -11.5t-12 -39.5v-107h350v105q0 152 71 219.5t230 67.5h138
q50 0 73 -19.5t23 -62.5v-78q0 -35 -21.5 -54.5t-58.5 -19.5h-84q-27 0 -39 -11.5t-12 -39.5v-107h160q25 0 40 -15t15 -38v-137q0 -23 -15 -38t-40 -15h-148v-723q0 -35 -20.5 -55.5t-55.5 -20.5h-180q-35 0 -55.5 20.5t-20.5 55.5v729h-340v-729q0 -35 -20 -55.5
t-55 -20.5z" />
    <glyph glyph-name="f_j" unicode="fj" horiz-adv-x="1320" 
d="M1087 1147h-147q-49 0 -75.5 25.5t-26.5 72.5v92q0 101 102 101h147q103 0 103 -101v-92q0 -47 -26.5 -72.5t-76.5 -25.5zM891 -410h-121q-98 0 -98 82v97q0 31 19 49t54 18h70q29 0 40 11t11 42v916h-340v-729q0 -35 -20 -55.5t-55 -20.5h-179q-35 0 -55 20.5t-20 55.5
v723h-107q-25 0 -40 15t-15 38v137q0 23 15 38t40 15h107v105q0 152 71 219.5t230 67.5h131q49 0 71.5 -19.5t22.5 -62.5v-78q0 -35 -21 -54.5t-59 -19.5h-76q-27 0 -39 -11.5t-12 -39.5v-107h586q50 0 73 -23t23 -73v-1067q0 -152 -73 -220.5t-234 -68.5z" />
    <glyph glyph-name="f_t" unicode="ft" horiz-adv-x="1447" 
d="M451 0h-179q-35 0 -55 20.5t-20 55.5v723h-107q-25 0 -40 15t-15 38v137q0 23 15 38t40 15h107v105q0 152 71 219.5t230 67.5h131q49 0 71.5 -19.5t22.5 -62.5v-78q0 -35 -21 -54.5t-59 -19.5h-76q-27 0 -39 -11.5t-12 -39.5v-107h348v164q0 54 30 84.5t81 30.5h106
q51 0 81 -30.5t30 -84.5v-164h166q25 0 40 -15t15 -38v-137q0 -23 -15 -38t-40 -15h-164v-471q0 -41 17.5 -58.5t58.5 -17.5h88q25 0 40 -15t15 -40v-134q0 -63 -59 -63h-152q-183 0 -260.5 71t-77.5 238v496h-338v-729q0 -35 -20 -55.5t-55 -20.5z" />
    <glyph glyph-name="f_f_i" unicode="ffi" horiz-adv-x="2060" 
d="M1757 1147h-147q-50 0 -76.5 25.5t-26.5 72.5v92q0 101 103 101h147q103 0 103 -101v-92q0 -47 -26.5 -72.5t-76.5 -25.5zM451 0h-179q-35 0 -55 20.5t-20 55.5v723h-107q-25 0 -40 15t-15 38v137q0 23 15 38t40 15h107v105q0 152 71 219.5t230 67.5h137q50 0 73 -19.5
t23 -62.5v-78q0 -35 -22 -54.5t-60 -19.5h-82q-27 0 -39 -11.5t-12 -39.5v-107h350v105q0 152 71 219.5t230 67.5h131q50 0 73.5 -19.5t23.5 -62.5v-78q0 -35 -22 -54.5t-60 -19.5h-76q-27 0 -39 -11.5t-12 -39.5v-107h583q97 0 97 -96v-645q0 -29 10.5 -41t36.5 -12h65
q25 0 39.5 -14t14.5 -39v-123q0 -72 -74 -72h-123q-162 0 -231.5 62.5t-69.5 211.5v531h-336v-729q0 -35 -20.5 -55.5t-55.5 -20.5h-180q-35 0 -55.5 20.5t-20.5 55.5v729h-340v-729q0 -35 -20 -55.5t-55 -20.5z" />
    <glyph glyph-name=".notdef" 
d="M975 -205h-721q-68 0 -99.5 31.5t-31.5 99.5v1377q0 67 31.5 99t99.5 32h721q67 0 99 -32t32 -99v-1377q0 -68 -32 -99.5t-99 -31.5zM883 1235h-537v-1241h537v1241z" />
    <glyph glyph-name=".null" horiz-adv-x="0" 
 />
    <glyph glyph-name="nonmarkingreturn" horiz-adv-x="682" 
 />
    <glyph glyph-name="space" unicode=" " horiz-adv-x="382" 
 />
    <glyph glyph-name="exclam" unicode="!" horiz-adv-x="557" 
d="M285 414h-15q-67 0 -106 41.5t-39 113.5v797q0 36 17.5 52t56.5 16h157q76 0 76 -68v-797q0 -72 -39.5 -113.5t-107.5 -41.5zM109 106v103q0 117 116 117h105q116 0 116 -117v-103q0 -116 -116 -116h-105q-116 0 -116 116z" />
    <glyph glyph-name="quotedbl" unicode="&#x22;" horiz-adv-x="931" 
d="M254 752q-69 0 -107 38t-38 107v416q0 69 38 107t107 38t107 -38t38 -107v-416q0 -69 -38 -107t-107 -38zM676 752q-69 0 -107.5 38t-38.5 107v416q0 69 38.5 107t107.5 38t107 -38t38 -107v-416q0 -69 -38 -107t-107 -38z" />
    <glyph glyph-name="numbersign" unicode="#" 
d="M1026 313h-121l-37 -231q-8 -51 -39.5 -81t-78.5 -30q-68 0 -100.5 38t-22.5 104l30 200h-204l-37 -231q-8 -51 -40 -81t-79 -30q-68 0 -100.5 38t-22.5 104l31 200h-70q-47 0 -77.5 31t-30.5 78v10q0 47 30.5 78t77.5 31h107l47 311h-86q-47 0 -78 31t-31 78v10
q0 47 31 77.5t78 30.5h121l36 232q7 51 39.5 80.5t79.5 29.5q68 0 100.5 -37.5t22.5 -103.5l-31 -201h205l37 232q7 51 39.5 80.5t79.5 29.5q68 0 100.5 -37.5t22.5 -103.5l-31 -201h70q47 0 77.5 -30.5t30.5 -77.5v-10q0 -47 -30.5 -78t-77.5 -31h-107l-47 -311h86
q47 0 78 -31t31 -78v-10q0 -47 -31 -78t-78 -31zM743 864h-206l-52 -336h207z" />
    <glyph glyph-name="dollar" unicode="$" 
d="M745 37v-141q0 -60 -35 -96t-92 -36h-10q-57 0 -92 36t-35 96v139q-383 40 -383 346v37q0 49 49 49h213q46 0 46 -45v-35q0 -73 47.5 -105t156.5 -32t158 32.5t49 104.5v31q0 50 -23.5 74t-88.5 36l-285 56q-176 35 -248 113.5t-72 234.5v37q0 165 97.5 263.5
t283.5 123.5v121q0 60 35 95.5t92 35.5h10q57 0 92 -35.5t35 -95.5v-119q187 -23 279 -108t92 -236v-31q0 -51 -47 -51h-211q-49 0 -49 47v29q0 73 -45 104t-150 31q-106 0 -152 -32t-46 -105v-29q0 -51 22.5 -74t87.5 -35l287 -57q178 -35 250 -113.5t72 -232.5v-39
q0 -166 -99.5 -265t-290.5 -124z" />
    <glyph glyph-name="percent" unicode="%" 
d="M313 760q-129 0 -202.5 65.5t-73.5 180.5v153q0 117 72.5 181.5t203.5 64.5t204 -64.5t73 -181.5v-153q0 -115 -74 -180.5t-203 -65.5zM1104 1264l-840 -1233q-25 -32 -57 -39.5t-64 12.5t-37.5 55.5t19.5 67.5l840 1233q23 34 55.5 40.5t64.5 -14.5q32 -20 38 -55
t-19 -67zM248 1184v-201q0 -70 65 -70q68 0 68 70v201q0 69 -68 69q-65 0 -65 -69zM915 -14q-129 0 -202.5 65t-73.5 180v154q0 117 72.5 181.5t203.5 64.5t204 -64.5t73 -181.5v-154q0 -115 -74 -180t-203 -65zM915 137q66 0 66 72v199q0 71 -66 71q-67 0 -67 -71v-199
q0 -72 67 -72z" />
    <glyph glyph-name="ampersand" unicode="&#x26;" horiz-adv-x="1400" 
d="M549 -25q-235 0 -360.5 102t-125.5 292v53q0 127 69 218t192 128q-68 72 -95.5 137.5t-27.5 153.5v22q0 177 123 277t340 100q221 0 337.5 -92t116.5 -266v-58q0 -25 -15 -40t-40 -15h-201q-23 0 -37 14t-14 39v58q0 57 -37.5 88t-109.5 31q-69 0 -108.5 -31t-39.5 -88
v-19q0 -42 18.5 -76t63.5 -79l360 -349l86 144q20 35 45 49t68 14h111q39 0 61.5 -18t22.5 -53q0 -20 -7.5 -38.5t-35.5 -60.5l-142 -221l146 -139q51 -49 51.5 -113.5t-49.5 -111.5q-47 -47 -114 -46t-111 48l-121 123q-75 -92 -176 -134.5t-244 -42.5zM381 449v-56
q0 -176 182 -176q73 0 120 24.5t91 86.5l-274 268q-54 -11 -86.5 -50.5t-32.5 -96.5z" />
    <glyph glyph-name="quotesingle" unicode="'" horiz-adv-x="509" 
d="M254 752q-69 0 -107 38t-38 107v416q0 69 38 107t107 38t107 -38t38 -107v-416q0 -69 -38 -107t-107 -38z" />
    <glyph glyph-name="parenleft" unicode="(" horiz-adv-x="890" 
d="M766 -414h-115q-271 0 -394.5 128.5t-123.5 410.5v774q0 282 123.5 410.5t394.5 128.5h115q35 0 54.5 -18.5t19.5 -51.5v-86q0 -31 -19 -49.5t-51 -18.5h-86q-129 0 -187.5 -68.5t-58.5 -217.5v-830q0 -152 58.5 -220t187.5 -68h86q32 0 51 -18.5t19 -49.5v-86
q0 -33 -19.5 -51.5t-54.5 -18.5z" />
    <glyph glyph-name="parenright" unicode=")" horiz-adv-x="890" 
d="M758 899v-774q0 -282 -123.5 -410.5t-394.5 -128.5h-115q-35 0 -54.5 18.5t-19.5 51.5v86q0 31 19 49.5t51 18.5h86q129 0 187.5 68t58.5 220v828q0 152 -58.5 220t-187.5 68h-86q-32 0 -51 18.5t-19 49.5v86q0 33 19.5 51.5t54.5 18.5h115q271 0 394.5 -128.5
t123.5 -410.5z" />
    <glyph glyph-name="asterisk" unicode="*" horiz-adv-x="878" 
d="M674 760q-37 -27 -77 -22t-65 40l-83 119l-87 -119q-26 -35 -65 -39.5t-76 21.5q-38 29 -44 66.5t20 74.5l84 117l-138 45q-42 13 -59.5 48.5t-3.5 80.5q12 42 48 60.5t79 4.5l137 -45v146q0 44 29 72t76 28t74.5 -27.5t27.5 -72.5v-146l137 45q43 14 78.5 -4t48.5 -61
q14 -45 -3.5 -80.5t-59.5 -48.5l-140 -45l86 -117q26 -37 20 -74.5t-44 -66.5z" />
    <glyph glyph-name="plus" unicode="+" 
d="M1008 565h-256v-272q0 -56 -33.5 -90.5t-87.5 -34.5h-33q-54 0 -87.5 34.5t-33.5 90.5v272h-256q-54 0 -86.5 31.5t-32.5 85.5v23q0 54 32.5 85t86.5 31h256v275q0 56 33.5 90.5t87.5 34.5h33q54 0 87.5 -34.5t33.5 -90.5v-275h256q54 0 86 -31.5t32 -82.5v-25
q0 -52 -32.5 -84.5t-85.5 -32.5z" />
    <glyph glyph-name="comma" unicode="," horiz-adv-x="532" 
d="M391 -109l-92 -161q-34 -58 -86 -58q-64 0 -89 47t9 109l98 176h-34q-111 0 -111 111v121q0 61 30.5 89.5t94.5 28.5h111q127 0 127 -118v-146q0 -97 -58 -199z" />
    <glyph glyph-name="hyphen" unicode="-" horiz-adv-x="690" 
d="M520 475h-350q-54 0 -86.5 32t-32.5 83v43q0 54 32.5 85.5t86.5 31.5h350q54 0 86.5 -31.5t32.5 -85.5v-41q0 -54 -32.5 -85.5t-86.5 -31.5z" />
    <glyph glyph-name="period" unicode="." horiz-adv-x="532" 
d="M86 109v127q0 61 30.5 89.5t94.5 28.5h111q127 0 127 -118v-127q0 -119 -127 -119h-111q-125 0 -125 119z" />
    <glyph glyph-name="slash" unicode="/" horiz-adv-x="774" 
d="M737 1307l-442 -1260q-20 -56 -63 -78.5t-97 -5.5q-56 17 -77 62t-1 102l443 1259q20 56 62.5 78.5t96.5 5.5q56 -17 77 -61.5t1 -101.5z" />
    <glyph glyph-name="zero" unicode="0" horiz-adv-x="1314" 
d="M657 -25q-264 0 -410.5 125.5t-146.5 352.5v487q0 227 146.5 352t410.5 125t410.5 -125t146.5 -352v-487q0 -226 -147 -352t-410 -126zM657 223q220 0 220 213v522q0 211 -220 211q-219 0 -219 -211v-522q0 -213 219 -213z" />
    <glyph glyph-name="one" unicode="1" horiz-adv-x="827" 
d="M653 1290v-1212q0 -35 -21.5 -56.5t-56.5 -21.5h-180q-35 0 -55.5 21.5t-20.5 56.5v966l-69 -30q-47 -23 -92 -23q-49 0 -78 31.5t-29 85.5v37q0 51 21 82.5t71 54.5l172 78q56 26 92.5 34.5t86.5 8.5h47q54 0 83 -29.5t29 -83.5z" />
    <glyph glyph-name="two" unicode="2" horiz-adv-x="1140" 
d="M944 0h-751q-57 0 -89 33t-32 90v239q0 162 75.5 253.5t245.5 134.5l213 53q78 20 107.5 55t29.5 105v65q0 146 -178 146q-86 0 -130 -36.5t-44 -105.5v-61q0 -53 -49 -53h-219q-23 0 -37 15t-14 40v61q0 186 126 284.5t367 98.5q250 0 379 -104t129 -303v-58
q0 -164 -77.5 -255.5t-254.5 -135.5l-217 -55q-76 -20 -102.5 -48t-26.5 -89v-90h549q57 0 92 -33.5t35 -87.5v-35q0 -55 -35 -89t-92 -34z" />
    <glyph glyph-name="three" unicode="3" horiz-adv-x="1198" 
d="M588 -25q-253 0 -386.5 97t-133.5 282v64q0 25 14 39t37 14h219q49 0 49 -51v-58q0 -147 199 -147q92 0 144 41.5t52 114.5v49q0 69 -48 109t-130 40h-100q-54 0 -87.5 32t-33.5 83v35q0 51 33.5 83t87.5 32h96q82 0 126 38t44 107v53q0 69 -49 107.5t-139 38.5
q-92 0 -141.5 -39t-49.5 -111v-47q0 -51 -49 -51h-219q-24 0 -37.5 15t-13.5 40v49q0 185 132 284t378 99q254 0 389 -98.5t135 -284.5v-30q0 -221 -219 -295q233 -74 233 -310v-34q0 -189 -137.5 -289.5t-394.5 -100.5z" />
    <glyph glyph-name="four" unicode="4" horiz-adv-x="1243" 
d="M627 1399h264q117 0 117 -115v-715h90q51 0 83.5 -31.5t32.5 -82.5v-39q0 -49 -32.5 -80t-83.5 -31h-90v-227q0 -35 -21.5 -56.5t-56.5 -21.5h-178q-35 0 -55.5 21.5t-20.5 56.5v227h-516q-125 0 -125 121v82q0 79 41 141l409 660q30 49 63.5 69.5t78.5 20.5zM678 1161
l-356 -602h356v602z" />
    <glyph glyph-name="five" unicode="5" horiz-adv-x="1163" 
d="M582 -25q-245 0 -373.5 95.5t-128.5 275.5v25q0 55 51 55h219q49 0 49 -51v-25q0 -135 185 -135q92 0 140 45t48 133v107q0 176 -190 176q-118 0 -181 -82q-19 -26 -38.5 -35.5t-57.5 -9.5h-131q-99 0 -90 100l76 668q4 37 26.5 56.5t59.5 19.5h676q55 0 88.5 -32.5
t33.5 -86.5v-43q0 -52 -33.5 -84.5t-88.5 -32.5h-496l-31 -289q107 82 269 82q209 0 326.5 -109t117.5 -304v-86q0 -433 -526 -433z" />
    <glyph glyph-name="six" unicode="6" horiz-adv-x="1243" 
d="M629 -25q-251 0 -390 118t-139 331v539q0 215 139 334.5t390 119.5q508 0 508 -393v-27q0 -47 -47 -47h-226q-43 0 -43 45v23q0 158 -190 158q-92 0 -142.5 -47.5t-50.5 -135.5v-221q116 80 283 80q207 0 323.5 -104.5t116.5 -290.5v-45q0 -207 -139.5 -322t-392.5 -115z
M635 215q94 0 144 47t50 137v58q0 178 -194 178q-97 0 -147 -45t-50 -133v-58q0 -91 50 -137.5t147 -46.5z" />
    <glyph glyph-name="seven" unicode="7" horiz-adv-x="1062" 
d="M152 1393h710q156 0 156 -142v-45q0 -69 -37 -147l-430 -987q-26 -61 -84 -85t-121 1t-87 84.5t5 122.5l410 909h-522q-51 0 -83 30.5t-32 79.5v66q0 52 30.5 82.5t84.5 30.5z" />
    <glyph glyph-name="eight" unicode="8" horiz-adv-x="1230" 
d="M614 -25q-258 0 -396 100.5t-138 289.5v41q0 218 219 301q-207 73 -207 286v45q0 183 135 281t387 98q253 0 389 -98t136 -281v-45q0 -212 -209 -286q221 -83 221 -301v-41q0 -189 -139 -289.5t-398 -100.5zM614 1180q-92 0 -140 -39t-48 -111v-63q0 -73 48.5 -112.5
t139.5 -39.5q92 0 141.5 39.5t49.5 112.5v63q0 73 -49 111.5t-142 38.5zM614 213q94 0 147.5 41.5t53.5 114.5v63q0 73 -53.5 114.5t-147.5 41.5t-147 -41.5t-53 -114.5v-63q0 -73 53 -114.5t147 -41.5z" />
    <glyph glyph-name="nine" unicode="9" horiz-adv-x="1243" 
d="M614 1417q250 0 389.5 -123t139.5 -340v-532q0 -211 -139.5 -329t-391.5 -118q-508 0 -508 381v19q0 47 48 47h225q45 0 45 -45v-12q0 -72 48 -110t140 -38q94 0 144.5 45t50.5 129v195q-116 -80 -283 -80q-209 0 -324.5 104.5t-115.5 290.5v66q0 214 140 332t392 118z
M610 1178q-97 0 -146.5 -50t-49.5 -147v-82q0 -86 49.5 -131t146.5 -45q195 0 195 176v82q0 197 -195 197z" />
    <glyph glyph-name="colon" unicode=":" horiz-adv-x="563" 
d="M336 600h-109q-125 0 -125 119v121q0 121 125 121h109q125 0 125 -121v-121q0 -119 -125 -119zM336 -10h-109q-125 0 -125 119v122q0 119 125 119h109q125 0 125 -119v-122q0 -119 -125 -119z" />
    <glyph glyph-name="semicolon" unicode=";" horiz-adv-x="563" 
d="M102 719v121q0 121 125 121h109q125 0 125 -121v-121q0 -119 -125 -119h-109q-125 0 -125 119zM406 -113l-91 -157q-34 -58 -86 -58q-62 0 -86.5 47t9.5 109l96 176h-33q-113 0 -113 111v116q0 119 125 119h109q125 0 125 -119v-141q0 -107 -55 -203z" />
    <glyph glyph-name="less" unicode="&#x3c;" 
d="M1018 240q-31 -49 -82 -60.5t-102 19.5l-570 350q-92 54 -92 139v14q0 44 21.5 76.5t70.5 63.5l570 350q51 31 102 19.5t82 -60.5q31 -50 17.5 -100.5t-64.5 -81.5l-467 -275l467 -274q51 -31 64.5 -80.5t-17.5 -99.5z" />
    <glyph glyph-name="equal" unicode="=" 
d="M987 805h-745q-54 0 -86.5 32t-32.5 83v22q0 52 32.5 84.5t86.5 32.5h745q54 0 86.5 -32t32.5 -83v-22q0 -54 -32.5 -85.5t-86.5 -31.5zM987 330h-745q-54 0 -86.5 31.5t-32.5 82.5v23q0 51 32.5 84t86.5 33h745q54 0 86.5 -32t32.5 -83v-23q0 -54 -32.5 -85t-86.5 -31z
" />
    <glyph glyph-name="greater" unicode="&#x3e;" 
d="M975 549l-569 -350q-51 -31 -102.5 -19.5t-82.5 60.5q-31 50 -17.5 99.5t64.5 80.5l467 274l-467 275q-51 31 -64.5 81.5t17.5 100.5q31 49 82.5 60.5t102.5 -19.5l569 -350q92 -54 92 -140v-14q0 -44 -21 -76t-71 -63z" />
    <glyph glyph-name="question" unicode="?" horiz-adv-x="1079" 
d="M680 596v-37q0 -66 -37.5 -105.5t-103.5 -39.5h-17q-66 0 -105.5 40t-39.5 107v137q0 107 106 107h62q78 0 112.5 39.5t34.5 130.5v98q0 82 -39.5 121t-124.5 39q-86 0 -123.5 -35t-37.5 -115v-47q0 -32 -18 -49.5t-50 -17.5h-178q-31 0 -48.5 18.5t-17.5 50.5v52
q0 178 122 273t351 95q239 0 364.5 -101.5t125.5 -293.5v-84q0 -177 -83.5 -271.5t-254.5 -111.5zM362 106v103q0 117 117 117h105q116 0 116 -117v-103q0 -116 -116 -116h-105q-117 0 -117 116z" />
    <glyph glyph-name="at" unicode="@" horiz-adv-x="1835" 
d="M1395 -178v-31q0 -33 -20.5 -52.5t-55.5 -19.5h-475q-362 0 -553 164.5t-191 476.5v467q0 313 213.5 482.5t608.5 169.5q393 0 603 -162.5t210 -468.5v-414q0 -148 -89.5 -229.5t-250.5 -81.5q-198 0 -277 127q-89 -131 -270 -131q-168 0 -271.5 98.5t-103.5 263.5v219
q0 162 102 261q103 100 269 100q165 0 250 -111q6 51 37.5 80t82.5 29h11q55 0 89 -33.5t34 -89.5v-502q0 -54 21.5 -78t68.5 -24q49 0 70.5 24t21.5 78v414q0 227 -153.5 343t-454.5 116q-305 0 -461 -122t-156 -358v-467q0 -234 133.5 -349t405.5 -115h477
q35 0 54.5 -20.5t19.5 -53.5zM911 330q131 0 131 125v270q0 129 -131 129q-66 0 -97.5 -31.5t-31.5 -97.5v-270q0 -125 129 -125z" />
    <glyph glyph-name="A" unicode="A" horiz-adv-x="1353" 
d="M256 0h-125q-41 0 -63.5 21t-22.5 59q0 22 18 88l338 1128q23 80 61 111t111 31h207q73 0 111 -31t61 -111l338 -1128q19 -69 19 -88q0 -38 -22.5 -59t-63.5 -21h-146q-41 0 -64.5 19t-35.5 63l-80 283h-459l-82 -283q-12 -44 -35.5 -63t-64.5 -19zM827 627l-159 567
l-160 -567h319z" />
    <glyph glyph-name="B" unicode="B" horiz-adv-x="1366" 
d="M768 0h-504q-54 0 -85.5 31.5t-31.5 85.5v1200q0 54 31.5 85.5t85.5 31.5h486q253 0 377 -90t124 -275v-59q0 -199 -190 -277q104 -37 158.5 -111t54.5 -178v-69q0 -375 -506 -375zM737 1188h-252v-344h252q92 0 135 34.5t43 108.5v53q0 75 -43 111.5t-135 36.5zM756 606
h-271v-360h271q94 0 138 35.5t44 113.5v62q0 78 -44 113.5t-138 35.5z" />
    <glyph glyph-name="C" unicode="C" horiz-adv-x="1337" 
d="M686 -25q-275 0 -425 130t-150 368v488q0 238 150 367.5t425 129.5q272 0 411.5 -114.5t139.5 -337.5v-64q0 -59 -55 -59h-215q-26 0 -41 15.5t-15 41.5v57q0 109 -53 157t-174 48q-113 0 -171 -56t-58 -165v-528q0 -109 58.5 -165.5t170.5 -56.5q121 0 174 48t53 157v74
q0 26 15 41.5t41 15.5h215q55 0 55 -59v-80q0 -223 -140 -338t-411 -115z" />
    <glyph glyph-name="D" unicode="D" horiz-adv-x="1406" 
d="M657 0h-393q-54 0 -85.5 31.5t-31.5 85.5v1200q0 54 31.5 85.5t85.5 31.5h393q313 0 476 -140t163 -409v-336q0 -269 -163 -409t-476 -140zM664 1178h-179v-922h179q142 0 215 69.5t73 206.5v369q0 137 -73 207t-215 70z" />
    <glyph glyph-name="E" unicode="E" horiz-adv-x="1202" 
d="M1057 0h-793q-54 0 -85.5 31.5t-31.5 85.5v1200q0 54 31.5 85.5t85.5 31.5h793q76 0 76 -76v-111q0 -76 -76 -76h-576v-309h426q63 0 99 -34.5t36 -94.5v-8q0 -60 -36 -94.5t-99 -34.5h-426v-334h576q76 0 76 -76v-110q0 -76 -76 -76z" />
    <glyph glyph-name="F" unicode="F" horiz-adv-x="1157" 
d="M401 0h-172q-37 0 -59.5 22.5t-22.5 59.5v1235q0 54 31.5 85.5t85.5 31.5h776q76 0 76 -76v-115q0 -76 -76 -76h-555v-344h433q64 0 100.5 -34t36.5 -95v-8q0 -61 -37 -96t-100 -35h-433v-473q0 -37 -23 -59.5t-61 -22.5z" />
    <glyph glyph-name="G" unicode="G" horiz-adv-x="1355" 
d="M698 -25q-278 0 -432.5 130.5t-154.5 365.5v490q0 235 152.5 366t428.5 131q264 0 407.5 -111.5t143.5 -318.5v-29q0 -23 -13 -37t-36 -14h-229q-23 0 -36.5 13t-13.5 36v25q0 94 -54 138t-169 44q-239 0 -239 -219v-530q0 -111 63 -169.5t184 -58.5q118 0 173 45t55 142
v96h-174q-43 0 -67.5 23.5t-24.5 64.5v84q0 41 24.5 65.5t67.5 24.5h399q92 0 92 -94v-268q0 -207 -143.5 -321t-403.5 -114z" />
    <glyph glyph-name="H" unicode="H" horiz-adv-x="1454" 
d="M401 0h-172q-37 0 -59.5 22.5t-22.5 59.5v1270q0 37 22.5 59.5t59.5 22.5h172q38 0 61 -22.5t23 -59.5v-484h484v484q0 37 23 59.5t61 22.5h172q37 0 59.5 -22.5t22.5 -59.5v-1270q0 -37 -22.5 -59.5t-59.5 -22.5h-172q-38 0 -61 22.5t-23 59.5v510h-484v-510
q0 -37 -23 -59.5t-61 -22.5z" />
    <glyph glyph-name="I" unicode="I" horiz-adv-x="649" 
d="M412 0h-174q-37 0 -59.5 22.5t-22.5 59.5v1270q0 37 22.5 59.5t59.5 22.5h174q37 0 59.5 -22.5t22.5 -59.5v-1270q0 -37 -22.5 -59.5t-59.5 -22.5z" />
    <glyph glyph-name="J" unicode="J" horiz-adv-x="1220" 
d="M573 -25q-246 0 -375.5 109t-129.5 313v86q0 74 40 115t113 41h21q72 0 111.5 -40.5t39.5 -113.5v-77q0 -170 178 -170q87 0 133 44t46 128v942q0 37 22 59.5t59 22.5h173q38 0 60.5 -22.5t22.5 -59.5v-942q0 -207 -134 -321t-380 -114z" />
    <glyph glyph-name="K" unicode="K" horiz-adv-x="1329" 
d="M401 0h-172q-37 0 -59.5 22.5t-22.5 59.5v1270q0 37 22.5 59.5t59.5 22.5h172q38 0 61 -22.5t23 -59.5v-1270q0 -37 -23 -59.5t-61 -22.5zM1198 4q-62 -35 -128.5 -16.5t-108.5 80.5l-336 507q-50 74 -50 156q0 79 48 150l321 485q25 37 52 52.5t65 15.5h139
q38 0 59 -19.5t21 -54.5q0 -39 -39 -98l-346 -508l360 -516q43 -61 26.5 -128.5t-83.5 -105.5z" />
    <glyph glyph-name="L" unicode="L" horiz-adv-x="1116" 
d="M1014 0h-750q-54 0 -85.5 31.5t-31.5 85.5v1235q0 37 22.5 59.5t59.5 22.5h172q38 0 61 -22.5t23 -59.5v-1086h529q76 0 76 -76v-114q0 -76 -76 -76z" />
    <glyph glyph-name="M" unicode="M" horiz-adv-x="1607" 
d="M369 0h-144q-35 0 -56.5 21.5t-21.5 58.5v1229q0 57 33.5 91t93.5 34h134q63 0 94.5 -19.5t60.5 -79.5l246 -493l246 493q29 60 59 79.5t96 19.5h123q57 0 92 -34t35 -91v-1229q0 -37 -21.5 -58.5t-58.5 -21.5h-141q-37 0 -58.5 21.5t-21.5 58.5v868l-248 -489
q-25 -47 -48.5 -64.5t-61.5 -17.5q-35 0 -59.5 18.5t-47.5 63.5l-245 485v-864q0 -37 -21.5 -58.5t-58.5 -21.5z" />
    <glyph glyph-name="N" unicode="N" horiz-adv-x="1443" 
d="M373 0h-148q-35 0 -56.5 21.5t-21.5 58.5v1229q0 60 33.5 92.5t93.5 32.5h129q61 0 94.5 -22.5t65.5 -84.5l428 -805v832q0 37 21.5 58.5t58.5 21.5h148q37 0 58 -21.5t21 -58.5v-1229q0 -57 -34 -91t-93 -34h-122q-61 0 -94.5 22t-65.5 84l-436 814v-840
q0 -37 -21.5 -58.5t-58.5 -21.5z" />
    <glyph glyph-name="O" unicode="O" horiz-adv-x="1402" 
d="M700 1458q281 0 436.5 -131t155.5 -366v-488q0 -235 -155.5 -366.5t-436.5 -131.5q-278 0 -433.5 131.5t-155.5 366.5v488q0 235 155.5 366t433.5 131zM455 979v-524q0 -109 62 -166.5t183 -57.5t184.5 57.5t63.5 166.5v524q0 109 -63.5 166t-184.5 57t-183 -57t-62 -166
z" />
    <glyph glyph-name="P" unicode="P" horiz-adv-x="1306" 
d="M401 0h-172q-37 0 -59.5 22.5t-22.5 59.5v1221q0 60 36 95.5t96 35.5h423q269 0 402 -106.5t133 -323.5v-117q0 -217 -133 -323.5t-402 -106.5h-217v-375q0 -37 -23 -59.5t-61 -22.5zM690 1180h-205v-471h205q106 0 155.5 43t49.5 135v114q0 92 -49.5 135.5t-155.5 43.5z
" />
    <glyph glyph-name="Q" unicode="Q" horiz-adv-x="1402" 
d="M1120 -322q-60 -37 -125.5 -21.5t-103.5 75.5l-158 245h-33q-281 0 -435 130.5t-154 365.5v488q0 235 155.5 366t433.5 131q281 0 436.5 -131t155.5 -366v-488q0 -141 -59 -248t-172 -170l106 -147q42 -60 28.5 -126.5t-75.5 -103.5zM455 979v-524q0 -109 62 -166.5
t183 -57.5t184.5 57.5t63.5 166.5v524q0 109 -63.5 166t-184.5 57t-183 -57t-62 -166z" />
    <glyph glyph-name="R" unicode="R" horiz-adv-x="1351" 
d="M1184 8q-60 -38 -128.5 -23.5t-111.5 74.5l-303 426q-29 41 -40 69t-11 60v17q0 102 100 102h51q97 0 140 39t43 127v113q0 87 -44.5 127.5t-138.5 40.5h-256v-1098q0 -37 -23 -59.5t-61 -22.5h-172q-37 0 -59.5 22.5t-22.5 59.5v1221q0 60 36 95.5t96 35.5h477
q508 0 508 -410v-100q0 -294 -271 -367l238 -313q45 -60 32 -127.5t-79 -108.5z" />
    <glyph glyph-name="S" unicode="S" horiz-adv-x="1255" 
d="M625 -25q-283 0 -415 94.5t-132 297.5v53q0 25 14 39t37 14h219q49 0 49 -51v-47q0 -86 52 -122t174 -36q123 0 174 37t51 127v35q0 54 -28 81t-105 46l-303 67q-183 41 -256.5 125.5t-73.5 245.5v45q0 210 140.5 321t404.5 111q277 0 405.5 -94t128.5 -297v-45
q0 -55 -51 -55h-215q-51 0 -51 51v43q0 86 -49 121t-166 35q-121 0 -168 -36t-47 -128v-33q0 -54 29 -81t104 -46l301 -68q186 -43 258 -127q74 -83 74 -241v-47q0 -211 -142.5 -323t-412.5 -112z" />
    <glyph glyph-name="T" unicode="T" horiz-adv-x="1179" 
d="M676 0h-172q-38 0 -61 22.5t-23 59.5v1085h-322q-75 0 -75 76v115q0 76 75 76h983q76 0 76 -76v-115q0 -76 -76 -76h-323v-1085q0 -37 -22.5 -59.5t-59.5 -22.5z" />
    <glyph glyph-name="U" unicode="U" horiz-adv-x="1402" 
d="M700 -25q-270 0 -417.5 127.5t-147.5 362.5v887q0 37 22.5 59.5t59.5 22.5h170q37 0 59.5 -22.5t22.5 -59.5v-901q0 -104 59 -158.5t172 -54.5t172.5 54.5t59.5 158.5v901q0 37 23 59.5t61 22.5h168q38 0 61 -22.5t23 -59.5v-887q0 -235 -148 -362.5t-420 -127.5z" />
    <glyph glyph-name="V" unicode="V" horiz-adv-x="1331" 
d="M756 -4h-183q-72 0 -109.5 31t-60.5 110l-340 1129q-18 66 -18 88q0 38 22.5 59t63.5 21h152q41 0 64.5 -19t35.5 -63l295 -1026l293 1026q12 44 35.5 63t64.5 19h129q41 0 63.5 -21t22.5 -59q0 -22 -18 -88l-340 -1129q-23 -79 -60.5 -110t-111.5 -31z" />
    <glyph glyph-name="W" unicode="W" horiz-adv-x="1787" 
d="M592 -6h-189q-99 0 -120 121l-201 1179q-6 27 -6 58q0 82 80 82h127q83 0 98 -88l149 -955l207 823q19 73 49 102.5t86 29.5h60q55 0 85.5 -30t49.5 -102l207 -821l147 953q15 88 101 88h110q82 0 82 -82q0 -5 -4 -29.5t-4 -28.5l-199 -1179q-21 -121 -123 -121h-186
q-51 0 -81.5 31t-49.5 100l-172 686l-172 -686q-19 -69 -49.5 -100t-81.5 -31z" />
    <glyph glyph-name="X" unicode="X" horiz-adv-x="1308" 
d="M272 0h-139q-80 0 -80 72q0 39 35 96l346 555l-340 543q-35 55 -35 96q0 72 80 72h158q38 0 65 -15.5t50 -52.5l252 -422l251 422q23 37 50 52.5t65 15.5h139q82 0 82 -72q0 -32 -37 -96l-340 -543l347 -555q36 -63 36 -96q0 -72 -81 -72h-158q-38 0 -64 15.5t-49 52.5
l-260 432l-258 -432q-23 -37 -50 -52.5t-65 -15.5z" />
    <glyph glyph-name="Y" unicode="Y" horiz-adv-x="1263" 
d="M719 0h-174q-37 0 -59.5 22.5t-22.5 59.5v475l-404 707q-32 55 -32 96q0 35 22.5 54.5t63.5 19.5h151q39 0 63.5 -15.5t47.5 -56.5l266 -485l268 485q23 41 47.5 56.5t63.5 15.5h131q41 0 63.5 -19.5t22.5 -54.5q0 -39 -33 -96l-403 -707v-475q0 -37 -22.5 -59.5
t-59.5 -22.5z" />
    <glyph glyph-name="Z" unicode="Z" horiz-adv-x="1177" 
d="M1044 0h-851q-69 0 -101.5 31.5t-32.5 97.5v68q0 46 11 75t43 72l622 823h-590q-75 0 -75 76v115q0 76 75 76h830q69 0 101 -31.5t32 -97.5v-68q0 -46 -11 -76t-42 -74l-623 -821h612q76 0 76 -76v-114q0 -76 -76 -76z" />
    <glyph glyph-name="bracketleft" unicode="[" horiz-adv-x="890" 
d="M772 -410h-512q-100 0 -100 99v1646q0 99 100 99h512q32 0 50 -16.5t18 -47.5v-94q0 -29 -17.5 -46.5t-48.5 -17.5h-307v-1400h307q31 0 48.5 -17.5t17.5 -46.5v-92q0 -66 -68 -66z" />
    <glyph glyph-name="backslash" unicode="\" horiz-adv-x="774" 
d="M659 -37q-54 -17 -96.5 5.5t-62.5 78.5l-443 1260q-20 57 1 101.5t77 61.5q54 17 97 -5.5t63 -78.5l442 -1259q20 -57 -1 -102t-77 -62z" />
    <glyph glyph-name="bracketright" unicode="]" horiz-adv-x="890" 
d="M119 1434h512q100 0 100 -99v-1646q0 -99 -100 -99h-512q-32 0 -50 16.5t-18 47.5v94q0 29 17.5 46.5t48.5 17.5h307v1400h-307q-31 0 -48.5 17.5t-17.5 46.5v92q0 66 68 66z" />
    <glyph glyph-name="asciicircum" unicode="^" horiz-adv-x="958" 
d="M651 815l-168 395l-170 -395q-17 -39 -29.5 -49t-43.5 -10h-146q-31 0 -42 20t1 51l232 527q20 45 50.5 64.5t80.5 19.5h139q52 0 81.5 -18.5t49.5 -65.5l232 -527q13 -31 1.5 -51t-42.5 -20h-152q-31 0 -44 10.5t-30 48.5z" />
    <glyph glyph-name="underscore" unicode="_" horiz-adv-x="1024" 
d="M1026 -410h-1028q-32 0 -53 21t-21 53v84q0 32 21 53t53 21h1028q32 0 53 -20t21 -52v-86q0 -32 -21 -53t-53 -21z" />
    <glyph glyph-name="grave" unicode="`" horiz-adv-x="921" 
d="M641 1169h-117q-34 0 -56 7.5t-46 29.5l-148 127q-32 25 -32 60v10q0 37 41 37h174q30 0 46 -8t44 -39l112 -131q21 -24 21 -48v-8q0 -37 -39 -37z" />
    <glyph glyph-name="a" unicode="a" horiz-adv-x="1175" 
d="M469 -25q-189 0 -294 81t-105 227v26q0 155 102 231t313 76q121 0 215 -24v139q0 57 -34 83t-109 26q-141 0 -141 -88v-15q0 -39 -39 -39h-225q-43 0 -43 45v17q0 149 115.5 228t332.5 79q227 0 348 -88.5t121 -255.5v-414l68 -67q37 -37 38.5 -81t-34.5 -81l-64 -64
q-37 -36 -80 -34.5t-80 38.5l-90 91q-105 -136 -315 -136zM389 328v-21q0 -108 150 -108q72 0 116.5 35.5t44.5 91.5v92q-79 20 -153 20q-158 0 -158 -110z" />
    <glyph glyph-name="b" unicode="b" 
d="M698 -25q-190 0 -290 115q-11 -51 -46.5 -80.5t-89.5 -29.5h-10q-62 0 -100.5 39t-38.5 100v1214q0 54 32.5 86.5t86.5 32.5h94q54 0 86.5 -32.5t32.5 -86.5v-344q96 78 247 78q197 0 316 -119q121 -118 121 -311v-231q0 -194 -123 -314q-120 -117 -318 -117zM629 217
q86 0 131 42t45 124v283q0 165 -176 165q-85 0 -129.5 -42.5t-44.5 -122.5v-283q0 -80 45 -123t129 -43z" />
    <glyph glyph-name="c" unicode="c" horiz-adv-x="1153" 
d="M588 -25q-235 0 -366.5 110.5t-131.5 307.5v252q0 200 131.5 311t366.5 111q229 0 353 -91t124 -261v-39q0 -25 -15 -40t-40 -15h-209q-23 0 -37 14t-14 39v24q0 67 -38.5 98t-123.5 31t-124.5 -38.5t-39.5 -122.5v-291q0 -82 39.5 -120t124.5 -38t123.5 29.5t38.5 95.5
v33q0 25 14 39t37 14h209q25 0 40 -15t15 -40v-45q0 -170 -124 -261.5t-353 -91.5z" />
    <glyph glyph-name="d" unicode="d" horiz-adv-x="1255" 
d="M532 -25q-198 0 -321 117q-121 121 -121 314v237q0 194 119 307q120 117 315 117q160 0 246 -80v346q0 54 31.5 86.5t85.5 32.5h94q54 0 86.5 -32.5t32.5 -86.5v-1024l67 -67q37 -37 38.5 -81t-34.5 -81l-63 -64q-37 -36 -81 -34.5t-81 38.5l-94 95q-103 -140 -320 -140z
M596 217q84 0 129 43t45 123v283q0 80 -44.5 122.5t-129.5 42.5q-172 0 -172 -165v-283q0 -166 172 -166z" />
    <glyph glyph-name="e" unicode="e" horiz-adv-x="1165" 
d="M600 -25q-248 0 -379 102.5t-131 297.5v276q0 201 130 308.5t370 107.5q239 0 362 -102t123 -299v-146q0 -94 -90 -94h-567v-86q0 -78 42.5 -111.5t139.5 -33.5q152 0 152 90v8q0 19 7.5 27t26.5 8h236q39 0 39 -41v-17q0 -146 -117.5 -220.5t-343.5 -74.5zM588 852
q-170 0 -170 -150v-77h344v77q0 150 -174 150z" />
    <glyph glyph-name="f" unicode="f" horiz-adv-x="747" 
d="M451 0h-179q-35 0 -55 20.5t-20 55.5v723h-107q-25 0 -40 15t-15 38v137q0 23 15 38t40 15h107v105q0 152 71 219.5t230 67.5h137q50 0 73 -19.5t23 -62.5v-78q0 -35 -22 -54.5t-60 -19.5h-82q-27 0 -39 -11.5t-12 -39.5v-107h160q23 0 39 -15t16 -38v-137q0 -23 -16 -38
t-39 -15h-150v-723q0 -35 -20 -55.5t-55 -20.5z" />
    <glyph glyph-name="g" unicode="g" 
d="M596 -434q-485 0 -485 315v23q0 20 11.5 32.5t31.5 12.5h229q39 0 39 -39v-12q0 -107 174 -107q93 0 135.5 32.5t42.5 104.5v172q-90 -75 -248 -75q-199 0 -317 106q-119 107 -119 289v217q0 193 121 311q122 119 319 119q191 0 291 -115q11 52 46.5 81.5t88.5 29.5h11
q61 0 100 -38.5t39 -100.5v-963q0 -192 -131 -293.5t-379 -101.5zM600 252q86 0 130 39.5t44 114.5v256q0 80 -44.5 122.5t-129.5 42.5q-176 0 -176 -165v-256q0 -75 45 -114.5t131 -39.5z" />
    <glyph glyph-name="h" unicode="h" horiz-adv-x="1230" 
d="M379 0h-180q-35 0 -55.5 20.5t-20.5 55.5v1257q0 54 32.5 86.5t86.5 32.5h94q54 0 86.5 -32.5t32.5 -86.5v-356q96 90 258 90q186 0 294.5 -111.5t108.5 -306.5v-573q0 -35 -20.5 -55.5t-55.5 -20.5h-178q-35 0 -55.5 20.5t-20.5 55.5v569q0 82 -42 125t-123 43
q-82 0 -124 -43t-42 -125v-569q0 -35 -20.5 -55.5t-55.5 -20.5z" />
    <glyph glyph-name="i" unicode="i" horiz-adv-x="712" 
d="M406 1147h-150q-49 0 -75.5 25.5t-26.5 72.5v92q0 101 102 101h150q102 0 102 -101v-92q0 -47 -26.5 -72.5t-75.5 -25.5zM610 0h-123q-162 0 -231.5 62.5t-69.5 211.5v525h-100q-23 0 -38 14t-15 37v139q0 25 14 39t39 14h336q50 0 73 -23t23 -73v-645q0 -29 10.5 -41
t36.5 -12h66q25 0 39 -14t14 -39v-123q0 -72 -74 -72z" />
    <glyph glyph-name="j" unicode="j" horiz-adv-x="649" 
d="M414 1147h-150q-49 0 -75.5 25.5t-26.5 72.5v92q0 101 102 101h150q102 0 102 -101v-92q0 -47 -26.5 -72.5t-75.5 -25.5zM219 -410h-121q-98 0 -98 82v97q0 31 19.5 49t54.5 18h69q29 0 40.5 11t11.5 42v910h-101q-23 0 -38 14t-15 37v139q0 25 14 39t39 14h336
q50 0 73 -23t23 -73v-1067q0 -152 -73 -220.5t-234 -68.5z" />
    <glyph glyph-name="k" unicode="k" horiz-adv-x="1167" 
d="M379 0h-180q-35 0 -55.5 20.5t-20.5 55.5v1257q0 54 32.5 86.5t86.5 32.5h94q54 0 86.5 -32.5t32.5 -86.5v-1257q0 -35 -20.5 -55.5t-55.5 -20.5zM1038 4q-57 -35 -122.5 -19t-108.5 76l-225 314q-52 73 -52 153q0 81 50 152l211 295q29 38 54.5 52.5t63.5 14.5h129
q80 0 80 -71q0 -45 -41 -99l-229 -311l242 -325q44 -62 29 -128t-81 -104z" />
    <glyph glyph-name="l" unicode="l" horiz-adv-x="649" 
d="M547 0h-123q-162 0 -231.5 62.5t-69.5 211.5v1059q0 54 32.5 86.5t86.5 32.5h94q54 0 86.5 -32.5t32.5 -86.5v-1032q0 -29 10.5 -41t36.5 -12h65q25 0 39.5 -14t14.5 -39v-123q0 -72 -74 -72z" />
    <glyph glyph-name="m" unicode="m" horiz-adv-x="1875" 
d="M412 0h-179q-35 0 -55 20.5t-20 55.5v655l-68 70q-37 37 -38.5 81.5t34.5 80.5l64 61q37 37 80.5 36t80.5 -38l95 -96q97 141 301 141q110 0 195 -39t136 -113q47 74 127.5 113t184.5 39q195 0 305 -109t110 -301v-581q0 -35 -20 -55.5t-55 -20.5h-181q-35 0 -55 20.5
t-20 55.5v577q0 78 -39 119t-113 41q-156 0 -156 -160v-577q0 -35 -20 -55.5t-55 -20.5h-179q-35 0 -55 20.5t-20 55.5v577q0 78 -40 119t-114 41q-75 0 -115.5 -41t-40.5 -119v-577q0 -35 -20 -55.5t-55 -20.5z" />
    <glyph glyph-name="n" unicode="n" horiz-adv-x="1257" 
d="M412 0h-179q-35 0 -55 20.5t-20 55.5v655l-68 70q-37 37 -38.5 81.5t34.5 80.5l64 61q37 37 80.5 36t80.5 -38l97 -98q103 143 313 143q198 0 311 -111.5t113 -306.5v-573q0 -35 -20.5 -55.5t-55.5 -20.5h-178q-35 0 -55.5 20.5t-20.5 55.5v569q0 82 -41.5 125t-120.5 43
q-82 0 -124 -43t-42 -125v-569q0 -35 -20 -55.5t-55 -20.5z" />
    <glyph glyph-name="o" unicode="o" horiz-adv-x="1202" 
d="M602 -25q-246 0 -379 110.5t-133 313.5v244q0 202 134 313t376 111q246 0 380 -110.5t134 -313.5v-244q0 -203 -133 -313.5t-379 -110.5zM602 213q88 0 133 41t45 119v297q0 157 -180 157q-176 0 -176 -157v-297q0 -160 178 -160z" />
    <glyph glyph-name="p" unicode="p" horiz-adv-x="1255" 
d="M733 -25q-147 0 -246 80v-364q0 -54 -31 -86.5t-85 -32.5h-95q-54 0 -86 32.5t-32 86.5v1040l-68 70q-37 37 -38.5 81.5t34.5 80.5l64 61q37 37 80.5 36t80.5 -38l95 -96q101 141 319 141q200 0 319 -119q123 -117 123 -311v-240q0 -190 -120 -307q-121 -115 -314 -115z
M662 211q84 0 128 42t44 122v284q0 166 -172 166q-85 0 -130 -43t-45 -123v-284q0 -80 44.5 -122t130.5 -42z" />
    <glyph glyph-name="q" unicode="q" 
d="M987 -428h-94q-54 0 -86.5 32.5t-32.5 86.5v362q-96 -78 -248 -78q-197 0 -316.5 117.5t-119.5 313.5v231q0 193 121 311q122 119 319 119q191 0 291 -115q11 52 46.5 81.5t88.5 29.5h11q61 0 100 -38.5t39 -100.5v-1233q0 -54 -32.5 -86.5t-86.5 -32.5zM600 211
q86 0 130 42t44 122v284q0 80 -45 123t-129 43q-86 0 -131 -42t-45 -124v-284q0 -80 45 -122t131 -42z" />
    <glyph glyph-name="r" unicode="r" horiz-adv-x="841" 
d="M412 0h-179q-35 0 -55 20.5t-20 55.5v655l-68 70q-37 37 -38.5 81.5t34.5 80.5l64 61q37 37 80.5 36t80.5 -38l109 -109q76 142 227 142h27q68 0 104.5 -31t36.5 -88v-68q0 -54 -33 -84t-90 -30h-45q-160 0 -160 -168v-510q0 -35 -20 -55.5t-55 -20.5z" />
    <glyph glyph-name="s" unicode="s" horiz-adv-x="1079" 
d="M541 -25q-236 0 -349.5 73t-113.5 226v15q0 19 12 31t31 12h207q39 0 39 -39v-8q0 -49 40.5 -70.5t133.5 -21.5q164 0 164 96v18q0 36 -16.5 53t-57.5 21l-264 37q-160 23 -226.5 89t-66.5 204v16q0 164 120 252t343 88q229 0 339.5 -72.5t110.5 -224.5v-10
q0 -19 -12 -31t-31 -12h-205q-41 0 -41 37v8q0 47 -37.5 67.5t-123.5 20.5q-85 0 -122.5 -21.5t-37.5 -70.5v-17q0 -35 17 -52t59 -23l264 -37q159 -23 225 -88t66 -201v-23q0 -164 -122 -253t-345 -89z" />
    <glyph glyph-name="t" unicode="t" horiz-adv-x="776" 
d="M678 0h-152q-183 0 -260.5 71t-77.5 238v490h-106q-25 0 -40 15t-15 38v137q0 23 15 38t40 15h106v164q0 54 30 84.5t81 30.5h107q51 0 80.5 -30.5t29.5 -84.5v-164h166q25 0 40 -15t15 -38v-137q0 -23 -15 -38t-40 -15h-164v-471q0 -41 17.5 -58.5t58.5 -17.5h88
q25 0 40 -15t15 -40v-134q0 -63 -59 -63z" />
    <glyph glyph-name="u" unicode="u" horiz-adv-x="1257" 
d="M539 -25q-199 0 -312.5 111t-113.5 307v574q0 35 21 55t54 20h181q35 0 55 -20t20 -55v-570q0 -82 41.5 -125t120.5 -43q164 0 164 168v570q0 34 21.5 54.5t54.5 20.5h180q35 0 55.5 -20t20.5 -55v-658l67 -67q37 -37 38 -81t-36 -81l-61 -64q-37 -36 -81 -34.5t-81 38.5
l-98 99q-99 -144 -311 -144z" />
    <glyph glyph-name="v" unicode="v" horiz-adv-x="1103" 
d="M655 -4h-209q-57 0 -89 25t-52 88l-252 774q-14 43 -14 84q0 36 20.5 55.5t57.5 19.5h143q45 0 69.5 -20.5t37.5 -71.5l196 -667l199 667q14 51 37 71.5t67 20.5h119q80 0 80 -75q0 -28 -16 -84l-250 -774q-20 -62 -53 -87.5t-91 -25.5z" />
    <glyph glyph-name="w" unicode="w" horiz-adv-x="1591" 
d="M543 -4h-187q-95 0 -116 98l-168 787q-11 45 -11 82q0 38 21 58.5t59 20.5h121q45 0 69 -20t31 -66l119 -620l160 557q19 69 48 94t89 25h53q58 0 88.5 -26t49.5 -93l157 -557l119 620q15 86 103 86h102q41 0 60.5 -19t19.5 -60t-10 -82l-168 -787q-21 -98 -117 -98h-182
q-47 0 -74.5 24t-44.5 80l-137 471l-135 -471q-17 -57 -44.5 -80.5t-74.5 -23.5z" />
    <glyph glyph-name="x" unicode="x" horiz-adv-x="1099" 
d="M254 0h-125q-38 0 -60 19.5t-22 54.5q0 41 37 94l246 358l-236 348q-37 56 -37 95q0 73 80 73h144q41 0 67 -16t55 -59l154 -242l156 242q26 42 53.5 58.5t69.5 16.5h127q79 0 79 -73q0 -40 -36 -95l-236 -348l244 -358q37 -53 37 -94q0 -74 -80 -74h-144q-42 0 -69 17
t-53 59l-164 256l-162 -256q-26 -42 -54 -59t-71 -17z" />
    <glyph glyph-name="y" unicode="y" horiz-adv-x="1103" 
d="M387 -223l88 223h-49q-51 0 -78.5 22t-44.5 76l-250 785q-14 43 -14 84q0 36 20.5 55.5t57.5 19.5h143q45 0 69.5 -20.5t37.5 -71.5l196 -688l199 688q14 51 37 71.5t67 20.5h121q37 0 57.5 -19.5t20.5 -55.5q0 -35 -16 -84l-385 -1217q-19 -59 -73 -85t-116 -7
q-67 23 -91 78.5t3 124.5z" />
    <glyph glyph-name="z" unicode="z" horiz-adv-x="995" 
d="M881 0h-713q-60 0 -91.5 31t-31.5 88v51q0 44 12 73t45 66l465 488h-440q-72 0 -72 71v103q0 71 72 71h690q60 0 91.5 -30.5t31.5 -87.5v-52q0 -44 -11.5 -73t-47.5 -66l-463 -487h463q71 0 71 -72v-102q0 -72 -71 -72z" />
    <glyph glyph-name="braceleft" unicode="{" horiz-adv-x="976" 
d="M922 -262v-76q0 -37 -21 -56.5t-59 -19.5h-201q-192 0 -291.5 77.5t-99.5 225.5q0 48 14.5 97.5t54.5 126.5q30 63 39 88.5t9 48.5q0 67 -57 99t-195 46q-33 2 -46.5 16.5t-13.5 49.5v100q0 35 14 50.5t46 17.5q140 14 196 45.5t56 97.5q0 23 -9 48.5t-39 88.5
q-40 77 -54.5 126.5t-14.5 97.5q0 148 99.5 225.5t291.5 77.5h201q38 0 59 -19.5t21 -54.5v-78q0 -30 -20.5 -48.5t-53.5 -18.5h-154q-65 0 -101 -28.5t-36 -78.5q0 -41 47 -133q37 -73 50.5 -116t13.5 -85q0 -98 -68 -164.5t-197 -95.5q129 -31 197 -100.5t68 -169.5
q0 -42 -13.5 -84.5t-50.5 -114.5q-47 -96 -47 -135q0 -50 35.5 -77.5t101.5 -27.5h154q32 0 53 -19t21 -50z" />
    <glyph glyph-name="bar" unicode="|" horiz-adv-x="612" 
d="M436 1341v-1454q0 -57 -34 -92t-91 -35h-10q-57 0 -91 35t-34 92v1454q0 57 34 92t91 35h10q57 0 91 -35t34 -92z" />
    <glyph glyph-name="braceright" unicode="}" horiz-adv-x="976" 
d="M657 115q41 -82 55.5 -130t14.5 -94q0 -149 -99.5 -227t-291.5 -78h-203q-78 0 -78 76v76q0 32 19.5 50.5t54.5 18.5h154q66 0 100.5 28t34.5 79q0 42 -47 131q-37 73 -50.5 116t-13.5 85q0 97 68.5 164t197.5 98q-129 31 -197.5 99.5t-68.5 168.5q0 42 13.5 85t50.5 116
q47 92 47 133q0 50 -36 78.5t-99 28.5h-154q-35 0 -54.5 18.5t-19.5 50.5v76q0 35 20.5 54.5t57.5 19.5h203q192 0 291.5 -77.5t99.5 -225.5q0 -47 -14 -95.5t-54 -126.5q-49 -98 -49 -139q0 -66 56.5 -97.5t193.5 -45.5q34 -1 48 -17t14 -49v-102q0 -35 -13.5 -50
t-48.5 -16q-138 -14 -194 -46t-56 -99q0 -39 47 -135z" />
    <glyph glyph-name="asciitilde" unicode="~" 
d="M1044 606q-47 -47 -113 -73.5t-138 -26.5q-66 0 -119 16.5t-119 61.5q-45 31 -72 41t-55 10t-49.5 -12.5t-56.5 -53.5q-33 -39 -52 -49t-51 -10q-51 0 -84 33t-33 84q0 75 82 157q47 47 113.5 74t138.5 27q66 0 119 -16.5t119 -61.5q45 -31 72 -41t55 -10t49.5 12
t56.5 53q34 37 55 48.5t48 11.5q51 0 83.5 -34t32.5 -85q0 -74 -82 -156z" />
    <glyph glyph-name="uni00A0" unicode="&#xa0;" horiz-adv-x="382" 
 />
    <glyph glyph-name="exclamdown" unicode="&#xa1;" horiz-adv-x="557" 
d="M446 934v-103q0 -116 -116 -116h-105q-116 0 -116 116v103q0 117 116 117h105q116 0 116 -117zM270 627h15q68 0 107.5 -42t39.5 -114v-813q0 -68 -76 -68h-157q-39 0 -56.5 16t-17.5 52v813q0 72 39 114t106 42z" />
    <glyph glyph-name="cent" unicode="&#xa2;" 
d="M758 115v-138q0 -57 -35 -93t-92 -36h-10q-57 0 -92 36t-35 93v140q-183 29 -282 136t-99 277v246q0 170 99 277.5t282 136.5v123q0 60 35 95.5t92 35.5h10q57 0 92 -35.5t35 -95.5v-121q174 -25 266 -114.5t92 -235.5v-33q0 -25 -15 -40t-40 -15h-211q-23 0 -37 14
t-14 39v35q0 66 -41 97.5t-129 31.5q-178 0 -178 -162v-311q0 -162 178 -162q88 0 129 31.5t41 97.5v43q0 25 14 39t37 14h211q25 0 40 -15t15 -40v-41q0 -146 -92 -235.5t-266 -114.5z" />
    <glyph glyph-name="sterling" unicode="&#xa3;" 
d="M1147 145v-24q0 -54 -34.5 -87.5t-90.5 -33.5h-795q-112 0 -112 113v71q0 35 13 58.5t50 54.5l49 39q43 36 60.5 71t17.5 89v20h-137q-48 0 -76.5 27.5t-28.5 74.5q0 45 29 73t76 28h78q-50 102 -66 166q-12 59 -12 123q0 197 125.5 303t359.5 106q239 0 362.5 -95.5
t123.5 -281.5v-47q0 -32 -17.5 -50.5t-48.5 -18.5h-182q-31 0 -48.5 18t-17.5 49v56q0 143 -168 143q-81 0 -124.5 -41.5t-43.5 -116.5q0 -79 41 -188q47 -123 48 -125h280q47 0 75 -27t28 -74t-28 -74.5t-75 -27.5h-256q-6 -81 -37 -140.5t-96 -109.5h553q56 0 90.5 -33.5
t34.5 -87.5z" />
    <glyph glyph-name="currency" unicode="&#xa4;" 
d="M1112 197q-37 -37 -84.5 -36.5t-85.5 38.5l-98 98q-101 -61 -230 -61q-122 0 -229 61l-98 -98q-38 -38 -85.5 -38.5t-84.5 36.5t-35.5 84.5t39.5 85.5l98 98q-61 107 -61 229q0 121 61 228l-98 98q-38 38 -39.5 85.5t35.5 84.5t84.5 36.5t85.5 -38.5l98 -98
q107 61 229 61q123 0 230 -61l98 98q38 38 85.5 38.5t84.5 -36.5t35.5 -84.5t-39.5 -85.5l-98 -98q61 -107 61 -228q0 -122 -61 -229l98 -98q38 -38 39.5 -85.5t-35.5 -84.5zM614 477q88 0 148.5 63t60.5 154t-60.5 154t-148.5 63t-148 -63t-60 -154t60 -154t148 -63z" />
    <glyph glyph-name="yen" unicode="&#xa5;" 
d="M979 160h-195v-97q0 -29 -18 -46t-47 -17h-209q-30 0 -48 17t-18 46v97h-194q-43 0 -68.5 24.5t-25.5 67.5t25.5 67.5t68.5 24.5h199v94h-199q-43 0 -68.5 25.5t-25.5 68.5q0 42 26 67.5t68 25.5h164l-303 549q-36 67 -47 94.5t-11 52.5q0 72 74 72h168q42 0 70 -18.5
t51 -61.5l237 -467l234 467q20 43 48.5 61.5t72.5 18.5h94q74 0 74 -72q0 -25 -11 -52.5t-47 -94.5l-303 -549h164q43 0 68.5 -25.5t25.5 -67.5q0 -43 -25.5 -68.5t-68.5 -25.5h-199v-94h199q43 0 68.5 -24.5t25.5 -67.5t-25.5 -67.5t-68.5 -24.5z" />
    <glyph glyph-name="brokenbar" unicode="&#xa6;" horiz-adv-x="612" 
d="M436 1341v-532q0 -57 -34 -92t-91 -35h-10q-57 0 -91 35t-34 92v532q0 57 34 92t91 35h10q57 0 91 -35t34 -92zM436 420v-533q0 -57 -34 -92t-91 -35h-10q-57 0 -91 35t-34 92v533q0 57 34 92t91 35h10q57 0 91 -35t34 -92z" />
    <glyph glyph-name="section" unicode="&#xa7;" 
d="M1124 135v-22q0 -171 -130.5 -260t-381.5 -89q-261 0 -382 75.5t-121 240.5v22q0 48 51 48h196q47 0 47 -44v-22q0 -57 46.5 -80.5t158.5 -23.5q106 0 155.5 24t49.5 78v16q0 40 -23.5 59.5t-93.5 32.5l-323 64q-165 32 -232 96.5t-67 186.5v24q0 185 172 246
q-129 72 -129 240v20q0 172 125.5 261t369.5 89q255 0 373.5 -74t118.5 -239v-23q0 -49 -51 -49h-197q-47 0 -47 45v21q0 59 -42.5 81.5t-148.5 22.5q-100 0 -145 -24t-45 -78v-17q0 -40 21.5 -60t82.5 -32l324 -63q165 -32 232 -96.5t67 -186.5v-24q0 -183 -168 -244
q137 -73 137 -242zM518 492l162 -31h65q49 0 79 27t30 71v25q0 46 -27.5 66.5t-115.5 37.5l-166 33h-62q-49 0 -78.5 -27.5t-29.5 -72.5v-23q0 -45 28.5 -67t114.5 -39z" />
    <glyph glyph-name="dieresis" unicode="&#xa8;" horiz-adv-x="921" 
d="M324 1163h-80q-99 0 -99 92v97q0 94 99 94h80q98 0 98 -94v-97q0 -92 -98 -92zM678 1163h-80q-98 0 -98 92v97q0 94 98 94h80q98 0 98 -94v-97q0 -92 -98 -92z" />
    <glyph glyph-name="copyright" unicode="&#xa9;" horiz-adv-x="1572" 
d="M786 -25q-321 0 -497 157t-176 441v285q0 287 176 443.5t497 156.5q324 0 499 -156t175 -444v-285q0 -287 -176 -442.5t-498 -155.5zM786 104q260 0 393.5 118.5t133.5 350.5v287q0 231 -133.5 349t-393.5 118t-393 -118t-133 -349v-287q0 -232 133 -350.5t393 -118.5z
M1122 602v-53q0 -124 -83 -190t-238 -66q-162 0 -254 74.5t-92 207.5v283q0 133 92 208t254 75q155 0 238 -66t83 -190v-43q0 -35 -35 -35h-145q-33 0 -33 33v34q0 52 -25.5 74.5t-84.5 22.5q-113 0 -113 -103v-303q0 -102 113 -102q60 0 85 22.5t25 73.5v45q0 14 10 24.5
t23 10.5h145q35 0 35 -37z" />
    <glyph glyph-name="ordfeminine" unicode="&#xaa;" horiz-adv-x="876" 
d="M655 678l-69 70q-74 -107 -228 -107q-136 0 -212 58.5t-76 162.5v21q0 110 72.5 162.5t224.5 52.5q71 0 151 -17v105q0 74 -96 74q-94 0 -94 -64v-14q0 -29 -27 -29h-172q-13 0 -22 8.5t-9 22.5v18q0 104 83 159.5t241 55.5q164 0 253 -65.5t89 -184.5v-268l55 -55
q29 -29 30 -61t-26 -58l-49 -49q-27 -27 -58.5 -27t-60.5 29zM313 895v-16q0 -76 101 -76q47 0 75.5 24.5t28.5 63.5v67q-49 15 -100 15q-105 0 -105 -78z" />
    <glyph glyph-name="uni00AB" unicode="&#xab;" horiz-adv-x="1056" 
d="M952 182q-41 -32 -91 -25t-87 50l-217 254q-47 58 -47 104v23q0 46 47 104l217 254q37 43 87 50t91 -25t44.5 -83.5t-33.5 -92.5l-189 -217l189 -220q37 -41 33.5 -92.5t-44.5 -83.5zM498 182q-41 -32 -91.5 -25t-87.5 50l-217 254q-47 58 -47 104v23q0 46 47 104
l217 254q37 43 87.5 50t91.5 -25t44 -83.5t-34 -92.5l-189 -217l189 -220q37 -41 34 -92.5t-44 -83.5z" />
    <glyph glyph-name="registered" unicode="&#xae;" horiz-adv-x="862" 
d="M432 686q-174 0 -270 82t-96 233v142q0 151 96 233t270 82t270.5 -82t96.5 -233v-142q0 -151 -96.5 -233t-270.5 -82zM432 762q281 0 281 239v142q0 239 -281 239q-280 0 -280 -239v-142q0 -121 69.5 -180t210.5 -59zM598 862q-23 -14 -48 -8t-38 29l-78 129
q-10 12 -10 35v18q0 22 20 22h13q20 0 32.5 11.5t12.5 31.5v35q0 37 -45 37h-66v-315q0 -27 -26 -27h-70q-12 0 -19.5 7.5t-7.5 19.5v360q0 20 11.5 32.5t31.5 12.5h156q78 0 118 -30.5t40 -87.5v-33q0 -78 -70 -99l63 -98q14 -23 8.5 -46t-28.5 -36z" />
    <glyph glyph-name="overscore" unicode="&#xaf;" horiz-adv-x="921" 
d="M770 1305q0 -44 -29 -72.5t-73 -28.5h-414q-44 0 -73 28.5t-29 72.5t29 73t73 29h414q44 0 73 -29t29 -73z" />
    <glyph glyph-name="degree" unicode="&#xb0;" horiz-adv-x="921" 
d="M848 1032q0 -162 -113 -272q-114 -111 -276 -111q-163 0 -277 111q-110 110 -110 272q0 163 110 273q112 112 277 112q164 0 276 -112q113 -110 113 -273zM291 1034q0 -74 48 -125t120 -51q73 0 121.5 51t48.5 125t-48.5 125t-121.5 51q-72 0 -120 -51t-48 -125z" />
    <glyph glyph-name="uni00B2" unicode="&#xb2;" horiz-adv-x="739" 
d="M616 791h-495q-80 0 -80 75v146q0 99 47.5 151.5t157.5 77.5l139 31q35 7 49.5 23.5t14.5 47.5v52q0 63 -82 63t-82 -63v-33q0 -39 -39 -39h-160q-20 0 -31.5 11t-11.5 30v29q0 109 82 165t242 56q331 0 331 -240v-37q0 -94 -48.5 -148t-153.5 -77l-160 -35
q-32 -8 -43.5 -19.5t-11.5 -37.5v-37h335q37 0 59.5 -22.5t22.5 -59.5v-29q0 -37 -22.5 -59t-59.5 -22z" />
    <glyph glyph-name="uni00B3" unicode="&#xb3;" horiz-adv-x="772" 
d="M725 1022v-25q0 -109 -88 -166t-258 -57q-165 0 -250.5 57t-85.5 166v19q0 19 12.5 30t32.5 11h154q43 0 43 -39v-23q0 -65 90 -65q44 0 69 17.5t25 49.5v50q0 31 -21.5 49t-58.5 18h-70q-35 0 -56 19.5t-21 50.5v26q0 31 22.5 51.5t54.5 20.5h66q76 0 76 66v47
q0 63 -88 63q-86 0 -86 -65v-17q0 -18 -12 -28.5t-31 -10.5h-156q-20 0 -31.5 11t-11.5 30v13q0 109 84.5 166t245.5 57q167 0 254.5 -56.5t87.5 -162.5v-21q0 -134 -156 -172q80 -19 122 -65t42 -115z" />
    <glyph glyph-name="acute" unicode="&#xb4;" horiz-adv-x="921" 
d="M397 1169h-116q-39 0 -39 37v8q0 26 20 48l113 131q28 31 44 39t46 8h174q41 0 41 -37v-10q0 -34 -33 -60l-147 -127q-24 -22 -46.5 -29.5t-56.5 -7.5z" />
    <glyph glyph-name="paragraph" unicode="&#xb6;" 
d="M866 -133v1333h-190v-1333q0 -47 -28 -75t-75 -28h-4q-44 0 -73 29.5t-29 73.5v627h-66q-164 0 -252 88t-88 252v221q0 164 88 251t252 87h566q51 0 79.5 -29t28.5 -80v-1417q0 -47 -27.5 -75t-74.5 -28h-4q-44 0 -73.5 29.5t-29.5 73.5z" />
    <glyph glyph-name="middot" unicode="&#xb7;" horiz-adv-x="587" 
d="M113 549v125q0 121 125 121h112q125 0 125 -121v-125q0 -121 -125 -121h-112q-125 0 -125 121z" />
    <glyph glyph-name="cedilla" unicode="&#xb8;" horiz-adv-x="921" 
d="M688 -252v-10q0 -88 -57 -130t-176 -42h-144q-35 0 -56.5 21.5t-21.5 54.5q0 32 22.5 53.5t55.5 21.5h107q37 0 37 33v12q0 17 -8 23.5t-29 11.5l-35 6q-39 8 -52.5 39.5t3.5 81.5l35 105q7 29 21.5 40t41.5 11h60q45 0 36 -53l-24 -115q104 -23 144 -59.5t40 -104.5z
" />
    <glyph glyph-name="uni00B9" unicode="&#xb9;" horiz-adv-x="550" 
d="M442 1534v-696q0 -47 -45 -47h-164q-47 0 -47 47v526l-26 -12q-27 -15 -58 -15q-32 0 -49.5 19.5t-17.5 54.5v29q0 41 13 62.5t46 35.5l88 39q37 18 58.5 23.5t54.5 5.5h76q71 0 71 -72z" />
    <glyph glyph-name="ordmasculine" unicode="&#xba;" horiz-adv-x="870" 
d="M68 944v170q0 142 97 222.5t269 80.5q173 0 271 -80.5t98 -222.5v-170q0 -142 -98.5 -222.5t-270.5 -80.5q-171 0 -268.5 81t-97.5 222zM322 1141v-221q0 -109 112 -109q117 0 117 109v221q0 55 -28.5 81.5t-88.5 26.5q-112 0 -112 -108z" />
    <glyph glyph-name="uni00BB" unicode="&#xbb;" horiz-adv-x="1056" 
d="M956 461l-215 -254q-37 -43 -87 -50t-91 25t-44 82.5t34 93.5l186 220l-186 217q-37 43 -34 93.5t44 82.5t91 25t87 -50l215 -254q50 -59 50 -104v-23q0 -45 -50 -104zM502 461l-217 -254q-37 -43 -87.5 -50t-91.5 25t-44 83.5t34 92.5l189 220l-189 217q-37 41 -34 92.5
t44 83.5t91.5 25t87.5 -50l217 -254q47 -58 47 -104v-23q0 -46 -47 -104z" />
    <glyph glyph-name="onequarter" unicode="&#xbc;" horiz-adv-x="1615" 
d="M1223 1438q35 -20 43 -56.5t-17 -68.5l-878 -1284q-25 -36 -58.5 -45t-68.5 12q-35 19 -43 56t16 69l879 1284q51 75 127 33zM1524 162h-49v-113q0 -23 -13.5 -36t-36.5 -13h-157q-49 0 -49 49v113h-293q-84 0 -84 80v59q0 49 28 100l217 355q34 53 95 53h223
q70 0 70 -64v-411h49q31 0 50 -20t19 -52v-29q0 -32 -19 -51.5t-50 -19.5zM1030 328h189v340zM442 1370v-696q0 -47 -45 -47h-164q-47 0 -47 47v526l-26 -12q-25 -14 -58 -14q-67 0 -67 73v29q0 41 13 62.5t46 35.5l88 39q37 18 58.5 23.5t54.5 5.5h76q71 0 71 -72z" />
    <glyph glyph-name="onehalf" unicode="&#xbd;" horiz-adv-x="1632" 
d="M1223 1438q35 -20 43 -56.5t-17 -68.5l-878 -1284q-25 -36 -58.5 -45t-68.5 12q-35 19 -43 56t16 69l879 1284q51 75 127 33zM1509 0h-495q-80 0 -80 76v145q0 99 48 152t157 78l139 30q35 7 49 24t14 48v51q0 64 -81 64q-82 0 -82 -64v-33q0 -39 -39 -39h-160
q-20 0 -31.5 11t-11.5 30v29q0 109 82 165t242 56q331 0 331 -239v-37q0 -94 -48.5 -148t-153.5 -77l-160 -35q-32 -7 -43.5 -19.5t-11.5 -38.5v-36h335q37 0 59.5 -22.5t22.5 -59.5v-29q0 -37 -22.5 -59.5t-59.5 -22.5zM442 1370v-696q0 -47 -45 -47h-164q-47 0 -47 47v526
l-26 -12q-25 -14 -58 -14q-67 0 -67 73v29q0 41 13 62.5t46 35.5l88 39q37 18 58.5 23.5t54.5 5.5h76q71 0 71 -72z" />
    <glyph glyph-name="threequarters" unicode="&#xbe;" horiz-adv-x="1812" 
d="M1419 1438q35 -20 43.5 -56.5t-16.5 -68.5l-879 -1284q-25 -36 -58.5 -45t-68.5 12q-35 19 -42.5 56t16.5 69l878 1284q51 75 127 33zM1718 162h-49v-113q0 -49 -49 -49h-158q-49 0 -49 49v113h-293q-84 0 -84 80v59q0 47 29 100l217 355q19 29 40.5 41t53.5 12h223
q70 0 70 -64v-411h49q31 0 50.5 -20t19.5 -52v-29q0 -32 -19.5 -51.5t-50.5 -19.5zM1225 328h188v340zM725 858v-24q0 -109 -88 -166.5t-258 -57.5q-165 0 -250.5 57.5t-85.5 166.5v18q0 19 12.5 30t32.5 11h154q43 0 43 -39v-23q0 -65 90 -65q44 0 69 18t25 50v49
q0 31 -21.5 49t-58.5 18h-70q-35 0 -56 19.5t-21 50.5v27q0 31 22 51t55 20h66q76 0 76 66v47q0 63 -88 63q-86 0 -86 -65v-17q0 -18 -12 -28t-31 -10h-156q-43 0 -43 40v13q0 109 84.5 166t245.5 57q167 0 254.5 -56.5t87.5 -162.5v-21q0 -134 -156 -172q80 -19 122 -65
t42 -115z" />
    <glyph glyph-name="questiondown" unicode="&#xbf;" horiz-adv-x="1079" 
d="M717 936v-105q0 -116 -117 -116h-104q-117 0 -117 116v105q0 117 117 117h104q117 0 117 -117zM1024 -2v-64q0 -178 -122 -273t-351 -95q-239 0 -364.5 101.5t-125.5 293.5v98q0 177 83.5 271.5t254.5 111.5v39q0 68 38 108t104 40h16q66 0 105.5 -40.5t39.5 -107.5v-141
q0 -107 -106 -107h-61q-78 0 -113 -40t-35 -130v-112q0 -82 39.5 -121t124.5 -39q86 0 124 35t38 115v57q0 33 17.5 51.5t49.5 18.5h178q31 0 48.5 -19t17.5 -51z" />
    <glyph glyph-name="Agrave" unicode="&#xc0;" horiz-adv-x="1353" 
d="M256 0h-125q-41 0 -63.5 21t-22.5 59q0 22 18 88l338 1128q23 80 61 111t111 31h207q73 0 111 -31t61 -111l338 -1128q19 -69 19 -88q0 -38 -22.5 -59t-63.5 -21h-146q-41 0 -64.5 19t-35.5 63l-80 283h-459l-82 -283q-12 -44 -35.5 -63t-64.5 -19zM827 627l-159 567
l-160 -567h319zM793 1550h-117q-34 0 -56.5 7.5t-46.5 29.5l-147 127q-33 26 -33 60v10q0 37 41 37h174q30 0 46 -8t44 -39l113 -132q20 -22 20 -47v-8q0 -37 -38 -37z" />
    <glyph glyph-name="Aacute" unicode="&#xc1;" horiz-adv-x="1353" 
d="M256 0h-125q-41 0 -63.5 21t-22.5 59q0 22 18 88l338 1128q23 80 61 111t111 31h207q73 0 111 -31t61 -111l338 -1128q19 -69 19 -88q0 -38 -22.5 -59t-63.5 -21h-146q-41 0 -64.5 19t-35.5 63l-80 283h-459l-82 -283q-12 -44 -35.5 -63t-64.5 -19zM827 627l-159 567
l-160 -567h319zM674 1550h-117q-39 0 -39 37v8q0 23 21 47l112 132q28 31 44 39t46 8h174q41 0 41 -37v-10q0 -35 -32 -60l-148 -127q-24 -22 -46 -29.5t-56 -7.5z" />
    <glyph glyph-name="Acircumflex" unicode="&#xc2;" horiz-adv-x="1353" 
d="M256 0h-125q-41 0 -63.5 21t-22.5 59q0 22 18 88l338 1128q23 80 61 111t111 31h207q73 0 111 -31t61 -111l338 -1128q19 -69 19 -88q0 -38 -22.5 -59t-63.5 -21h-146q-41 0 -64.5 19t-35.5 63l-80 283h-459l-82 -283q-12 -44 -35.5 -63t-64.5 -19zM827 627l-159 567
l-160 -567h319zM985 1581q-20 -39 -60 -49.5t-81 12.5l-168 94l-168 -94q-41 -23 -79 -12.5t-58 49.5q-20 38 -7 75t54 62l198 113q30 18 60 18h6q25 0 57 -18l201 -113q41 -23 53 -59.5t-8 -77.5z" />
    <glyph glyph-name="Atilde" unicode="&#xc3;" horiz-adv-x="1353" 
d="M256 0h-125q-41 0 -63.5 21t-22.5 59q0 22 18 88l338 1128q23 80 61 111t111 31h207q73 0 111 -31t61 -111l338 -1128q19 -69 19 -88q0 -38 -22.5 -59t-63.5 -21h-146q-41 0 -64.5 19t-35.5 63l-80 283h-459l-82 -283q-12 -44 -35.5 -63t-64.5 -19zM827 627l-159 567
l-160 -567h319zM391 1786q59 59 156 59q44 0 84 -14.5t96 -52.5q48 -37 74 -37q14 0 23.5 10.5t19.5 36.5q20 57 78 57q43 0 68.5 -27.5t25.5 -74.5q0 -84 -55 -139q-60 -60 -156 -60q-43 0 -83.5 15t-96.5 53q-48 37 -74 37q-14 0 -23.5 -10.5t-19.5 -36.5q-21 -58 -78 -58
q-43 0 -68.5 28t-25.5 75q0 84 55 139z" />
    <glyph glyph-name="Adieresis" unicode="&#xc4;" horiz-adv-x="1353" 
d="M256 0h-125q-41 0 -63.5 21t-22.5 59q0 22 18 88l338 1128q23 80 61 111t111 31h207q73 0 111 -31t61 -111l338 -1128q19 -69 19 -88q0 -38 -22.5 -59t-63.5 -21h-146q-41 0 -64.5 19t-35.5 63l-80 283h-459l-82 -283q-12 -44 -35.5 -63t-64.5 -19zM827 627l-159 567
l-160 -567h319zM539 1544h-80q-99 0 -99 92v97q0 94 99 94h80q98 0 98 -94v-97q0 -92 -98 -92zM893 1544h-80q-98 0 -98 92v97q0 94 98 94h80q98 0 98 -94v-97q0 -92 -98 -92z" />
    <glyph glyph-name="Aring" unicode="&#xc5;" horiz-adv-x="1353" 
d="M256 0h-125q-41 0 -63.5 21t-22.5 59q0 22 18 88l338 1128q24 85 66 113q-55 49 -55 133v39q0 100 68 154.5t196 54.5t197 -54.5t69 -154.5v-39q0 -84 -55 -133q41 -27 65 -113l338 -1128q19 -69 19 -88q0 -38 -22.5 -59t-63.5 -21h-146q-41 0 -64.5 19t-35.5 63l-80 283
h-459l-82 -283q-12 -44 -35.5 -63t-64.5 -19zM676 1661q-82 0 -82 -80v-51q0 -80 84 -80q82 0 82 80v51q0 80 -84 80zM827 627l-159 567l-160 -567h319z" />
    <glyph glyph-name="AE" unicode="&#xc6;" horiz-adv-x="1994" 
d="M264 0h-147q-38 0 -59 17.5t-21 48.5q0 40 29 92l591 1159q32 65 72.5 91t108.5 26h1011q76 0 76 -76v-111q0 -76 -76 -76h-561v-309h412q63 0 99 -34.5t36 -94.5v-8q0 -60 -36 -94.5t-99 -34.5h-412v-334h561q76 0 76 -76v-110q0 -76 -76 -76h-780q-54 0 -85.5 31.5
t-31.5 85.5v260h-440l-152 -311q-32 -66 -96 -66zM639 641h313v535h-53z" />
    <glyph glyph-name="Ccedilla" unicode="&#xc7;" horiz-adv-x="1337" 
d="M944 -252v-10q0 -88 -57 -130t-176 -42h-144q-35 0 -56.5 21.5t-21.5 54.5q0 32 22.5 53.5t55.5 21.5h107q37 0 37 33v12q0 17 -8 23.5t-29 11.5l-35 6q-39 8 -52.5 39.5t3.5 81.5l18 53q-238 19 -367.5 148t-129.5 348v488q0 238 150 367.5t425 129.5
q272 0 411.5 -114.5t139.5 -337.5v-64q0 -59 -55 -59h-215q-26 0 -41 15.5t-15 41.5v57q0 109 -53 157t-174 48q-113 0 -171 -56t-58 -165v-528q0 -109 58.5 -165.5t170.5 -56.5q121 0 174 48t53 157v74q0 26 15 41.5t41 15.5h215q55 0 55 -59v-80q0 -204 -117 -317.5
t-346 -130.5l-14 -68q104 -23 144 -59.5t40 -104.5z" />
    <glyph glyph-name="Egrave" unicode="&#xc8;" horiz-adv-x="1202" 
d="M1057 0h-793q-54 0 -85.5 31.5t-31.5 85.5v1200q0 54 31.5 85.5t85.5 31.5h793q76 0 76 -76v-111q0 -76 -76 -76h-576v-309h426q63 0 99 -34.5t36 -94.5v-8q0 -60 -36 -94.5t-99 -34.5h-426v-334h576q76 0 76 -76v-110q0 -76 -76 -76zM758 1550h-117q-34 0 -56 7.5
t-46 29.5l-148 127q-33 26 -33 60v10q0 37 41 37h174q30 0 46.5 -8t44.5 -39l112 -132q21 -24 21 -47v-8q0 -37 -39 -37z" />
    <glyph glyph-name="Eacute" unicode="&#xc9;" horiz-adv-x="1202" 
d="M1057 0h-793q-54 0 -85.5 31.5t-31.5 85.5v1200q0 54 31.5 85.5t85.5 31.5h793q76 0 76 -76v-111q0 -76 -76 -76h-576v-309h426q63 0 99 -34.5t36 -94.5v-8q0 -60 -36 -94.5t-99 -34.5h-426v-334h576q76 0 76 -76v-110q0 -76 -76 -76zM639 1550h-117q-39 0 -39 37v8
q0 23 21 47l112 132q28 31 44.5 39t46.5 8h174q41 0 41 -37v-10q0 -34 -33 -60l-148 -127q-24 -22 -46 -29.5t-56 -7.5z" />
    <glyph glyph-name="Ecircumflex" unicode="&#xca;" horiz-adv-x="1202" 
d="M1057 0h-793q-54 0 -85.5 31.5t-31.5 85.5v1200q0 54 31.5 85.5t85.5 31.5h793q76 0 76 -76v-111q0 -76 -76 -76h-576v-309h426q63 0 99 -34.5t36 -94.5v-8q0 -60 -36 -94.5t-99 -34.5h-426v-334h576q76 0 76 -76v-110q0 -76 -76 -76zM948 1581q-20 -39 -60 -49.5
t-81 12.5l-168 94l-168 -94q-41 -23 -79 -12.5t-58 49.5q-20 38 -7 75t54 62l199 113q30 18 59 18h6q25 0 57 -18l201 -113q41 -23 53 -59.5t-8 -77.5z" />
    <glyph glyph-name="Edieresis" unicode="&#xcb;" horiz-adv-x="1202" 
d="M1057 0h-793q-54 0 -85.5 31.5t-31.5 85.5v1200q0 54 31.5 85.5t85.5 31.5h793q76 0 76 -76v-111q0 -76 -76 -76h-576v-309h426q63 0 99 -34.5t36 -94.5v-8q0 -60 -36 -94.5t-99 -34.5h-426v-334h576q76 0 76 -76v-110q0 -76 -76 -76zM502 1544h-80q-98 0 -98 92v97
q0 94 98 94h80q98 0 98 -94v-97q0 -92 -98 -92zM856 1544h-80q-98 0 -98 92v97q0 94 98 94h80q98 0 98 -94v-97q0 -92 -98 -92z" />
    <glyph glyph-name="Igrave" unicode="&#xcc;" horiz-adv-x="649" 
d="M412 0h-174q-37 0 -59.5 22.5t-22.5 59.5v1270q0 37 22.5 59.5t59.5 22.5h174q37 0 59.5 -22.5t22.5 -59.5v-1270q0 -37 -22.5 -59.5t-59.5 -22.5zM440 1550h-116q-34 0 -56.5 7.5t-46.5 29.5l-147 127q-33 26 -33 60v10q0 37 41 37h174q30 0 46 -8t44 -39l113 -132
q20 -22 20 -47v-8q0 -37 -39 -37z" />
    <glyph glyph-name="Iacute" unicode="&#xcd;" horiz-adv-x="649" 
d="M412 0h-174q-37 0 -59.5 22.5t-22.5 59.5v1270q0 37 22.5 59.5t59.5 22.5h174q37 0 59.5 -22.5t22.5 -59.5v-1270q0 -37 -22.5 -59.5t-59.5 -22.5zM324 1550h-117q-39 0 -39 37v8q0 25 20 47l113 132q28 31 44 39t46 8h174q41 0 41 -37v-10q0 -34 -33 -60l-147 -127
q-24 -22 -46 -29.5t-56 -7.5z" />
    <glyph glyph-name="Icircumflex" unicode="&#xce;" horiz-adv-x="649" 
d="M412 0h-174q-37 0 -59.5 22.5t-22.5 59.5v1270q0 37 22.5 59.5t59.5 22.5h174q37 0 59.5 -22.5t22.5 -59.5v-1270q0 -37 -22.5 -59.5t-59.5 -22.5zM633 1581q-20 -39 -60 -49.5t-81 12.5l-168 94l-168 -94q-41 -23 -79.5 -12.5t-58.5 49.5q-20 38 -7 75t55 62l198 113
q30 18 60 18h6q25 0 57 -18l201 -113q41 -23 53 -59.5t-8 -77.5z" />
    <glyph glyph-name="Idieresis" unicode="&#xcf;" horiz-adv-x="649" 
d="M412 0h-174q-37 0 -59.5 22.5t-22.5 59.5v1270q0 37 22.5 59.5t59.5 22.5h174q37 0 59.5 -22.5t22.5 -59.5v-1270q0 -37 -22.5 -59.5t-59.5 -22.5zM186 1544h-80q-98 0 -98 92v97q0 94 98 94h80q99 0 99 -94v-97q0 -92 -99 -92zM541 1544h-80q-99 0 -99 92v97q0 94 99 94
h80q98 0 98 -94v-97q0 -92 -98 -92z" />
    <glyph glyph-name="Eth" unicode="&#xd0;" horiz-adv-x="1431" 
d="M682 0h-393q-54 0 -85.5 31.5t-31.5 85.5v510h-76q-44 0 -72 26.5t-28 69.5q0 44 28 71t72 27h76v496q0 54 31.5 85.5t85.5 31.5h393q313 0 476 -140t163 -409v-336q0 -269 -163 -409t-476 -140zM666 627h-156v-371h178q143 0 216 70t73 206v369q0 137 -73.5 207
t-215.5 70h-178v-357h156q44 0 71 -27t27 -71q0 -43 -27 -69.5t-71 -26.5z" />
    <glyph glyph-name="Ntilde" unicode="&#xd1;" horiz-adv-x="1443" 
d="M373 0h-148q-35 0 -56.5 21.5t-21.5 58.5v1229q0 60 33.5 92.5t93.5 32.5h129q61 0 94.5 -22.5t65.5 -84.5l428 -805v832q0 37 21.5 58.5t58.5 21.5h148q37 0 58 -21.5t21 -58.5v-1229q0 -57 -34 -91t-93 -34h-122q-61 0 -94.5 22t-65.5 84l-436 814v-840
q0 -37 -21.5 -58.5t-58.5 -21.5zM444 1786q59 59 156 59q44 0 84 -14.5t96 -52.5q48 -37 74 -37q14 0 23.5 10.5t19.5 36.5q20 57 78 57q43 0 68.5 -27.5t25.5 -74.5q0 -84 -55 -139q-60 -60 -156 -60q-43 0 -83.5 15t-96.5 53q-48 37 -74 37q-14 0 -23.5 -10.5t-19.5 -36.5
q-21 -58 -78 -58q-43 0 -68.5 28t-25.5 75q0 84 55 139z" />
    <glyph glyph-name="Ograve" unicode="&#xd2;" horiz-adv-x="1402" 
d="M700 1458q281 0 436.5 -131t155.5 -366v-488q0 -235 -155.5 -366.5t-436.5 -131.5q-278 0 -433.5 131.5t-155.5 366.5v488q0 235 155.5 366t433.5 131zM455 979v-524q0 -109 62 -166.5t183 -57.5t184.5 57.5t63.5 166.5v524q0 109 -63.5 166t-184.5 57t-183 -57t-62 -166
zM817 1550h-117q-34 0 -56 7.5t-46 29.5l-147 127q-33 26 -33 60v10q0 37 41 37h174q30 0 46 -8t44 -39l113 -132q20 -22 20 -47v-8q0 -37 -39 -37z" />
    <glyph glyph-name="Oacute" unicode="&#xd3;" horiz-adv-x="1402" 
d="M700 1458q281 0 436.5 -131t155.5 -366v-488q0 -235 -155.5 -366.5t-436.5 -131.5q-278 0 -433.5 131.5t-155.5 366.5v488q0 235 155.5 366t433.5 131zM455 979v-524q0 -109 62 -166.5t183 -57.5t184.5 57.5t63.5 166.5v524q0 109 -63.5 166t-184.5 57t-183 -57t-62 -166
zM698 1550h-116q-39 0 -39 37v8q0 25 20 47l113 132q28 31 44 39t46 8h174q41 0 41 -37v-10q0 -34 -33 -60l-147 -127q-24 -22 -46.5 -29.5t-56.5 -7.5z" />
    <glyph glyph-name="Ocircumflex" unicode="&#xd4;" horiz-adv-x="1402" 
d="M700 1458q281 0 436.5 -131t155.5 -366v-488q0 -235 -155.5 -366.5t-436.5 -131.5q-278 0 -433.5 131.5t-155.5 366.5v488q0 235 155.5 366t433.5 131zM455 979v-524q0 -109 62 -166.5t183 -57.5t184.5 57.5t63.5 166.5v524q0 109 -63.5 166t-184.5 57t-183 -57t-62 -166
zM1010 1581q-20 -39 -60.5 -49.5t-81.5 12.5l-168 94l-168 -94q-41 -23 -79 -12.5t-58 49.5q-20 38 -7 75t54 62l199 113q30 18 59 18h7q25 0 57 -18l201 -113q41 -23 53 -59.5t-8 -77.5z" />
    <glyph glyph-name="Otilde" unicode="&#xd5;" horiz-adv-x="1402" 
d="M700 1458q281 0 436.5 -131t155.5 -366v-488q0 -235 -155.5 -366.5t-436.5 -131.5q-278 0 -433.5 131.5t-155.5 366.5v488q0 235 155.5 366t433.5 131zM455 979v-524q0 -109 62 -166.5t183 -57.5t184.5 57.5t63.5 166.5v524q0 109 -63.5 166t-184.5 57t-183 -57t-62 -166
zM416 1786q59 59 155 59q44 0 84.5 -15t96.5 -52q48 -37 73 -37q14 0 23.5 10.5t19.5 36.5q20 57 78 57q43 0 68.5 -27.5t25.5 -74.5q0 -84 -55 -139q-60 -60 -156 -60q-43 0 -83.5 15t-96.5 53q-48 37 -74 37q-14 0 -23.5 -10.5t-19.5 -36.5q-21 -58 -77 -58q-43 0 -69 28
t-26 75q0 83 56 139z" />
    <glyph glyph-name="Odieresis" unicode="&#xd6;" horiz-adv-x="1402" 
d="M700 1458q281 0 436.5 -131t155.5 -366v-488q0 -235 -155.5 -366.5t-436.5 -131.5q-278 0 -433.5 131.5t-155.5 366.5v488q0 235 155.5 366t433.5 131zM455 979v-524q0 -109 62 -166.5t183 -57.5t184.5 57.5t63.5 166.5v524q0 109 -63.5 166t-184.5 57t-183 -57t-62 -166
zM563 1544h-80q-98 0 -98 92v97q0 94 98 94h80q99 0 99 -94v-97q0 -92 -99 -92zM918 1544h-80q-99 0 -99 92v97q0 94 99 94h80q98 0 98 -94v-97q0 -92 -98 -92z" />
    <glyph glyph-name="multiply" unicode="&#xd7;" 
d="M1040 270q-43 -41 -94 -40t-94 44l-236 236l-235 -236q-43 -43 -95.5 -44t-95.5 40q-41 42 -38.5 95t45.5 96l235 233l-235 236q-43 43 -45.5 94.5t38.5 93.5q41 41 94.5 40t96.5 -44l235 -235l236 235q43 43 95 44t93 -40q41 -42 39 -93.5t-45 -94.5l-233 -236l233 -233
q43 -43 45 -96t-39 -95z" />
    <glyph glyph-name="Oslash" unicode="&#xd8;" horiz-adv-x="1402" 
d="M213 -256q-42 20 -54 58t11 79l109 215q-168 125 -168 377v488q0 235 155.5 366t433.5 131q123 0 238 -28l90 182q20 41 58 53t79 -8q42 -20 54 -58t-11 -79l-90 -179q174 -127 174 -380v-488q0 -235 -155.5 -366.5t-436.5 -131.5q-144 0 -241 31l-109 -217
q-20 -41 -58 -53t-79 8zM455 979v-524q0 -109 62 -166.5t183 -57.5t184.5 57.5t63.5 166.5v524q0 109 -63.5 166t-184.5 57t-183 -57t-62 -166z" />
    <glyph glyph-name="Ugrave" unicode="&#xd9;" horiz-adv-x="1402" 
d="M700 -25q-270 0 -417.5 127.5t-147.5 362.5v887q0 37 22.5 59.5t59.5 22.5h170q37 0 59.5 -22.5t22.5 -59.5v-901q0 -104 59 -158.5t172 -54.5t172.5 54.5t59.5 158.5v901q0 37 23 59.5t61 22.5h168q38 0 61 -22.5t23 -59.5v-887q0 -235 -148 -362.5t-420 -127.5z
M819 1550h-117q-34 0 -56 7.5t-46 29.5l-147 127q-33 26 -33 60v10q0 37 41 37h174q30 0 46 -8t44 -39l113 -132q20 -22 20 -47v-8q0 -37 -39 -37z" />
    <glyph glyph-name="Uacute" unicode="&#xda;" horiz-adv-x="1402" 
d="M700 -25q-270 0 -417.5 127.5t-147.5 362.5v887q0 37 22.5 59.5t59.5 22.5h170q37 0 59.5 -22.5t22.5 -59.5v-901q0 -104 59 -158.5t172 -54.5t172.5 54.5t59.5 158.5v901q0 37 23 59.5t61 22.5h168q38 0 61 -22.5t23 -59.5v-887q0 -235 -148 -362.5t-420 -127.5z
M700 1550h-116q-39 0 -39 37v8q0 25 20 47l113 132q28 31 44 39t46 8h174q41 0 41 -37v-10q0 -34 -33 -60l-147 -127q-24 -22 -46.5 -29.5t-56.5 -7.5z" />
    <glyph glyph-name="Ucircumflex" unicode="&#xdb;" horiz-adv-x="1402" 
d="M700 -25q-270 0 -417.5 127.5t-147.5 362.5v887q0 37 22.5 59.5t59.5 22.5h170q37 0 59.5 -22.5t22.5 -59.5v-901q0 -104 59 -158.5t172 -54.5t172.5 54.5t59.5 158.5v901q0 37 23 59.5t61 22.5h168q38 0 61 -22.5t23 -59.5v-887q0 -235 -148 -362.5t-420 -127.5z
M1010 1581q-20 -39 -60.5 -49.5t-81.5 12.5l-168 94l-168 -94q-41 -23 -79 -12.5t-58 49.5q-20 38 -7 75t54 62l199 113q30 18 59 18h7q25 0 57 -18l201 -113q41 -23 53 -59.5t-8 -77.5z" />
    <glyph glyph-name="Udieresis" unicode="&#xdc;" horiz-adv-x="1402" 
d="M700 -25q-270 0 -417.5 127.5t-147.5 362.5v887q0 37 22.5 59.5t59.5 22.5h170q37 0 59.5 -22.5t22.5 -59.5v-901q0 -104 59 -158.5t172 -54.5t172.5 54.5t59.5 158.5v901q0 37 23 59.5t61 22.5h168q38 0 61 -22.5t23 -59.5v-887q0 -235 -148 -362.5t-420 -127.5z
M563 1544h-80q-98 0 -98 92v97q0 94 98 94h80q99 0 99 -94v-97q0 -92 -99 -92zM918 1544h-80q-99 0 -99 92v97q0 94 99 94h80q98 0 98 -94v-97q0 -92 -98 -92z" />
    <glyph glyph-name="Yacute" unicode="&#xdd;" horiz-adv-x="1263" 
d="M719 0h-174q-37 0 -59.5 22.5t-22.5 59.5v475l-404 707q-32 55 -32 96q0 35 22.5 54.5t63.5 19.5h151q39 0 63.5 -15.5t47.5 -56.5l266 -485l268 485q23 41 47.5 56.5t63.5 15.5h131q41 0 63.5 -19.5t22.5 -54.5q0 -39 -33 -96l-403 -707v-475q0 -37 -22.5 -59.5
t-59.5 -22.5zM635 1550h-117q-39 0 -39 37v8q0 23 21 47l112 132q28 31 44 39t46 8h175q41 0 41 -37v-10q0 -34 -33 -60l-148 -127q-24 -22 -46 -29.5t-56 -7.5z" />
    <glyph glyph-name="Thorn" unicode="&#xde;" horiz-adv-x="1335" 
d="M401 0h-172q-37 0 -59.5 22.5t-22.5 59.5v1270q0 37 22.5 59.5t59.5 22.5h172q38 0 61 -22.5t23 -59.5v-174h250q510 0 510 -400v-112q0 -400 -510 -400h-250v-184q0 -37 -23 -59.5t-61 -22.5zM713 928h-228v-412h228q98 0 144 40t46 126v82q0 86 -45.5 125t-144.5 39z
" />
    <glyph glyph-name="germandbls" unicode="&#xdf;" horiz-adv-x="1257" 
d="M379 0h-180q-35 0 -55.5 20.5t-20.5 55.5v1003q0 188 130 283.5t384 95.5q239 0 365 -88.5t126 -255.5q0 -56 -21.5 -104t-72.5 -103l-69 -78q-29 -34 -29 -61q0 -17 9 -31t40 -43l100 -94q68 -65 95.5 -126t27.5 -144q0 -155 -95.5 -243.5t-262.5 -88.5h-145
q-115 0 -115 111v30q0 51 28 79t82 28h95q88 0 88 71q0 40 -39 76l-127 117q-54 49 -77.5 97t-23.5 108q0 113 72 194l70 78q51 56 51 115q0 123 -172 123q-96 0 -139 -37t-43 -117v-995q0 -35 -20.5 -55.5t-55.5 -20.5z" />
    <glyph glyph-name="agrave" unicode="&#xe0;" horiz-adv-x="1175" 
d="M469 -25q-189 0 -294 81t-105 227v26q0 155 102 231t313 76q121 0 215 -24v139q0 57 -34 83t-109 26q-141 0 -141 -88v-15q0 -39 -39 -39h-225q-43 0 -43 45v17q0 149 115.5 228t332.5 79q227 0 348 -88.5t121 -255.5v-414l68 -67q37 -37 38.5 -81t-34.5 -81l-64 -64
q-37 -36 -80 -34.5t-80 38.5l-90 91q-105 -136 -315 -136zM389 328v-21q0 -108 150 -108q72 0 116.5 35.5t44.5 91.5v92q-79 20 -153 20q-158 0 -158 -110zM674 1169h-117q-34 0 -56 7.5t-46 29.5l-148 127q-33 26 -33 60v10q0 37 41 37h174q30 0 46.5 -8t44.5 -39l112 -131
q21 -24 21 -48v-8q0 -37 -39 -37z" />
    <glyph glyph-name="aacute" unicode="&#xe1;" horiz-adv-x="1175" 
d="M469 -25q-189 0 -294 81t-105 227v26q0 155 102 231t313 76q121 0 215 -24v139q0 57 -34 83t-109 26q-141 0 -141 -88v-15q0 -39 -39 -39h-225q-43 0 -43 45v17q0 149 115.5 228t332.5 79q227 0 348 -88.5t121 -255.5v-414l68 -67q37 -37 38.5 -81t-34.5 -81l-64 -64
q-37 -36 -80 -34.5t-80 38.5l-90 91q-105 -136 -315 -136zM389 328v-21q0 -108 150 -108q72 0 116.5 35.5t44.5 91.5v92q-79 20 -153 20q-158 0 -158 -110zM557 1169h-117q-39 0 -39 37v8q0 24 21 48l113 131q28 31 44 39t46 8h174q41 0 41 -37v-10q0 -34 -33 -60l-148 -127
q-24 -22 -46 -29.5t-56 -7.5z" />
    <glyph glyph-name="acircumflex" unicode="&#xe2;" horiz-adv-x="1175" 
d="M469 -25q-189 0 -294 81t-105 227v26q0 155 102 231t313 76q121 0 215 -24v139q0 57 -34 83t-109 26q-141 0 -141 -88v-15q0 -39 -39 -39h-225q-43 0 -43 45v17q0 149 115.5 228t332.5 79q227 0 348 -88.5t121 -255.5v-414l68 -67q37 -37 38.5 -81t-34.5 -81l-64 -64
q-37 -36 -80 -34.5t-80 38.5l-90 91q-105 -136 -315 -136zM389 328v-21q0 -108 150 -108q72 0 116.5 35.5t44.5 91.5v92q-79 20 -153 20q-158 0 -158 -110zM866 1200q-20 -39 -60 -49.5t-81 12.5l-168 94l-168 -94q-41 -23 -79 -12.5t-58 49.5q-20 38 -7 75t54 62l199 113
q30 18 59 18h6q26 0 58 -18l200 -113q41 -23 53 -59.5t-8 -77.5z" />
    <glyph glyph-name="atilde" unicode="&#xe3;" horiz-adv-x="1175" 
d="M469 -25q-189 0 -294 81t-105 227v26q0 155 102 231t313 76q121 0 215 -24v139q0 57 -34 83t-109 26q-141 0 -141 -88v-15q0 -39 -39 -39h-225q-43 0 -43 45v17q0 149 115.5 228t332.5 79q227 0 348 -88.5t121 -255.5v-414l68 -67q37 -37 38.5 -81t-34.5 -81l-64 -64
q-37 -36 -80 -34.5t-80 38.5l-90 91q-105 -136 -315 -136zM389 328v-21q0 -108 150 -108q72 0 116.5 35.5t44.5 91.5v92q-79 20 -153 20q-158 0 -158 -110zM272 1405q59 59 156 59q44 0 84 -14.5t96 -52.5q48 -37 74 -37q14 0 23.5 10.5t19.5 36.5q20 57 78 57
q43 0 68.5 -27.5t25.5 -74.5q0 -84 -55 -139q-60 -60 -156 -60q-43 0 -83.5 15t-96.5 53q-48 37 -74 37q-14 0 -23.5 -10.5t-19.5 -36.5q-21 -58 -78 -58q-43 0 -68.5 28t-25.5 75q0 84 55 139z" />
    <glyph glyph-name="adieresis" unicode="&#xe4;" horiz-adv-x="1175" 
d="M469 -25q-189 0 -294 81t-105 227v26q0 155 102 231t313 76q121 0 215 -24v139q0 57 -34 83t-109 26q-141 0 -141 -88v-15q0 -39 -39 -39h-225q-43 0 -43 45v17q0 149 115.5 228t332.5 79q227 0 348 -88.5t121 -255.5v-414l68 -67q37 -37 38.5 -81t-34.5 -81l-64 -64
q-37 -36 -80 -34.5t-80 38.5l-90 91q-105 -136 -315 -136zM389 328v-21q0 -108 150 -108q72 0 116.5 35.5t44.5 91.5v92q-79 20 -153 20q-158 0 -158 -110zM420 1163h-80q-98 0 -98 92v97q0 94 98 94h80q98 0 98 -94v-97q0 -92 -98 -92zM774 1163h-80q-98 0 -98 92v97
q0 94 98 94h80q98 0 98 -94v-97q0 -92 -98 -92z" />
    <glyph glyph-name="aring" unicode="&#xe5;" horiz-adv-x="1175" 
d="M469 -25q-189 0 -294 81t-105 227v26q0 155 102 231t313 76q121 0 215 -24v139q0 57 -34 83t-109 26q-141 0 -141 -88v-15q0 -39 -39 -39h-225q-43 0 -43 45v17q0 149 115.5 228t332.5 79q227 0 348 -88.5t121 -255.5v-414l68 -67q37 -37 38.5 -81t-34.5 -81l-64 -64
q-37 -36 -80 -34.5t-80 38.5l-90 91q-105 -136 -315 -136zM389 328v-21q0 -108 150 -108q72 0 116.5 35.5t44.5 91.5v92q-79 20 -153 20q-158 0 -158 -110zM557 1559q122 0 187 -50t65 -143v-33q0 -93 -64.5 -142.5t-187.5 -49.5t-187.5 49.5t-64.5 142.5v33q0 93 65 143
t187 50zM557 1440q-80 0 -80 -72v-35q0 -71 80 -71t80 71v35q0 72 -80 72z" />
    <glyph glyph-name="ae" unicode="&#xe6;" horiz-adv-x="1769" 
d="M801 129q-47 -73 -132.5 -113.5t-191.5 -40.5q-192 0 -299.5 81.5t-107.5 228.5v24q0 158 100.5 232.5t314.5 74.5q121 0 215 -24v143q0 55 -34.5 80t-108.5 25t-107.5 -20.5t-33.5 -67.5v-15q0 -39 -39 -39h-225q-43 0 -43 45v17q0 149 113.5 228t330.5 79
q209 0 324 -86q121 86 323 86q237 0 358 -101.5t121 -299.5v-146q0 -94 -90 -94h-563v-86q0 -78 42.5 -111.5t139.5 -33.5q148 0 148 90v8q0 19 8 27t27 8h235q39 0 39 -41v-17q0 -146 -116 -220.5t-339 -74.5q-286 0 -409 154zM1194 852q-168 0 -168 -150v-77h340v77
q0 150 -172 150zM389 328v-19q0 -110 154 -110q69 0 113 35.5t44 91.5v92q-81 20 -151 20q-160 0 -160 -110z" />
    <glyph glyph-name="ccedilla" unicode="&#xe7;" horiz-adv-x="1153" 
d="M846 -252v-10q0 -88 -57.5 -130t-176.5 -42h-143q-35 0 -56.5 21.5t-21.5 54.5q0 32 22.5 53.5t55.5 21.5h106q37 0 37 33v12q0 17 -8 23.5t-29 11.5l-34 6q-39 8 -52.5 39.5t3.5 81.5l18 56q-199 17 -309.5 125.5t-110.5 287.5v252q0 200 131.5 311t366.5 111
q229 0 353 -91t124 -261v-39q0 -25 -15 -40t-40 -15h-209q-23 0 -37 14t-14 39v24q0 67 -38.5 98t-123.5 31t-124.5 -38.5t-39.5 -122.5v-291q0 -82 39.5 -120t124.5 -38t123.5 29.5t38.5 95.5v33q0 25 14 39t37 14h209q25 0 40 -15t15 -40v-45q0 -152 -99.5 -240.5
t-289.5 -107.5l-14 -68q104 -23 144 -59.5t40 -104.5z" />
    <glyph glyph-name="egrave" unicode="&#xe8;" horiz-adv-x="1165" 
d="M600 -25q-248 0 -379 102.5t-131 297.5v276q0 201 130 308.5t370 107.5q239 0 362 -102t123 -299v-146q0 -94 -90 -94h-567v-86q0 -78 42.5 -111.5t139.5 -33.5q152 0 152 90v8q0 19 7.5 27t26.5 8h236q39 0 39 -41v-17q0 -146 -117.5 -220.5t-343.5 -74.5zM588 852
q-170 0 -170 -150v-77h344v77q0 150 -174 150zM705 1169h-117q-34 0 -56.5 7.5t-46.5 29.5l-147 127q-33 26 -33 60v10q0 37 41 37h174q30 0 46 -8t44 -39l113 -131q20 -22 20 -48v-8q0 -37 -38 -37z" />
    <glyph glyph-name="eacute" unicode="&#xe9;" horiz-adv-x="1165" 
d="M600 -25q-248 0 -379 102.5t-131 297.5v276q0 201 130 308.5t370 107.5q239 0 362 -102t123 -299v-146q0 -94 -90 -94h-567v-86q0 -78 42.5 -111.5t139.5 -33.5q152 0 152 90v8q0 19 7.5 27t26.5 8h236q39 0 39 -41v-17q0 -146 -117.5 -220.5t-343.5 -74.5zM588 852
q-170 0 -170 -150v-77h344v77q0 150 -174 150zM588 1169h-117q-39 0 -39 37v8q0 24 21 48l112 131q28 31 44 39t46 8h174q41 0 41 -37v-10q0 -35 -32 -60l-148 -127q-24 -22 -46 -29.5t-56 -7.5z" />
    <glyph glyph-name="ecircumflex" unicode="&#xea;" horiz-adv-x="1165" 
d="M600 -25q-248 0 -379 102.5t-131 297.5v276q0 201 130 308.5t370 107.5q239 0 362 -102t123 -299v-146q0 -94 -90 -94h-567v-86q0 -78 42.5 -111.5t139.5 -33.5q152 0 152 90v8q0 19 7.5 27t26.5 8h236q39 0 39 -41v-17q0 -146 -117.5 -220.5t-343.5 -74.5zM588 852
q-170 0 -170 -150v-77h344v77q0 150 -174 150zM897 1200q-20 -39 -60 -49.5t-81 12.5l-168 94l-168 -94q-41 -23 -79 -12.5t-58 49.5q-20 38 -7 75t54 62l198 113q30 18 60 18h6q25 0 57 -18l201 -113q41 -23 53 -59.5t-8 -77.5z" />
    <glyph glyph-name="edieresis" unicode="&#xeb;" horiz-adv-x="1165" 
d="M600 -25q-248 0 -379 102.5t-131 297.5v276q0 201 130 308.5t370 107.5q239 0 362 -102t123 -299v-146q0 -94 -90 -94h-567v-86q0 -78 42.5 -111.5t139.5 -33.5q152 0 152 90v8q0 19 7.5 27t26.5 8h236q39 0 39 -41v-17q0 -146 -117.5 -220.5t-343.5 -74.5zM588 852
q-170 0 -170 -150v-77h344v77q0 150 -174 150zM451 1163h-80q-99 0 -99 92v97q0 94 99 94h80q98 0 98 -94v-97q0 -92 -98 -92zM805 1163h-80q-98 0 -98 92v97q0 94 98 94h80q98 0 98 -94v-97q0 -92 -98 -92z" />
    <glyph glyph-name="igrave" unicode="&#xec;" horiz-adv-x="712" 
d="M610 0h-123q-162 0 -231.5 62.5t-69.5 211.5v525h-100q-23 0 -38 14t-15 37v139q0 25 14 39t39 14h336q50 0 73 -23t23 -73v-645q0 -29 10.5 -41t36.5 -12h66q25 0 39 -14t14 -39v-123q0 -72 -74 -72zM436 1169h-117q-34 0 -56 7.5t-46 29.5l-147 127q-33 26 -33 60v10
q0 37 41 37h174q30 0 46 -8t44 -39l113 -131q20 -22 20 -48v-8q0 -37 -39 -37z" />
    <glyph glyph-name="iacute" unicode="&#xed;" horiz-adv-x="712" 
d="M610 0h-123q-162 0 -231.5 62.5t-69.5 211.5v525h-100q-23 0 -38 14t-15 37v139q0 25 14 39t39 14h336q50 0 73 -23t23 -73v-645q0 -29 10.5 -41t36.5 -12h66q25 0 39 -14t14 -39v-123q0 -72 -74 -72zM319 1169h-116q-39 0 -39 37v8q0 26 20 48l113 131q28 31 44 39t46 8
h174q41 0 41 -37v-10q0 -34 -33 -60l-147 -127q-24 -22 -46.5 -29.5t-56.5 -7.5z" />
    <glyph glyph-name="icircumflex" unicode="&#xee;" horiz-adv-x="712" 
d="M610 0h-123q-162 0 -231.5 62.5t-69.5 211.5v525h-100q-23 0 -38 14t-15 37v139q0 25 14 39t39 14h336q50 0 73 -23t23 -73v-645q0 -29 10.5 -41t36.5 -12h66q25 0 39 -14t14 -39v-123q0 -72 -74 -72zM629 1200q-20 -39 -60.5 -49.5t-81.5 12.5l-168 94l-167 -94
q-41 -23 -79.5 -12.5t-58.5 49.5q-20 38 -7 75t54 62l199 113q30 18 59 18h7q25 0 57 -18l201 -113q41 -23 53 -59.5t-8 -77.5z" />
    <glyph glyph-name="idieresis" unicode="&#xef;" horiz-adv-x="712" 
d="M610 0h-123q-162 0 -231.5 62.5t-69.5 211.5v525h-100q-23 0 -38 14t-15 37v139q0 25 14 39t39 14h336q50 0 73 -23t23 -73v-645q0 -29 10.5 -41t36.5 -12h66q25 0 39 -14t14 -39v-123q0 -72 -74 -72zM182 1163h-80q-98 0 -98 92v97q0 94 98 94h80q99 0 99 -94v-97
q0 -92 -99 -92zM537 1163h-80q-99 0 -99 92v97q0 94 99 94h80q98 0 98 -94v-97q0 -92 -98 -92z" />
    <glyph glyph-name="eth" unicode="&#xf0;" horiz-adv-x="1196" 
d="M598 -25q-239 0 -373.5 110t-134.5 306v174q0 177 115.5 282t310.5 105q126 0 209 -59q-59 85 -143 143l-58 41l-159 -59q-42 -14 -76 0.5t-47 54.5q-17 41 -1 75t58 48l45 16q-41 41 -44 94.5t34 96.5q38 49 99 53t116 -39l113 -88l157 60q88 28 123 -56q17 -41 1 -75
t-58 -48l-49 -18q146 -123 208 -244t62 -278v-279q0 -196 -134.5 -306t-373.5 -110zM598 213q174 0 174 160v215q0 75 -44 115t-130 40t-130 -40t-44 -115v-215q0 -160 174 -160z" />
    <glyph glyph-name="ntilde" unicode="&#xf1;" horiz-adv-x="1257" 
d="M412 0h-179q-35 0 -55 20.5t-20 55.5v655l-68 70q-37 37 -38.5 81.5t34.5 80.5l64 61q37 37 80.5 36t80.5 -38l97 -98q103 143 313 143q198 0 311 -111.5t113 -306.5v-573q0 -35 -20.5 -55.5t-55.5 -20.5h-178q-35 0 -55.5 20.5t-20.5 55.5v569q0 82 -41.5 125t-120.5 43
q-82 0 -124 -43t-42 -125v-569q0 -35 -20 -55.5t-55 -20.5zM362 1405q59 59 156 59q44 0 84 -14.5t96 -52.5q48 -37 74 -37q14 0 23.5 10.5t19.5 36.5q20 57 78 57q43 0 68.5 -27.5t25.5 -74.5q0 -84 -55 -139q-60 -60 -156 -60q-43 0 -83.5 15t-96.5 53q-48 37 -74 37
q-14 0 -23.5 -10.5t-19.5 -36.5q-21 -58 -78 -58q-43 0 -68.5 28t-25.5 75q0 84 55 139z" />
    <glyph glyph-name="ograve" unicode="&#xf2;" horiz-adv-x="1202" 
d="M602 -25q-246 0 -379 110.5t-133 313.5v244q0 202 134 313t376 111q246 0 380 -110.5t134 -313.5v-244q0 -203 -133 -313.5t-379 -110.5zM602 213q88 0 133 41t45 119v297q0 157 -180 157q-176 0 -176 -157v-297q0 -160 178 -160zM719 1169h-117q-34 0 -56 7.5t-46 29.5
l-148 127q-33 26 -33 60v10q0 37 41 37h175q30 0 46 -8t44 -39l112 -131q21 -24 21 -48v-8q0 -37 -39 -37z" />
    <glyph glyph-name="oacute" unicode="&#xf3;" horiz-adv-x="1202" 
d="M602 -25q-246 0 -379 110.5t-133 313.5v244q0 202 134 313t376 111q246 0 380 -110.5t134 -313.5v-244q0 -203 -133 -313.5t-379 -110.5zM602 213q88 0 133 41t45 119v297q0 157 -180 157q-176 0 -176 -157v-297q0 -160 178 -160zM600 1169h-117q-39 0 -39 37v8
q0 24 21 48l113 131q28 31 44 39t46 8h174q41 0 41 -37v-10q0 -34 -33 -60l-148 -127q-24 -22 -46 -29.5t-56 -7.5z" />
    <glyph glyph-name="ocircumflex" unicode="&#xf4;" horiz-adv-x="1202" 
d="M602 -25q-246 0 -379 110.5t-133 313.5v244q0 202 134 313t376 111q246 0 380 -110.5t134 -313.5v-244q0 -203 -133 -313.5t-379 -110.5zM602 213q88 0 133 41t45 119v297q0 157 -180 157q-176 0 -176 -157v-297q0 -160 178 -160zM909 1200q-20 -39 -60 -49.5t-81 12.5
l-168 94l-168 -94q-41 -23 -79 -12.5t-58 49.5q-20 38 -7 75t54 62l199 113q30 18 59 18h6q26 0 58 -18l200 -113q41 -23 53 -59.5t-8 -77.5z" />
    <glyph glyph-name="otilde" unicode="&#xf5;" horiz-adv-x="1202" 
d="M602 -25q-246 0 -379 110.5t-133 313.5v244q0 202 134 313t376 111q246 0 380 -110.5t134 -313.5v-244q0 -203 -133 -313.5t-379 -110.5zM602 213q88 0 133 41t45 119v297q0 157 -180 157q-176 0 -176 -157v-297q0 -160 178 -160zM315 1405q59 59 156 59q44 0 84 -14.5
t96 -52.5q48 -37 74 -37q14 0 23.5 10.5t19.5 36.5q20 57 78 57q43 0 68.5 -27.5t25.5 -74.5q0 -84 -55 -139q-60 -60 -156 -60q-43 0 -83.5 15t-96.5 53q-48 37 -74 37q-14 0 -23.5 -10.5t-19.5 -36.5q-21 -58 -78 -58q-43 0 -68.5 28t-25.5 75q0 84 55 139z" />
    <glyph glyph-name="odieresis" unicode="&#xf6;" horiz-adv-x="1202" 
d="M602 -25q-246 0 -379 110.5t-133 313.5v244q0 202 134 313t376 111q246 0 380 -110.5t134 -313.5v-244q0 -203 -133 -313.5t-379 -110.5zM602 213q88 0 133 41t45 119v297q0 157 -180 157q-176 0 -176 -157v-297q0 -160 178 -160zM463 1163h-80q-98 0 -98 92v97
q0 94 98 94h80q98 0 98 -94v-97q0 -92 -98 -92zM817 1163h-80q-98 0 -98 92v97q0 94 98 94h80q98 0 98 -94v-97q0 -92 -98 -92z" />
    <glyph glyph-name="divide" unicode="&#xf7;" 
d="M451 1026v88q0 115 120 115h86q60 0 91.5 -29.5t31.5 -85.5v-88q0 -113 -123 -113h-86q-120 0 -120 113zM1014 571h-799q-51 0 -82 30.5t-31 80.5v23q0 50 31 80t82 30h799q51 0 81.5 -29.5t30.5 -78.5v-23q0 -50 -31.5 -81.5t-80.5 -31.5zM451 274v86q0 115 120 115h86
q60 0 91.5 -29.5t31.5 -85.5v-86q0 -56 -31.5 -85t-91.5 -29h-86q-120 0 -120 114z" />
    <glyph glyph-name="oslash" unicode="&#xf8;" horiz-adv-x="1202" 
d="M440 -10l-98 -195q-20 -39 -56 -51t-77 6q-38 19 -50 57t7 76l88 180q-164 111 -164 336v244q0 202 134 313t376 111q94 0 160 -14l84 170q20 39 56 51t77 -6t52.5 -56.5t-9.5 -76.5l-76 -152q170 -111 170 -340v-244q0 -203 -133 -313.5t-379 -110.5q-92 0 -162 15z
M602 213q88 0 133 41t45 119v297q0 157 -180 157q-176 0 -176 -157v-297q0 -160 178 -160z" />
    <glyph glyph-name="ugrave" unicode="&#xf9;" horiz-adv-x="1257" 
d="M539 -25q-199 0 -312.5 111t-113.5 307v574q0 35 21 55t54 20h181q35 0 55 -20t20 -55v-570q0 -82 41.5 -125t120.5 -43q164 0 164 168v570q0 34 21.5 54.5t54.5 20.5h180q35 0 55.5 -20t20.5 -55v-658l67 -67q37 -37 38 -81t-36 -81l-61 -64q-37 -36 -81 -34.5t-81 38.5
l-98 99q-99 -144 -311 -144zM725 1169h-117q-34 0 -56 7.5t-46 29.5l-148 127q-32 25 -32 60v10q0 37 41 37h174q30 0 46 -8t44 -39l112 -131q21 -24 21 -48v-8q0 -37 -39 -37z" />
    <glyph glyph-name="uacute" unicode="&#xfa;" horiz-adv-x="1257" 
d="M539 -25q-199 0 -312.5 111t-113.5 307v574q0 35 21 55t54 20h181q35 0 55 -20t20 -55v-570q0 -82 41.5 -125t120.5 -43q164 0 164 168v570q0 34 21.5 54.5t54.5 20.5h180q35 0 55.5 -20t20.5 -55v-658l67 -67q37 -37 38 -81t-36 -81l-61 -64q-37 -36 -81 -34.5t-81 38.5
l-98 99q-99 -144 -311 -144zM608 1169h-116q-39 0 -39 37v8q0 26 20 48l113 131q28 31 44 39t46 8h174q41 0 41 -37v-10q0 -34 -33 -60l-147 -127q-24 -22 -46.5 -29.5t-56.5 -7.5z" />
    <glyph glyph-name="ucircumflex" unicode="&#xfb;" horiz-adv-x="1257" 
d="M539 -25q-199 0 -312.5 111t-113.5 307v574q0 35 21 55t54 20h181q35 0 55 -20t20 -55v-570q0 -82 41.5 -125t120.5 -43q164 0 164 168v570q0 34 21.5 54.5t54.5 20.5h180q35 0 55.5 -20t20.5 -55v-658l67 -67q37 -37 38 -81t-36 -81l-61 -64q-37 -36 -81 -34.5t-81 38.5
l-98 99q-99 -144 -311 -144zM918 1200q-20 -39 -60.5 -49.5t-81.5 12.5l-168 94l-168 -94q-41 -23 -79 -12.5t-58 49.5q-20 38 -7 75t54 62l199 113q30 18 59 18h6q26 0 58 -18l200 -113q41 -23 53.5 -59.5t-7.5 -77.5z" />
    <glyph glyph-name="udieresis" unicode="&#xfc;" horiz-adv-x="1257" 
d="M539 -25q-199 0 -312.5 111t-113.5 307v574q0 35 21 55t54 20h181q35 0 55 -20t20 -55v-570q0 -82 41.5 -125t120.5 -43q164 0 164 168v570q0 34 21.5 54.5t54.5 20.5h180q35 0 55.5 -20t20.5 -55v-658l67 -67q37 -37 38 -81t-36 -81l-61 -64q-37 -36 -81 -34.5t-81 38.5
l-98 99q-99 -144 -311 -144zM471 1163h-80q-98 0 -98 92v97q0 94 98 94h80q98 0 98 -94v-97q0 -92 -98 -92zM825 1163h-80q-98 0 -98 92v97q0 94 98 94h80q99 0 99 -94v-97q0 -92 -99 -92z" />
    <glyph glyph-name="yacute" unicode="&#xfd;" horiz-adv-x="1103" 
d="M387 -223l88 223h-49q-51 0 -78.5 22t-44.5 76l-250 785q-14 43 -14 84q0 36 20.5 55.5t57.5 19.5h143q45 0 69.5 -20.5t37.5 -71.5l196 -688l199 688q14 51 37 71.5t67 20.5h121q37 0 57.5 -19.5t20.5 -55.5q0 -35 -16 -84l-385 -1217q-19 -59 -73 -85t-116 -7
q-67 23 -91 78.5t3 124.5zM557 1169h-117q-39 0 -39 37v8q0 24 21 48l113 131q28 31 44 39t46 8h174q41 0 41 -37v-10q0 -34 -33 -60l-148 -127q-24 -22 -46 -29.5t-56 -7.5z" />
    <glyph glyph-name="thorn" unicode="&#xfe;" 
d="M336 -428h-94q-54 0 -86.5 32.5t-32.5 86.5v1642q0 54 32.5 86.5t86.5 32.5h94q54 0 86.5 -32.5t32.5 -86.5v-344q96 78 247 78q197 0 316 -119q121 -118 121 -311v-240q0 -192 -121 -307t-316 -115q-151 0 -247 78v-362q0 -54 -32.5 -86.5t-86.5 -32.5zM629 211
q86 0 131 42t45 122v291q0 165 -176 165q-85 0 -129.5 -42.5t-44.5 -122.5v-291q0 -80 44 -122t130 -42z" />
    <glyph glyph-name="ydieresis" unicode="&#xff;" horiz-adv-x="1103" 
d="M387 -223l88 223h-49q-51 0 -78.5 22t-44.5 76l-250 785q-14 43 -14 84q0 36 20.5 55.5t57.5 19.5h143q45 0 69.5 -20.5t37.5 -71.5l196 -688l199 688q14 51 37 71.5t67 20.5h121q37 0 57.5 -19.5t20.5 -55.5q0 -35 -16 -84l-385 -1217q-19 -59 -73 -85t-116 -7
q-67 23 -91 78.5t3 124.5zM420 1163h-80q-98 0 -98 92v97q0 94 98 94h80q98 0 98 -94v-97q0 -92 -98 -92zM774 1163h-80q-98 0 -98 92v97q0 94 98 94h80q98 0 98 -94v-97q0 -92 -98 -92z" />
    <glyph glyph-name="Amacron" unicode="&#x100;" horiz-adv-x="1353" 
d="M256 0h-125q-41 0 -63.5 21t-22.5 59q0 22 18 88l338 1128q23 80 61 111t111 31h207q73 0 111 -31t61 -111l338 -1128q19 -69 19 -88q0 -38 -22.5 -59t-63.5 -21h-146q-41 0 -64.5 19t-35.5 63l-80 283h-459l-82 -283q-12 -44 -35.5 -63t-64.5 -19zM827 627l-159 567
l-160 -567h319zM985 1686q0 -44 -29 -72.5t-73 -28.5h-414q-44 0 -73 28.5t-29 72.5t29 73t73 29h414q44 0 73 -29t29 -73z" />
    <glyph glyph-name="amacron" unicode="&#x101;" horiz-adv-x="1175" 
d="M469 -25q-189 0 -294 81t-105 227v26q0 155 102 231t313 76q121 0 215 -24v139q0 57 -34 83t-109 26q-141 0 -141 -88v-15q0 -39 -39 -39h-225q-43 0 -43 45v17q0 149 115.5 228t332.5 79q227 0 348 -88.5t121 -255.5v-414l68 -67q37 -37 38.5 -81t-34.5 -81l-64 -64
q-37 -36 -80 -34.5t-80 38.5l-90 91q-105 -136 -315 -136zM389 328v-21q0 -108 150 -108q72 0 116.5 35.5t44.5 91.5v92q-79 20 -153 20q-158 0 -158 -110zM866 1305q0 -44 -29 -72.5t-73 -28.5h-414q-44 0 -73 28.5t-29 72.5t29 73t73 29h414q44 0 73 -29t29 -73z" />
    <glyph glyph-name="Abreve" unicode="&#x102;" horiz-adv-x="1353" 
d="M256 0h-125q-41 0 -63.5 21t-22.5 59q0 22 18 88l338 1128q23 80 61 111t111 31h207q73 0 111 -31t61 -111l338 -1128q19 -69 19 -88q0 -38 -22.5 -59t-63.5 -21h-146q-41 0 -64.5 19t-35.5 63l-80 283h-459l-82 -283q-12 -44 -35.5 -63t-64.5 -19zM827 627l-159 567
l-160 -567h319zM934 1636q-96 -96 -258 -96t-258 96q-58 58 -58 121q0 44 27 71t70 27q46 0 84 -49q31 -38 61.5 -54.5t73.5 -16.5t73.5 16.5t61.5 54.5q38 49 84 49q43 0 69.5 -27t26.5 -71q0 -64 -57 -121z" />
    <glyph glyph-name="abreve" unicode="&#x103;" horiz-adv-x="1175" 
d="M469 -25q-189 0 -294 81t-105 227v26q0 155 102 231t313 76q121 0 215 -24v139q0 57 -34 83t-109 26q-141 0 -141 -88v-15q0 -39 -39 -39h-225q-43 0 -43 45v17q0 149 115.5 228t332.5 79q227 0 348 -88.5t121 -255.5v-414l68 -67q37 -37 38.5 -81t-34.5 -81l-64 -64
q-37 -36 -80 -34.5t-80 38.5l-90 91q-105 -136 -315 -136zM389 328v-21q0 -108 150 -108q72 0 116.5 35.5t44.5 91.5v92q-79 20 -153 20q-158 0 -158 -110zM815 1255q-96 -96 -258 -96t-258 96q-57 57 -57 121q0 44 26.5 71.5t69.5 27.5q45 0 84 -50q31 -38 61.5 -54.5
t73.5 -16.5t73.5 16.5t61.5 54.5q39 50 84 50q43 0 69.5 -27.5t26.5 -71.5q0 -64 -57 -121z" />
    <glyph glyph-name="Aogonek" unicode="&#x104;" horiz-adv-x="1353" 
d="M1245 -410h-106q-230 0 -230 179v20q0 93 90 172l48 41q-29 6 -45 24.5t-27 55.5l-82 283h-459l-80 -283q-12 -44 -35.5 -63t-64.5 -19h-123q-41 0 -63.5 21t-22.5 59q0 22 18 88l338 1128q23 80 61 111t111 31h207q73 0 111 -31t61 -111l338 -1128q19 -69 19 -88
q0 -47 -39 -80l-121 -104q-31 -29 -31 -54v-8q0 -39 58 -39h75q37 0 60.5 -23.5t23.5 -60.5v-30q0 -38 -26 -64.5t-64 -26.5zM823 627l-159 567l-160 -567h319z" />
    <glyph glyph-name="aogonek" unicode="&#x105;" horiz-adv-x="1175" 
d="M1040 -410h-108q-227 0 -227 177v22q0 52 18 90t68 88l71 72l-76 76q-103 -140 -317 -140q-189 0 -294 81t-105 227v26q0 155 102 231t313 76q121 0 215 -24v139q0 57 -34 83t-109 26q-141 0 -141 -88v-15q0 -39 -39 -39h-225q-43 0 -43 45v17q0 149 115.5 228t332.5 79
q227 0 348 -88.5t121 -255.5v-420l68 -67q38 -38 39.5 -88t-35.5 -87l-158 -157q-31 -31 -31 -58v-10q0 -41 60 -41h78q37 0 61.5 -23.5t24.5 -60.5v-30q0 -38 -27.5 -64.5t-65.5 -26.5zM389 328v-21q0 -108 150 -108q72 0 116.5 35.5t44.5 91.5v92q-79 20 -153 20
q-158 0 -158 -110z" />
    <glyph glyph-name="Cacute" unicode="&#x106;" horiz-adv-x="1337" 
d="M686 -25q-275 0 -425 130t-150 368v488q0 238 150 367.5t425 129.5q272 0 411.5 -114.5t139.5 -337.5v-64q0 -59 -55 -59h-215q-26 0 -41 15.5t-15 41.5v57q0 109 -53 157t-174 48q-113 0 -171 -56t-58 -165v-528q0 -109 58.5 -165.5t170.5 -56.5q121 0 174 48t53 157v74
q0 26 15 41.5t41 15.5h215q55 0 55 -59v-80q0 -223 -140 -338t-411 -115zM686 1550h-117q-39 0 -39 37v8q0 23 21 47l113 132q28 31 44 39t46 8h174q41 0 41 -37v-10q0 -34 -33 -60l-148 -127q-24 -22 -46 -29.5t-56 -7.5z" />
    <glyph glyph-name="cacute" unicode="&#x107;" horiz-adv-x="1153" 
d="M588 -25q-235 0 -366.5 110.5t-131.5 307.5v252q0 200 131.5 311t366.5 111q229 0 353 -91t124 -261v-39q0 -25 -15 -40t-40 -15h-209q-23 0 -37 14t-14 39v24q0 67 -38.5 98t-123.5 31t-124.5 -38.5t-39.5 -122.5v-291q0 -82 39.5 -120t124.5 -38t123.5 29.5t38.5 95.5
v33q0 25 14 39t37 14h209q25 0 40 -15t15 -40v-45q0 -170 -124 -261.5t-353 -91.5zM588 1169h-117q-39 0 -39 37v8q0 24 21 48l112 131q28 31 44 39t46 8h174q41 0 41 -37v-10q0 -35 -32 -60l-148 -127q-24 -22 -46 -29.5t-56 -7.5z" />
    <glyph glyph-name="Ccircumflex" unicode="&#x108;" horiz-adv-x="1337" 
d="M686 -25q-275 0 -425 130t-150 368v488q0 238 150 367.5t425 129.5q272 0 411.5 -114.5t139.5 -337.5v-64q0 -59 -55 -59h-215q-26 0 -41 15.5t-15 41.5v57q0 109 -53 157t-174 48q-113 0 -171 -56t-58 -165v-528q0 -109 58.5 -165.5t170.5 -56.5q121 0 174 48t53 157v74
q0 26 15 41.5t41 15.5h215q55 0 55 -59v-80q0 -223 -140 -338t-411 -115zM995 1581q-20 -39 -60 -49.5t-81 12.5l-168 94l-168 -94q-41 -23 -79 -12.5t-58 49.5q-20 38 -7 75t54 62l199 113q30 18 59 18h6q26 0 58 -18l200 -113q41 -23 53 -59.5t-8 -77.5z" />
    <glyph glyph-name="ccircumflex" unicode="&#x109;" horiz-adv-x="1153" 
d="M588 -25q-235 0 -366.5 110.5t-131.5 307.5v252q0 200 131.5 311t366.5 111q229 0 353 -91t124 -261v-39q0 -25 -15 -40t-40 -15h-209q-23 0 -37 14t-14 39v24q0 67 -38.5 98t-123.5 31t-124.5 -38.5t-39.5 -122.5v-291q0 -82 39.5 -120t124.5 -38t123.5 29.5t38.5 95.5
v33q0 25 14 39t37 14h209q25 0 40 -15t15 -40v-45q0 -170 -124 -261.5t-353 -91.5zM897 1200q-20 -39 -60 -49.5t-81 12.5l-168 94l-168 -94q-41 -23 -79 -12.5t-58 49.5q-20 38 -7 75t54 62l198 113q30 18 60 18h6q25 0 57 -18l201 -113q41 -23 53 -59.5t-8 -77.5z" />
    <glyph glyph-name="uni010A" unicode="&#x10a;" horiz-adv-x="1337" 
d="M686 -25q-275 0 -425 130t-150 368v488q0 238 150 367.5t425 129.5q272 0 411.5 -114.5t139.5 -337.5v-64q0 -59 -55 -59h-215q-26 0 -41 15.5t-15 41.5v57q0 109 -53 157t-174 48q-113 0 -171 -56t-58 -165v-528q0 -109 58.5 -165.5t170.5 -56.5q121 0 174 48t53 157v74
q0 26 15 41.5t41 15.5h215q55 0 55 -59v-80q0 -223 -140 -338t-411 -115zM739 1544h-106q-96 0 -96 94v95q0 94 96 94h106q97 0 97 -94v-95q0 -94 -97 -94z" />
    <glyph glyph-name="uni010B" unicode="&#x10b;" horiz-adv-x="1153" 
d="M588 -25q-235 0 -366.5 110.5t-131.5 307.5v252q0 200 131.5 311t366.5 111q229 0 353 -91t124 -261v-39q0 -25 -15 -40t-40 -15h-209q-23 0 -37 14t-14 39v24q0 67 -38.5 98t-123.5 31t-124.5 -38.5t-39.5 -122.5v-291q0 -82 39.5 -120t124.5 -38t123.5 29.5t38.5 95.5
v33q0 25 14 39t37 14h209q25 0 40 -15t15 -40v-45q0 -170 -124 -261.5t-353 -91.5zM641 1163h-106q-97 0 -97 94v95q0 94 97 94h106q96 0 96 -94v-95q0 -94 -96 -94z" />
    <glyph glyph-name="Ccaron" unicode="&#x10c;" horiz-adv-x="1337" 
d="M686 -25q-275 0 -425 130t-150 368v488q0 238 150 367.5t425 129.5q272 0 411.5 -114.5t139.5 -337.5v-64q0 -59 -55 -59h-215q-26 0 -41 15.5t-15 41.5v57q0 109 -53 157t-174 48q-113 0 -171 -56t-58 -165v-528q0 -109 58.5 -165.5t170.5 -56.5q121 0 174 48t53 157v74
q0 26 15 41.5t41 15.5h215q55 0 55 -59v-80q0 -223 -140 -338t-411 -115zM948 1665l-198 -113q-30 -18 -60 -18h-6q-25 0 -57 18l-201 113q-41 23 -53 60.5t8 78.5q20 39 60 49.5t81 -12.5l168 -94l168 94q41 23 79 12.5t58 -49.5q21 -38 8 -77t-55 -62z" />
    <glyph glyph-name="ccaron" unicode="&#x10d;" horiz-adv-x="1153" 
d="M588 -25q-235 0 -366.5 110.5t-131.5 307.5v252q0 200 131.5 311t366.5 111q229 0 353 -91t124 -261v-39q0 -25 -15 -40t-40 -15h-209q-23 0 -37 14t-14 39v24q0 67 -38.5 98t-123.5 31t-124.5 -38.5t-39.5 -122.5v-291q0 -82 39.5 -120t124.5 -38t123.5 29.5t38.5 95.5
v33q0 25 14 39t37 14h209q25 0 40 -15t15 -40v-45q0 -170 -124 -261.5t-353 -91.5zM850 1284l-199 -113q-30 -18 -59 -18h-6q-26 0 -58 18l-200 113q-41 23 -53 60.5t8 78.5q20 39 60 49.5t81 -12.5l168 -94l168 94q41 23 79 12.5t58 -49.5q21 -38 8 -77t-55 -62z" />
    <glyph glyph-name="Dcaron" unicode="&#x10e;" horiz-adv-x="1406" 
d="M657 0h-393q-54 0 -85.5 31.5t-31.5 85.5v1200q0 54 31.5 85.5t85.5 31.5h393q313 0 476 -140t163 -409v-336q0 -269 -163 -409t-476 -140zM664 1178h-179v-922h179q142 0 215 69.5t73 206.5v369q0 137 -73 207t-215 70zM942 1665l-199 -113q-30 -18 -59 -18h-6
q-25 0 -57 18l-201 113q-41 23 -53 60.5t8 78.5q20 39 60 49.5t81 -12.5l168 -94l168 94q41 23 79 12.5t58 -49.5q21 -38 8 -77t-55 -62z" />
    <glyph glyph-name="dcaron" unicode="&#x10f;" horiz-adv-x="1529" 
d="M1321 844q-56 0 -76.5 42t8.5 97l82 150h-20q-98 0 -98 100v106q0 105 110 105h92q111 0 111 -105v-127q0 -78 -51 -174l-80 -143q-28 -51 -78 -51zM532 -25q-198 0 -321 117q-121 121 -121 314v237q0 194 119 307q120 117 315 117q160 0 246 -80v346q0 54 31.5 86.5
t85.5 32.5h94q54 0 86.5 -32.5t32.5 -86.5v-1024l67 -67q37 -37 38.5 -81t-34.5 -81l-63 -64q-37 -36 -81 -34.5t-81 38.5l-94 95q-103 -140 -320 -140zM596 217q84 0 129 43t45 123v283q0 80 -44.5 122.5t-129.5 42.5q-172 0 -172 -165v-283q0 -166 172 -166z" />
    <glyph glyph-name="Dcroat" unicode="&#x110;" horiz-adv-x="1431" 
d="M682 0h-393q-54 0 -85.5 31.5t-31.5 85.5v510h-76q-44 0 -72 26.5t-28 69.5q0 44 28 71t72 27h76v496q0 54 31.5 85.5t85.5 31.5h393q313 0 476 -140t163 -409v-336q0 -269 -163 -409t-476 -140zM666 627h-156v-371h178q143 0 216 70t73 206v369q0 137 -73.5 207
t-215.5 70h-178v-357h156q44 0 71 -27t27 -71q0 -43 -27 -69.5t-71 -26.5z" />
    <glyph glyph-name="dslash" unicode="&#x111;" horiz-adv-x="1255" 
d="M532 -25q-198 0 -321 117q-121 121 -121 314v221q0 194 119 307q120 117 315 117q160 0 246 -80v153h-115q-44 0 -70 26t-26 69t26 68.5t70 25.5h115v28q0 54 29.5 82.5t85.5 28.5h100q54 0 84.5 -30t30.5 -81v-28h57q44 0 70 -25.5t26 -68.5t-26 -69t-70 -26h-57v-815
l67 -67q37 -37 38.5 -81t-34.5 -81l-63 -64q-37 -36 -81 -34.5t-81 38.5l-94 95q-103 -140 -320 -140zM596 217q84 0 129 43t45 123v272q0 80 -45 123t-129 43q-172 0 -172 -166v-272q0 -166 172 -166z" />
    <glyph glyph-name="Emacron" unicode="&#x112;" horiz-adv-x="1202" 
d="M1057 0h-793q-54 0 -85.5 31.5t-31.5 85.5v1200q0 54 31.5 85.5t85.5 31.5h793q76 0 76 -76v-111q0 -76 -76 -76h-576v-309h426q63 0 99 -34.5t36 -94.5v-8q0 -60 -36 -94.5t-99 -34.5h-426v-334h576q76 0 76 -76v-110q0 -76 -76 -76zM948 1686q0 -44 -29 -72.5
t-73 -28.5h-414q-44 0 -73 28.5t-29 72.5t29 73t73 29h414q44 0 73 -29t29 -73z" />
    <glyph glyph-name="emacron" unicode="&#x113;" horiz-adv-x="1165" 
d="M600 -25q-248 0 -379 102.5t-131 297.5v276q0 201 130 308.5t370 107.5q239 0 362 -102t123 -299v-146q0 -94 -90 -94h-567v-86q0 -78 42.5 -111.5t139.5 -33.5q152 0 152 90v8q0 19 7.5 27t26.5 8h236q39 0 39 -41v-17q0 -146 -117.5 -220.5t-343.5 -74.5zM588 852
q-170 0 -170 -150v-77h344v77q0 150 -174 150zM897 1305q0 -44 -29 -72.5t-73 -28.5h-414q-44 0 -73 28.5t-29 72.5t29 73t73 29h414q44 0 73 -29t29 -73z" />
    <glyph glyph-name="Ebreve" unicode="&#x114;" horiz-adv-x="1202" 
d="M1057 0h-793q-54 0 -85.5 31.5t-31.5 85.5v1200q0 54 31.5 85.5t85.5 31.5h793q76 0 76 -76v-111q0 -76 -76 -76h-576v-309h426q63 0 99 -34.5t36 -94.5v-8q0 -60 -36 -94.5t-99 -34.5h-426v-334h576q76 0 76 -76v-110q0 -76 -76 -76zM897 1636q-96 -96 -258 -96t-258 96
q-57 57 -57 121q0 44 26.5 71t69.5 27q46 0 84 -49q31 -38 61.5 -54.5t73.5 -16.5t73.5 16.5t61.5 54.5q38 49 84 49q43 0 69.5 -27t26.5 -71q0 -64 -57 -121z" />
    <glyph glyph-name="ebreve" unicode="&#x115;" horiz-adv-x="1165" 
d="M600 -25q-248 0 -379 102.5t-131 297.5v276q0 201 130 308.5t370 107.5q239 0 362 -102t123 -299v-146q0 -94 -90 -94h-567v-86q0 -78 42.5 -111.5t139.5 -33.5q152 0 152 90v8q0 19 7.5 27t26.5 8h236q39 0 39 -41v-17q0 -146 -117.5 -220.5t-343.5 -74.5zM588 852
q-170 0 -170 -150v-77h344v77q0 150 -174 150zM846 1255q-96 -96 -258 -96t-258 96q-58 58 -58 121q0 44 27 71.5t70 27.5q45 0 84 -50q31 -38 61.5 -54.5t73.5 -16.5t73.5 16.5t61.5 54.5q39 50 84 50q43 0 69.5 -27.5t26.5 -71.5q0 -64 -57 -121z" />
    <glyph glyph-name="uni0116" unicode="&#x116;" horiz-adv-x="1202" 
d="M1057 0h-793q-54 0 -85.5 31.5t-31.5 85.5v1200q0 54 31.5 85.5t85.5 31.5h793q76 0 76 -76v-111q0 -76 -76 -76h-576v-309h426q63 0 99 -34.5t36 -94.5v-8q0 -60 -36 -94.5t-99 -34.5h-426v-334h576q76 0 76 -76v-110q0 -76 -76 -76zM692 1544h-106q-97 0 -97 94v95
q0 94 97 94h106q96 0 96 -94v-95q0 -94 -96 -94z" />
    <glyph glyph-name="uni0117" unicode="&#x117;" horiz-adv-x="1165" 
d="M600 -25q-248 0 -379 102.5t-131 297.5v276q0 201 130 308.5t370 107.5q239 0 362 -102t123 -299v-146q0 -94 -90 -94h-567v-86q0 -78 42.5 -111.5t139.5 -33.5q152 0 152 90v8q0 19 7.5 27t26.5 8h236q39 0 39 -41v-17q0 -146 -117.5 -220.5t-343.5 -74.5zM588 852
q-170 0 -170 -150v-77h344v77q0 150 -174 150zM641 1163h-106q-97 0 -97 94v95q0 94 97 94h106q96 0 96 -94v-95q0 -94 -96 -94z" />
    <glyph glyph-name="Eogonek" unicode="&#x118;" horiz-adv-x="1202" 
d="M1053 -410h-109q-231 0 -231 185v12q0 48 19.5 84.5t68.5 77.5l61 51h-598q-54 0 -85.5 31.5t-31.5 85.5v1200q0 54 31.5 85.5t85.5 31.5h793q76 0 76 -76v-111q0 -76 -76 -76h-576v-309h426q63 0 99 -34.5t36 -94.5v-8q0 -60 -36 -94.5t-99 -34.5h-426v-334h576
q76 0 76 -76v-98q0 -30 -8 -46t-38 -42l-137 -115q-26 -23 -26 -49v-4q0 -20 12 -28.5t41 -8.5h80q38 0 62 -23.5t24 -60.5v-30q0 -38 -26 -64.5t-64 -26.5z" />
    <glyph glyph-name="eogonek" unicode="&#x119;" horiz-adv-x="1165" 
d="M883 -410h-109q-229 0 -229 174v21q0 92 88 168l26 22h-59q-248 0 -379 102.5t-131 297.5v276q0 201 130 308.5t370 107.5q239 0 362 -102t123 -299v-146q0 -94 -90 -94h-567v-86q0 -78 42.5 -111.5t139.5 -33.5q152 0 152 90v8q0 19 7.5 27t26.5 8h236q39 0 39 -41v-15
q0 -68 -27 -120q-25 -50 -137 -152l-115 -104q-26 -23 -26 -52v-10q0 -39 57 -39h76q37 0 60.5 -23.5t23.5 -60.5v-30q0 -38 -26 -64.5t-64 -26.5zM588 852q-170 0 -170 -150v-77h344v77q0 150 -174 150z" />
    <glyph glyph-name="Ecaron" unicode="&#x11a;" horiz-adv-x="1202" 
d="M1057 0h-793q-54 0 -85.5 31.5t-31.5 85.5v1200q0 54 31.5 85.5t85.5 31.5h793q76 0 76 -76v-111q0 -76 -76 -76h-576v-309h426q63 0 99 -34.5t36 -94.5v-8q0 -60 -36 -94.5t-99 -34.5h-426v-334h576q76 0 76 -76v-110q0 -76 -76 -76zM901 1665l-199 -113
q-30 -18 -59 -18h-6q-25 0 -57 18l-201 113q-41 23 -53 60.5t8 78.5q20 39 60 49.5t81 -12.5l168 -94l168 94q41 23 79 12.5t58 -49.5q21 -38 8 -77t-55 -62z" />
    <glyph glyph-name="ecaron" unicode="&#x11b;" horiz-adv-x="1165" 
d="M600 -25q-248 0 -379 102.5t-131 297.5v276q0 201 130 308.5t370 107.5q239 0 362 -102t123 -299v-146q0 -94 -90 -94h-567v-86q0 -78 42.5 -111.5t139.5 -33.5q152 0 152 90v8q0 19 7.5 27t26.5 8h236q39 0 39 -41v-17q0 -146 -117.5 -220.5t-343.5 -74.5zM588 852
q-170 0 -170 -150v-77h344v77q0 150 -174 150zM850 1284l-199 -113q-30 -18 -59 -18h-6q-26 0 -58 18l-200 113q-41 23 -53 60.5t8 78.5q20 39 60 49.5t81 -12.5l168 -94l168 94q41 23 79 12.5t58 -49.5q21 -38 8 -77t-55 -62z" />
    <glyph glyph-name="Gcircumflex" unicode="&#x11c;" horiz-adv-x="1355" 
d="M698 -25q-278 0 -432.5 130.5t-154.5 365.5v490q0 235 152.5 366t428.5 131q264 0 407.5 -111.5t143.5 -318.5v-29q0 -23 -13 -37t-36 -14h-229q-23 0 -36.5 13t-13.5 36v25q0 94 -54 138t-169 44q-239 0 -239 -219v-530q0 -111 63 -169.5t184 -58.5q118 0 173 45t55 142
v96h-174q-43 0 -67.5 23.5t-24.5 64.5v84q0 41 24.5 65.5t67.5 24.5h399q92 0 92 -94v-268q0 -207 -143.5 -321t-403.5 -114zM1001 1581q-20 -39 -60 -49.5t-81 12.5l-168 94l-168 -94q-41 -23 -79 -12.5t-58 49.5q-20 38 -7 75t54 62l199 113q30 18 59 18h6q26 0 58 -18
l200 -113q41 -23 53 -59.5t-8 -77.5z" />
    <glyph glyph-name="gcircumflex" unicode="&#x11d;" 
d="M596 -434q-485 0 -485 315v23q0 20 11.5 32.5t31.5 12.5h229q39 0 39 -39v-12q0 -107 174 -107q93 0 135.5 32.5t42.5 104.5v172q-90 -75 -248 -75q-199 0 -317 106q-119 107 -119 289v217q0 193 121 311q122 119 319 119q191 0 291 -115q11 52 46.5 81.5t88.5 29.5h11
q61 0 100 -38.5t39 -100.5v-963q0 -192 -131 -293.5t-379 -101.5zM600 252q86 0 130 39.5t44 114.5v256q0 80 -44.5 122.5t-129.5 42.5q-176 0 -176 -165v-256q0 -75 45 -114.5t131 -39.5zM922 1200q-20 -39 -60.5 -49.5t-81.5 12.5l-168 94l-168 -94q-41 -23 -79 -12.5
t-58 49.5q-20 38 -7 75t54 62l199 113q30 18 59 18h6q26 0 58 -18l201 -113q41 -23 53 -59.5t-8 -77.5z" />
    <glyph glyph-name="Gbreve" unicode="&#x11e;" horiz-adv-x="1355" 
d="M698 -25q-278 0 -432.5 130.5t-154.5 365.5v490q0 235 152.5 366t428.5 131q264 0 407.5 -111.5t143.5 -318.5v-29q0 -23 -13 -37t-36 -14h-229q-23 0 -36.5 13t-13.5 36v25q0 94 -54 138t-169 44q-239 0 -239 -219v-530q0 -111 63 -169.5t184 -58.5q118 0 173 45t55 142
v96h-174q-43 0 -67.5 23.5t-24.5 64.5v84q0 41 24.5 65.5t67.5 24.5h399q92 0 92 -94v-268q0 -207 -143.5 -321t-403.5 -114zM950 1636q-96 -96 -258 -96t-258 96q-57 57 -57 121q0 44 26.5 71t69.5 27q46 0 84 -49q31 -38 61.5 -54.5t73.5 -16.5t73.5 16.5t61.5 54.5
q38 49 84 49q43 0 70 -27t27 -71q0 -63 -58 -121z" />
    <glyph glyph-name="gbreve" unicode="&#x11f;" 
d="M596 -434q-485 0 -485 315v23q0 20 11.5 32.5t31.5 12.5h229q39 0 39 -39v-12q0 -107 174 -107q93 0 135.5 32.5t42.5 104.5v172q-90 -75 -248 -75q-199 0 -317 106q-119 107 -119 289v217q0 193 121 311q122 119 319 119q191 0 291 -115q11 52 46.5 81.5t88.5 29.5h11
q61 0 100 -38.5t39 -100.5v-963q0 -192 -131 -293.5t-379 -101.5zM600 252q86 0 130 39.5t44 114.5v256q0 80 -44.5 122.5t-129.5 42.5q-176 0 -176 -165v-256q0 -75 45 -114.5t131 -39.5zM870 1255q-96 -96 -258 -96t-258 96q-57 57 -57 121q0 44 26.5 71.5t69.5 27.5
q45 0 84 -50q31 -38 61.5 -54.5t73.5 -16.5t74 16.5t62 54.5q39 50 83 50q43 0 70 -27.5t27 -71.5q0 -63 -58 -121z" />
    <glyph glyph-name="uni0120" unicode="&#x120;" horiz-adv-x="1355" 
d="M698 -25q-278 0 -432.5 130.5t-154.5 365.5v490q0 235 152.5 366t428.5 131q264 0 407.5 -111.5t143.5 -318.5v-29q0 -23 -13 -37t-36 -14h-229q-23 0 -36.5 13t-13.5 36v25q0 94 -54 138t-169 44q-239 0 -239 -219v-530q0 -111 63 -169.5t184 -58.5q118 0 173 45t55 142
v96h-174q-43 0 -67.5 23.5t-24.5 64.5v84q0 41 24.5 65.5t67.5 24.5h399q92 0 92 -94v-268q0 -207 -143.5 -321t-403.5 -114zM745 1544h-106q-96 0 -96 94v95q0 94 96 94h106q97 0 97 -94v-95q0 -94 -97 -94z" />
    <glyph glyph-name="uni0121" unicode="&#x121;" 
d="M596 -434q-485 0 -485 315v23q0 20 11.5 32.5t31.5 12.5h229q39 0 39 -39v-12q0 -107 174 -107q93 0 135.5 32.5t42.5 104.5v172q-90 -75 -248 -75q-199 0 -317 106q-119 107 -119 289v217q0 193 121 311q122 119 319 119q191 0 291 -115q11 52 46.5 81.5t88.5 29.5h11
q61 0 100 -38.5t39 -100.5v-963q0 -192 -131 -293.5t-379 -101.5zM600 252q86 0 130 39.5t44 114.5v256q0 80 -44.5 122.5t-129.5 42.5q-176 0 -176 -165v-256q0 -75 45 -114.5t131 -39.5zM666 1163h-107q-96 0 -96 94v95q0 94 96 94h107q96 0 96 -94v-95q0 -94 -96 -94z
" />
    <glyph glyph-name="uni0122" unicode="&#x122;" horiz-adv-x="1355" 
d="M698 -25q-278 0 -432.5 130.5t-154.5 365.5v490q0 235 152.5 366t428.5 131q264 0 407.5 -111.5t143.5 -318.5v-29q0 -23 -13 -37t-36 -14h-229q-23 0 -36.5 13t-13.5 36v25q0 94 -54 138t-169 44q-239 0 -239 -219v-530q0 -111 63 -169.5t184 -58.5q118 0 173 45t55 142
v96h-174q-43 0 -67.5 23.5t-24.5 64.5v84q0 41 24.5 65.5t67.5 24.5h399q92 0 92 -94v-268q0 -207 -143.5 -321t-403.5 -114zM485 -315l68 135q13 28 30 37.5t50 9.5h160q45 0 45 -35v-10q0 -23 -27 -62l-96 -133q-25 -37 -97 -37h-104q-45 0 -45 37v8q0 19 16 50z" />
    <glyph glyph-name="uni0123" unicode="&#x123;" 
d="M797 1352l-70 -133q-13 -26 -30 -35.5t-48 -9.5h-160q-23 0 -33 7.5t-10 24.5v13q0 16 27 57l96 131q25 35 95 35h104q23 0 33 -8t10 -27v-8q0 -15 -14 -47zM596 -434q-485 0 -485 315v23q0 20 11.5 32.5t31.5 12.5h229q39 0 39 -39v-12q0 -107 174 -107q93 0 135.5 32.5
t42.5 104.5v172q-90 -75 -248 -75q-199 0 -317 106q-119 107 -119 289v217q0 193 121 311q122 119 319 119q191 0 291 -115q11 52 46.5 81.5t88.5 29.5h11q61 0 100 -38.5t39 -100.5v-963q0 -192 -131 -293.5t-379 -101.5zM600 252q86 0 130 39.5t44 114.5v256
q0 80 -44.5 122.5t-129.5 42.5q-176 0 -176 -165v-256q0 -75 45 -114.5t131 -39.5z" />
    <glyph glyph-name="Hcircumflex" unicode="&#x124;" horiz-adv-x="1454" 
d="M401 0h-172q-37 0 -59.5 22.5t-22.5 59.5v1270q0 37 22.5 59.5t59.5 22.5h172q38 0 61 -22.5t23 -59.5v-484h484v484q0 37 23 59.5t61 22.5h172q37 0 59.5 -22.5t22.5 -59.5v-1270q0 -37 -22.5 -59.5t-59.5 -22.5h-172q-38 0 -61 22.5t-23 59.5v510h-484v-510
q0 -37 -23 -59.5t-61 -22.5zM1036 1581q-20 -39 -60 -49.5t-81 12.5l-168 94l-168 -94q-41 -23 -79 -12.5t-58 49.5q-20 38 -7 75t54 62l199 113q30 18 59 18h6q26 0 58 -18l200 -113q41 -23 53 -59.5t-8 -77.5z" />
    <glyph glyph-name="hcircumflex" unicode="&#x125;" horiz-adv-x="1230" 
d="M379 0h-180q-35 0 -55.5 20.5t-20.5 55.5v1257q0 54 32.5 86.5t86.5 32.5h94q54 0 86.5 -32.5t32.5 -86.5v-356q96 90 258 90q186 0 294.5 -111.5t108.5 -306.5v-573q0 -35 -20.5 -55.5t-55.5 -20.5h-178q-35 0 -55.5 20.5t-20.5 55.5v569q0 82 -42 125t-123 43
q-82 0 -124 -43t-42 -125v-569q0 -35 -20.5 -55.5t-55.5 -20.5zM598 1591q-20 -39 -60 -49.5t-81 12.5l-168 95l-168 -95q-41 -23 -79 -12.5t-58 49.5q-20 38 -7 75.5t54 62.5l198 112q31 19 60 19h6q23 0 57 -19l201 -112q41 -23 53 -60t-8 -78z" />
    <glyph glyph-name="Hbar" unicode="&#x126;" horiz-adv-x="1474" 
d="M412 0h-172q-37 0 -59.5 22.5t-22.5 59.5v930h-70q-44 0 -71 27t-27 71q0 43 27 69.5t71 26.5h70v146q0 37 22.5 59.5t59.5 22.5h172q38 0 61 -22.5t23 -59.5v-152h483v152q0 37 23 59.5t61 22.5h172q37 0 59.5 -22.5t22.5 -59.5v-146h67q47 0 74 -26t27 -70
q0 -45 -27 -71.5t-74 -26.5h-67v-930q0 -37 -22.5 -59.5t-59.5 -22.5h-172q-38 0 -61 22.5t-23 59.5v510h-483v-510q0 -37 -23 -59.5t-61 -22.5zM979 1024h-483v-156h483v156z" />
    <glyph glyph-name="hbar" unicode="&#x127;" horiz-adv-x="1243" 
d="M391 0h-178q-35 0 -55.5 20.5t-20.5 55.5v1048h-57q-44 0 -70 26t-26 69t26 68.5t70 25.5h57v28q0 51 30.5 81t84.5 30h100q56 0 85.5 -28.5t29.5 -82.5v-28h115q44 0 70 -25.5t26 -68.5t-26 -69t-70 -26h-115v-161q96 90 258 90q189 0 297 -109t108 -301v-567
q0 -35 -20 -55.5t-55 -20.5h-178q-35 0 -55.5 20.5t-20.5 55.5v561q0 82 -43 126t-123 44q-82 0 -125 -44t-43 -126v-561q0 -35 -20.5 -55.5t-55.5 -20.5z" />
    <glyph glyph-name="Itilde" unicode="&#x128;" horiz-adv-x="649" 
d="M412 0h-174q-37 0 -59.5 22.5t-22.5 59.5v1270q0 37 22.5 59.5t59.5 22.5h174q37 0 59.5 -22.5t22.5 -59.5v-1270q0 -37 -22.5 -59.5t-59.5 -22.5zM39 1786q59 59 156 59q44 0 84 -14.5t96 -52.5q48 -37 74 -37q14 0 23.5 10.5t19.5 36.5q20 57 77 57q43 0 69 -27.5
t26 -74.5q0 -83 -56 -139q-60 -60 -155 -60q-80 0 -181 68q-48 37 -73 37q-14 0 -23.5 -10.5t-19.5 -36.5q-21 -58 -78 -58q-43 0 -68.5 28t-25.5 75q0 84 55 139z" />
    <glyph glyph-name="itilde" unicode="&#x129;" horiz-adv-x="712" 
d="M610 0h-123q-162 0 -231.5 62.5t-69.5 211.5v525h-100q-23 0 -38 14t-15 37v139q0 25 14 39t39 14h336q50 0 73 -23t23 -73v-645q0 -29 10.5 -41t36.5 -12h66q25 0 39 -14t14 -39v-123q0 -72 -74 -72zM35 1405q59 59 155 59q44 0 84.5 -15t96.5 -52q48 -37 73 -37
q14 0 23.5 10.5t19.5 36.5q20 57 78 57q43 0 68.5 -27.5t25.5 -74.5q0 -84 -55 -139q-60 -60 -155 -60q-80 0 -181 68q-48 37 -73 37q-14 0 -23.5 -10.5t-19.5 -36.5q-21 -58 -78 -58q-43 0 -68.5 28t-25.5 75q0 84 55 139z" />
    <glyph glyph-name="Imacron" unicode="&#x12a;" horiz-adv-x="649" 
d="M412 0h-174q-37 0 -59.5 22.5t-22.5 59.5v1270q0 37 22.5 59.5t59.5 22.5h174q37 0 59.5 -22.5t22.5 -59.5v-1270q0 -37 -22.5 -59.5t-59.5 -22.5zM633 1686q0 -44 -29.5 -72.5t-73.5 -28.5h-413q-44 0 -73.5 28.5t-29.5 72.5t29.5 73t73.5 29h413q44 0 73.5 -29
t29.5 -73z" />
    <glyph glyph-name="imacron" unicode="&#x12b;" horiz-adv-x="712" 
d="M610 0h-123q-162 0 -231.5 62.5t-69.5 211.5v525h-100q-23 0 -38 14t-15 37v139q0 25 14 39t39 14h336q50 0 73 -23t23 -73v-645q0 -29 10.5 -41t36.5 -12h66q25 0 39 -14t14 -39v-123q0 -72 -74 -72zM629 1305q0 -44 -29.5 -72.5t-73.5 -28.5h-413q-44 0 -73.5 28.5
t-29.5 72.5t29.5 73t73.5 29h413q44 0 73.5 -29t29.5 -73z" />
    <glyph glyph-name="Ibreve" unicode="&#x12c;" horiz-adv-x="649" 
d="M412 0h-174q-37 0 -59.5 22.5t-22.5 59.5v1270q0 37 22.5 59.5t59.5 22.5h174q37 0 59.5 -22.5t22.5 -59.5v-1270q0 -37 -22.5 -59.5t-59.5 -22.5zM582 1636q-96 -96 -258 -96t-258 96q-58 58 -58 121q0 44 26.5 71t69.5 27q46 0 84 -49q31 -38 62 -54.5t74 -16.5
t73.5 16.5t61.5 54.5q38 49 84 49q43 0 69.5 -27t26.5 -71q0 -64 -57 -121z" />
    <glyph glyph-name="ibreve" unicode="&#x12d;" horiz-adv-x="712" 
d="M610 0h-123q-162 0 -231.5 62.5t-69.5 211.5v525h-100q-23 0 -38 14t-15 37v139q0 25 14 39t39 14h336q50 0 73 -23t23 -73v-645q0 -29 10.5 -41t36.5 -12h66q25 0 39 -14t14 -39v-123q0 -72 -74 -72zM578 1255q-96 -96 -259 -96q-162 0 -258 96q-57 57 -57 121
q0 44 26.5 71.5t69.5 27.5q45 0 84 -50q31 -38 61.5 -54.5t73.5 -16.5t74 16.5t62 54.5q39 50 84 50q43 0 69.5 -27.5t26.5 -71.5q0 -64 -57 -121z" />
    <glyph glyph-name="Iogonek" unicode="&#x12e;" horiz-adv-x="649" 
d="M446 -410h-104q-229 0 -229 177v20q0 87 88 172l45 41h-8q-37 0 -59.5 22.5t-22.5 59.5v1270q0 37 22.5 59.5t59.5 22.5h174q37 0 59.5 -22.5t22.5 -59.5v-1264q0 -40 -10.5 -61.5t-43.5 -51.5l-90 -75q-28 -28 -28 -56v-8q0 -41 57 -41h74q37 0 60.5 -23.5t23.5 -60.5
v-30q0 -38 -26.5 -64.5t-64.5 -26.5z" />
    <glyph glyph-name="iogonek" unicode="&#x12f;" horiz-adv-x="712" 
d="M406 1147h-150q-49 0 -75.5 25.5t-26.5 72.5v92q0 101 102 101h150q102 0 102 -101v-92q0 -47 -26.5 -72.5t-75.5 -25.5zM596 -410h-104q-230 0 -230 183v14q0 58 20.5 97.5t73.5 80.5l50 39q-117 14 -168.5 77t-51.5 193v525h-100q-23 0 -38 14t-15 37v139q0 25 14 39
t39 14h336q50 0 73 -23t23 -73v-645q0 -29 10.5 -41t36.5 -12h66q25 0 39 -14t14 -39v-105q0 -31 -8 -47t-37 -39l-139 -113q-29 -26 -29 -47v-10q0 -39 57 -39h74q37 0 60.5 -23.5t23.5 -60.5v-30q0 -38 -26 -64.5t-64 -26.5z" />
    <glyph glyph-name="uni0130" unicode="&#x130;" horiz-adv-x="649" 
d="M412 0h-174q-37 0 -59.5 22.5t-22.5 59.5v1270q0 37 22.5 59.5t59.5 22.5h174q37 0 59.5 -22.5t22.5 -59.5v-1270q0 -37 -22.5 -59.5t-59.5 -22.5zM377 1544h-107q-96 0 -96 94v95q0 94 96 94h107q96 0 96 -94v-95q0 -94 -96 -94z" />
    <glyph glyph-name="uni0131" unicode="&#x131;" horiz-adv-x="712" 
d="M610 0h-123q-162 0 -231.5 62.5t-69.5 211.5v525h-100q-23 0 -38 14t-15 37v139q0 25 14 39t39 14h336q50 0 73 -23t23 -73v-645q0 -29 10.5 -41t36.5 -12h66q25 0 39 -14t14 -39v-123q0 -72 -74 -72z" />
    <glyph glyph-name="uni0132" unicode="&#x132;" horiz-adv-x="1869" 
d="M412 0h-174q-37 0 -59.5 22.5t-22.5 59.5v1270q0 37 22.5 59.5t59.5 22.5h174q37 0 59.5 -22.5t22.5 -59.5v-1270q0 -37 -22.5 -59.5t-59.5 -22.5zM1223 -25q-246 0 -376 109t-130 313v86q0 74 40 115t113 41h21q72 0 111.5 -40.5t39.5 -113.5v-77q0 -170 179 -170
q87 0 132.5 44t45.5 128v942q0 37 22.5 59.5t59.5 22.5h172q38 0 61 -22.5t23 -59.5v-942q0 -207 -134 -321t-380 -114z" />
    <glyph glyph-name="uni0133" unicode="&#x133;" horiz-adv-x="1327" 
d="M406 1147h-150q-49 0 -75.5 25.5t-26.5 72.5v92q0 101 102 101h150q102 0 102 -101v-92q0 -47 -26.5 -72.5t-75.5 -25.5zM610 0h-123q-162 0 -231.5 62.5t-69.5 211.5v525h-100q-23 0 -38 14t-15 37v139q0 25 14 39t39 14h336q50 0 73 -23t23 -73v-645q0 -29 10.5 -41
t36.5 -12h66q25 0 39 -14t14 -39v-123q0 -72 -74 -72zM1092 1147h-150q-49 0 -75.5 25.5t-26.5 72.5v92q0 101 102 101h150q102 0 102 -101v-92q0 -47 -26.5 -72.5t-75.5 -25.5zM897 -410h-121q-98 0 -98 82v97q0 31 19.5 49t54.5 18h69q29 0 40 11t11 42v910h-100
q-23 0 -38 14t-15 37v139q0 25 14 39t39 14h336q50 0 73 -23t23 -73v-1067q0 -152 -73 -220.5t-234 -68.5z" />
    <glyph glyph-name="Jcircumflex" unicode="&#x134;" horiz-adv-x="1220" 
d="M573 -25q-246 0 -375.5 109t-129.5 313v86q0 74 40 115t113 41h21q72 0 111.5 -40.5t39.5 -113.5v-77q0 -170 178 -170q87 0 133 44t46 128v942q0 37 22 59.5t59 22.5h173q38 0 60.5 -22.5t22.5 -59.5v-942q0 -207 -134 -321t-380 -114zM1227 1581q-20 -39 -60.5 -49.5
t-81.5 12.5l-167 94l-168 -94q-41 -23 -79.5 -12.5t-58.5 49.5q-20 38 -7 75t54 62l199 113q30 18 60 18h6q25 0 57 -18l201 -113q41 -23 53 -59.5t-8 -77.5z" />
    <glyph glyph-name="jcircumflex" unicode="&#x135;" horiz-adv-x="649" 
d="M217 -410h-123q-53 0 -77.5 20.5t-24.5 63.5v88q0 35 22 54.5t60 19.5h69q29 0 40.5 11t11.5 42v910h-101q-23 0 -38 14t-15 37v139q0 25 14 39t39 14h336q50 0 73 -23t23 -73v-1063q0 -154 -74 -223.5t-235 -69.5zM627 1200q-20 -39 -60.5 -49.5t-81.5 12.5l-168 94
l-167 -94q-41 -23 -79.5 -12.5t-58.5 49.5q-20 38 -7 75t54 62l199 113q30 18 59 18h7q25 0 57 -18l201 -113q41 -23 53 -59.5t-8 -77.5z" />
    <glyph glyph-name="uni0136" unicode="&#x136;" horiz-adv-x="1329" 
d="M401 0h-172q-37 0 -59.5 22.5t-22.5 59.5v1270q0 37 22.5 59.5t59.5 22.5h172q38 0 61 -22.5t23 -59.5v-1270q0 -37 -23 -59.5t-61 -22.5zM1198 4q-62 -35 -128.5 -16.5t-108.5 80.5l-336 507q-50 74 -50 156q0 79 48 150l321 485q25 37 52 52.5t65 15.5h139
q38 0 59 -19.5t21 -54.5q0 -39 -39 -98l-346 -508l360 -516q43 -61 26.5 -128.5t-83.5 -105.5zM498 -315l67 135q13 28 30 37.5t50 9.5h160q45 0 45 -35v-10q0 -23 -27 -62l-96 -133q-25 -37 -96 -37h-105q-45 0 -45 37v8q0 17 17 50z" />
    <glyph glyph-name="uni0137" unicode="&#x137;" horiz-adv-x="1167" 
d="M379 0h-180q-35 0 -55.5 20.5t-20.5 55.5v1257q0 54 32.5 86.5t86.5 32.5h94q54 0 86.5 -32.5t32.5 -86.5v-1257q0 -35 -20.5 -55.5t-55.5 -20.5zM1038 4q-57 -35 -122.5 -19t-108.5 76l-225 314q-52 73 -52 153q0 81 50 152l211 295q29 38 54.5 52.5t63.5 14.5h129
q80 0 80 -71q0 -45 -41 -99l-229 -311l242 -325q44 -62 29 -128t-81 -104zM412 -315l67 135q13 28 30 37.5t50 9.5h160q45 0 45 -35v-10q0 -23 -27 -62l-96 -133q-25 -37 -96 -37h-105q-45 0 -45 37v8q0 17 17 50z" />
    <glyph glyph-name="Lacute" unicode="&#x139;" horiz-adv-x="1116" 
d="M1014 0h-750q-54 0 -85.5 31.5t-31.5 85.5v1235q0 37 22.5 59.5t59.5 22.5h172q38 0 61 -22.5t23 -59.5v-1086h529q76 0 76 -76v-114q0 -76 -76 -76zM315 1550h-116q-39 0 -39 37v8q0 25 20 47l113 132q28 31 44 39t46 8h174q41 0 41 -37v-10q0 -34 -33 -60l-147 -127
q-24 -22 -46.5 -29.5t-56.5 -7.5z" />
    <glyph glyph-name="lacute" unicode="&#x13a;" horiz-adv-x="649" 
d="M547 0h-123q-162 0 -231.5 62.5t-69.5 211.5v1059q0 54 32.5 86.5t86.5 32.5h94q54 0 86.5 -32.5t32.5 -86.5v-1032q0 -29 10.5 -41t36.5 -12h65q25 0 39.5 -14t14.5 -39v-123q0 -72 -74 -72zM289 1561h-117q-39 0 -39 36v9q0 23 21 47l112 131q28 31 44 39t46 8h174
q41 0 41 -37v-10q0 -35 -32 -60l-148 -127q-23 -22 -45 -29t-57 -7z" />
    <glyph glyph-name="uni013B" unicode="&#x13b;" horiz-adv-x="1116" 
d="M1014 0h-750q-54 0 -85.5 31.5t-31.5 85.5v1235q0 37 22.5 59.5t59.5 22.5h172q38 0 61 -22.5t23 -59.5v-1086h529q76 0 76 -76v-114q0 -76 -76 -76zM410 -315l67 135q13 28 30 37.5t50 9.5h160q45 0 45 -35v-10q0 -23 -27 -62l-96 -133q-25 -37 -96 -37h-105
q-45 0 -45 37v8q0 17 17 50z" />
    <glyph glyph-name="uni013C" unicode="&#x13c;" horiz-adv-x="649" 
d="M547 0h-123q-162 0 -231.5 62.5t-69.5 211.5v1059q0 54 32.5 86.5t86.5 32.5h94q54 0 86.5 -32.5t32.5 -86.5v-1032q0 -29 10.5 -41t36.5 -12h65q25 0 39.5 -14t14.5 -39v-123q0 -72 -74 -72zM180 -315l68 135q13 28 30 37.5t50 9.5h159q45 0 45 -35v-10q0 -25 -26 -62
l-96 -133q-25 -37 -97 -37h-104q-45 0 -45 37v8q0 19 16 50z" />
    <glyph glyph-name="Lcaron" unicode="&#x13d;" horiz-adv-x="1159" 
d="M881 840q-56 0 -77.5 42.5t7.5 96.5l84 151h-23q-47 0 -72.5 26t-25.5 73v106q0 107 113 107h90q113 0 113 -107v-125q0 -95 -50 -176l-84 -143q-26 -51 -75 -51zM1014 0h-750q-54 0 -85.5 31.5t-31.5 85.5v1235q0 37 22.5 59.5t59.5 22.5h172q38 0 61 -22.5t23 -59.5
v-1086h529q76 0 76 -76v-114q0 -76 -76 -76z" />
    <glyph glyph-name="lcaron" unicode="&#x13e;" horiz-adv-x="882" 
d="M674 844q-55 0 -76.5 42.5t8.5 96.5l82 150h-20q-97 0 -97 100v106q0 105 111 105h90q111 0 111 -105v-127q0 -94 -49 -174l-82 -143q-28 -51 -78 -51zM547 0h-123q-162 0 -231.5 62.5t-69.5 211.5v1059q0 54 32.5 86.5t86.5 32.5h94q54 0 86.5 -32.5t32.5 -86.5v-1032
q0 -29 10.5 -41t36.5 -12h65q25 0 39.5 -14t14.5 -39v-123q0 -72 -74 -72z" />
    <glyph glyph-name="Ldot" unicode="&#x13f;" horiz-adv-x="1130" 
d="M907 616h-98q-117 0 -117 113v100q0 113 117 113h98q117 0 117 -113v-100q0 -113 -117 -113zM1014 0h-750q-54 0 -85.5 31.5t-31.5 85.5v1235q0 37 22.5 59.5t59.5 22.5h172q38 0 61 -22.5t23 -59.5v-1086h529q76 0 76 -76v-114q0 -76 -76 -76z" />
    <glyph glyph-name="uni0140" unicode="&#x140;" horiz-adv-x="956" 
d="M815 449h-90q-117 0 -117 110v103q0 112 117 112h90q117 0 117 -112v-103q0 -110 -117 -110zM547 0h-123q-162 0 -231.5 62.5t-69.5 211.5v1059q0 54 32.5 86.5t86.5 32.5h94q54 0 86.5 -32.5t32.5 -86.5v-1032q0 -29 10.5 -41t36.5 -12h65q25 0 39.5 -14t14.5 -39v-123
q0 -72 -74 -72z" />
    <glyph glyph-name="Lslash" unicode="&#x141;" horiz-adv-x="1138" 
d="M1047 0h-750q-54 0 -85.5 31.5t-31.5 85.5v350l-37 -18q-41 -20 -77 -8t-56 53q-19 38 -4.5 75t55.5 56l119 57v670q0 37 22.5 59.5t59.5 22.5h172q38 0 61 -22.5t23 -59.5v-506l184 88q41 20 78 8t56 -51q19 -38 5 -75t-55 -56l-268 -129v-365h529q75 0 75 -76v-114
q0 -76 -75 -76z" />
    <glyph glyph-name="lslash" unicode="&#x142;" horiz-adv-x="692" 
d="M164 274v148l-14 -8q-79 -48 -132 30q-23 35 -13.5 71.5t46.5 59.5l113 70v688q0 54 32.5 86.5t86.5 32.5h94q54 0 86.5 -32.5t32.5 -86.5v-487l32 20q37 23 71.5 15t59.5 -45q23 -37 14 -72.5t-46 -58.5l-131 -80v-324q0 -29 10.5 -41t36.5 -12h65q25 0 39.5 -14
t14.5 -39v-123q0 -72 -74 -72h-123q-162 0 -231.5 62.5t-69.5 211.5z" />
    <glyph glyph-name="Nacute" unicode="&#x143;" horiz-adv-x="1443" 
d="M373 0h-148q-35 0 -56.5 21.5t-21.5 58.5v1229q0 60 33.5 92.5t93.5 32.5h129q61 0 94.5 -22.5t65.5 -84.5l428 -805v832q0 37 21.5 58.5t58.5 21.5h148q37 0 58 -21.5t21 -58.5v-1229q0 -57 -34 -91t-93 -34h-122q-61 0 -94.5 22t-65.5 84l-436 814v-840
q0 -37 -21.5 -58.5t-58.5 -21.5zM729 1550h-117q-39 0 -39 37v8q0 23 21 47l113 132q28 31 44 39t46 8h174q41 0 41 -37v-10q0 -34 -33 -60l-148 -127q-24 -22 -46 -29.5t-56 -7.5z" />
    <glyph glyph-name="nacute" unicode="&#x144;" horiz-adv-x="1257" 
d="M412 0h-179q-35 0 -55 20.5t-20 55.5v655l-68 70q-37 37 -38.5 81.5t34.5 80.5l64 61q37 37 80.5 36t80.5 -38l97 -98q103 143 313 143q198 0 311 -111.5t113 -306.5v-573q0 -35 -20.5 -55.5t-55.5 -20.5h-178q-35 0 -55.5 20.5t-20.5 55.5v569q0 82 -41.5 125t-120.5 43
q-82 0 -124 -43t-42 -125v-569q0 -35 -20 -55.5t-55 -20.5zM647 1169h-117q-38 0 -38 37v8q0 26 20 48l113 131q28 31 44 39t46 8h174q41 0 41 -37v-10q0 -34 -33 -60l-147 -127q-24 -22 -46.5 -29.5t-56.5 -7.5z" />
    <glyph glyph-name="uni0145" unicode="&#x145;" horiz-adv-x="1443" 
d="M373 0h-148q-35 0 -56.5 21.5t-21.5 58.5v1229q0 60 33.5 92.5t93.5 32.5h129q61 0 94.5 -22.5t65.5 -84.5l428 -805v832q0 37 21.5 58.5t58.5 21.5h148q37 0 58 -21.5t21 -58.5v-1229q0 -57 -34 -91t-93 -34h-122q-61 0 -94.5 22t-65.5 84l-436 814v-840
q0 -37 -21.5 -58.5t-58.5 -21.5zM502 -315l67 135q13 28 30 37.5t50 9.5h160q45 0 45 -35v-10q0 -23 -27 -62l-96 -133q-25 -37 -96 -37h-105q-45 0 -45 37v8q0 17 17 50z" />
    <glyph glyph-name="uni0146" unicode="&#x146;" horiz-adv-x="1257" 
d="M412 0h-179q-35 0 -55 20.5t-20 55.5v655l-68 70q-37 37 -38.5 81.5t34.5 80.5l64 61q37 37 80.5 36t80.5 -38l97 -98q103 143 313 143q198 0 311 -111.5t113 -306.5v-573q0 -35 -20.5 -55.5t-55.5 -20.5h-178q-35 0 -55.5 20.5t-20.5 55.5v569q0 82 -41.5 125t-120.5 43
q-82 0 -124 -43t-42 -125v-569q0 -35 -20 -55.5t-55 -20.5zM436 -315l68 135q13 28 30 37.5t50 9.5h159q45 0 45 -35v-10q0 -25 -26 -62l-96 -133q-25 -37 -97 -37h-104q-45 0 -45 37v8q0 19 16 50z" />
    <glyph glyph-name="Ncaron" unicode="&#x147;" horiz-adv-x="1443" 
d="M373 0h-148q-35 0 -56.5 21.5t-21.5 58.5v1229q0 60 33.5 92.5t93.5 32.5h129q61 0 94.5 -22.5t65.5 -84.5l428 -805v832q0 37 21.5 58.5t58.5 21.5h148q37 0 58 -21.5t21 -58.5v-1229q0 -57 -34 -91t-93 -34h-122q-61 0 -94.5 22t-65.5 84l-436 814v-840
q0 -37 -21.5 -58.5t-58.5 -21.5zM991 1665l-198 -113q-30 -18 -60 -18h-6q-25 0 -57 18l-201 113q-41 23 -53 60.5t8 78.5q20 39 60 49.5t81 -12.5l168 -94l168 94q41 23 79 12.5t58 -49.5q21 -38 8 -77t-55 -62z" />
    <glyph glyph-name="ncaron" unicode="&#x148;" horiz-adv-x="1257" 
d="M412 0h-179q-35 0 -55 20.5t-20 55.5v655l-68 70q-37 37 -38.5 81.5t34.5 80.5l64 61q37 37 80.5 36t80.5 -38l97 -98q103 143 313 143q198 0 311 -111.5t113 -306.5v-573q0 -35 -20.5 -55.5t-55.5 -20.5h-178q-35 0 -55.5 20.5t-20.5 55.5v569q0 82 -41.5 125t-120.5 43
q-82 0 -124 -43t-42 -125v-569q0 -35 -20 -55.5t-55 -20.5zM909 1284l-198 -113q-30 -18 -60 -18h-6q-25 0 -57 18l-201 113q-41 23 -53 60.5t8 78.5q20 39 60 49.5t81 -12.5l168 -94l168 94q41 23 79 12.5t58 -49.5q21 -38 8 -77t-55 -62z" />
    <glyph glyph-name="napostrophe" unicode="&#x149;" horiz-adv-x="1572" 
d="M319 1034l-79 -139q-26 -51 -74 -51q-55 0 -76 41t6 92l82 151h-20q-97 0 -97 97v114q0 105 109 105h90q109 0 109 -105v-135q0 -76 -50 -170zM727 0h-178q-35 0 -55.5 20.5t-20.5 55.5v655l-67 70q-37 37 -39 81.5t34 80.5l64 61q37 37 81 36t81 -38l96 -98
q103 143 313 143q198 0 311 -111.5t113 -306.5v-573q0 -35 -20.5 -55.5t-55.5 -20.5h-178q-35 0 -55.5 20.5t-20.5 55.5v569q0 82 -41 125t-120 43q-82 0 -124 -43t-42 -125v-569q0 -35 -20.5 -55.5t-55.5 -20.5z" />
    <glyph glyph-name="Omacron" unicode="&#x14c;" horiz-adv-x="1402" 
d="M700 1458q281 0 436.5 -131t155.5 -366v-488q0 -235 -155.5 -366.5t-436.5 -131.5q-278 0 -433.5 131.5t-155.5 366.5v488q0 235 155.5 366t433.5 131zM455 979v-524q0 -109 62 -166.5t183 -57.5t184.5 57.5t63.5 166.5v524q0 109 -63.5 166t-184.5 57t-183 -57t-62 -166
zM1010 1686q0 -44 -29.5 -72.5t-73.5 -28.5h-413q-44 0 -73.5 28.5t-29.5 72.5t29.5 73t73.5 29h413q44 0 73.5 -29t29.5 -73z" />
    <glyph glyph-name="omacron" unicode="&#x14d;" horiz-adv-x="1202" 
d="M602 -25q-246 0 -379 110.5t-133 313.5v244q0 202 134 313t376 111q246 0 380 -110.5t134 -313.5v-244q0 -203 -133 -313.5t-379 -110.5zM602 213q88 0 133 41t45 119v297q0 157 -180 157q-176 0 -176 -157v-297q0 -160 178 -160zM909 1305q0 -44 -29 -72.5t-73 -28.5
h-414q-44 0 -73 28.5t-29 72.5t29 73t73 29h414q44 0 73 -29t29 -73z" />
    <glyph glyph-name="Obreve" unicode="&#x14e;" horiz-adv-x="1402" 
d="M700 1458q281 0 436.5 -131t155.5 -366v-488q0 -235 -155.5 -366.5t-436.5 -131.5q-278 0 -433.5 131.5t-155.5 366.5v488q0 235 155.5 366t433.5 131zM455 979v-524q0 -109 62 -166.5t183 -57.5t184.5 57.5t63.5 166.5v524q0 109 -63.5 166t-184.5 57t-183 -57t-62 -166
zM958 1636q-96 -96 -258 -96t-258 96q-57 57 -57 121q0 44 26.5 71t69.5 27q46 0 84 -49q31 -38 61.5 -54.5t73.5 -16.5t74 16.5t62 54.5q38 49 84 49q43 0 69.5 -27t26.5 -71q0 -63 -58 -121z" />
    <glyph glyph-name="obreve" unicode="&#x14f;" horiz-adv-x="1202" 
d="M602 -25q-246 0 -379 110.5t-133 313.5v244q0 202 134 313t376 111q246 0 380 -110.5t134 -313.5v-244q0 -203 -133 -313.5t-379 -110.5zM602 213q88 0 133 41t45 119v297q0 157 -180 157q-176 0 -176 -157v-297q0 -160 178 -160zM858 1255q-96 -96 -258 -96t-258 96
q-57 57 -57 121q0 44 26.5 71.5t69.5 27.5q45 0 84 -50q31 -38 61.5 -54.5t73.5 -16.5t73.5 16.5t61.5 54.5q39 50 84 50q43 0 69.5 -27.5t26.5 -71.5q0 -64 -57 -121z" />
    <glyph glyph-name="Ohungarumlaut" unicode="&#x150;" horiz-adv-x="1402" 
d="M700 1458q281 0 436.5 -131t155.5 -366v-488q0 -235 -155.5 -366.5t-436.5 -131.5q-278 0 -433.5 131.5t-155.5 366.5v488q0 235 155.5 366t433.5 131zM455 979v-524q0 -109 62 -166.5t183 -57.5t184.5 57.5t63.5 166.5v524q0 109 -63.5 166t-184.5 57t-183 -57t-62 -166
zM438 1642l64 132q12 29 26.5 38t44.5 9h136q45 0 45 -35v-10q0 -22 -27 -62l-84 -127q-22 -37 -90 -37h-84q-43 0 -43 37v8q0 23 12 47zM772 1642l64 132q13 29 27 38t44 9h135q23 0 33 -8t10 -27v-10q0 -21 -24 -62l-86 -127q-14 -20 -34 -28.5t-56 -8.5h-82q-45 0 -45 37
v8q0 15 14 47z" />
    <glyph glyph-name="ohungarumlaut" unicode="&#x151;" horiz-adv-x="1202" 
d="M602 -25q-246 0 -379 110.5t-133 313.5v244q0 202 134 313t376 111q246 0 380 -110.5t134 -313.5v-244q0 -203 -133 -313.5t-379 -110.5zM602 213q88 0 133 41t45 119v297q0 157 -180 157q-176 0 -176 -157v-297q0 -160 178 -160zM340 1262l63 131q12 28 27 37.5t45 9.5
h135q45 0 45 -35v-10q0 -23 -26 -62l-84 -127q-22 -37 -90 -37h-84q-43 0 -43 37v8q0 24 12 48zM674 1262l63 131q13 29 27.5 38t44.5 9h135q23 0 33 -8t10 -27v-10q0 -21 -24 -62l-86 -127q-25 -37 -91 -37h-81q-46 0 -46 37v8q0 14 15 48z" />
    <glyph glyph-name="OE" unicode="&#x152;" horiz-adv-x="1964" 
d="M111 549v336q0 269 164 409t477 140h1067q75 0 75 -76v-111q0 -76 -75 -76h-562v-309h412q63 0 99 -34.5t36 -94.5v-8q0 -60 -36 -94.5t-99 -34.5h-412v-334h562q75 0 75 -76v-110q0 -76 -75 -76h-1067q-313 0 -477 140t-164 409zM745 256h179v922h-179q-290 0 -290 -277
v-369q0 -276 290 -276z" />
    <glyph glyph-name="oe" unicode="&#x153;" horiz-adv-x="1845" 
d="M936 68q-132 -93 -340 -93q-242 0 -374 111t-132 313v244q0 202 132 313t374 111q217 0 342 -94q122 94 342 94q234 0 354.5 -101.5t120.5 -299.5v-146q0 -49 -22 -71.5t-70 -22.5h-561v-86q0 -75 43 -110t137 -35q148 0 148 90v8q0 19 8 27t28 8h236q37 0 37 -41v-17
q0 -146 -113.5 -220.5t-335.5 -74.5q-225 0 -354 93zM1270 852q-168 0 -168 -150v-77h340v77q0 74 -43.5 112t-128.5 38zM600 213q86 0 130 41t44 119v297q0 157 -176 157q-174 0 -174 -157v-297q0 -160 176 -160z" />
    <glyph glyph-name="Racute" unicode="&#x154;" horiz-adv-x="1351" 
d="M1184 8q-60 -38 -128.5 -23.5t-111.5 74.5l-303 426q-29 41 -40 69t-11 60v17q0 102 100 102h51q97 0 140 39t43 127v113q0 87 -44.5 127.5t-138.5 40.5h-256v-1098q0 -37 -23 -59.5t-61 -22.5h-172q-37 0 -59.5 22.5t-22.5 59.5v1221q0 60 36 95.5t96 35.5h477
q508 0 508 -410v-100q0 -294 -271 -367l238 -313q45 -60 32 -127.5t-79 -108.5zM694 1550h-116q-39 0 -39 37v8q0 25 20 47l113 132q28 31 44 39t46 8h174q41 0 41 -37v-10q0 -34 -33 -60l-147 -127q-24 -22 -46.5 -29.5t-56.5 -7.5z" />
    <glyph glyph-name="racute" unicode="&#x155;" horiz-adv-x="841" 
d="M412 0h-179q-35 0 -55 20.5t-20 55.5v655l-68 70q-37 37 -38.5 81.5t34.5 80.5l64 61q37 37 80.5 36t80.5 -38l109 -109q76 142 227 142h27q68 0 104.5 -31t36.5 -88v-68q0 -54 -33 -84t-90 -30h-45q-160 0 -160 -168v-510q0 -35 -20 -55.5t-55 -20.5zM440 1169h-116
q-39 0 -39 37v8q0 26 20 48l113 131q28 31 44 39t46 8h174q41 0 41 -37v-10q0 -34 -33 -60l-147 -127q-24 -22 -46.5 -29.5t-56.5 -7.5z" />
    <glyph glyph-name="uni0156" unicode="&#x156;" horiz-adv-x="1351" 
d="M1184 8q-60 -38 -128.5 -23.5t-111.5 74.5l-303 426q-29 41 -40 69t-11 60v17q0 102 100 102h51q97 0 140 39t43 127v113q0 87 -44.5 127.5t-138.5 40.5h-256v-1098q0 -37 -23 -59.5t-61 -22.5h-172q-37 0 -59.5 22.5t-22.5 59.5v1221q0 60 36 95.5t96 35.5h477
q508 0 508 -410v-100q0 -294 -271 -367l238 -313q45 -60 32 -127.5t-79 -108.5zM494 -315l67 135q13 28 30 37.5t50 9.5h160q45 0 45 -35v-10q0 -23 -27 -62l-96 -133q-25 -37 -96 -37h-105q-45 0 -45 37v8q0 17 17 50z" />
    <glyph glyph-name="uni0157" unicode="&#x157;" horiz-adv-x="841" 
d="M412 0h-179q-35 0 -55 20.5t-20 55.5v655l-68 70q-37 37 -38.5 81.5t34.5 80.5l64 61q37 37 80.5 36t80.5 -38l109 -109q76 142 227 142h27q68 0 104.5 -31t36.5 -88v-68q0 -54 -33 -84t-90 -30h-45q-160 0 -160 -168v-510q0 -35 -20 -55.5t-55 -20.5zM109 -315l67 135
q13 28 30 37.5t50 9.5h160q45 0 45 -35v-10q0 -23 -27 -62l-96 -133q-25 -37 -96 -37h-105q-45 0 -45 37v8q0 17 17 50z" />
    <glyph glyph-name="Rcaron" unicode="&#x158;" horiz-adv-x="1351" 
d="M1184 8q-60 -38 -128.5 -23.5t-111.5 74.5l-303 426q-29 41 -40 69t-11 60v17q0 102 100 102h51q97 0 140 39t43 127v113q0 87 -44.5 127.5t-138.5 40.5h-256v-1098q0 -37 -23 -59.5t-61 -22.5h-172q-37 0 -59.5 22.5t-22.5 59.5v1221q0 60 36 95.5t96 35.5h477
q508 0 508 -410v-100q0 -294 -271 -367l238 -313q45 -60 32 -127.5t-79 -108.5zM958 1665l-198 -113q-30 -18 -60 -18h-6q-25 0 -57 18l-201 113q-41 23 -53 60.5t8 78.5q20 39 60 49.5t81 -12.5l168 -94l168 94q41 23 79.5 12.5t58.5 -49.5q21 -38 7.5 -77t-55.5 -62z" />
    <glyph glyph-name="rcaron" unicode="&#x159;" horiz-adv-x="841" 
d="M412 0h-179q-35 0 -55 20.5t-20 55.5v655l-68 70q-37 37 -38.5 81.5t34.5 80.5l64 61q37 37 80.5 36t80.5 -38l109 -109q76 142 227 142h27q68 0 104.5 -31t36.5 -88v-68q0 -54 -33 -84t-90 -30h-45q-160 0 -160 -168v-510q0 -35 -20 -55.5t-55 -20.5zM702 1284
l-198 -113q-30 -18 -60 -18h-6q-25 0 -57 18l-201 113q-41 23 -53 60.5t8 78.5q20 39 60 49.5t81 -12.5l168 -94l168 94q41 23 79.5 12.5t58.5 -49.5q21 -38 7.5 -77t-55.5 -62z" />
    <glyph glyph-name="Sacute" unicode="&#x15a;" horiz-adv-x="1255" 
d="M625 -25q-283 0 -415 94.5t-132 297.5v53q0 25 14 39t37 14h219q49 0 49 -51v-47q0 -86 52 -122t174 -36q123 0 174 37t51 127v35q0 54 -28 81t-105 46l-303 67q-183 41 -256.5 125.5t-73.5 245.5v45q0 210 140.5 321t404.5 111q277 0 405.5 -94t128.5 -297v-45
q0 -55 -51 -55h-215q-51 0 -51 51v43q0 86 -49 121t-166 35q-121 0 -168 -36t-47 -128v-33q0 -54 29 -81t104 -46l301 -68q186 -43 258 -127q74 -83 74 -241v-47q0 -211 -142.5 -323t-412.5 -112zM625 1550h-117q-39 0 -39 37v8q0 25 20 47l113 132q28 31 44 39t46 8h174
q41 0 41 -37v-10q0 -34 -33 -60l-147 -127q-24 -22 -46 -29.5t-56 -7.5z" />
    <glyph glyph-name="sacute" unicode="&#x15b;" horiz-adv-x="1079" 
d="M541 -25q-236 0 -349.5 73t-113.5 226v15q0 19 12 31t31 12h207q39 0 39 -39v-8q0 -49 40.5 -70.5t133.5 -21.5q164 0 164 96v18q0 36 -16.5 53t-57.5 21l-264 37q-160 23 -226.5 89t-66.5 204v16q0 164 120 252t343 88q229 0 339.5 -72.5t110.5 -224.5v-10
q0 -19 -12 -31t-31 -12h-205q-41 0 -41 37v8q0 47 -37.5 67.5t-123.5 20.5q-85 0 -122.5 -21.5t-37.5 -70.5v-17q0 -35 17 -52t59 -23l264 -37q159 -23 225 -88t66 -201v-23q0 -164 -122 -253t-345 -89zM535 1169h-117q-39 0 -39 37v8q0 26 20 48l113 131q28 31 44 39t46 8
h174q41 0 41 -37v-10q0 -34 -33 -60l-147 -127q-24 -22 -46 -29.5t-56 -7.5z" />
    <glyph glyph-name="Scircumflex" unicode="&#x15c;" horiz-adv-x="1255" 
d="M625 -25q-283 0 -415 94.5t-132 297.5v53q0 25 14 39t37 14h219q49 0 49 -51v-47q0 -86 52 -122t174 -36q123 0 174 37t51 127v35q0 54 -28 81t-105 46l-303 67q-183 41 -256.5 125.5t-73.5 245.5v45q0 210 140.5 321t404.5 111q277 0 405.5 -94t128.5 -297v-45
q0 -55 -51 -55h-215q-51 0 -51 51v43q0 86 -49 121t-166 35q-121 0 -168 -36t-47 -128v-33q0 -54 29 -81t104 -46l301 -68q186 -43 258 -127q74 -83 74 -241v-47q0 -211 -142.5 -323t-412.5 -112zM936 1581q-20 -39 -60 -49.5t-81 12.5l-168 94l-168 -94q-41 -23 -79 -12.5
t-58 49.5q-20 38 -7 75t54 62l198 113q30 18 60 18h6q25 0 57 -18l201 -113q41 -23 53 -59.5t-8 -77.5z" />
    <glyph glyph-name="scircumflex" unicode="&#x15d;" horiz-adv-x="1079" 
d="M541 -25q-236 0 -349.5 73t-113.5 226v15q0 19 12 31t31 12h207q39 0 39 -39v-8q0 -49 40.5 -70.5t133.5 -21.5q164 0 164 96v18q0 36 -16.5 53t-57.5 21l-264 37q-160 23 -226.5 89t-66.5 204v16q0 164 120 252t343 88q229 0 339.5 -72.5t110.5 -224.5v-10
q0 -19 -12 -31t-31 -12h-205q-41 0 -41 37v8q0 47 -37.5 67.5t-123.5 20.5q-85 0 -122.5 -21.5t-37.5 -70.5v-17q0 -35 17 -52t59 -23l264 -37q159 -23 225 -88t66 -201v-23q0 -164 -122 -253t-345 -89zM846 1200q-20 -39 -60 -49.5t-81 12.5l-168 94l-168 -94
q-41 -23 -79.5 -12.5t-58.5 49.5q-20 38 -7 75t55 62l198 113q30 18 60 18h6q25 0 57 -18l201 -113q41 -23 53 -59.5t-8 -77.5z" />
    <glyph glyph-name="uni015E" unicode="&#x15e;" horiz-adv-x="1255" 
d="M881 -252v-10q0 -88 -57.5 -130t-176.5 -42h-143q-35 0 -56.5 21.5t-21.5 54.5q0 32 22.5 53.5t55.5 21.5h106q37 0 37 33v12q0 17 -8 23.5t-29 11.5l-35 6q-39 8 -52.5 39.5t3.5 81.5l19 53q-240 12 -353.5 106.5t-113.5 283.5v53q0 25 14 39t37 14h219q49 0 49 -51v-47
q0 -86 52 -122t174 -36q123 0 174 37t51 127v35q0 54 -28 81t-105 46l-303 67q-183 41 -256.5 125.5t-73.5 245.5v45q0 210 140.5 321t404.5 111q277 0 405.5 -94t128.5 -297v-45q0 -55 -51 -55h-215q-51 0 -51 51v43q0 86 -49 121t-166 35q-121 0 -168 -36t-47 -128v-33
q0 -54 29 -81t104 -46l301 -68q186 -43 258 -127q74 -83 74 -241v-47q0 -194 -120 -303.5t-349 -126.5l-15 -68q105 -23 145 -59.5t40 -104.5z" />
    <glyph glyph-name="uni015F" unicode="&#x15f;" horiz-adv-x="1079" 
d="M799 -252v-10q0 -88 -57.5 -130t-176.5 -42h-143q-35 0 -56.5 21.5t-21.5 54.5q0 32 22.5 53.5t55.5 21.5h106q37 0 37 33v12q0 17 -8 23.5t-29 11.5l-34 6q-39 8 -53 39.5t3 81.5l19 53q-196 12 -290.5 84.5t-94.5 212.5v15q0 19 12 31t31 12h207q39 0 39 -39v-8
q0 -49 40.5 -70.5t133.5 -21.5q164 0 164 96v18q0 36 -16.5 53t-57.5 21l-264 37q-160 23 -226.5 89t-66.5 204v16q0 164 120 252t343 88q229 0 339.5 -72.5t110.5 -224.5v-10q0 -19 -12 -31t-31 -12h-205q-41 0 -41 37v8q0 47 -37.5 67.5t-123.5 20.5q-85 0 -122.5 -21.5
t-37.5 -70.5v-17q0 -35 17 -52t59 -23l264 -37q159 -23 225 -88t66 -201v-23q0 -146 -98 -233t-281 -104l-15 -68q105 -23 145 -59.5t40 -104.5z" />
    <glyph glyph-name="Scaron" unicode="&#x160;" horiz-adv-x="1255" 
d="M625 -25q-283 0 -415 94.5t-132 297.5v53q0 25 14 39t37 14h219q49 0 49 -51v-47q0 -86 52 -122t174 -36q123 0 174 37t51 127v35q0 54 -28 81t-105 46l-303 67q-183 41 -256.5 125.5t-73.5 245.5v45q0 210 140.5 321t404.5 111q277 0 405.5 -94t128.5 -297v-45
q0 -55 -51 -55h-215q-51 0 -51 51v43q0 86 -49 121t-166 35q-121 0 -168 -36t-47 -128v-33q0 -54 29 -81t104 -46l301 -68q186 -43 258 -127q74 -83 74 -241v-47q0 -211 -142.5 -323t-412.5 -112zM889 1665l-199 -113q-30 -18 -59 -18h-6q-26 0 -58 18l-200 113
q-41 23 -53 60.5t8 78.5q20 39 60 49.5t81 -12.5l168 -94l168 94q41 23 79 12.5t58 -49.5q21 -38 8 -77t-55 -62z" />
    <glyph glyph-name="scaron" unicode="&#x161;" horiz-adv-x="1079" 
d="M541 -25q-236 0 -349.5 73t-113.5 226v15q0 19 12 31t31 12h207q39 0 39 -39v-8q0 -49 40.5 -70.5t133.5 -21.5q164 0 164 96v18q0 36 -16.5 53t-57.5 21l-264 37q-160 23 -226.5 89t-66.5 204v16q0 164 120 252t343 88q229 0 339.5 -72.5t110.5 -224.5v-10
q0 -19 -12 -31t-31 -12h-205q-41 0 -41 37v8q0 47 -37.5 67.5t-123.5 20.5q-85 0 -122.5 -21.5t-37.5 -70.5v-17q0 -35 17 -52t59 -23l264 -37q159 -23 225 -88t66 -201v-23q0 -164 -122 -253t-345 -89zM799 1284l-199 -113q-30 -18 -59 -18h-6q-26 0 -58 18l-201 113
q-41 23 -53 60.5t8 78.5q20 39 60.5 49.5t81.5 -12.5l168 -94l168 94q41 23 79 12.5t58 -49.5q21 -38 8 -77t-55 -62z" />
    <glyph glyph-name="Tcommaaccent" unicode="&#x162;" horiz-adv-x="1179" 
d="M483 -76l25 76h-4q-38 0 -61 22.5t-23 59.5v1085h-322q-75 0 -75 76v115q0 76 75 76h983q76 0 76 -76v-115q0 -76 -76 -76h-323v-1085q0 -37 -22.5 -59.5t-59.5 -22.5h-4l-19 -88q105 -23 145 -59.5t40 -104.5v-10q0 -88 -57.5 -130t-176.5 -42h-143q-35 0 -56.5 21.5
t-21.5 54.5q0 32 22.5 53.5t55.5 21.5h106q37 0 37 33v12q0 17 -8 23.5t-29 11.5l-35 6q-39 8 -52.5 39.5t3.5 81.5z" />
    <glyph glyph-name="tcommaaccent" unicode="&#x163;" horiz-adv-x="776" 
d="M733 -252v-10q0 -88 -57 -130t-176 -42h-144q-35 0 -56 21.5t-21 54.5q0 32 22.5 53.5t54.5 21.5h107q37 0 37 33v12q0 17 -8 23.5t-29 11.5l-35 6q-39 8 -52.5 39.5t3.5 81.5l29 84q-117 20 -168.5 90.5t-51.5 210.5v490h-106q-25 0 -40 15t-15 38v137q0 23 15 38t40 15
h106v164q0 54 30 84.5t81 30.5h107q51 0 80.5 -30.5t29.5 -84.5v-164h166q25 0 40 -15t15 -38v-137q0 -23 -15 -38t-40 -15h-164v-471q0 -41 17.5 -58.5t58.5 -17.5h88q25 0 40 -15t15 -40v-134q0 -63 -59 -63h-111l-18 -88q104 -23 144 -59.5t40 -104.5z" />
    <glyph glyph-name="Tcaron" unicode="&#x164;" horiz-adv-x="1179" 
d="M676 0h-172q-38 0 -61 22.5t-23 59.5v1085h-322q-75 0 -75 76v115q0 76 75 76h983q76 0 76 -76v-115q0 -76 -76 -76h-323v-1085q0 -37 -22.5 -59.5t-59.5 -22.5zM852 1665l-199 -113q-30 -18 -59 -18h-6q-26 0 -58 18l-200 113q-41 23 -53 60.5t8 78.5q20 39 60 49.5
t81 -12.5l168 -94l168 94q41 23 79 12.5t58 -49.5q21 -38 8 -77t-55 -62z" />
    <glyph glyph-name="tcaron" unicode="&#x165;" horiz-adv-x="811" 
d="M666 1149q-51 0 -72.5 40.5t4.5 84.5l61 108h-28q-44 0 -68 24.5t-24 68.5v104q0 98 104 98h90q105 0 105 -98v-125q0 -82 -43 -154l-60 -104q-26 -47 -69 -47zM688 0h-162q-183 0 -260.5 71t-77.5 238v490h-106q-25 0 -40 15t-15 38v137q0 23 15 38t40 15h106v164
q0 54 30 84.5t81 30.5h102q49 0 77 -30t28 -81v-168h186q25 0 40.5 -15t15.5 -38v-137q0 -23 -15.5 -38t-40.5 -15h-174v-471q0 -41 17.5 -58.5t58.5 -17.5h98q25 0 40.5 -15t15.5 -40v-134q0 -63 -60 -63z" />
    <glyph glyph-name="Tbar" unicode="&#x166;" horiz-adv-x="1179" 
d="M676 0h-172q-38 0 -61 22.5t-23 59.5v504h-162q-44 0 -71 26.5t-27 69.5q0 44 27 70t71 26h162v389h-322q-75 0 -75 76v115q0 76 75 76h983q76 0 76 -76v-115q0 -76 -76 -76h-323v-389h164q44 0 71 -26t27 -70q0 -43 -27 -69.5t-71 -26.5h-164v-504q0 -37 -22.5 -59.5
t-59.5 -22.5z" />
    <glyph glyph-name="tbar" unicode="&#x167;" horiz-adv-x="788" 
d="M688 0h-151q-183 0 -260.5 71t-77.5 238v142h-60q-43 0 -68.5 24.5t-25.5 65.5t25.5 66.5t68.5 25.5h60v166h-107q-25 0 -40 15t-15 38v137q0 23 15 38t40 15h107v164q0 54 29.5 84.5t80.5 30.5h107q51 0 80.5 -30.5t29.5 -84.5v-164h166q25 0 40.5 -15t15.5 -38v-137
q0 -23 -15.5 -38t-40.5 -15h-164v-166h101q43 0 67.5 -24.5t24.5 -67.5q0 -41 -24.5 -65.5t-67.5 -24.5h-101v-123q0 -41 17.5 -58.5t58.5 -17.5h88q25 0 40.5 -15t15.5 -40v-134q0 -63 -60 -63z" />
    <glyph glyph-name="Utilde" unicode="&#x168;" horiz-adv-x="1402" 
d="M700 -25q-270 0 -417.5 127.5t-147.5 362.5v887q0 37 22.5 59.5t59.5 22.5h170q37 0 59.5 -22.5t22.5 -59.5v-901q0 -104 59 -158.5t172 -54.5t172.5 54.5t59.5 158.5v901q0 37 23 59.5t61 22.5h168q38 0 61 -22.5t23 -59.5v-887q0 -235 -148 -362.5t-420 -127.5z
M416 1786q59 59 155 59q44 0 84.5 -15t96.5 -52q48 -37 73 -37q14 0 23.5 10.5t19.5 36.5q20 57 78 57q43 0 68.5 -27.5t25.5 -74.5q0 -84 -55 -139q-60 -60 -156 -60q-43 0 -83.5 15t-96.5 53q-48 37 -74 37q-14 0 -23.5 -10.5t-19.5 -36.5q-21 -58 -77 -58q-43 0 -69 28
t-26 75q0 83 56 139z" />
    <glyph glyph-name="utilde" unicode="&#x169;" horiz-adv-x="1257" 
d="M539 -25q-199 0 -312.5 111t-113.5 307v574q0 35 21 55t54 20h181q35 0 55 -20t20 -55v-570q0 -82 41.5 -125t120.5 -43q164 0 164 168v570q0 34 21.5 54.5t54.5 20.5h180q35 0 55.5 -20t20.5 -55v-658l67 -67q37 -37 38 -81t-36 -81l-61 -64q-37 -36 -81 -34.5t-81 38.5
l-98 99q-99 -144 -311 -144zM324 1405q59 59 155 59q44 0 84 -14.5t96 -52.5q48 -37 74 -37q14 0 23.5 10.5t19.5 36.5q20 57 78 57q43 0 68.5 -27.5t25.5 -74.5q0 -84 -55 -139q-60 -60 -156 -60q-43 0 -83.5 15t-96.5 53q-48 37 -74 37q-14 0 -23.5 -10.5t-19.5 -36.5
q-21 -58 -78 -58q-43 0 -68.5 28t-25.5 75q0 83 56 139z" />
    <glyph glyph-name="Umacron" unicode="&#x16a;" horiz-adv-x="1402" 
d="M700 -25q-270 0 -417.5 127.5t-147.5 362.5v887q0 37 22.5 59.5t59.5 22.5h170q37 0 59.5 -22.5t22.5 -59.5v-901q0 -104 59 -158.5t172 -54.5t172.5 54.5t59.5 158.5v901q0 37 23 59.5t61 22.5h168q38 0 61 -22.5t23 -59.5v-887q0 -235 -148 -362.5t-420 -127.5z
M1010 1686q0 -44 -29.5 -72.5t-73.5 -28.5h-413q-44 0 -73.5 28.5t-29.5 72.5t29.5 73t73.5 29h413q44 0 73.5 -29t29.5 -73z" />
    <glyph glyph-name="umacron" unicode="&#x16b;" horiz-adv-x="1257" 
d="M539 -25q-199 0 -312.5 111t-113.5 307v574q0 35 21 55t54 20h181q35 0 55 -20t20 -55v-570q0 -82 41.5 -125t120.5 -43q164 0 164 168v570q0 34 21.5 54.5t54.5 20.5h180q35 0 55.5 -20t20.5 -55v-658l67 -67q37 -37 38 -81t-36 -81l-61 -64q-37 -36 -81 -34.5t-81 38.5
l-98 99q-99 -144 -311 -144zM918 1305q0 -44 -29.5 -72.5t-73.5 -28.5h-414q-44 0 -73 28.5t-29 72.5t29 73t73 29h414q44 0 73.5 -29t29.5 -73z" />
    <glyph glyph-name="Ubreve" unicode="&#x16c;" horiz-adv-x="1402" 
d="M700 -25q-270 0 -417.5 127.5t-147.5 362.5v887q0 37 22.5 59.5t59.5 22.5h170q37 0 59.5 -22.5t22.5 -59.5v-901q0 -104 59 -158.5t172 -54.5t172.5 54.5t59.5 158.5v901q0 37 23 59.5t61 22.5h168q38 0 61 -22.5t23 -59.5v-887q0 -235 -148 -362.5t-420 -127.5z
M958 1636q-96 -96 -258 -96t-258 96q-57 57 -57 121q0 44 26.5 71t69.5 27q46 0 84 -49q31 -38 61.5 -54.5t73.5 -16.5t74 16.5t62 54.5q38 49 84 49q43 0 69.5 -27t26.5 -71q0 -63 -58 -121z" />
    <glyph glyph-name="ubreve" unicode="&#x16d;" horiz-adv-x="1257" 
d="M539 -25q-199 0 -312.5 111t-113.5 307v574q0 35 21 55t54 20h181q35 0 55 -20t20 -55v-570q0 -82 41.5 -125t120.5 -43q164 0 164 168v570q0 34 21.5 54.5t54.5 20.5h180q35 0 55.5 -20t20.5 -55v-658l67 -67q37 -37 38 -81t-36 -81l-61 -64q-37 -36 -81 -34.5t-81 38.5
l-98 99q-99 -144 -311 -144zM866 1255q-96 -96 -258 -96t-258 96q-57 57 -57 121q0 44 26.5 71.5t69.5 27.5q45 0 84 -50q31 -38 61.5 -54.5t73.5 -16.5t73.5 16.5t61.5 54.5q39 50 84 50q43 0 70 -27.5t27 -71.5q0 -63 -58 -121z" />
    <glyph glyph-name="Uring" unicode="&#x16e;" horiz-adv-x="1402" 
d="M700 -25q-270 0 -417.5 127.5t-147.5 362.5v887q0 37 22.5 59.5t59.5 22.5h170q37 0 59.5 -22.5t22.5 -59.5v-901q0 -104 59 -158.5t172 -54.5t172.5 54.5t59.5 158.5v901q0 37 23 59.5t61 22.5h168q38 0 61 -22.5t23 -59.5v-887q0 -235 -148 -362.5t-420 -127.5z
M700 1939q123 0 187.5 -49.5t64.5 -142.5v-33q0 -93 -64.5 -142.5t-187.5 -49.5q-122 0 -186.5 49.5t-64.5 142.5v33q0 93 64.5 142.5t186.5 49.5zM700 1821q-79 0 -79 -72v-35q0 -72 79 -72q80 0 80 72v35q0 72 -80 72z" />
    <glyph glyph-name="uring" unicode="&#x16f;" horiz-adv-x="1257" 
d="M539 -25q-199 0 -312.5 111t-113.5 307v574q0 35 21 55t54 20h181q35 0 55 -20t20 -55v-570q0 -82 41.5 -125t120.5 -43q164 0 164 168v570q0 34 21.5 54.5t54.5 20.5h180q35 0 55.5 -20t20.5 -55v-658l67 -67q37 -37 38 -81t-36 -81l-61 -64q-37 -36 -81 -34.5t-81 38.5
l-98 99q-99 -144 -311 -144zM608 1559q122 0 187 -50t65 -143v-33q0 -93 -64.5 -142.5t-187.5 -49.5t-187.5 49.5t-64.5 142.5v33q0 93 65 143t187 50zM608 1440q-80 0 -80 -72v-35q0 -71 80 -71t80 71v35q0 72 -80 72z" />
    <glyph glyph-name="Uhungarumlaut" unicode="&#x170;" horiz-adv-x="1402" 
d="M700 -25q-270 0 -417.5 127.5t-147.5 362.5v887q0 37 22.5 59.5t59.5 22.5h170q37 0 59.5 -22.5t22.5 -59.5v-901q0 -104 59 -158.5t172 -54.5t172.5 54.5t59.5 158.5v901q0 37 23 59.5t61 22.5h168q38 0 61 -22.5t23 -59.5v-887q0 -235 -148 -362.5t-420 -127.5z
M440 1642l64 132q12 29 26.5 38t44.5 9h136q45 0 45 -35v-10q0 -22 -27 -62l-84 -127q-22 -37 -90 -37h-84q-43 0 -43 37v8q0 23 12 47zM774 1642l64 132q13 29 27 38t44 9h135q23 0 33 -8t10 -27v-10q0 -21 -24 -62l-86 -127q-14 -20 -34 -28.5t-56 -8.5h-82q-45 0 -45 37
v8q0 15 14 47z" />
    <glyph glyph-name="uhungarumlaut" unicode="&#x171;" horiz-adv-x="1257" 
d="M539 -25q-199 0 -312.5 111t-113.5 307v574q0 35 21 55t54 20h181q35 0 55 -20t20 -55v-570q0 -82 41.5 -125t120.5 -43q164 0 164 168v570q0 34 21.5 54.5t54.5 20.5h180q35 0 55.5 -20t20.5 -55v-658l67 -67q37 -37 38 -81t-36 -81l-61 -64q-37 -36 -81 -34.5t-81 38.5
l-98 99q-99 -144 -311 -144zM348 1262l64 131q12 29 26.5 38t44.5 9h135q46 0 46 -35v-10q0 -21 -27 -62l-84 -127q-22 -37 -90 -37h-84q-43 0 -43 37v8q0 24 12 48zM682 1262l63 131q13 29 27.5 38t44.5 9h135q23 0 33 -8t10 -27v-10q0 -21 -24 -62l-86 -127
q-14 -20 -34 -28.5t-56 -8.5h-82q-45 0 -45 37v8q0 16 14 48z" />
    <glyph glyph-name="Uogonek" unicode="&#x172;" horiz-adv-x="1402" 
d="M942 -410h-125q-117 0 -173 45.5t-56 139.5v12q0 51 20.5 89.5t67.5 76.5l29 22h-5q-270 0 -417.5 127.5t-147.5 362.5v887q0 37 22.5 59.5t59.5 22.5h170q37 0 59.5 -22.5t22.5 -59.5v-901q0 -104 59 -158.5t172 -54.5t172.5 54.5t59.5 158.5v901q0 37 23 59.5t61 22.5
h168q38 0 61 -22.5t23 -59.5v-887q0 -217 -123 -340q-37 -37 -127 -94q-75 -44 -111 -74l-84 -70q-26 -23 -26 -51v-4q0 -20 12 -28.5t41 -8.5h98q37 0 60.5 -23.5t23.5 -60.5v-30q0 -38 -26 -64.5t-64 -26.5z" />
    <glyph glyph-name="uogonek" unicode="&#x173;" horiz-adv-x="1257" 
d="M1116 -410h-108q-230 0 -230 177v22q0 50 19 89t69 89l70 72l-84 84q-97 -148 -313 -148q-199 0 -312.5 111t-113.5 307v574q0 35 21 55t54 20h181q35 0 55 -20t20 -55v-570q0 -82 41.5 -125t120.5 -43q164 0 164 168v570q0 34 21.5 54.5t54.5 20.5h180q35 0 55.5 -20
t20.5 -55v-664l67 -67q38 -38 38.5 -88t-36.5 -87l-157 -157q-29 -29 -29 -58v-10q0 -23 13 -32t44 -9h80q37 0 60.5 -23.5t23.5 -60.5v-30q0 -38 -26 -64.5t-64 -26.5z" />
    <glyph glyph-name="uni0174" unicode="&#x174;" horiz-adv-x="1787" 
d="M592 -6h-189q-99 0 -120 121l-201 1179q-6 27 -6 58q0 82 80 82h127q83 0 98 -88l149 -955l207 823q19 73 49 102.5t86 29.5h60q55 0 85.5 -30t49.5 -102l207 -821l147 953q15 88 101 88h110q82 0 82 -82q0 -5 -4 -29.5t-4 -28.5l-199 -1179q-21 -121 -123 -121h-186
q-51 0 -81.5 31t-49.5 100l-172 686l-172 -686q-19 -69 -49.5 -100t-81.5 -31zM1208 1550q-20 -39 -60 -49.5t-81 12.5l-168 95l-168 -95q-41 -23 -79 -12.5t-58 49.5q-20 38 -7 75.5t54 62.5l199 112q31 19 59 19h6q24 0 58 -19l200 -112q41 -23 53 -60t-8 -78z" />
    <glyph glyph-name="uni0175" unicode="&#x175;" horiz-adv-x="1591" 
d="M543 -4h-187q-95 0 -116 98l-168 787q-11 45 -11 82q0 38 21 58.5t59 20.5h121q45 0 69 -20t31 -66l119 -620l160 557q19 69 48 94t89 25h53q58 0 88.5 -26t49.5 -93l157 -557l119 620q15 86 103 86h102q41 0 60.5 -19t19.5 -60t-10 -82l-168 -787q-21 -98 -117 -98h-182
q-47 0 -74.5 24t-44.5 80l-137 471l-135 -471q-17 -57 -44.5 -80.5t-74.5 -23.5zM1114 1200q-20 -39 -60 -49.5t-81 12.5l-168 94l-168 -94q-41 -23 -79 -12.5t-58 49.5q-20 38 -7 75t54 62l198 113q30 18 60 18h6q25 0 57 -18l201 -113q41 -23 53 -59.5t-8 -77.5z" />
    <glyph glyph-name="Ycircumflex" unicode="&#x176;" horiz-adv-x="1263" 
d="M719 0h-174q-37 0 -59.5 22.5t-22.5 59.5v475l-404 707q-32 55 -32 96q0 35 22.5 54.5t63.5 19.5h151q39 0 63.5 -15.5t47.5 -56.5l266 -485l268 485q23 41 47.5 56.5t63.5 15.5h131q41 0 63.5 -19.5t22.5 -54.5q0 -39 -33 -96l-403 -707v-475q0 -37 -22.5 -59.5
t-59.5 -22.5zM944 1581q-20 -39 -60 -49.5t-81 12.5l-168 94l-168 -94q-41 -23 -79 -12.5t-58 49.5q-20 38 -7 75t54 62l198 113q30 18 60 18h6q25 0 57 -18l201 -113q41 -23 53 -59.5t-8 -77.5z" />
    <glyph glyph-name="ycircumflex" unicode="&#x177;" horiz-adv-x="1103" 
d="M387 -223l88 223h-49q-51 0 -78.5 22t-44.5 76l-250 785q-14 43 -14 84q0 36 20.5 55.5t57.5 19.5h143q45 0 69.5 -20.5t37.5 -71.5l196 -688l199 688q14 51 37 71.5t67 20.5h121q37 0 57.5 -19.5t20.5 -55.5q0 -35 -16 -84l-385 -1217q-19 -59 -73 -85t-116 -7
q-67 23 -91 78.5t3 124.5zM866 1200q-20 -39 -60 -49.5t-81 12.5l-168 94l-168 -94q-41 -23 -79 -12.5t-58 49.5q-20 38 -7 75t54 62l199 113q30 18 59 18h6q26 0 58 -18l200 -113q41 -23 53 -59.5t-8 -77.5z" />
    <glyph glyph-name="Ydieresis" unicode="&#x178;" horiz-adv-x="1263" 
d="M719 0h-174q-37 0 -59.5 22.5t-22.5 59.5v475l-404 707q-32 55 -32 96q0 35 22.5 54.5t63.5 19.5h151q39 0 63.5 -15.5t47.5 -56.5l266 -485l268 485q23 41 47.5 56.5t63.5 15.5h131q41 0 63.5 -19.5t22.5 -54.5q0 -39 -33 -96l-403 -707v-475q0 -37 -22.5 -59.5
t-59.5 -22.5zM498 1544h-80q-99 0 -99 92v97q0 94 99 94h80q98 0 98 -94v-97q0 -92 -98 -92zM852 1544h-80q-98 0 -98 92v97q0 94 98 94h80q98 0 98 -94v-97q0 -92 -98 -92z" />
    <glyph glyph-name="Zacute" unicode="&#x179;" horiz-adv-x="1177" 
d="M1044 0h-851q-69 0 -101.5 31.5t-32.5 97.5v68q0 46 11 75t43 72l622 823h-590q-75 0 -75 76v115q0 76 75 76h830q69 0 101 -31.5t32 -97.5v-68q0 -46 -11 -76t-42 -74l-623 -821h612q76 0 76 -76v-114q0 -76 -76 -76zM586 1550h-117q-39 0 -39 37v8q0 23 21 47l112 132
q28 31 44 39t46 8h174q41 0 41 -37v-10q0 -35 -32 -60l-148 -127q-24 -22 -46 -29.5t-56 -7.5z" />
    <glyph glyph-name="zacute" unicode="&#x17a;" horiz-adv-x="995" 
d="M881 0h-713q-60 0 -91.5 31t-31.5 88v51q0 44 12 73t45 66l465 488h-440q-72 0 -72 71v103q0 71 72 71h690q60 0 91.5 -30.5t31.5 -87.5v-52q0 -44 -11.5 -73t-47.5 -66l-463 -487h463q71 0 71 -72v-102q0 -72 -71 -72zM498 1169h-117q-39 0 -39 37v8q0 26 20 48l113 131
q28 31 44 39t46 8h174q41 0 41 -37v-10q0 -35 -32 -60l-148 -127q-24 -22 -46 -29.5t-56 -7.5z" />
    <glyph glyph-name="uni017B" unicode="&#x17b;" horiz-adv-x="1177" 
d="M1044 0h-851q-69 0 -101.5 31.5t-32.5 97.5v68q0 46 11 75t43 72l622 823h-590q-75 0 -75 76v115q0 76 75 76h830q69 0 101 -31.5t32 -97.5v-68q0 -46 -11 -76t-42 -74l-623 -821h612q76 0 76 -76v-114q0 -76 -76 -76zM639 1544h-107q-96 0 -96 94v95q0 94 96 94h107
q96 0 96 -94v-95q0 -94 -96 -94z" />
    <glyph glyph-name="uni017C" unicode="&#x17c;" horiz-adv-x="995" 
d="M881 0h-713q-60 0 -91.5 31t-31.5 88v51q0 44 12 73t45 66l465 488h-440q-72 0 -72 71v103q0 71 72 71h690q60 0 91.5 -30.5t31.5 -87.5v-52q0 -44 -11.5 -73t-47.5 -66l-463 -487h463q71 0 71 -72v-102q0 -72 -71 -72zM551 1163h-107q-96 0 -96 94v95q0 94 96 94h107
q96 0 96 -94v-95q0 -94 -96 -94z" />
    <glyph glyph-name="Zcaron" unicode="&#x17d;" horiz-adv-x="1177" 
d="M1044 0h-851q-69 0 -101.5 31.5t-32.5 97.5v68q0 46 11 75t43 72l622 823h-590q-75 0 -75 76v115q0 76 75 76h830q69 0 101 -31.5t32 -97.5v-68q0 -46 -11 -76t-42 -74l-623 -821h612q76 0 76 -76v-114q0 -76 -76 -76zM848 1665l-199 -113q-30 -18 -59 -18h-6
q-26 0 -58 18l-200 113q-41 23 -53 60.5t8 78.5q20 39 60 49.5t81 -12.5l168 -94l168 94q41 23 79 12.5t58 -49.5q21 -38 8 -77t-55 -62z" />
    <glyph glyph-name="zcaron" unicode="&#x17e;" horiz-adv-x="995" 
d="M881 0h-713q-60 0 -91.5 31t-31.5 88v51q0 44 12 73t45 66l465 488h-440q-72 0 -72 71v103q0 71 72 71h690q60 0 91.5 -30.5t31.5 -87.5v-52q0 -44 -11.5 -73t-47.5 -66l-463 -487h463q71 0 71 -72v-102q0 -72 -71 -72zM760 1284l-199 -113q-30 -18 -59 -18h-6
q-26 0 -58 18l-200 113q-41 23 -53 60.5t8 78.5q20 39 60 49.5t81 -12.5l168 -94l168 94q41 23 79 12.5t58 -49.5q21 -38 8 -77t-55 -62z" />
    <glyph glyph-name="uni0192" unicode="&#x192;" 
d="M1081 696h-282l-119 -676q-26 -153 -111 -221.5t-247 -68.5h-117q-101 0 -101 82v73q0 35 22 54.5t60 19.5h76q37 0 55 15.5t25 56.5l117 665h-180q-25 0 -40.5 14.5t-15.5 37.5v120q0 23 15.5 37.5t40.5 14.5h219l32 182q26 153 111.5 222t247.5 69h147q99 0 99 -82v-74
q0 -35 -21 -54.5t-59 -19.5h-109q-35 0 -52.5 -16.5t-25.5 -54.5l-30 -172h243q23 0 38.5 -15.5t15.5 -36.5v-120q0 -21 -15.5 -36.5t-38.5 -15.5z" />
    <glyph glyph-name="AEacute" unicode="&#x1fc;" horiz-adv-x="1994" 
d="M264 0h-147q-38 0 -59 17.5t-21 48.5q0 40 29 92l591 1159q32 65 72.5 91t108.5 26h1011q76 0 76 -76v-111q0 -76 -76 -76h-561v-309h412q63 0 99 -34.5t36 -94.5v-8q0 -60 -36 -94.5t-99 -34.5h-412v-334h561q76 0 76 -76v-110q0 -76 -76 -76h-780q-54 0 -85.5 31.5
t-31.5 85.5v260h-440l-152 -311q-32 -66 -96 -66zM639 641h313v535h-53zM1296 1550h-116q-39 0 -39 37v8q0 25 20 47l113 132q28 31 44 39t46 8h174q41 0 41 -37v-10q0 -34 -33 -60l-147 -127q-24 -22 -46.5 -29.5t-56.5 -7.5z" />
    <glyph glyph-name="aeacute" unicode="&#x1fd;" horiz-adv-x="1769" 
d="M801 129q-47 -73 -132.5 -113.5t-191.5 -40.5q-192 0 -299.5 81.5t-107.5 228.5v24q0 158 100.5 232.5t314.5 74.5q121 0 215 -24v143q0 55 -34.5 80t-108.5 25t-107.5 -20.5t-33.5 -67.5v-15q0 -39 -39 -39h-225q-43 0 -43 45v17q0 149 113.5 228t330.5 79
q209 0 324 -86q121 86 323 86q237 0 358 -101.5t121 -299.5v-146q0 -94 -90 -94h-563v-86q0 -78 42.5 -111.5t139.5 -33.5q148 0 148 90v8q0 19 8 27t27 8h235q39 0 39 -41v-17q0 -146 -116 -220.5t-339 -74.5q-286 0 -409 154zM1194 852q-168 0 -168 -150v-77h340v77
q0 150 -172 150zM389 328v-19q0 -110 154 -110q69 0 113 35.5t44 91.5v92q-81 20 -151 20q-160 0 -160 -110zM872 1169h-116q-39 0 -39 37v8q0 26 20 48l113 131q28 31 44 39t46 8h174q41 0 41 -37v-10q0 -34 -33 -60l-147 -127q-24 -22 -46.5 -29.5t-56.5 -7.5z" />
    <glyph glyph-name="uni0218" unicode="&#x218;" horiz-adv-x="1255" 
d="M625 -25q-283 0 -415 94.5t-132 297.5v53q0 25 14 39t37 14h219q49 0 49 -51v-47q0 -86 52 -122t174 -36q123 0 174 37t51 127v35q0 54 -28 81t-105 46l-303 67q-183 41 -256.5 125.5t-73.5 245.5v45q0 210 140.5 321t404.5 111q277 0 405.5 -94t128.5 -297v-45
q0 -55 -51 -55h-215q-51 0 -51 51v43q0 86 -49 121t-166 35q-121 0 -168 -36t-47 -128v-33q0 -54 29 -81t104 -46l301 -68q186 -43 258 -127q74 -83 74 -241v-47q0 -211 -142.5 -323t-412.5 -112zM410 -315l67 135q13 28 30 37.5t50 9.5h160q45 0 45 -35v-10q0 -23 -27 -62
l-96 -133q-25 -37 -96 -37h-105q-45 0 -45 37v8q0 17 17 50z" />
    <glyph glyph-name="uni0219" unicode="&#x219;" horiz-adv-x="1079" 
d="M541 -25q-236 0 -349.5 73t-113.5 226v15q0 19 12 31t31 12h207q39 0 39 -39v-8q0 -49 40.5 -70.5t133.5 -21.5q164 0 164 96v18q0 36 -16.5 53t-57.5 21l-264 37q-160 23 -226.5 89t-66.5 204v16q0 164 120 252t343 88q229 0 339.5 -72.5t110.5 -224.5v-10
q0 -19 -12 -31t-31 -12h-205q-41 0 -41 37v8q0 47 -37.5 67.5t-123.5 20.5q-85 0 -122.5 -21.5t-37.5 -70.5v-17q0 -35 17 -52t59 -23l264 -37q159 -23 225 -88t66 -201v-23q0 -164 -122 -253t-345 -89zM328 -315l67 135q13 28 30 37.5t50 9.5h160q45 0 45 -35v-10
q0 -23 -27 -62l-96 -133q-25 -37 -96 -37h-105q-45 0 -45 37v8q0 17 17 50z" />
    <glyph glyph-name="uni021A" unicode="&#x21a;" horiz-adv-x="1179" 
d="M676 0h-172q-38 0 -61 22.5t-23 59.5v1085h-322q-75 0 -75 76v115q0 76 75 76h983q76 0 76 -76v-115q0 -76 -76 -76h-323v-1085q0 -37 -22.5 -59.5t-59.5 -22.5zM377 -315l67 135q13 28 30 37.5t50 9.5h160q45 0 45 -35v-10q0 -23 -27 -62l-96 -133q-25 -37 -96 -37h-104
q-46 0 -46 37v8q0 17 17 50z" />
    <glyph glyph-name="uni021B" unicode="&#x21b;" horiz-adv-x="776" 
d="M678 0h-152q-183 0 -260.5 71t-77.5 238v490h-106q-25 0 -40 15t-15 38v137q0 23 15 38t40 15h106v164q0 54 30 84.5t81 30.5h107q51 0 80.5 -30.5t29.5 -84.5v-164h166q25 0 40 -15t15 -38v-137q0 -23 -15 -38t-40 -15h-164v-471q0 -41 17.5 -58.5t58.5 -17.5h88
q25 0 40 -15t15 -40v-134q0 -63 -59 -63zM262 -315l68 135q13 28 30 37.5t50 9.5h159q45 0 45 -35v-10q0 -25 -26 -62l-96 -133q-25 -37 -97 -37h-104q-45 0 -45 37v8q0 19 16 50z" />
    <glyph glyph-name="uni0237" unicode="&#x237;" horiz-adv-x="649" 
d="M217 -410h-123q-53 0 -77.5 20.5t-24.5 63.5v88q0 35 22 54.5t60 19.5h69q29 0 40.5 11t11.5 42v910h-101q-23 0 -38 14t-15 37v139q0 25 14 39t39 14h336q50 0 73 -23t23 -73v-1063q0 -154 -74 -223.5t-235 -69.5z" />
    <glyph glyph-name="circumflex" unicode="&#x2c6;" horiz-adv-x="921" 
d="M776 1200q-20 -39 -60 -49.5t-81 12.5l-168 94l-168 -94q-41 -23 -79 -12.5t-58 49.5q-20 38 -7 75t54 62l199 113q30 18 59 18h6q25 0 57 -18l201 -113q41 -23 53 -59.5t-8 -77.5z" />
    <glyph glyph-name="caron" unicode="&#x2c7;" horiz-adv-x="921" 
d="M729 1284l-199 -113q-30 -18 -59 -18h-6q-25 0 -57 18l-201 113q-41 23 -53 60.5t8 78.5q20 39 60 49.5t81 -12.5l168 -94l168 94q41 23 79 12.5t58 -49.5q21 -38 8 -77t-55 -62z" />
    <glyph glyph-name="breve" unicode="&#x2d8;" horiz-adv-x="921" 
d="M719 1255q-96 -96 -258 -96t-258 96q-58 58 -58 121q0 44 27 71.5t70 27.5q45 0 84 -50q31 -38 61.5 -54.5t73.5 -16.5t73.5 16.5t61.5 54.5q39 50 84 50q43 0 69.5 -27.5t26.5 -71.5q0 -64 -57 -121z" />
    <glyph glyph-name="dotaccent" unicode="&#x2d9;" horiz-adv-x="921" 
d="M514 1163h-106q-97 0 -97 94v95q0 94 97 94h106q96 0 96 -94v-95q0 -94 -96 -94z" />
    <glyph glyph-name="ring" unicode="&#x2da;" horiz-adv-x="921" 
d="M461 1559q122 0 187 -50t65 -143v-33q0 -93 -64.5 -142.5t-187.5 -49.5t-187.5 49.5t-64.5 142.5v33q0 93 65 143t187 50zM461 1440q-80 0 -80 -72v-35q0 -71 80 -71t80 71v35q0 72 -80 72z" />
    <glyph glyph-name="ogonek" unicode="&#x2db;" horiz-adv-x="921" 
d="M584 -410h-107q-229 0 -229 179v22q0 97 88 170l108 90q19 18 36 23.5t48 5.5h64q14 0 22.5 -9t8.5 -22v-14q0 -17 -21 -35l-117 -104q-28 -22 -28 -52v-10q0 -39 57 -39h76q37 0 60.5 -23.5t23.5 -60.5v-30q0 -38 -26 -64.5t-64 -26.5z" />
    <glyph glyph-name="tilde" unicode="&#x2dc;" horiz-adv-x="921" 
d="M176 1405q59 59 156 59q44 0 84 -14.5t96 -52.5q48 -37 74 -37q14 0 23.5 10.5t19.5 36.5q20 57 78 57q43 0 68.5 -27.5t25.5 -74.5q0 -83 -56 -139q-60 -60 -155 -60q-43 0 -83.5 15t-96.5 53q-48 37 -74 37q-14 0 -23.5 -10.5t-19.5 -36.5q-21 -58 -78 -58
q-43 0 -68.5 28t-25.5 75q0 84 55 139z" />
    <glyph glyph-name="hungarumlaut" unicode="&#x2dd;" horiz-adv-x="921" 
d="M143 1262l64 131q12 28 27 37.5t45 9.5h135q45 0 45 -35v-10q0 -21 -27 -62l-84 -127q-22 -37 -90 -37h-84q-43 0 -43 37v8q0 24 12 48zM477 1262l64 131q13 29 27 38t44 9h136q23 0 33 -8t10 -27v-10q0 -19 -25 -62l-86 -127q-14 -20 -34 -28.5t-56 -8.5h-82
q-45 0 -45 37v8q0 16 14 48z" />
    <glyph glyph-name="uni0300" unicode="&#x300;" horiz-adv-x="0" 
d="M117 1169h-117q-34 0 -56 7.5t-46 29.5l-148 127q-33 26 -33 60v10q0 37 41 37h174q30 0 46.5 -8t44.5 -39l112 -131q21 -24 21 -48v-8q0 -37 -39 -37z" />
    <glyph glyph-name="uni0301" unicode="&#x301;" horiz-adv-x="0" 
d="M0 1169h-117q-39 0 -39 37v8q0 24 21 48l112 131q28 31 44.5 39t46.5 8h174q41 0 41 -37v-10q0 -34 -33 -60l-148 -127q-24 -22 -46 -29.5t-56 -7.5z" />
    <glyph glyph-name="uni0302" unicode="&#x302;" horiz-adv-x="0" 
d="M309 1200q-20 -39 -60 -49.5t-81 12.5l-168 94l-168 -94q-41 -23 -79 -12.5t-58 49.5q-20 38 -7 75t54 62l199 113q30 18 59 18h6q25 0 57 -18l201 -113q41 -23 53 -59.5t-8 -77.5z" />
    <glyph glyph-name="uni0303" unicode="&#x303;" horiz-adv-x="0" 
d="M-285 1405q59 59 156 59q44 0 84 -14.5t96 -52.5q48 -37 74 -37q14 0 23.5 10.5t19.5 36.5q20 57 78 57q43 0 68.5 -27.5t25.5 -74.5q0 -84 -55 -139q-60 -60 -156 -60q-43 0 -83.5 15t-96.5 53q-48 37 -74 37q-14 0 -23.5 -10.5t-19.5 -36.5q-21 -58 -78 -58
q-43 0 -68.5 28t-25.5 75q0 84 55 139z" />
    <glyph glyph-name="uni0304" unicode="&#x304;" horiz-adv-x="0" 
d="M309 1305q0 -44 -29 -72.5t-73 -28.5h-414q-44 0 -73 28.5t-29 72.5t29 73t73 29h414q44 0 73 -29t29 -73z" />
    <glyph glyph-name="uni0306" unicode="&#x306;" horiz-adv-x="0" 
d="M258 1255q-96 -96 -258 -96t-258 96q-57 57 -57 121q0 44 26.5 71.5t69.5 27.5q45 0 84 -50q31 -38 61.5 -54.5t73.5 -16.5t73.5 16.5t61.5 54.5q39 50 84 50q43 0 69.5 -27.5t26.5 -71.5q0 -64 -57 -121z" />
    <glyph glyph-name="uni0307" unicode="&#x307;" horiz-adv-x="0" 
d="M53 1163h-106q-97 0 -97 94v95q0 94 97 94h106q97 0 97 -94v-95q0 -94 -97 -94z" />
    <glyph glyph-name="uni0308" unicode="&#x308;" horiz-adv-x="0" 
d="M-137 1163h-80q-98 0 -98 92v97q0 94 98 94h80q98 0 98 -94v-97q0 -92 -98 -92zM217 1163h-80q-98 0 -98 92v97q0 94 98 94h80q98 0 98 -94v-97q0 -92 -98 -92z" />
    <glyph glyph-name="uni030A" unicode="&#x30a;" horiz-adv-x="0" 
d="M0 1559q122 0 187 -50t65 -143v-33q0 -93 -64.5 -142.5t-187.5 -49.5t-187.5 49.5t-64.5 142.5v33q0 93 65 143t187 50zM0 1440q-80 0 -80 -72v-35q0 -71 80 -71t80 71v35q0 72 -80 72z" />
    <glyph glyph-name="uni030B" unicode="&#x30b;" horiz-adv-x="0" 
d="M-260 1262l63 131q12 28 27 37.5t45 9.5h135q45 0 45 -35v-10q0 -23 -26 -62l-84 -127q-22 -37 -90 -37h-84q-43 0 -43 37v8q0 24 12 48zM74 1262l63 131q13 29 27.5 38t44.5 9h135q23 0 33 -8t10 -27v-10q0 -19 -25 -62l-86 -127q-14 -20 -34 -28.5t-56 -8.5h-82
q-45 0 -45 37v8q0 14 15 48z" />
    <glyph glyph-name="uni030C" unicode="&#x30c;" horiz-adv-x="0" 
d="M262 1284l-199 -113q-30 -18 -59 -18h-6q-25 0 -57 18l-201 113q-41 23 -53 60.5t8 78.5q20 39 60 49.5t81 -12.5l168 -94l168 94q41 23 79 12.5t58 -49.5q21 -38 8 -77t-55 -62z" />
    <glyph glyph-name="uni0323" unicode="&#x323;" horiz-adv-x="0" 
d="M53 -420h-106q-97 0 -97 94v95q0 94 97 94h106q97 0 97 -94v-95q0 -94 -97 -94z" />
    <glyph glyph-name="uni0326" unicode="&#x326;" horiz-adv-x="0" 
d="M-213 -315l68 135q13 29 29.5 38t49.5 9h160q45 0 45 -35v-10q0 -25 -26 -62l-97 -133q-25 -37 -96 -37h-104q-45 0 -45 37v8q0 19 16 50z" />
    <glyph glyph-name="uni0327" unicode="&#x327;" horiz-adv-x="0" 
d="M258 -252v-10q0 -88 -57 -130t-176 -42h-144q-35 0 -56.5 21.5t-21.5 54.5q0 32 22.5 53.5t55.5 21.5h107q37 0 37 33v12q0 17 -8 23.5t-29 11.5l-35 6q-39 8 -52.5 39.5t3.5 81.5l35 105q7 29 21.5 40t41.5 11h59q46 0 37 -53l-24 -115q104 -23 144 -59.5t40 -104.5z
" />
    <glyph glyph-name="uni0328" unicode="&#x328;" horiz-adv-x="0" 
d="M100 -410h-106q-230 0 -230 179v22q0 96 89 170l108 90q19 18 36 23.5t48 5.5h64q13 0 21.5 -8.5t8.5 -22.5v-14q0 -17 -20 -35l-117 -104q-29 -23 -29 -52v-10q0 -39 58 -39h75q37 0 60.5 -23.5t23.5 -60.5v-30q0 -38 -26 -64.5t-64 -26.5z" />
    <glyph glyph-name="uni1E80" unicode="&#x1e80;" horiz-adv-x="1787" 
d="M592 -6h-189q-99 0 -120 121l-201 1179q-6 27 -6 58q0 82 80 82h127q83 0 98 -88l149 -955l207 823q19 73 49 102.5t86 29.5h60q55 0 85.5 -30t49.5 -102l207 -821l147 953q15 88 101 88h110q82 0 82 -82q0 -5 -4 -29.5t-4 -28.5l-199 -1179q-21 -121 -123 -121h-186
q-51 0 -81.5 31t-49.5 100l-172 686l-172 -686q-19 -69 -49.5 -100t-81.5 -31zM1018 1520h-117q-35 0 -57 7t-45 29l-148 127q-33 26 -33 60v10q0 37 41 37h175q30 0 46 -8t44 -39l112 -131q21 -24 21 -47v-9q0 -36 -39 -36z" />
    <glyph glyph-name="uni1E81" unicode="&#x1e81;" horiz-adv-x="1591" 
d="M543 -4h-187q-95 0 -116 98l-168 787q-11 45 -11 82q0 38 21 58.5t59 20.5h121q45 0 69 -20t31 -66l119 -620l160 557q19 69 48 94t89 25h53q58 0 88.5 -26t49.5 -93l157 -557l119 620q15 86 103 86h102q41 0 60.5 -19t19.5 -60t-10 -82l-168 -787q-21 -98 -117 -98h-182
q-47 0 -74.5 24t-44.5 80l-137 471l-135 -471q-17 -57 -44.5 -80.5t-74.5 -23.5zM922 1169h-117q-34 0 -56.5 7.5t-46.5 29.5l-147 127q-33 26 -33 60v10q0 37 41 37h174q30 0 46 -8t44 -39l113 -131q21 -24 21 -48v-8q0 -37 -39 -37z" />
    <glyph glyph-name="uni1E82" unicode="&#x1e82;" horiz-adv-x="1787" 
d="M592 -6h-189q-99 0 -120 121l-201 1179q-6 27 -6 58q0 82 80 82h127q83 0 98 -88l149 -955l207 823q19 73 49 102.5t86 29.5h60q55 0 85.5 -30t49.5 -102l207 -821l147 953q15 88 101 88h110q82 0 82 -82q0 -5 -4 -29.5t-4 -28.5l-199 -1179q-21 -121 -123 -121h-186
q-51 0 -81.5 31t-49.5 100l-172 686l-172 -686q-19 -69 -49.5 -100t-81.5 -31zM899 1520h-117q-39 0 -39 36v9q0 23 21 47l113 131q28 31 44 39t46 8h174q41 0 41 -37v-10q0 -34 -33 -60l-148 -127q-23 -22 -45 -29t-57 -7z" />
    <glyph glyph-name="uni1E83" unicode="&#x1e83;" horiz-adv-x="1591" 
d="M543 -4h-187q-95 0 -116 98l-168 787q-11 45 -11 82q0 38 21 58.5t59 20.5h121q45 0 69 -20t31 -66l119 -620l160 557q19 69 48 94t89 25h53q58 0 88.5 -26t49.5 -93l157 -557l119 620q15 86 103 86h102q41 0 60.5 -19t19.5 -60t-10 -82l-168 -787q-21 -98 -117 -98h-182
q-47 0 -74.5 24t-44.5 80l-137 471l-135 -471q-17 -57 -44.5 -80.5t-74.5 -23.5zM805 1169h-117q-39 0 -39 37v8q0 24 21 48l112 131q28 31 44 39t46 8h175q40 0 40 -37v-10q0 -35 -32 -60l-148 -127q-24 -22 -46 -29.5t-56 -7.5z" />
    <glyph glyph-name="uni1E84" unicode="&#x1e84;" horiz-adv-x="1787" 
d="M592 -6h-189q-99 0 -120 121l-201 1179q-6 27 -6 58q0 82 80 82h127q83 0 98 -88l149 -955l207 823q19 73 49 102.5t86 29.5h60q55 0 85.5 -30t49.5 -102l207 -821l147 953q15 88 101 88h110q82 0 82 -82q0 -5 -4 -29.5t-4 -28.5l-199 -1179q-21 -121 -123 -121h-186
q-51 0 -81.5 31t-49.5 100l-172 686l-172 -686q-19 -69 -49.5 -100t-81.5 -31zM762 1513h-80q-98 0 -98 93v96q0 94 98 94h80q98 0 98 -94v-96q0 -93 -98 -93zM1116 1513h-80q-98 0 -98 93v96q0 94 98 94h80q98 0 98 -94v-96q0 -93 -98 -93z" />
    <glyph glyph-name="uni1E85" unicode="&#x1e85;" horiz-adv-x="1591" 
d="M543 -4h-187q-95 0 -116 98l-168 787q-11 45 -11 82q0 38 21 58.5t59 20.5h121q45 0 69 -20t31 -66l119 -620l160 557q19 69 48 94t89 25h53q58 0 88.5 -26t49.5 -93l157 -557l119 620q15 86 103 86h102q41 0 60.5 -19t19.5 -60t-10 -82l-168 -787q-21 -98 -117 -98h-182
q-47 0 -74.5 24t-44.5 80l-137 471l-135 -471q-17 -57 -44.5 -80.5t-74.5 -23.5zM668 1163h-80q-99 0 -99 92v97q0 94 99 94h80q98 0 98 -94v-97q0 -92 -98 -92zM1022 1163h-80q-98 0 -98 92v97q0 94 98 94h80q98 0 98 -94v-97q0 -92 -98 -92z" />
    <glyph glyph-name="uni1EBC" unicode="&#x1ebc;" horiz-adv-x="1202" 
d="M1057 0h-793q-54 0 -85.5 31.5t-31.5 85.5v1200q0 54 31.5 85.5t85.5 31.5h793q76 0 76 -76v-111q0 -76 -76 -76h-576v-309h426q63 0 99 -34.5t36 -94.5v-8q0 -60 -36 -94.5t-99 -34.5h-426v-334h576q76 0 76 -76v-110q0 -76 -76 -76zM354 1786q59 59 156 59
q44 0 84 -14.5t96 -52.5q48 -37 74 -37q14 0 23.5 10.5t19.5 36.5q20 57 78 57q43 0 68.5 -27.5t25.5 -74.5q0 -84 -55 -139q-60 -60 -156 -60q-43 0 -83.5 15t-96.5 53q-48 37 -74 37q-14 0 -23.5 -10.5t-19.5 -36.5q-21 -58 -78 -58q-43 0 -68.5 28t-25.5 75q0 84 55 139z
" />
    <glyph glyph-name="uni1EBD" unicode="&#x1ebd;" horiz-adv-x="1165" 
d="M600 -25q-248 0 -379 102.5t-131 297.5v276q0 201 130 308.5t370 107.5q239 0 362 -102t123 -299v-146q0 -94 -90 -94h-567v-86q0 -78 42.5 -111.5t139.5 -33.5q152 0 152 90v8q0 19 7.5 27t26.5 8h236q39 0 39 -41v-17q0 -146 -117.5 -220.5t-343.5 -74.5zM588 852
q-170 0 -170 -150v-77h344v77q0 150 -174 150zM303 1405q59 59 156 59q44 0 84 -14.5t96 -52.5q48 -37 74 -37q14 0 23.5 10.5t19.5 36.5q20 57 78 57q43 0 68.5 -27.5t25.5 -74.5q0 -83 -56 -139q-60 -60 -155 -60q-43 0 -83.5 15t-96.5 53q-48 37 -74 37
q-14 0 -23.5 -10.5t-19.5 -36.5q-21 -58 -78 -58q-43 0 -68.5 28t-25.5 75q0 84 55 139z" />
    <glyph glyph-name="Ygrave" unicode="&#x1ef2;" horiz-adv-x="1263" 
d="M719 0h-174q-37 0 -59.5 22.5t-22.5 59.5v475l-404 707q-32 55 -32 96q0 35 22.5 54.5t63.5 19.5h151q39 0 63.5 -15.5t47.5 -56.5l266 -485l268 485q23 41 47.5 56.5t63.5 15.5h131q41 0 63.5 -19.5t22.5 -54.5q0 -39 -33 -96l-403 -707v-475q0 -37 -22.5 -59.5
t-59.5 -22.5zM754 1550h-117q-34 0 -56 7.5t-46 29.5l-148 127q-33 26 -33 60v10q0 37 41 37h174q30 0 46 -8t44 -39l113 -132q21 -24 21 -47v-8q0 -37 -39 -37z" />
    <glyph glyph-name="ygrave" unicode="&#x1ef3;" horiz-adv-x="1103" 
d="M387 -223l88 223h-49q-51 0 -78.5 22t-44.5 76l-250 785q-14 43 -14 84q0 36 20.5 55.5t57.5 19.5h143q45 0 69.5 -20.5t37.5 -71.5l196 -688l199 688q14 51 37 71.5t67 20.5h121q37 0 57.5 -19.5t20.5 -55.5q0 -35 -16 -84l-385 -1217q-19 -59 -73 -85t-116 -7
q-67 23 -91 78.5t3 124.5zM674 1169h-117q-34 0 -56 7.5t-46 29.5l-148 127q-33 26 -33 60v10q0 37 41 37h174q30 0 46.5 -8t44.5 -39l112 -131q21 -24 21 -48v-8q0 -37 -39 -37z" />
    <glyph glyph-name="uni1EF8" unicode="&#x1ef8;" horiz-adv-x="1263" 
d="M719 0h-174q-37 0 -59.5 22.5t-22.5 59.5v475l-404 707q-32 55 -32 96q0 35 22.5 54.5t63.5 19.5h151q39 0 63.5 -15.5t47.5 -56.5l266 -485l268 485q23 41 47.5 56.5t63.5 15.5h131q41 0 63.5 -19.5t22.5 -54.5q0 -39 -33 -96l-403 -707v-475q0 -37 -22.5 -59.5
t-59.5 -22.5zM350 1786q59 59 156 59q44 0 84 -14.5t96 -52.5q48 -37 74 -37q14 0 23.5 10.5t19.5 36.5q20 57 78 57q43 0 68.5 -27.5t25.5 -74.5q0 -84 -55 -139q-60 -60 -156 -60q-43 0 -83.5 15t-96.5 53q-48 37 -74 37q-14 0 -23.5 -10.5t-19.5 -36.5q-21 -58 -78 -58
q-43 0 -68.5 28t-25.5 75q0 84 55 139z" />
    <glyph glyph-name="uni1EF9" unicode="&#x1ef9;" horiz-adv-x="1103" 
d="M387 -223l88 223h-49q-51 0 -78.5 22t-44.5 76l-250 785q-14 43 -14 84q0 36 20.5 55.5t57.5 19.5h143q45 0 69.5 -20.5t37.5 -71.5l196 -688l199 688q14 51 37 71.5t67 20.5h121q37 0 57.5 -19.5t20.5 -55.5q0 -35 -16 -84l-385 -1217q-19 -59 -73 -85t-116 -7
q-67 23 -91 78.5t3 124.5zM272 1405q59 59 156 59q44 0 84 -14.5t96 -52.5q48 -37 74 -37q14 0 23.5 10.5t19.5 36.5q20 57 78 57q43 0 68.5 -27.5t25.5 -74.5q0 -84 -55 -139q-60 -60 -156 -60q-43 0 -83.5 15t-96.5 53q-48 37 -74 37q-14 0 -23.5 -10.5t-19.5 -36.5
q-21 -58 -78 -58q-43 0 -68.5 28t-25.5 75q0 84 55 139z" />
    <glyph glyph-name="uni2007" unicode="&#x2007;" 
 />
    <glyph glyph-name="uni2009" unicode="&#x2009;" horiz-adv-x="143" 
 />
    <glyph glyph-name="endash" unicode="&#x2013;" horiz-adv-x="1024" 
d="M870 489h-716q-51 0 -84 32t-33 83v10q0 52 31.5 83.5t85.5 31.5h716q54 0 85.5 -31.5t31.5 -83.5v-10q0 -51 -33 -83t-84 -32z" />
    <glyph glyph-name="emdash" unicode="&#x2014;" horiz-adv-x="1536" 
d="M1382 489h-1228q-51 0 -84 32t-33 83v10q0 52 31.5 83.5t85.5 31.5h1228q54 0 85.5 -31.5t31.5 -83.5v-10q0 -51 -33 -83t-84 -32z" />
    <glyph glyph-name="quoteleft" unicode="&#x2018;" horiz-adv-x="532" 
d="M322 1458q62 0 85.5 -47.5t-8.5 -107.5l-96 -177h33q113 0 113 -110v-121q0 -119 -127 -119h-111q-125 0 -125 119v145q0 97 55 199l92 162q34 57 89 57z" />
    <glyph glyph-name="quoteright" unicode="&#x2019;" horiz-adv-x="532" 
d="M213 760q-62 0 -87 47.5t7 107.5l98 179h-34q-111 0 -111 110v121q0 119 125 119h111q127 0 127 -119v-145q0 -97 -58 -199l-92 -164q-34 -57 -86 -57z" />
    <glyph glyph-name="quotesinglbase" unicode="&#x201a;" horiz-adv-x="532" 
d="M391 -109l-92 -161q-34 -58 -86 -58q-64 0 -89 47t9 109l98 176h-34q-111 0 -111 111v121q0 61 30.5 89.5t94.5 28.5h111q127 0 127 -118v-146q0 -97 -58 -199z" />
    <glyph glyph-name="quotedblleft" unicode="&#x201c;" horiz-adv-x="980" 
d="M322 1458q62 0 85.5 -47.5t-8.5 -107.5l-96 -177h33q113 0 113 -110v-121q0 -119 -127 -119h-111q-125 0 -125 119v145q0 97 55 199l92 162q34 57 89 57zM768 1458q63 0 87.5 -47t-9.5 -108l-96 -177h32q113 0 113 -110v-121q0 -119 -125 -119h-113q-125 0 -125 119v145
q0 101 56 199l94 162q34 57 86 57z" />
    <glyph glyph-name="quotedblright" unicode="&#x201d;" horiz-adv-x="980" 
d="M659 760q-62 0 -85.5 47t8.5 108l96 179h-33q-113 0 -113 110v121q0 119 125 119h113q125 0 125 -119v-145q0 -103 -55 -199l-95 -164q-34 -57 -86 -57zM213 760q-62 0 -87 47.5t7 107.5l98 179h-34q-111 0 -111 110v121q0 119 125 119h111q127 0 127 -119v-145
q0 -97 -58 -199l-92 -164q-34 -57 -86 -57z" />
    <glyph glyph-name="quotedblbase" unicode="&#x201e;" horiz-adv-x="980" 
d="M659 -328q-62 0 -86.5 47t9.5 109l96 176h-33q-113 0 -113 111v121q0 118 125 118h113q125 0 125 -118v-146q0 -103 -55 -199l-95 -161q-34 -58 -86 -58zM213 -328q-64 0 -89 47t9 109l98 176h-34q-111 0 -111 111v121q0 61 30.5 89.5t94.5 28.5h111q127 0 127 -118v-146
q0 -97 -58 -199l-92 -161q-34 -58 -86 -58z" />
    <glyph glyph-name="dagger" unicode="&#x2020;" horiz-adv-x="794" 
d="M627 997h-107v-391q0 -55 -32.5 -88t-86.5 -33h-10q-54 0 -84.5 32.5t-30.5 88.5v391h-108q-50 0 -80.5 28t-30.5 73v8q0 47 30 73.5t81 26.5h108v133q0 56 30.5 88.5t84.5 32.5h10q54 0 86.5 -33t32.5 -88v-133h107q51 0 80.5 -26.5t29.5 -73.5v-8q0 -45 -30 -73
t-80 -28z" />
    <glyph glyph-name="daggerdbl" unicode="&#x2021;" horiz-adv-x="815" 
d="M412 324h-11q-54 0 -84 32t-30 88v125h-109q-50 0 -80 28t-30 73v8q0 45 30 72.5t80 27.5h109v228h-109q-51 0 -80.5 26.5t-29.5 71.5v10q0 45 29.5 71.5t80.5 26.5h109v127q0 56 30 88.5t84 32.5h11q54 0 86 -33t32 -88v-127h107q51 0 81 -27t30 -71v-10q0 -44 -30 -71
t-81 -27h-107v-228h107q51 0 81 -27.5t30 -72.5v-8q0 -45 -30.5 -73t-80.5 -28h-107v-125q0 -55 -32 -87.5t-86 -32.5z" />
    <glyph glyph-name="bullet" unicode="&#x2022;" horiz-adv-x="804" 
d="M700 655q0 -123 -88 -211q-86 -86 -209 -86q-121 0 -210 86q-87 90 -87 211q0 122 87 209q88 88 210 88q124 0 209 -88q88 -85 88 -209z" />
    <glyph glyph-name="ellipsis" unicode="&#x2026;" horiz-adv-x="1912" 
d="M375 -10h-111q-125 0 -125 119v124q0 117 125 117h111q63 0 93 -28.5t30 -88.5v-124q0 -119 -123 -119zM1137 233v-124q0 -119 -125 -119h-111q-125 0 -125 119v124q0 117 125 117h111q125 0 125 -117zM1774 233v-124q0 -119 -125 -119h-111q-123 0 -123 119v124
q0 60 30 88.5t93 28.5h111q125 0 125 -117z" />
    <glyph glyph-name="perthousand" unicode="&#x2030;" horiz-adv-x="1843" 
d="M313 760q-129 0 -202.5 65.5t-73.5 180.5v153q0 117 72.5 181.5t203.5 64.5t204 -64.5t73 -181.5v-153q0 -115 -74 -180.5t-203 -65.5zM1104 1264l-840 -1233q-25 -32 -57 -39.5t-64 12.5t-37.5 55.5t19.5 67.5l840 1233q23 34 55.5 40.5t64.5 -14.5q32 -20 38 -55
t-19 -67zM248 1184v-201q0 -70 65 -70q68 0 68 70v201q0 69 -68 69q-65 0 -65 -69zM915 -14q-129 0 -202.5 65t-73.5 180v154q0 117 72.5 181.5t203.5 64.5t204 -64.5t73 -181.5v-154q0 -115 -74 -180t-203 -65zM1530 -14q-129 0 -203 65t-74 180v154q0 117 73 181.5
t204 64.5t203.5 -64.5t72.5 -181.5v-154q0 -115 -73.5 -180t-202.5 -65zM915 137q66 0 66 72v199q0 71 -66 71q-67 0 -67 -71v-199q0 -72 67 -72zM1530 137q65 0 65 72v199q0 71 -65 71q-68 0 -68 -71v-199q0 -72 68 -72z" />
    <glyph glyph-name="guilsinglleft" unicode="&#x2039;" horiz-adv-x="602" 
d="M498 182q-41 -32 -91.5 -25t-87.5 50l-217 254q-47 58 -47 104v23q0 46 47 104l217 254q37 43 87.5 50t91.5 -25t44 -83.5t-34 -92.5l-189 -217l189 -220q37 -41 34 -92.5t-44 -83.5z" />
    <glyph glyph-name="guilsinglright" unicode="&#x203a;" horiz-adv-x="602" 
d="M502 461l-217 -254q-37 -43 -87.5 -50t-91.5 25t-44 83.5t34 92.5l189 220l-189 217q-37 41 -34 92.5t44 83.5t91.5 25t87.5 -50l217 -254q47 -58 47 -104v-23q0 -46 -47 -104z" />
    <glyph glyph-name="fraction" unicode="&#x2044;" horiz-adv-x="364" 
d="M678 1438q35 -20 43.5 -56.5t-16.5 -68.5l-879 -1284q-25 -36 -58.5 -45t-68.5 12q-35 19 -43 56t16 69l879 1284q51 75 127 33z" />
    <glyph glyph-name="uni2070" unicode="&#x2070;" horiz-adv-x="839" 
d="M420 774q-171 0 -267 72t-96 201v296q0 129 96 200t267 71t265.5 -71t94.5 -200v-296q0 -129 -95 -201t-265 -72zM420 936q102 0 102 88v342q0 88 -102 88q-103 0 -103 -88v-342q0 -88 103 -88z" />
    <glyph glyph-name="uni2074" unicode="&#x2074;" horiz-adv-x="800" 
d="M709 952h-50v-112q0 -49 -49 -49h-157q-23 0 -36.5 13t-13.5 36v112h-292q-84 0 -84 80v60q0 49 28 100l217 354q34 53 95 53h223q69 0 69 -63v-412h50q31 0 50 -19.5t19 -51.5v-29q0 -32 -19 -52t-50 -20zM215 1118h188v340z" />
    <glyph glyph-name="uni2075" unicode="&#x2075;" horiz-adv-x="759" 
d="M719 1098v-76q0 -248 -342 -248q-160 0 -243 54.5t-83 158.5v8q0 19 11 30t30 11h158q41 0 41 -39v-8q0 -55 84 -55q86 0 86 70v96q0 69 -86 69q-58 0 -82 -41q-14 -26 -53 -26h-123q-73 0 -64 67l43 377q1 24 18.5 37.5t43.5 13.5h442q37 0 60.5 -22t23.5 -57v-27
q0 -36 -23.5 -58t-60.5 -22h-299l-18 -160q61 64 172 64q123 0 193.5 -57.5t70.5 -159.5z" />
    <glyph glyph-name="uni2076" unicode="&#x2076;" horiz-adv-x="802" 
d="M754 1063v-37q0 -118 -93.5 -185t-257.5 -67q-162 0 -254 69.5t-92 192.5v307q0 128 92.5 199.5t256.5 71.5t248.5 -57t84.5 -166v-11q0 -17 -12 -28t-31 -11h-157q-19 0 -30 10t-11 27v15q0 65 -90 65q-43 0 -67 -19.5t-24 -54.5v-149q63 51 177 51q122 0 191 -59.5
t69 -163.5zM408 928q90 0 90 84v59q0 80 -90 80q-44 0 -67.5 -21t-23.5 -59v-59q0 -84 91 -84z" />
    <glyph glyph-name="uni2077" unicode="&#x2077;" horiz-adv-x="692" 
d="M633 1368l-238 -526q-21 -45 -61 -62.5t-88 0.5q-47 19 -64 62.5t4 87.5l226 473h-308q-32 0 -51.5 20t-19.5 52v49q0 35 19 54t52 19h463q47 0 68.5 -21t21.5 -65v-41q0 -44 -24 -102z" />
    <glyph glyph-name="uni2078" unicode="&#x2078;" horiz-adv-x="790" 
d="M743 1042v-49q0 -106 -89.5 -162.5t-260.5 -56.5q-169 0 -257.5 56.5t-88.5 162.5v49q0 121 141 162q-135 40 -135 152v47q0 104 86.5 157.5t253.5 53.5q344 0 344 -211v-47q0 -112 -137 -152q143 -40 143 -162zM393 1458q-86 0 -86 -61v-60q0 -29 22.5 -46t63.5 -17
q88 0 88 63v60q0 61 -88 61zM393 930q44 0 69 17.5t25 49.5v62q0 65 -94 65q-90 0 -90 -65v-62q0 -32 23.5 -49.5t66.5 -17.5z" />
    <glyph glyph-name="uni2079" unicode="&#x2079;" horiz-adv-x="802" 
d="M743 1352v-308q0 -127 -92 -198.5t-256 -71.5t-248 53t-84 156v8q0 18 12 28.5t31 10.5h156q19 0 30 -10t11 -27v-12q0 -49 90 -49t90 72v133q-65 -52 -176 -52q-121 0 -189.5 59.5t-68.5 164.5v53q0 121 92 186.5t258 65.5q162 0 253 -69t91 -193zM395 1460
q-92 0 -92 -84v-76q0 -81 92 -81q88 0 88 81v76q0 84 -88 84z" />
    <glyph glyph-name="uni2080" unicode="&#x2080;" horiz-adv-x="839" 
d="M420 -221q-171 0 -267 71.5t-96 200.5v297q0 128 96 199t267 71t265.5 -70.5t94.5 -199.5v-297q0 -129 -95 -200.5t-265 -71.5zM420 -59q102 0 102 88v342q0 88 -102 88q-103 0 -103 -88v-342q0 -88 103 -88z" />
    <glyph glyph-name="uni2081" unicode="&#x2081;" horiz-adv-x="550" 
d="M442 539v-697q0 -47 -45 -47h-164q-47 0 -47 47v527l-26 -13q-25 -14 -58 -14q-32 0 -49.5 19.5t-17.5 54.5v28q0 41 13.5 63t45.5 36l88 39q37 18 58 23t55 5h76q71 0 71 -71z" />
    <glyph glyph-name="uni2082" unicode="&#x2082;" horiz-adv-x="739" 
d="M616 -205h-495q-80 0 -80 76v145q0 99 48 152t157 78l139 30q35 7 49.5 24t14.5 48v51q0 64 -82 64t-82 -64v-32q0 -39 -39 -39h-160q-20 0 -31.5 11t-11.5 30v28q0 109 82 165t242 56q331 0 331 -239v-37q0 -94 -48.5 -148t-153.5 -77l-160 -35q-32 -8 -43.5 -19.5
t-11.5 -37.5v-37h335q37 0 59.5 -22.5t22.5 -59.5v-29q0 -37 -22.5 -59.5t-59.5 -22.5z" />
    <glyph glyph-name="uni2083" unicode="&#x2083;" horiz-adv-x="772" 
d="M725 27v-25q0 -109 -88 -166t-258 -57q-165 0 -250.5 57t-85.5 166v18q0 19 12.5 30t32.5 11h154q43 0 43 -38v-23q0 -66 90 -66q44 0 69 18t25 50v49q0 31 -21.5 49.5t-58.5 18.5h-70q-35 0 -56 19t-21 50v27q0 31 22.5 51.5t54.5 20.5h66q76 0 76 65v47q0 64 -88 64
q-86 0 -86 -66v-16q0 -18 -12 -28.5t-31 -10.5h-156q-20 0 -31.5 11t-11.5 30v12q0 109 84.5 166t245.5 57q167 0 254.5 -56.5t87.5 -162.5v-20q0 -135 -156 -172q80 -19 122 -65t42 -115z" />
    <glyph glyph-name="uni2084" unicode="&#x2084;" horiz-adv-x="800" 
d="M709 -43h-50v-113q0 -49 -49 -49h-157q-23 0 -36.5 13t-13.5 36v113h-292q-84 0 -84 80v59q0 50 28 101l217 354q34 53 95 53h223q69 0 69 -63v-412h50q31 0 50 -20t19 -52v-28q0 -32 -19 -52t-50 -20zM215 123h188v340z" />
    <glyph glyph-name="uni2085" unicode="&#x2085;" horiz-adv-x="759" 
d="M719 102v-75q0 -248 -342 -248q-160 0 -243 54.5t-83 158.5v8q0 19 11 30t30 11h158q41 0 41 -39v-8q0 -55 84 -55q86 0 86 69v96q0 70 -86 70q-58 0 -82 -41q-15 -27 -53 -27h-123q-73 0 -64 68l43 377q1 24 18.5 37.5t43.5 13.5h442q37 0 60.5 -22.5t23.5 -57.5v-26
q0 -36 -23.5 -58t-60.5 -22h-299l-18 -160q60 63 172 63q123 0 193.5 -57.5t70.5 -159.5z" />
    <glyph glyph-name="uni2086" unicode="&#x2086;" horiz-adv-x="802" 
d="M754 68v-37q0 -118 -93.5 -185t-257.5 -67q-162 0 -254 69.5t-92 192.5v307q0 127 92.5 198.5t256.5 71.5t248.5 -57t84.5 -166v-10q0 -17 -12 -28t-31 -11h-157q-19 0 -30 10t-11 27v14q0 66 -90 66q-43 0 -67 -19.5t-24 -54.5v-149q63 51 177 51q122 0 191 -59.5
t69 -163.5zM408 -68q90 0 90 84v60q0 80 -90 80q-44 0 -67.5 -21t-23.5 -59v-60q0 -84 91 -84z" />
    <glyph glyph-name="uni2087" unicode="&#x2087;" horiz-adv-x="692" 
d="M633 373l-238 -527q-21 -45 -61 -62t-88 1q-47 19 -64 62t4 87l226 474h-308q-32 0 -51.5 19.5t-19.5 51.5v49q0 35 19 54.5t52 19.5h463q47 0 68.5 -21t21.5 -65v-41q0 -43 -24 -102z" />
    <glyph glyph-name="uni2088" unicode="&#x2088;" horiz-adv-x="790" 
d="M743 47v-49q0 -106 -89.5 -162.5t-260.5 -56.5q-169 0 -257.5 56.5t-88.5 162.5v49q0 121 141 162q-135 40 -135 151v48q0 210 340 210q344 0 344 -210v-48q0 -111 -137 -151q143 -40 143 -162zM393 463q-41 0 -63.5 -16.5t-22.5 -45.5v-59q0 -29 22.5 -46t63.5 -17
q88 0 88 63v59q0 62 -88 62zM393 -66q44 0 69 18t25 50v61q0 32 -24.5 49t-69.5 17q-90 0 -90 -66v-61q0 -32 23.5 -50t66.5 -18z" />
    <glyph glyph-name="uni2089" unicode="&#x2089;" horiz-adv-x="802" 
d="M743 356v-307q0 -127 -92 -198.5t-256 -71.5t-248 53t-84 156v8q0 18 12 28.5t31 10.5h156q19 0 30 -10t11 -27v-12q0 -49 90 -49t90 71v133q-63 -51 -176 -51q-121 0 -189.5 59.5t-68.5 163.5v54q0 121 91.5 186t258.5 65q162 0 253 -69t91 -193zM395 465q-92 0 -92 -84
v-76q0 -82 92 -82q88 0 88 82v76q0 84 -88 84z" />
    <glyph glyph-name="Euro" unicode="&#x20ac;" 
d="M1167 150v-50q0 -47 -30.5 -73.5t-85.5 -26.5h-271q-264 0 -395 109t-135 335h-90q-44 0 -71.5 27t-27.5 70q0 41 27.5 66.5t71.5 25.5h90v131h-90q-44 0 -71.5 25.5t-27.5 68.5t27.5 68.5t71.5 25.5h90q6 223 137 332t393 109h271q55 0 85.5 -26.5t30.5 -74.5v-49
q0 -45 -25.5 -71.5t-72.5 -26.5h-297q-100 0 -142 -44.5t-42 -148.5h352q43 0 69.5 -25.5t26.5 -68.5t-26.5 -68.5t-69.5 -25.5h-352v-131h352q43 0 69.5 -25.5t26.5 -66.5q0 -43 -26.5 -70t-69.5 -27h-352q0 -106 42 -151t142 -45h297q47 0 72.5 -26.5t25.5 -71.5z" />
    <glyph glyph-name="uni20B9" unicode="&#x20b9;" 
d="M895 27q-51 -54 -121.5 -54t-124.5 54l-475 454q-57 54 -57 119v27q0 32 18.5 51.5t50.5 19.5h222q161 0 161 127v13h-368q-43 0 -69 25.5t-26 68.5q0 41 26 66.5t69 25.5h368v12q0 127 -161 127h-224q-31 0 -49 19t-18 51v88q0 32 19.5 52t51.5 20h869q43 0 68.5 -25.5
t25.5 -67.5q0 -43 -25.5 -67.5t-68.5 -24.5h-207q65 -74 65 -184h142q43 0 68.5 -25.5t25.5 -66.5q0 -43 -25.5 -68.5t-68.5 -25.5h-142q-2 -129 -80.5 -208t-230.5 -104l287 -260q56 -51 57 -118t-53 -121z" />
    <glyph glyph-name="uni20BA" unicode="&#x20ba;" 
d="M1180 516v-49q0 -467 -541 -467h-313q-51 0 -81 30t-30 81v282l-65 -22q-41 -14 -74 1.5t-45 53.5q-25 87 59 115l125 45v114l-65 -22q-44 -14 -75.5 0t-43.5 55q-25 87 59 115l125 45v436q0 29 17.5 46.5t46.5 17.5h210q29 0 46.5 -17.5t17.5 -46.5v-315l186 65
q41 13 72 -1.5t45 -53.5t-1 -71.5t-56 -45.5l-246 -86v-114l186 67q41 13 72 -1.5t45 -53.5q14 -42 -1 -73t-56 -44l-246 -88v-276h84q142 0 205 56t63 183v39q0 32 20 53t52 21h131q33 0 52.5 -19.5t19.5 -54.5z" />
    <glyph glyph-name="uni20BD" unicode="&#x20bd;" horiz-adv-x="1280" 
d="M764 197h-215v-134q0 -29 -17.5 -46t-46.5 -17h-196q-29 0 -46.5 17t-17.5 46v134h-96q-43 0 -70.5 27.5t-27.5 70.5q0 41 27.5 67.5t70.5 26.5h96v121h-96q-44 0 -71 25.5t-27 68.5t27.5 70.5t70.5 27.5h96v592q0 44 27.5 71.5t71.5 27.5h419q235 0 357.5 -95.5
t122.5 -279.5v-137q0 -184 -123 -279.5t-357 -95.5h-194v-117h215q45 0 72.5 -26t27.5 -68q0 -43 -28 -70.5t-72 -27.5zM719 1169h-170v-446h170q176 0 176 154v137q0 155 -176 155z" />
    <glyph glyph-name="uni20BF" unicode="&#x20bf;" 
d="M870 55v-188q0 -50 -27.5 -79.5t-76.5 -29.5t-78 29.5t-29 79.5v174h-114v-174q0 -50 -29 -79.5t-78 -29.5t-77.5 29.5t-28.5 79.5v174h-115q-45 0 -71.5 26.5t-26.5 73.5v1112q0 47 26.5 73t71.5 26h115v153q0 50 28.5 79.5t77.5 29.5t78 -29.5t29 -79.5v-153h114v153
q0 50 29 79.5t78 29.5t76.5 -29.5t27.5 -79.5v-170q267 -53 267 -311v-43q0 -207 -219 -268q235 -61 235 -289v-51q0 -265 -283 -318zM653 1128h-207v-317h207q80 0 117 31t37 98v66q0 63 -37 92.5t-117 29.5zM664 598h-218v-332h218q82 0 119.5 29.5t37.5 95.5v74
q0 133 -157 133z" />
    <glyph glyph-name="uni2116" unicode="&#x2116;" horiz-adv-x="2461" 
d="M1935 451q-207 0 -323.5 97.5t-116.5 270.5v215q0 174 116.5 272.5t323.5 98.5t325 -99t118 -272v-215q0 -173 -118 -270.5t-325 -97.5zM844 88l-375 870v-876q0 -37 -22.5 -59.5t-59.5 -22.5h-145q-37 0 -59.5 22.5t-22.5 59.5v1198q0 53 30 83t82 30h244q51 0 81.5 -20
t49.5 -64l359 -865v867q0 37 22 59.5t59 22.5h146q37 0 59.5 -22.5t22.5 -59.5v-1198q0 -52 -30 -82.5t-83 -30.5h-217q-58 0 -89.5 19.5t-51.5 68.5zM1935 666q138 0 138 131v260q0 133 -138 133q-137 0 -137 -133v-260q0 -131 137 -131zM2071 0h-269q-54 0 -86.5 31.5
t-32.5 85.5v20q0 54 32.5 85.5t86.5 31.5h269q54 0 86 -32t32 -83v-22q0 -54 -32 -85.5t-86 -31.5z" />
    <glyph glyph-name="uni2117" unicode="&#x2117;" horiz-adv-x="1572" 
d="M786 -25q-321 0 -497 157t-176 441v285q0 287 176 443.5t497 156.5q324 0 499 -156t175 -444v-285q0 -287 -176 -442.5t-498 -155.5zM786 104q260 0 393.5 118.5t133.5 350.5v287q0 231 -133.5 349t-393.5 118t-393 -118t-133 -349v-287q0 -232 133 -350.5t393 -118.5z
M508 354v688q0 38 22 60t60 22h266q146 0 222.5 -58.5t76.5 -170.5v-98q0 -113 -76.5 -171.5t-222.5 -58.5h-121v-213q0 -49 -49 -49h-129q-49 0 -49 49zM836 958h-101v-231h101q92 0 92 82v63q0 86 -92 86z" />
    <glyph glyph-name="uni2120" unicode="&#x2120;" horiz-adv-x="1339" 
d="M305 1446q248 0 248 -174v-15q0 -22 -23 -22h-135q-7 0 -13.5 6.5t-6.5 13.5v13q0 26 -17 37.5t-55 11.5t-55 -11.5t-17 -37.5v-6q0 -40 45 -48l144 -32q75 -19 109 -58.5t34 -111.5v-19q0 -91 -68.5 -138.5t-197.5 -47.5q-252 0 -252 174v16q0 23 23 23h135q20 0 20 -21
v-14q0 -51 76 -51q78 0 78 49v8q0 19 -10.5 29t-38.5 16l-140 35q-77 19 -110 58t-33 112v16q0 92 66.5 140.5t193.5 48.5zM881 997l-80 183v-322q0 -39 -39 -39h-82q-39 0 -39 39v516q0 26 16.5 43t42.5 17h123q46 0 66 -48l74 -176l71 176q20 48 66 48h110q26 0 43 -17
t17 -43v-516q0 -39 -39 -39h-94q-39 0 -39 39v322l-80 -183q-24 -53 -68 -53q-48 0 -69 53z" />
    <glyph glyph-name="trademark" unicode="&#x2122;" horiz-adv-x="1331" 
d="M35 1319v70q0 45 45 45h446q47 0 47 -45v-70q0 -47 -47 -47h-131v-414q0 -39 -41 -39h-104q-39 0 -39 39v414h-131q-45 0 -45 47zM872 997l-77 181v-320q0 -39 -39 -39h-84q-39 0 -39 39v516q0 26 16.5 43t42.5 17h125q46 0 66 -48l71 -178l74 178q20 48 66 48h110
q26 0 43 -17t17 -43v-516q0 -39 -39 -39h-95q-40 0 -40 39v320l-78 -181q-21 -53 -70 -53t-70 53z" />
    <glyph glyph-name="onethird" unicode="&#x2153;" horiz-adv-x="1665" 
d="M1223 1438q35 -20 43 -56.5t-17 -68.5l-878 -1284q-25 -36 -58.5 -45t-68.5 12q-35 19 -43 56t16 69l879 1284q51 75 127 33zM1618 231v-24q0 -109 -88 -166t-258 -57q-165 0 -250.5 57t-85.5 166v18q0 19 12.5 30t32.5 11h154q43 0 43 -39v-22q0 -66 90 -66q44 0 69 18
t25 50v49q0 31 -21.5 49.5t-58.5 18.5h-70q-35 0 -56 19t-21 50v27q0 31 22.5 51.5t54.5 20.5h66q76 0 76 65v47q0 64 -88 64q-86 0 -86 -66v-16q0 -18 -12 -28.5t-31 -10.5h-156q-20 0 -31.5 11t-11.5 30v12q0 109 84.5 166t245.5 57q167 0 254.5 -56.5t87.5 -162.5v-20
q0 -134 -156 -172q80 -19 122 -65.5t42 -115.5zM442 1370v-696q0 -47 -45 -47h-164q-47 0 -47 47v526l-26 -12q-25 -14 -58 -14q-67 0 -67 73v29q0 41 13 62.5t46 35.5l88 39q37 18 58.5 23.5t54.5 5.5h76q71 0 71 -72z" />
    <glyph glyph-name="twothirds" unicode="&#x2154;" horiz-adv-x="1853" 
d="M1411 1438q35 -20 43.5 -56.5t-16.5 -68.5l-879 -1284q-25 -36 -58.5 -45t-68.5 12q-35 19 -42.5 56t16.5 69l878 1284q51 75 127 33zM1806 231v-24q0 -109 -88 -166t-258 -57q-165 0 -250.5 57t-85.5 166v18q0 19 12.5 30t32.5 11h154q43 0 43 -39v-22q0 -66 90 -66
q44 0 69 18t25 50v49q0 31 -21.5 49.5t-58.5 18.5h-69q-35 0 -56.5 19t-21.5 50v27q0 31 23 51.5t55 20.5h65q76 0 76 65v47q0 64 -88 64q-86 0 -86 -66v-16q0 -18 -12 -28.5t-31 -10.5h-156q-20 0 -31.5 11t-11.5 30v12q0 109 84.5 166t245.5 57q167 0 254.5 -56.5
t87.5 -162.5v-20q0 -134 -156 -172q80 -19 122 -65.5t42 -115.5zM616 627h-495q-80 0 -80 75v146q0 99 47.5 151.5t157.5 77.5l139 31q35 7 49.5 24t14.5 48v51q0 63 -82 63t-82 -63v-33q0 -39 -39 -39h-160q-20 0 -31.5 11t-11.5 30v29q0 109 82 165t242 56q331 0 331 -240
v-36q0 -94 -49 -148.5t-153 -77.5l-160 -35q-32 -8 -43.5 -19.5t-11.5 -37.5v-37h335q37 0 59.5 -22.5t22.5 -59.5v-28q0 -37 -22.5 -59.5t-59.5 -22.5z" />
    <glyph glyph-name="uni215B" unicode="&#x215b;" horiz-adv-x="1683" 
d="M1223 1438q35 -20 43 -56.5t-17 -68.5l-878 -1284q-25 -36 -58.5 -45t-68.5 12q-35 19 -43 56t16 69l879 1284q51 75 127 33zM1636 252v-49q0 -106 -89.5 -162.5t-260.5 -56.5q-169 0 -257.5 56.5t-88.5 162.5v49q0 121 141 162q-135 40 -135 151v47q0 104 86.5 157.5
t253.5 53.5q344 0 344 -211v-47q0 -111 -137 -151q143 -40 143 -162zM1286 668q-41 0 -63.5 -16.5t-22.5 -45.5v-59q0 -30 22.5 -47t63.5 -17q88 0 88 64v59q0 62 -88 62zM1286 139q44 0 69 18t25 50v61q0 32 -24.5 49t-69.5 17q-90 0 -90 -66v-61q0 -32 23.5 -50t66.5 -18z
M442 1370v-696q0 -47 -45 -47h-164q-47 0 -47 47v526l-26 -12q-25 -14 -58 -14q-67 0 -67 73v29q0 41 13 62.5t46 35.5l88 39q37 18 58.5 23.5t54.5 5.5h76q71 0 71 -72z" />
    <glyph glyph-name="uni215C" unicode="&#x215c;" horiz-adv-x="1880" 
d="M1419 1438q35 -20 43.5 -56.5t-16.5 -68.5l-879 -1284q-25 -36 -58.5 -45t-68.5 12q-35 19 -42.5 56t16.5 69l878 1284q51 75 127 33zM1833 252v-49q0 -106 -89.5 -162.5t-260.5 -56.5q-169 0 -257.5 56.5t-88.5 162.5v49q0 121 141 162q-135 40 -135 151v47
q0 104 86.5 157.5t253.5 53.5q344 0 344 -211v-47q0 -111 -137 -151q143 -40 143 -162zM1483 668q-41 0 -63.5 -16.5t-22.5 -45.5v-59q0 -30 22.5 -47t63.5 -17q88 0 88 64v59q0 62 -88 62zM1483 139q44 0 69 18t25 50v61q0 32 -24.5 49t-69.5 17q-90 0 -90 -66v-61
q0 -32 23.5 -50t66.5 -18zM725 858v-24q0 -109 -88 -166.5t-258 -57.5q-165 0 -250.5 57.5t-85.5 166.5v18q0 19 12.5 30t32.5 11h154q43 0 43 -39v-23q0 -65 90 -65q44 0 69 18t25 50v49q0 31 -21.5 49t-58.5 18h-70q-35 0 -56 19.5t-21 50.5v27q0 31 22 51t55 20h66
q76 0 76 66v47q0 63 -88 63q-86 0 -86 -65v-17q0 -18 -12 -28t-31 -10h-156q-43 0 -43 40v13q0 109 84.5 166t245.5 57q167 0 254.5 -56.5t87.5 -162.5v-21q0 -134 -156 -172q80 -19 122 -65t42 -115z" />
    <glyph glyph-name="uni215D" unicode="&#x215d;" horiz-adv-x="1875" 
d="M1415 1438q35 -20 43.5 -56.5t-16.5 -68.5l-879 -1284q-25 -36 -58.5 -45t-68.5 12q-35 19 -42.5 56t16.5 69l878 1284q51 75 127 33zM1829 252v-49q0 -106 -89.5 -162.5t-260.5 -56.5q-169 0 -257.5 56.5t-88.5 162.5v49q0 121 141 162q-135 40 -135 151v47
q0 104 86.5 157.5t253.5 53.5q344 0 344 -211v-47q0 -111 -137 -151q143 -40 143 -162zM1479 668q-41 0 -63.5 -16.5t-22.5 -45.5v-59q0 -30 22.5 -47t63.5 -17q88 0 88 64v59q0 62 -88 62zM1479 139q44 0 69 18t25 50v61q0 32 -24.5 49t-69.5 17q-90 0 -90 -66v-61
q0 -32 23.5 -50t66.5 -18zM719 934v-76q0 -248 -342 -248q-160 0 -243 54.5t-83 158.5v8q0 19 11 30t30 11h158q41 0 41 -38v-9q0 -55 84 -55q86 0 86 70v96q0 70 -86 70q-58 0 -82 -41q-15 -27 -53 -27h-123q-73 0 -64 68l43 376q1 24 18.5 38t43.5 14h442q37 0 60.5 -22.5
t23.5 -57.5v-27q0 -36 -23.5 -58t-60.5 -22h-299l-18 -160q61 64 172 64q123 0 193.5 -57.5t70.5 -159.5z" />
    <glyph glyph-name="uni215E" unicode="&#x215e;" horiz-adv-x="1708" 
d="M1249 1438q35 -20 43.5 -56.5t-16.5 -68.5l-879 -1284q-25 -36 -58.5 -45t-68.5 12q-35 19 -42.5 56t16.5 69l878 1284q51 75 127 33zM1661 252v-49q0 -106 -89.5 -162.5t-260.5 -56.5q-169 0 -257.5 56.5t-88.5 162.5v49q0 121 141 162q-135 40 -135 151v47
q0 104 86.5 157.5t253.5 53.5q344 0 344 -211v-47q0 -111 -137 -151q143 -40 143 -162zM1311 668q-41 0 -63.5 -16.5t-22.5 -45.5v-59q0 -30 22.5 -47t63.5 -17q88 0 88 64v59q0 62 -88 62zM1311 139q44 0 69 18t25 50v61q0 32 -24.5 49t-69.5 17q-90 0 -90 -66v-61
q0 -32 23.5 -50t66.5 -18zM633 1204l-238 -526q-21 -45 -61 -62.5t-88 0.5q-47 19 -64 62.5t4 87.5l226 473h-308q-32 0 -51.5 20t-19.5 52v49q0 35 19 54.5t52 19.5h463q47 0 68.5 -21t21.5 -65v-41q0 -44 -24 -103z" />
    <glyph glyph-name="uni2190" unicode="&#x2190;" horiz-adv-x="1331" 
d="M655 872l-231 -227l768 2q54 0 85.5 -30.5t31.5 -81.5v-29q0 -51 -31.5 -82t-85.5 -31l-768 2l231 -227q33 -33 36 -71.5t-27 -69.5l-27 -27q-31 -31 -68.5 -28t-72.5 38l-451 451q-26 26 -26 59.5t26 59.5l451 450q35 35 72.5 38t68.5 -28l27 -26q30 -31 27 -70t-36 -72
z" />
    <glyph glyph-name="uni2191" unicode="&#x2191;" horiz-adv-x="1331" 
d="M1020 633l-227 231l2 -768q0 -54 -31 -85t-82 -31h-29q-51 0 -81.5 31t-30.5 85l2 768l-228 -231q-33 -33 -71.5 -35.5t-69.5 27.5l-27 26q-31 31 -27.5 69t38.5 73l450 450q26 26 59.5 26t59.5 -26l451 -450q35 -35 38 -73t-28 -69l-27 -26q-31 -30 -69.5 -27.5
t-71.5 35.5z" />
    <glyph glyph-name="uni2192" unicode="&#x2192;" horiz-adv-x="1331" 
d="M137 647l768 -2l-231 227q-33 33 -35.5 72t27.5 70l26 26q31 31 69 28t73 -38l450 -450q26 -26 26 -59.5t-26 -59.5l-450 -451q-35 -35 -73 -38t-69 28l-26 27q-30 31 -27.5 69.5t35.5 71.5l231 227l-768 -2q-54 0 -85.5 31t-31.5 82v29q0 51 31.5 81.5t85.5 30.5z" />
    <glyph glyph-name="uni2193" unicode="&#x2193;" horiz-adv-x="1331" 
d="M795 1145l-2 -768l227 231q33 33 71.5 35.5t69.5 -27.5l27 -26q31 -31 28 -68.5t-38 -72.5l-451 -451q-26 -26 -59.5 -26t-59.5 26l-450 451q-35 35 -38.5 72.5t27.5 68.5l27 26q31 30 69.5 27.5t71.5 -35.5l228 -231l-2 768q0 54 30.5 85.5t81.5 31.5h29q51 0 82 -31.5
t31 -85.5z" />
    <glyph glyph-name="uni2194" unicode="&#x2194;" horiz-adv-x="1945" 
d="M1901 461l-451 -451q-35 -35 -72.5 -38t-68.5 28l-27 27q-30 31 -27.5 69.5t35.5 71.5l232 227h-1098l231 -227q33 -33 36 -71.5t-27 -69.5l-27 -27q-31 -31 -68.5 -28t-72.5 38l-451 451q-26 26 -26 59.5t26 59.5l451 450q35 35 72.5 38t68.5 -28l27 -26q30 -31 27 -70
t-36 -72l-231 -227h1098l-232 227q-33 33 -35.5 72t27.5 70l27 26q31 31 68.5 28t72.5 -38l451 -450q26 -26 26 -59.5t-26 -59.5z" />
    <glyph glyph-name="uni2195" unicode="&#x2195;" horiz-adv-x="1331" 
d="M1178 41l-451 -451q-26 -26 -59.5 -26t-59.5 26l-450 451q-35 35 -38.5 72.5t27.5 68.5l27 27q31 30 69.5 27.5t71.5 -35.5l228 -232v1086l-228 -232q-33 -33 -71.5 -35.5t-69.5 27.5l-27 27q-31 31 -27.5 68.5t38.5 72.5l450 451q26 26 59.5 26t59.5 -26l451 -451
q35 -35 38 -72.5t-28 -68.5l-27 -27q-31 -30 -69.5 -27.5t-71.5 35.5l-227 232v-1086l227 232q33 33 71.5 35.5t69.5 -27.5l27 -27q31 -31 28 -68.5t-38 -72.5z" />
    <glyph glyph-name="uni2196" unicode="&#x2196;" horiz-adv-x="1331" 
d="M932 817l-324 2l545 -540q38 -37 38.5 -81t-36.5 -81l-20 -21q-37 -37 -81 -36.5t-81 38.5l-541 545l2 -324q0 -47 -25.5 -76.5t-68.5 -29.5h-37q-43 0 -68.5 29.5t-25.5 76.5v639q0 37 23.5 60.5t60.5 23.5h639q47 0 76.5 -25.5t29.5 -68.5v-37q0 -43 -29.5 -68.5
t-76.5 -25.5z" />
    <glyph glyph-name="uni2197" unicode="&#x2197;" horiz-adv-x="1331" 
d="M178 279l545 540l-324 -2q-47 0 -76.5 25.5t-29.5 68.5v37q0 43 29.5 68.5t76.5 25.5h639q37 0 60.5 -23.5t23.5 -60.5v-639q0 -47 -25.5 -76.5t-68.5 -29.5h-37q-43 0 -68.5 29.5t-25.5 76.5l2 324l-541 -545q-37 -38 -80.5 -38.5t-80.5 36.5l-21 21q-37 37 -36.5 81
t38.5 81z" />
    <glyph glyph-name="uni2198" unicode="&#x2198;" horiz-adv-x="1331" 
d="M399 225l324 -2l-545 541q-38 37 -38.5 81t36.5 81l21 20q37 37 80.5 36.5t80.5 -38.5l541 -545l-2 324q0 47 25.5 76.5t68.5 29.5h37q43 0 68.5 -29.5t25.5 -76.5v-639q0 -37 -23.5 -60.5t-60.5 -23.5h-639q-47 0 -76.5 25.5t-29.5 68.5v37q0 43 29.5 68.5t76.5 25.5z
" />
    <glyph glyph-name="uni2199" unicode="&#x2199;" horiz-adv-x="1331" 
d="M1153 764l-545 -541l324 2q47 0 76.5 -25.5t29.5 -68.5v-37q0 -43 -29.5 -68.5t-76.5 -25.5h-639q-37 0 -60.5 23.5t-23.5 60.5v639q0 47 25.5 76.5t68.5 29.5h37q43 0 68.5 -29.5t25.5 -76.5l-2 -324l541 545q37 38 81 38.5t81 -36.5l20 -20q37 -37 36.5 -81t-38.5 -81z
" />
    <glyph glyph-name="uni21E6" unicode="&#x21e6;" horiz-adv-x="1331" 
d="M1276 631v-86q0 -148 -68 -226.5t-196 -78.5h-211v-140q0 -93 -80 -120q-78 -27 -146 38l-520 519q-51 51 0 102l520 518q69 66 146 39q80 -27 80 -121v-139h211q128 0 196 -78.5t68 -226.5zM1090 539v98q0 98 -93 98h-305q-51 0 -51 53v170l-371 -370l371 -371v170
q0 53 51 53h305q93 0 93 99z" />
    <glyph glyph-name="uni21E7" unicode="&#x21e7;" horiz-adv-x="1331" 
d="M729 -29h-86q-148 0 -226.5 68.5t-78.5 196.5v235h-139q-97 0 -125 78q-27 79 41 147l520 521q51 51 102 0l518 -521q66 -69 39 -147q-28 -78 -120 -78h-140v-235q0 -128 -78.5 -196.5t-226.5 -68.5zM637 158h98q99 0 99 92v330q0 51 53 51h170l-371 370l-371 -370h170
q54 0 54 -51v-330q0 -92 98 -92z" />
    <glyph glyph-name="uni21E8" unicode="&#x21e8;" horiz-adv-x="1331" 
d="M41 545v86q0 148 68 226.5t196 78.5h236v139q0 94 77 121q79 27 148 -39l520 -518q51 -51 0 -102l-520 -519q-68 -65 -148 -38q-77 27 -77 120v140h-236q-128 0 -196 78.5t-68 226.5zM227 637v-98q0 -99 92 -99h330q51 0 51 -53v-170l371 371l-371 370v-170
q0 -53 -51 -53h-330q-92 0 -92 -98z" />
    <glyph glyph-name="uni21E9" unicode="&#x21e9;" horiz-adv-x="1331" 
d="M643 1202h86q148 0 226.5 -68t78.5 -196v-236h140q93 0 120 -79q27 -77 -39 -146l-518 -520q-51 -51 -102 0l-520 520q-68 68 -41 146q27 79 125 79h139v236q0 128 78.5 196t226.5 68zM735 1016h-98q-98 0 -98 -92v-330q0 -51 -54 -51h-170l371 -371l371 371h-170
q-53 0 -53 51v330q0 92 -99 92z" />
    <glyph glyph-name="minus" unicode="&#x2212;" 
d="M1006 563h-783q-55 0 -88 32.5t-33 86.5v25q0 54 32.5 85t88.5 31h783q56 0 88 -31t32 -85v-25q0 -54 -32.5 -86.5t-87.5 -32.5z" />
    <glyph glyph-name="uni25A0" unicode="&#x25a0;" horiz-adv-x="1331" 
d="M1071 0h-811q-60 0 -88.5 28.5t-28.5 88.5v809q0 60 28.5 88t88.5 28h811q60 0 88.5 -28t28.5 -88v-809q0 -60 -28.5 -88.5t-88.5 -28.5z" />
    <glyph glyph-name="uni25A1" unicode="&#x25a1;" horiz-adv-x="1331" 
d="M1071 0h-811q-60 0 -88.5 28.5t-28.5 88.5v809q0 60 28.5 88t88.5 28h811q60 0 88.5 -28t28.5 -88v-809q0 -60 -28.5 -88.5t-88.5 -28.5zM971 838h-611v-633h611v633z" />
    <glyph glyph-name="triagup" unicode="&#x25b2;" horiz-adv-x="1331" 
d="M1161 0h-962q-61 0 -88 49q-27 52 0 101l481 874q27 53 88 53t88 -53l481 -874q27 -49 0 -101q-27 -49 -88 -49z" />
    <glyph glyph-name="uni25B3" unicode="&#x25b3;" horiz-adv-x="1331" 
d="M1161 0h-962q-61 0 -88 49q-27 52 0 101l481 874q27 53 88 53t88 -53l481 -874q27 -49 0 -101q-27 -49 -88 -49zM680 764l-305 -563h610z" />
    <glyph glyph-name="triagrt" unicode="&#x25ba;" horiz-adv-x="1331" 
d="M168 74v964q0 59 49 86q51 29 100 2l875 -483q53 -27 53 -88q0 -59 -53 -86l-875 -483q-49 -27 -100 2q-49 27 -49 86z" />
    <glyph glyph-name="uni25BB" unicode="&#x25bb;" horiz-adv-x="1331" 
d="M168 74v964q0 59 49 86q51 29 100 2l875 -483q53 -27 53 -88q0 -59 -53 -86l-875 -483q-49 -27 -100 2q-49 27 -49 86zM369 250l563 305l-563 307v-612z" />
    <glyph glyph-name="triagdn" unicode="&#x25bc;" horiz-adv-x="1331" 
d="M199 1042h962q60 0 86 -51q28 -51 2 -98l-481 -875q-27 -53 -88 -53t-88 53l-481 875q-26 47 2 98q26 51 86 51z" />
    <glyph glyph-name="uni25BD" unicode="&#x25bd;" horiz-adv-x="1331" 
d="M199 1042h962q60 0 86 -51q28 -51 2 -98l-481 -875q-27 -53 -88 -53t-88 53l-481 875q-26 47 2 98q26 51 86 51zM375 840l305 -561l305 561h-610z" />
    <glyph glyph-name="triaglf" unicode="&#x25c4;" horiz-adv-x="1331" 
d="M1163 1038v-964q0 -59 -49 -86q-51 -28 -98 -2l-877 483q-51 26 -51 86q0 62 51 88l877 483q47 26 98 -2q49 -27 49 -86z" />
    <glyph glyph-name="uni25C5" unicode="&#x25c5;" horiz-adv-x="1331" 
d="M1163 1038v-964q0 -59 -49 -86q-51 -28 -98 -2l-877 483q-51 26 -51 86q0 62 51 88l877 483q47 26 98 -2q49 -27 49 -86zM399 555l564 -305v612z" />
    <glyph glyph-name="uni25C6" unicode="&#x25c6;" horiz-adv-x="1331" 
d="M1239 459l-491 -492q-43 -43 -82 -43t-82 43l-492 492q-43 43 -43 82t43 82l492 491q43 43 82 43t82 -43l491 -491q43 -43 43 -82t-43 -82z" />
    <glyph glyph-name="uni25C7" unicode="&#x25c7;" horiz-adv-x="1331" 
d="M1239 510l-491 -492q-43 -43 -82 -43t-82 43l-492 492q-43 43 -43 82t43 82l492 491q43 43 82 43t82 -43l491 -491q43 -43 43 -82t-43 -82zM666 956l-367 -364l367 -367l366 367z" />
    <glyph glyph-name="uni25CB" unicode="&#x25cb;" horiz-adv-x="1331" 
d="M1241 522q0 -237 -170 -407q-168 -168 -405 -168q-236 0 -406 170t-170 405q0 236 168 404t408 168q237 0 405 -168q170 -170 170 -404zM307 522q0 -150 105 -258q108 -108 254 -108q147 0 252 108q106 106 106 258t-106 258q-106 109 -252 109q-145 0 -254 -109
q-105 -108 -105 -258z" />
    <glyph glyph-name="uni25CF" unicode="&#x25cf;" horiz-adv-x="1331" 
d="M1243 522q0 -237 -170 -407q-168 -168 -407 -168q-238 0 -408 170t-170 405q0 234 170 404q168 168 408 168q239 0 407 -168q170 -167 170 -404z" />
    <glyph glyph-name="uni2605" unicode="&#x2605;" horiz-adv-x="1638" 
d="M1227 -10l-396 272l-395 -272q-48 -33 -98 2q-48 33 -33 92l137 461l-383 293q-44 33 -26 92q17 56 78 59l479 12l162 455q21 53 79 53q59 0 80 -53l162 -455l479 -12q61 -3 78 -59q18 -59 -26 -92l-383 -293l137 -461q15 -59 -33 -92q-50 -35 -98 -2z" />
    <glyph glyph-name="uni2606" unicode="&#x2606;" horiz-adv-x="1638" 
d="M1227 -10l-396 272l-395 -272q-48 -33 -98 2q-48 33 -33 92l137 461l-383 293q-44 33 -26 92q17 56 78 59l479 12l162 455q21 53 79 53q59 0 80 -53l162 -455l479 -12q61 -3 78 -59q18 -59 -26 -92l-383 -293l137 -461q15 -59 -33 -92q-50 -35 -98 -2zM885 446l233 -167
l-88 274q-16 61 33 98l231 172l-284 2q-33 0 -57 16.5t-31 45.5l-91 270l-90 -270q-7 -29 -31 -45.5t-57 -16.5l-284 -2l231 -172q54 -41 33 -98l-88 -274l233 167q53 37 107 0z" />
    <glyph glyph-name="uni2610" unicode="&#x2610;" horiz-adv-x="1638" 
d="M1325 0h-1012q-66 0 -96.5 30.5t-30.5 96.5v1012q0 66 30.5 97.5t96.5 31.5h1012q66 0 96.5 -31.5t30.5 -97.5v-1012q0 -66 -30.5 -96.5t-96.5 -30.5zM1274 1096h-909v-924h909v924z" />
    <glyph glyph-name="uni2611" unicode="&#x2611;" horiz-adv-x="1638" 
d="M1325 0h-1012q-66 0 -96.5 30.5t-30.5 96.5v1012q0 66 30.5 97.5t96.5 31.5h1012q66 0 96.5 -31.5t30.5 -97.5v-1012q0 -66 -30.5 -96.5t-96.5 -30.5zM1274 1096h-909v-924h909v924zM1145 803l-314 -447q-37 -51 -93 -54t-99 44l-139 154q-32 35 -33.5 77.5t27.5 71.5
q32 32 74.5 29.5t74.5 -37.5l82 -88l254 365q29 41 70 49.5t79 -17.5q37 -25 41.5 -67t-24.5 -80z" />
    <glyph glyph-name="uni2612" unicode="&#x2612;" horiz-adv-x="1638" 
d="M1325 0h-1012q-66 0 -96.5 30.5t-30.5 96.5v1012q0 66 30.5 97.5t96.5 31.5h1012q66 0 96.5 -31.5t30.5 -97.5v-1012q0 -66 -30.5 -96.5t-96.5 -30.5zM1274 1096h-909v-924h909v924zM1124 330q-32 -32 -75 -30.5t-78 36.5l-152 151l-151 -151q-35 -35 -78.5 -36.5
t-75.5 30.5t-29.5 74t37.5 77l152 154l-152 151q-35 35 -37.5 77.5t29.5 74.5t75.5 30.5t78.5 -36.5l151 -152l152 152q35 35 78 36.5t75 -30.5t29.5 -74.5t-37.5 -77.5l-151 -151l151 -154q35 -35 37.5 -77t-29.5 -74z" />
    <glyph glyph-name="uni2661" unicode="&#x2661;" horiz-adv-x="1638" 
d="M1479 737l-572 -710q-42 -54 -88 -54q-40 0 -88 54l-571 710q-123 155 -123 324t113 282q115 115 286 115q116 0 199 -53q86 -53 184 -195q97 141 182 195q86 53 201 53q170 0 285 -115t115 -282q0 -169 -123 -324zM741 991l-59 82q-89 121 -131 146q-45 28 -98 28
q-82 0 -140.5 -57.5t-58.5 -138.5q0 -90 80 -189l485 -614l486 614q79 98 79 189q0 82 -58 139t-140 57q-54 0 -101 -30q-43 -25 -129 -144l-59 -82q-33 -45 -78 -45t-78 45z" />
    <glyph glyph-name="uni2665" unicode="&#x2665;" horiz-adv-x="1638" 
d="M1479 737l-572 -710q-42 -54 -88 -54q-40 0 -88 54l-571 710q-123 155 -123 324t113 282q115 115 286 115q116 0 199 -53q86 -53 184 -195q97 141 182 195q86 53 201 53q170 0 285 -115t115 -282q0 -169 -123 -324z" />
    <glyph glyph-name="uni2705" unicode="&#x2705;" horiz-adv-x="1638" 
d="M1305 0h-971q-148 0 -148 147v971q0 150 148 150h971q147 0 147 -150v-971q0 -75 -36 -111t-111 -36zM811 283l432 594q30 41 24.5 86t-44.5 71q-37 26 -81 17t-75 -50l-371 -509l-137 145q-37 37 -80.5 39.5t-75.5 -29.5t-31 -75t36 -80l200 -220q47 -51 106 -48t97 59z
" />
    <glyph glyph-name="uni2713" unicode="&#x2713;" horiz-adv-x="1638" 
d="M1509 1122l-747 -1065q-51 -74 -122.5 -77.5t-131.5 63.5l-369 428q-41 47 -41 101t43 92q43 40 99.5 35t95.5 -50l285 -332l675 961q35 49 89.5 59.5t101.5 -22.5q49 -32 54.5 -87.5t-32.5 -105.5z" />
    <glyph glyph-name="uni2717" unicode="&#x2717;" horiz-adv-x="1638" 
d="M1204 31l-381 383l-383 -383q-43 -43 -97.5 -45t-96.5 39q-42 43 -40.5 97t46.5 99l381 381l-381 383q-45 45 -46.5 98.5t40.5 96.5q42 41 96.5 39t97.5 -45l383 -381l381 381q43 43 98 45t97 -39q42 -43 40.5 -96.5t-46.5 -98.5l-381 -383l381 -381q45 -45 46.5 -99
t-40.5 -97q-41 -41 -97.5 -39t-97.5 45z" />
    <glyph glyph-name="uni2731" unicode="&#x2731;" horiz-adv-x="1638" 
d="M1286 307l-342 207l8 -399q1 -57 -33.5 -92t-91.5 -35t-91.5 35t-33.5 92l9 399l-342 -207q-50 -29 -96.5 -17t-75.5 62q-29 51 -16 98.5t63 73.5l350 193l-350 192q-50 26 -63 73.5t16 98.5q29 50 75.5 62t96.5 -17l342 -206l-9 399q-1 57 33.5 92t91.5 35t91.5 -35
t33.5 -92l-8 -399l342 206q50 29 96.5 17t75.5 -62q29 -51 16 -98.5t-63 -73.5l-350 -192l350 -193q50 -26 63 -73.5t-16 -98.5q-29 -50 -75.5 -62t-96.5 17z" />
    <glyph glyph-name="uni274E" unicode="&#x274e;" horiz-adv-x="1638" 
d="M1305 0h-971q-148 0 -148 147v971q0 150 148 150h971q147 0 147 -150v-971q0 -75 -36 -111t-111 -36zM444 258q36 -35 80.5 -33t81.5 39l213 213l213 -213q37 -37 81.5 -39t80.5 33q32 32 30.5 78.5t-36.5 81.5l-215 217l215 213q37 36 39 81t-33 81q-32 32 -79.5 30.5
t-82.5 -36.5l-213 -216l-213 216q-35 35 -82.5 36.5t-79.5 -30.5q-35 -36 -32.5 -81t39.5 -81l215 -213l-215 -217q-35 -37 -37 -82.5t30 -77.5z" />
    <glyph glyph-name="uni27A1" unicode="&#x27a1;" horiz-adv-x="1331" 
d="M41 545v86q0 148 68 226.5t196 78.5h236v139q0 94 77 121q79 27 148 -39l520 -518q51 -51 0 -102l-520 -519q-68 -65 -148 -38q-77 27 -77 120v140h-236q-128 0 -196 78.5t-68 226.5z" />
    <glyph glyph-name="uni27F2" unicode="&#x27f2;" horiz-adv-x="1843" 
d="M956 1479q305 0 523 -226q217 -224 217 -538q0 -153 -59.5 -293.5t-168.5 -249.5q-109 -106 -250 -163.5t-294 -57.5q-240 0 -428 129q-190 134 -271 348q-19 49 -2 92t64 62q50 19 89 2t58 -64q62 -162 191.5 -254t298.5 -92q221 0 379 158q155 155 155 383t-149 383
q-147 159 -361 159q-129 0 -233 -56.5t-170 -162.5l196 43q58 12 96.5 -11.5t45.5 -76.5q15 -112 -92 -133l-490 -84q-43 -7 -71.5 11.5t-34.5 56.5l-82 497q-11 56 14 90.5t80 41.5q56 8 90.5 -20t40.5 -85l24 -207q98 154 251 236t343 82z" />
    <glyph glyph-name="uni27F3" unicode="&#x27f3;" horiz-adv-x="1843" 
d="M1565 582q47 -19 63.5 -62t-2.5 -92q-82 -215 -270 -348q-188 -129 -428 -129q-153 0 -294.5 57.5t-250.5 163.5q-109 109 -168 249.5t-59 293.5q0 314 217 538q218 226 522 226q190 0 343 -82t251 -236l24 207q6 57 41 85t91 20q55 -7 80 -41.5t14 -90.5l-82 -497
q-6 -38 -35 -56.5t-72 -11.5l-489 84q-107 21 -92 133q7 54 45 77t96 11l197 -43q-66 106 -170.5 162.5t-233.5 56.5q-212 0 -362 -159q-148 -157 -148 -383q0 -227 156 -383q158 -158 379 -158q170 0 298 90.5t191 255.5q19 47 58.5 64t89.5 -2z" />
    <glyph glyph-name="uni2B00" unicode="&#x2b00;" horiz-adv-x="1331" 
d="M281 96l-60 58q-104 100 -111.5 206.5t83.5 198.5l165 168l-98 96q-69 65 -31 142t133 77h734q71 0 71 -73v-733q0 -95 -75 -132q-74 -37 -142 31l-98 98l-168 -167q-182 -182 -403 30zM346 291l72 -70q68 -69 133 -4l235 234q37 37 74 0l121 -121v524h-524l121 -119
q38 -38 0 -76l-234 -233q-33 -33 -33 -68t35 -67z" />
    <glyph glyph-name="uni2B01" unicode="&#x2b01;" horiz-adv-x="1331" 
d="M242 1042h733q95 0 133 -77t-31 -142l-98 -96l166 -168q91 -92 83 -198.5t-112 -206.5l-59 -58q-222 -212 -404 -30l-168 167l-98 -98q-68 -68 -143 -31q-74 38 -74 132v733q0 73 72 73zM760 735l121 119h-525v-524l121 121q37 37 74 0l235 -234q65 -65 134 4l71 70
q35 32 35 67t-33 68l-233 233q-38 38 0 76z" />
    <glyph glyph-name="uni2B02" unicode="&#x2b02;" horiz-adv-x="1331" 
d="M1096 0h-734q-96 0 -133 76q-34 76 31 141l98 98l-165 168q-91 91 -83.5 195.5t111.5 208.5l60 59q105 105 208.5 113t194.5 -82l168 -168l98 98q68 69 142 31q75 -37 75 -131v-735q0 -72 -71 -72zM578 307l-121 -121h524v525l-121 -119q-37 -37 -74 0l-235 233
q-66 63 -133 -4l-72 -69q-35 -32 -35 -67.5t33 -68.5l234 -235q37 -37 0 -74z" />
    <glyph glyph-name="uni2B03" unicode="&#x2b03;" horiz-adv-x="1331" 
d="M975 0h-733q-72 0 -72 72v735q0 93 74 131q75 37 143 -31l98 -98l168 168q91 90 195 82t209 -113l59 -59q104 -104 112 -208.5t-83 -195.5l-166 -168l98 -98q66 -66 29 -141q-34 -76 -131 -76zM477 592l-121 119v-525h525l-121 121q-37 37 0 74l233 235q33 33 33 68.5
t-35 67.5l-71 69q-67 67 -134 4l-235 -233q-37 -37 -74 0z" />
    <glyph glyph-name="uni2B05" unicode="&#x2b05;" horiz-adv-x="1331" 
d="M1276 631v-86q0 -148 -68 -226.5t-196 -78.5h-211v-140q0 -93 -80 -120q-78 -27 -146 38l-520 519q-51 51 0 102l520 518q69 66 146 39q80 -27 80 -121v-139h211q128 0 196 -78.5t68 -226.5z" />
    <glyph glyph-name="uni2B06" unicode="&#x2b06;" horiz-adv-x="1331" 
d="M729 -29h-86q-148 0 -226.5 68.5t-78.5 196.5v235h-139q-97 0 -125 78q-27 79 41 147l520 521q51 51 102 0l518 -521q66 -69 39 -147q-28 -78 -120 -78h-140v-235q0 -128 -78.5 -196.5t-226.5 -68.5z" />
    <glyph glyph-name="uni2B07" unicode="&#x2b07;" horiz-adv-x="1331" 
d="M643 1217h86q148 0 226.5 -68.5t78.5 -196.5v-235h140q93 0 120 -80q27 -76 -39 -145l-518 -523q-51 -51 -102 0l-520 523q-68 68 -41 145q27 80 125 80h139v235q0 128 78.5 196.5t226.5 68.5z" />
    <glyph glyph-name="uni2B08" unicode="&#x2b08;" horiz-adv-x="1331" 
d="M281 96l-60 58q-104 100 -111.5 206.5t83.5 198.5l165 168l-98 96q-69 65 -31 142t133 77h734q71 0 71 -73v-733q0 -95 -75 -132q-74 -37 -142 31l-98 98l-168 -167q-182 -182 -403 30z" />
    <glyph glyph-name="uni2B09" unicode="&#x2b09;" horiz-adv-x="1331" 
d="M242 1042h733q95 0 133 -77t-31 -142l-98 -96l166 -168q91 -92 83 -198.5t-112 -206.5l-59 -58q-222 -212 -404 -30l-168 167l-98 -98q-68 -68 -143 -31q-74 38 -74 132v733q0 73 72 73z" />
    <glyph glyph-name="uni2B0A" unicode="&#x2b0a;" horiz-adv-x="1331" 
d="M1096 0h-734q-96 0 -133 76q-34 76 31 141l98 98l-165 168q-91 91 -83.5 195.5t111.5 208.5l60 59q105 105 208.5 113t194.5 -82l168 -168l98 98q68 69 142 31q75 -37 75 -131v-735q0 -72 -71 -72z" />
    <glyph glyph-name="uni2B0B" unicode="&#x2b0b;" horiz-adv-x="1331" 
d="M1057 946l59 -59q104 -104 112 -208.5t-83 -195.5l-166 -168l98 -98q66 -66 29 -141q-34 -76 -131 -76h-733q-72 0 -72 72v735q0 93 74 131q75 37 143 -31l98 -98l168 168q91 90 195 82t209 -113z" />
    <glyph glyph-name="uni2B1B" unicode="&#x2b1b;" horiz-adv-x="1638" 
d="M1305 0h-971q-148 0 -148 147v971q0 150 148 150h971q147 0 147 -150v-971q0 -75 -36 -111t-111 -36z" />
    <glyph glyph-name="uni2BE8" unicode="&#x2be8;" horiz-adv-x="1638" 
d="M807 1509q39 0 39 -49v-1112q0 -69 -62 -117l-348 -241q-48 -33 -98 2q-48 33 -33 92l137 461l-383 293q-44 33 -26 92q17 56 78 59l479 12l164 461q15 47 53 47z" />
    <glyph glyph-name="uni2BE9" unicode="&#x2be9;" horiz-adv-x="1638" 
d="M805 348v1112q0 49 39 49q38 0 53 -47l164 -461l479 -12q61 -3 78 -59q18 -59 -27 -92l-383 -293l138 -461q15 -59 -33 -92q-51 -35 -99 -2l-348 241q-61 47 -61 117z" />
    <glyph glyph-name="uni2BEA" unicode="&#x2bea;" horiz-adv-x="1638" 
d="M1227 -10l-396 272l-395 -272q-48 -33 -98 2q-48 33 -33 92l137 461l-383 293q-44 33 -26 92q17 56 78 59l479 12l162 455q21 53 79 53q59 0 80 -53l162 -455l479 -12q61 -3 78 -59q18 -59 -26 -92l-383 -293l137 -461q15 -59 -33 -92q-50 -35 -98 -2zM922 887l-91 270
v-674l287 -204l-88 274q-16 61 33 98l231 172l-284 2q-33 0 -57 16.5t-31 45.5z" />
    <glyph glyph-name="uni2BEB" unicode="&#x2beb;" horiz-adv-x="1638" 
d="M1227 -10l-396 272l-395 -272q-48 -33 -98 2q-48 33 -33 92l137 461l-383 293q-44 33 -26 92q17 56 78 59l479 12l162 455q21 53 79 53q59 0 80 -53l162 -455l479 -12q61 -3 78 -59q18 -59 -26 -92l-383 -293l137 -461q15 -59 -33 -92q-50 -35 -98 -2zM545 279l286 204
v674l-90 -270q-7 -29 -31 -45.5t-57 -16.5l-284 -2l231 -172q54 -41 33 -98z" />
    </font>
</defs>
</svg>
