<?xml version="1.0" standalone="no"?>
<!DOCTYPE svg PUBLIC "-//W3C//DTD SVG 1.1//EN" "http://www.w3.org/Graphics/SVG/1.1/DTD/svg11.dtd" >
<svg xmlns="http://www.w3.org/2000/svg" xmlns:xlink="http://www.w3.org/1999/xlink" version="1.1">
<metadata>
Created by FontForge 20200511 at Tue Sep 12 13:53:53 2023
 By convertio
Copyright (c)2019 XYZ Type LLC. All Rights Reserved. |DCNT
</metadata>
<defs>
<font id="AgletSans-BoldItalic" horiz-adv-x="1228" >
  <font-face 
    font-family="Aglet Sans"
    font-weight="700"
    font-style="italic"
    font-stretch="normal"
    units-per-em="2048"
    panose-1="2 15 8 3 3 2 2 11 2 3"
    ascent="1456"
    descent="-592"
    x-height="1042"
    cap-height="1434"
    bbox="-420 -436 2471.5 1939"
    underline-thickness="0"
    underline-position="0"
    slope="-10"
    unicode-range="U+0020-1F504"
  />
<missing-glyph 
d="M856 -205h-723q-132 0 -108 131l243 1379q12 67 48 98t104 31h723q132 0 108 -131l-243 -1379q-12 -67 -48 -98t-104 -31zM1016 1235h-537l-219 -1241h537z" />
    <glyph glyph-name="fi" unicode="fi" horiz-adv-x="1390" 
d="M1208 1147h-143q-50 0 -73.5 26.5t-16.5 73.5l16 92q21 99 117 99h143q50 0 73.5 -27t16.5 -74l-16 -92q-21 -98 -117 -98zM825 293l99 512h-342l-129 -729q-6 -35 -29.5 -55.5t-58.5 -20.5h-181q-35 0 -51 20.5t-10 55.5l127 723h-107q-25 0 -38 15t-9 38l25 139
q4 23 22 37t43 14h107l18 105q29 158 108 222.5t243 64.5h116q49 0 73.5 -22t18.5 -60l-14 -82q-6 -32 -31 -51t-63 -19h-64q-31 0 -47 -12t-20 -41l-19 -105h588q49 0 67.5 -23.5t10.5 -74.5l-121 -643q-5 -29 4 -41t35 -12h68q25 0 36.5 -16t6.5 -42l-21 -116
q-12 -74 -82 -74h-121q-316 0 -258 293z" />
    <glyph glyph-name="f_f" unicode="ff" horiz-adv-x="1417" 
d="M793 76l129 729h-340l-129 -729q-6 -35 -29.5 -55.5t-58.5 -20.5h-181q-35 0 -51 20.5t-10 55.5l127 723h-107q-25 0 -38 15t-9 38l25 139q4 23 22 37t43 14h107l18 105q29 158 108 222.5t243 64.5h126q49 0 74 -22t19 -60l-15 -82q-6 -32 -31 -51t-63 -19h-74
q-31 0 -47 -12t-20 -41l-19 -105h351l18 105q29 158 107.5 222.5t242.5 64.5h127q49 0 73.5 -22t18.5 -60l-14 -82q-6 -32 -31 -51t-63 -19h-74q-31 0 -47.5 -12t-20.5 -41l-18 -105h160q25 0 37.5 -15t7.5 -38l-25 -139q-5 -23 -21.5 -37t-41.5 -14h-150l-127 -723
q-6 -35 -29.5 -55.5t-58.5 -20.5h-180q-35 0 -51 20.5t-10 55.5z" />
    <glyph glyph-name="f_j" unicode="fj" horiz-adv-x="1320" 
d="M1204 1147h-145q-50 0 -73.5 26.5t-16.5 73.5l16 92q21 99 117 99h145q50 0 73.5 -27t16.5 -74l-16 -92q-21 -98 -117 -98zM762 -109l162 914h-342l-129 -729q-6 -35 -29.5 -55.5t-58.5 -20.5h-181q-35 0 -51 20.5t-10 55.5l127 723h-107q-25 0 -38 15t-9 38l25 139
q4 23 22 37t43 14h107l18 105q29 158 108 222.5t243 64.5h116q49 0 73.5 -22t18.5 -60l-14 -82q-6 -32 -31 -51t-63 -19h-64q-31 0 -47 -12t-20 -41l-19 -105h586q49 0 67.5 -23.5t10.5 -74.5l-189 -1077q-26 -154 -103 -215.5t-243 -61.5h-131q-99 0 -84 78l19 105
q5 29 27 46t57 17h69q29 0 43.5 12t20.5 43z" />
    <glyph glyph-name="f_t" unicode="ft" horiz-adv-x="1452" 
d="M365 0h-181q-35 0 -51 20.5t-10 55.5l127 723h-107q-25 0 -38 15t-9 38l25 139q4 23 22 37t43 14h107l18 105q29 158 108 222.5t243 64.5h126q49 0 74 -22t19 -60l-15 -82q-6 -32 -31 -51t-63 -19h-74q-31 0 -47 -12t-20 -41l-19 -105h349l30 164q10 54 46 84.5t87 30.5
h105q54 0 78.5 -30.5t13.5 -84.5l-31 -164h166q23 0 36 -15t9 -38l-24 -139q-4 -23 -22 -37t-42 -14h-166l-86 -471q-8 -41 6.5 -58.5t55.5 -17.5h90q56 0 47 -59l-23 -130q-12 -63 -69 -63h-144q-183 0 -254.5 76.5t-40.5 242.5l89 486h-336l-129 -729q-6 -35 -29.5 -55.5
t-58.5 -20.5z" />
    <glyph glyph-name="f_f_i" unicode="ffi" horiz-adv-x="2060" 
d="M1878 1147h-143q-50 0 -73.5 26.5t-16.5 73.5l16 92q21 99 117 99h143q50 0 73.5 -27t16.5 -74l-16 -92q-21 -98 -117 -98zM793 76l129 729h-340l-129 -729q-6 -35 -29.5 -55.5t-58.5 -20.5h-181q-35 0 -51 20.5t-10 55.5l127 723h-107q-25 0 -38 15t-9 38l25 139
q4 23 22 37t43 14h107l18 105q29 158 108 222.5t243 64.5h126q49 0 74 -22t19 -60l-15 -82q-6 -32 -31 -51t-63 -19h-74q-31 0 -47 -12t-20 -41l-19 -105h351l18 105q29 158 107.5 222.5t242.5 64.5h117q49 0 73.5 -22t18.5 -60l-14 -82q-6 -32 -31 -51t-63 -19h-64
q-31 0 -47.5 -12t-20.5 -41l-18 -105h588q49 0 67.5 -23.5t10.5 -74.5l-121 -643q-5 -29 4 -41t35 -12h67q25 0 36.5 -16t6.5 -42l-20 -116q-12 -74 -82 -74h-121q-316 0 -258 293l98 512h-342l-129 -729q-6 -35 -29.5 -55.5t-58.5 -20.5h-180q-35 0 -51 20.5t-10 55.5z" />
    <glyph glyph-name=".notdef" 
d="M856 -205h-723q-132 0 -108 131l243 1379q12 67 48 98t104 31h723q132 0 108 -131l-243 -1379q-12 -67 -48 -98t-104 -31zM1016 1235h-537l-219 -1241h537z" />
    <glyph glyph-name=".null" horiz-adv-x="0" 
 />
    <glyph glyph-name="nonmarkingreturn" horiz-adv-x="682" 
 />
    <glyph glyph-name="space" unicode=" " horiz-adv-x="382" 
 />
    <glyph glyph-name="exclam" unicode="!" horiz-adv-x="557" 
d="M281 414h-15q-69 0 -104 43t-23 112l142 797q6 36 26.5 52t59.5 16h157q41 0 56.5 -16.5t9.5 -51.5l-141 -797q-12 -73 -56 -114t-112 -41zM248 -10h-101q-123 0 -102 114l18 113q11 57 42.5 83t91.5 26h100q61 0 88 -29.5t16 -85.5l-20 -111q-10 -59 -41 -84.5
t-92 -25.5z" />
    <glyph glyph-name="quotedbl" unicode="&#x22;" horiz-adv-x="931" 
d="M319 752q-75 0 -111 41.5t-24 113.5l74 416q25 135 154 135q74 0 109.5 -41.5t23.5 -113.5l-74 -416q-25 -135 -152 -135zM741 752q-75 0 -111 41.5t-24 113.5l74 416q25 135 154 135q74 0 109.5 -41.5t23.5 -113.5l-74 -416q-25 -135 -152 -135z" />
    <glyph glyph-name="numbersign" unicode="#" 
d="M1024 313h-115l-61 -243q-12 -47 -43.5 -73t-75.5 -26q-68 0 -103 42.5t-18 107.5l49 192h-208l-62 -243q-12 -47 -44 -73t-77 -26q-68 0 -102 42t-17 108l50 192h-68q-51 0 -79 32t-21 81l2 12q7 47 42.5 75t86.5 28h94l80 311h-88q-51 0 -79.5 32t-21.5 81l2 12
q7 47 42.5 74.5t86.5 27.5h115l62 242q12 47 43 73.5t75 26.5q68 0 103 -43t18 -108l-49 -191h211l61 242q12 47 43.5 73.5t75.5 26.5q68 0 103 -43t18 -108l-49 -191h65q51 0 79.5 -32.5t21.5 -81.5l-2 -13q-8 -45 -43 -72.5t-86 -27.5h-92l-80 -311h86q51 0 79.5 -32.5
t20.5 -82.5l-2 -12q-8 -45 -43 -73t-86 -28zM799 864h-209l-86 -336h209z" />
    <glyph glyph-name="dollar" unicode="$" 
d="M680 35l-25 -146q-11 -60 -46.5 -92.5t-92.5 -32.5h-12q-57 0 -89 39t-22 99l25 135q-186 23 -268 111t-56 237l6 35q9 51 58 51h211q48 0 39 -47l-7 -35q-13 -75 29.5 -107t153.5 -32q106 0 160.5 31t66.5 98l6 35q11 51 -10 77.5t-88 43.5l-250 63
q-176 44 -236.5 131.5t-31.5 247.5l6 35q26 153 137.5 241t302.5 107l23 123q10 60 47 92.5t94 32.5h12q57 0 88.5 -40.5t20.5 -97.5l-21 -116q363 -47 314 -338l-6 -35q-9 -51 -58 -51h-209q-50 0 -41 47l7 35q12 69 -30.5 100t-148.5 31q-100 0 -152.5 -29t-62.5 -90
l-6 -35q-10 -51 10 -75.5t88 -43.5l254 -63q172 -43 234 -131t33 -248l-7 -35q-59 -321 -450 -358z" />
    <glyph glyph-name="percent" unicode="%" 
d="M365 760q-135 0 -200.5 68.5t-45.5 189.5l26 158q19 109 99 169t205 60q135 0 201.5 -69t43.5 -187l-28 -158q-20 -110 -99 -170.5t-202 -60.5zM1245 1264l-1073 -1241q-56 -65 -117 -13q-29 25 -30.5 56.5t24.5 60.5l1073 1243q55 64 117 12q29 -24 30 -56.5t-24 -61.5z
M381 911q60 0 72 68l36 203q12 71 -57 71q-63 0 -74 -65l-36 -203q-12 -74 59 -74zM1176 375l-29 -158q-20 -110 -99 -170.5t-202 -60.5q-137 0 -203 68.5t-43 189.5l29 157q20 110 98.5 170t202.5 60q137 0 203 -67.5t43 -188.5zM840 414l-35 -203q-12 -74 57 -74
q31 0 50 18t24 50l35 203q12 71 -58 71q-64 0 -73 -65z" />
    <glyph glyph-name="ampersand" unicode="&#x26;" horiz-adv-x="1400" 
d="M500 -25q-239 0 -353 112.5t-77 313.5l10 56q23 124 109 207t221 112q-61 72 -79.5 140.5t-4.5 160.5l4 25q29 173 156.5 264.5t338.5 91.5q235 0 345 -92.5t79 -265.5l-10 -58q-4 -25 -22 -40t-41 -15h-199q-25 0 -37 15.5t-8 41.5l8 48q10 61 -24 93t-109 32
q-136 0 -158 -115l-4 -25q-8 -52 4.5 -92t50.5 -84l279 -330l113 148q30 36 55.5 49.5t66.5 13.5h121q76 0 76 -59q0 -25 -11 -47t-44 -64l-191 -239l117 -137q44 -54 37 -115.5t-62 -104.5q-54 -43 -118 -35t-107 62l-80 102q-87 -90 -194.5 -130t-257.5 -40zM399 451
l-10 -56q-17 -87 21.5 -132.5t126.5 -45.5q80 0 132.5 27t110.5 96l-221 260q-62 0 -105 -40t-55 -109z" />
    <glyph glyph-name="quotesingle" unicode="'" horiz-adv-x="509" 
d="M319 752q-75 0 -111 41.5t-24 113.5l74 416q25 135 154 135q74 0 109.5 -41.5t23.5 -113.5l-74 -416q-25 -135 -152 -135z" />
    <glyph glyph-name="parenleft" unicode="(" horiz-adv-x="882" 
d="M631 -414h-84q-282 0 -389 135t-56 424l138 781q47 272 179 392t388 120h143q37 0 54.5 -22.5t9.5 -59.5l-15 -76q-12 -66 -79 -66h-99q-121 0 -185.5 -66t-90.5 -214l-148 -832q-26 -153 22 -222.5t181 -69.5h62q36 0 52.5 -21.5t10.5 -60.5l-14 -78q-12 -64 -80 -64z
" />
    <glyph glyph-name="parenright" unicode=")" horiz-adv-x="882" 
d="M817 879l-137 -781q-47 -272 -179 -392t-388 -120h-144q-37 0 -54 22.5t-9 59.5l14 76q12 66 80 66h98q121 0 186 66t91 214l147 832q26 153 -22 222.5t-181 69.5h-61q-36 0 -52.5 21.5t-10.5 60.5l14 78q12 64 80 64h84q282 0 388.5 -135t55.5 -424z" />
    <glyph glyph-name="asterisk" unicode="*" horiz-adv-x="874" 
d="M770 760q-37 -27 -76.5 -22t-64.5 40l-84 119l-86 -119q-26 -35 -65.5 -40t-76.5 22q-38 29 -44 66.5t20 74.5l84 117l-137 45q-43 13 -60.5 49t-3.5 80q12 42 48 60.5t79 4.5l137 -45v146q0 44 29 72t76 28t74.5 -27.5t27.5 -72.5v-146l137 45q43 14 78.5 -4t48.5 -61
q14 -45 -3.5 -80.5t-59.5 -48.5l-139 -45l86 -117q26 -37 19.5 -74.5t-44.5 -66.5z" />
    <glyph glyph-name="plus" unicode="+" 
d="M1022 565h-254l-49 -278q-11 -56 -46.5 -87.5t-90.5 -31.5h-33q-55 0 -84.5 36.5t-18.5 92.5l48 268h-244q-58 0 -89.5 34.5t-21.5 88.5l4 25q21 108 142 108h254l49 281q11 56 46 87.5t89 31.5h35q54 0 83 -37t19 -92l-47 -271h244q57 0 87.5 -34.5t20.5 -88.5l-4 -24
q-21 -109 -139 -109z" />
    <glyph glyph-name="comma" unicode="," horiz-adv-x="532" 
d="M295 -117l-123 -162q-39 -51 -86 -51q-64 0 -84 51q-23 53 16 103l136 180h-31q-56 0 -80 30t-14 85l20 119q10 61 43 88.5t96 27.5h115q128 0 107 -121l-25 -143q-21 -118 -90 -207z" />
    <glyph glyph-name="hyphen" unicode="-" horiz-adv-x="690" 
d="M74 594l8 47q7 51 45 80t94 29h336q57 0 87 -32.5t20 -86.5l-9 -47q-7 -51 -45 -80t-94 -29h-336q-57 0 -86.5 32.5t-19.5 86.5z" />
    <glyph glyph-name="period" unicode="." horiz-adv-x="532" 
d="M20 113l23 125q10 61 43 88.5t96 27.5h113q129 0 108 -123l-22 -125q-10 -61 -43 -88.5t-96 -27.5h-113q-130 0 -109 123z" />
    <glyph glyph-name="slash" unicode="/" horiz-adv-x="774" 
d="M874 1290l-661 -1257q-26 -51 -72.5 -69t-97.5 5q-54 25 -68 73t15 103l661 1258q26 51 72.5 67.5t97.5 -6.5q54 -25 68 -72.5t-15 -101.5z" />
    <glyph glyph-name="zero" unicode="0" horiz-adv-x="1314" 
d="M823 1417q271 0 403 -132t91 -363l-86 -488q-38 -223 -196.5 -341t-418.5 -118q-271 0 -402.5 132.5t-90.5 365.5l86 488q38 221 196 338.5t418 117.5zM547 958l-92 -522q-38 -213 188 -213q104 0 167.5 54.5t82.5 158.5l92 522q38 211 -188 211q-213 0 -250 -211z" />
    <glyph glyph-name="one" unicode="1" horiz-adv-x="827" 
d="M494 0h-181q-35 0 -52 21.5t-11 56.5l168 956l-66 -26q-51 -21 -90 -21q-55 0 -82 34.5t-16 90.5l6 35q11 52 34 81.5t70 49.5l197 82q63 26 99.5 34.5t86.5 8.5h45q56 0 80.5 -29t14.5 -84l-213 -1212q-6 -35 -30.5 -56.5t-59.5 -21.5z" />
    <glyph glyph-name="two" unicode="2" horiz-adv-x="1140" 
d="M868 0h-759q-57 0 -83 31.5t-16 91.5l41 231q27 167 117 254q90 90 281 142l210 57q79 20 118 55t50 92l11 58q17 85 -20 123.5t-134 38.5q-168 0 -192 -134l-13 -69q-10 -53 -57 -53h-219q-25 0 -36.5 15t-6.5 40l14 82q61 362 535 362q252 0 370.5 -113.5t81.5 -320.5
l-12 -70q-27 -151 -109 -227q-80 -74 -266 -123l-213 -55q-94 -25 -134.5 -62t-53.5 -110l-11 -57h539q60 0 92 -38.5t21 -95.5l-6 -34q-7 -50 -46 -80.5t-94 -30.5z" />
    <glyph glyph-name="three" unicode="3" horiz-adv-x="1198" 
d="M541 -25q-258 0 -381.5 100.5t-91.5 284.5l10 58q10 53 61 53h217q50 0 41 -51l-10 -58q-12 -73 33 -110t145 -37q91 0 149 42t70 116l9 47q12 69 -31 109t-131 40h-84q-55 0 -85 34.5t-22 88.5l6 35q7 49 43.5 78t90.5 29h110q80 0 128.5 37.5t60.5 109.5l8 47
q12 72 -32 111t-138 39q-87 0 -142 -39t-67 -111l-8 -47q-9 -51 -60 -51h-217q-50 0 -41 55l11 57q32 189 168 282t382 93q260 0 385 -105.5t93 -297.5l-4 -25q-19 -115 -85.5 -185.5t-185.5 -101.5q217 -88 176 -321l-6 -35q-65 -371 -575 -371z" />
    <glyph glyph-name="four" unicode="4" horiz-adv-x="1243" 
d="M846 0h-176q-35 0 -52.5 21.5t-11.5 56.5l41 227h-518q-123 0 -102 121l14 82q11 76 65 141l527 660q70 90 158 90h264q57 0 82 -29.5t14 -85.5l-127 -715h82q54 0 83 -35.5t19 -89.5l-6 -34q-7 -49 -41.5 -77t-85.5 -28h-96l-41 -227q-6 -35 -31.5 -56.5t-60.5 -21.5z
M797 1147l-455 -588h350z" />
    <glyph glyph-name="five" unicode="5" horiz-adv-x="1163" 
d="M532 -25q-250 0 -369.5 97t-90.5 274l4 25q4 26 20 40.5t39 14.5h221q50 0 41 -51l-4 -25q-10 -69 31 -102t135 -33q91 0 142.5 43.5t70.5 134.5l21 107q17 86 -25.5 131t-140.5 45q-122 0 -191 -82q-23 -26 -45 -35.5t-59 -9.5h-131q-97 0 -70 100l191 668
q10 35 37.5 55.5t64.5 20.5h663q57 0 90 -38t23 -93l-6 -35q-7 -51 -46 -82t-95 -31h-498l-80 -276q112 69 258 69q214 0 318.5 -115t72.5 -313l-14 -84q-37 -215 -178.5 -317.5t-399.5 -102.5z" />
    <glyph glyph-name="six" unicode="6" horiz-adv-x="1243" 
d="M586 -25q-258 0 -382.5 125t-86.5 346l94 537q37 211 187.5 322.5t398.5 111.5q258 0 374 -100t84 -295l-4 -25q-2 -20 -17 -33.5t-38 -13.5h-225q-46 0 -37 45l4 25q12 78 -29.5 117t-138.5 39q-90 0 -146 -47.5t-73 -135.5l-37 -213q113 72 274 72q211 0 316.5 -110.5
t73.5 -299.5l-9 -47q-35 -205 -184 -312.5t-399 -107.5zM616 215q93 0 151 47.5t71 134.5l10 58q17 87 -27 133.5t-143 46.5q-93 0 -150.5 -46t-70.5 -132l-11 -58q-17 -90 27 -137t143 -47z" />
    <glyph glyph-name="seven" unicode="7" horiz-adv-x="1067" 
d="M317 1393h699q165 0 141 -150l-8 -47q-11 -50 -22.5 -80.5t-36.5 -71.5l-603 -991q-37 -57 -96 -72t-119 17q-61 35 -75.5 96t22.5 121l555 889h-502q-56 0 -85 33.5t-19 87.5l10 57q22 111 139 111z" />
    <glyph glyph-name="eight" unicode="8" horiz-adv-x="1230" 
d="M569 -25q-268 0 -396 106t-93 298l8 47q37 219 270 289q-190 87 -153 293l8 47q32 183 171.5 272.5t391.5 89.5q260 0 384.5 -103t92.5 -292l-8 -47q-20 -110 -80.5 -176t-173.5 -101q203 -90 166 -305l-8 -47q-65 -371 -580 -371zM752 1180q-182 0 -209 -156l-11 -57
q-14 -74 29 -113t139 -39q182 0 209 156l11 57q14 74 -29 113t-139 39zM645 588q-92 0 -149.5 -42.5t-71.5 -117.5l-10 -57q-14 -74 34 -116t146 -42q92 0 149.5 42.5t71.5 117.5l10 57q14 74 -34 116t-146 42z" />
    <glyph glyph-name="nine" unicode="9" horiz-adv-x="1243" 
d="M774 1417q256 0 381.5 -129t87.5 -352l-94 -535q-37 -209 -185.5 -317.5t-398.5 -108.5q-262 0 -379.5 98t-85.5 289l2 13q9 47 58 47h223q46 0 37 -45l-2 -12q-12 -72 31 -110t141 -38q184 0 219 172l33 189q-116 -72 -275 -72q-211 0 -316 109t-73 298l12 70
q37 211 187 322.5t397 111.5zM745 1178q-92 0 -150 -50.5t-75 -144.5l-14 -82q-17 -87 27.5 -132.5t144.5 -45.5q94 0 151 44.5t70 131.5l14 82q17 94 -26.5 145.5t-141.5 51.5z" />
    <glyph glyph-name="colon" unicode=":" horiz-adv-x="563" 
d="M145 721l23 125q10 61 43.5 88t95.5 27h113q127 0 106 -121l-22 -125q-10 -61 -43.5 -88t-95.5 -27h-113q-128 0 -107 121zM37 111l22 125q10 61 44 87.5t96 26.5h112q128 0 107 -121l-23 -125q-10 -61 -43.5 -87.5t-95.5 -26.5h-113q-127 0 -106 121z" />
    <glyph glyph-name="semicolon" unicode=";" horiz-adv-x="563" 
d="M152 721l22 125q10 61 43.5 88t95.5 27h113q127 0 106 -121l-22 -125q-10 -61 -43.5 -88t-95.5 -27h-113q-127 0 -106 121zM309 -119l-123 -160q-39 -51 -86 -51q-62 0 -82 51q-22 51 17 101l135 182h-29q-56 0 -81 29t-15 84l21 119q10 61 43.5 87.5t95.5 26.5h112
q128 0 107 -121l-25 -141q-21 -114 -90 -207z" />
    <glyph glyph-name="less" unicode="&#x3c;" 
d="M975 236q-35 -49 -86.5 -58.5t-100.5 23.5l-518 346q-69 46 -69 115q0 113 112 176l623 356q54 31 106 18t78 -63q29 -51 12 -102t-73 -80l-524 -287l405 -262q49 -30 58.5 -81.5t-23.5 -100.5z" />
    <glyph glyph-name="equal" unicode="=" 
d="M203 926l4 24q21 109 137 109h737q56 0 86.5 -34t20.5 -87l-4 -25q-21 -108 -137 -108h-738q-56 0 -86 34t-20 87zM119 451l4 24q21 109 137 109h737q56 0 86.5 -34t20.5 -87l-4 -25q-21 -108 -137 -108h-738q-56 0 -86 34t-20 87z" />
    <glyph glyph-name="greater" unicode="&#x3e;" 
d="M985 553l-623 -354q-54 -31 -105 -18.5t-77 63.5q-29 50 -11.5 100.5t71.5 79.5l526 287l-406 262q-49 30 -58 81.5t24 100.5q32 49 84.5 58.5t101.5 -23.5l516 -344q72 -48 72 -117q0 -111 -115 -176z" />
    <glyph glyph-name="question" unicode="?" horiz-adv-x="1069" 
d="M686 596l-6 -39q-11 -66 -53 -104.5t-105 -38.5h-14q-68 0 -103.5 42t-23.5 109l25 144q8 45 38.5 70.5t77.5 25.5h70q79 0 118 38.5t56 131.5l16 98q14 82 -18.5 121t-114.5 39t-126 -35.5t-56 -114.5l-8 -47q-6 -32 -26.5 -49.5t-51.5 -17.5h-176q-32 0 -46.5 18.5
t-8.5 50.5l12 70q31 178 154.5 264t349.5 86q238 0 354 -109.5t84 -301.5l-14 -84q-31 -179 -128.5 -268t-275.5 -99zM487 -10h-98q-61 0 -88 29t-16 85l20 113q11 57 42 83t91 26h101q123 0 102 -115l-20 -111q-10 -59 -41.5 -84.5t-92.5 -25.5z" />
    <glyph glyph-name="at" unicode="@" horiz-adv-x="1820" 
d="M1303 -180l-5 -33q-5 -32 -27.5 -50t-60.5 -18h-413q-381 0 -553.5 179.5t-112.5 515.5l74 430q54 309 282 472t607 163q398 0 587 -174q195 -173 136 -484l-72 -399q-52 -301 -363 -301q-204 0 -264 135q-104 -137 -291 -137q-172 0 -259.5 105t-55.5 272l43 221
q32 159 144 251.5t272 92.5q184 0 248 -119q12 55 47 85t86 30h12q56 0 84 -37t16 -94l-98 -494q-21 -104 78 -104q43 0 68.5 25.5t35.5 80.5l72 400q41 232 -95.5 352.5t-443.5 120.5q-290 0 -463.5 -122.5t-214.5 -355.5l-75 -430q-44 -254 75 -379.5t406 -125.5h430
q35 0 52 -20.5t12 -53.5zM915 326q130 0 154 127l53 268q25 135 -110 135q-126 0 -150 -127l-53 -268q-24 -135 106 -135z" />
    <glyph glyph-name="A" unicode="A" horiz-adv-x="1353" 
d="M176 0h-135q-74 0 -74 59q0 38 35 109l539 1128q38 80 79.5 111t110.5 31h209q73 0 106 -32t44 -110l135 -1099q8 -55 8 -86q0 -52 -27 -81.5t-76 -29.5h-131q-41 0 -61.5 19t-24.5 63l-30 283h-461l-129 -283q-36 -82 -117 -82zM858 627l-59 567l-260 -567h319z" />
    <glyph glyph-name="B" unicode="B" horiz-adv-x="1366" 
d="M709 0h-527q-56 0 -82 31.5t-16 85.5l211 1200q7 54 45 85.5t92 31.5h465q263 0 377.5 -95.5t79.5 -285.5l-11 -58q-36 -199 -237 -270q98 -41 139 -119t21 -184l-11 -57q-35 -187 -167.5 -276t-378.5 -89zM858 1188h-248l-61 -344h262q88 0 135 33t60 106l10 57
q13 78 -24 113t-134 35zM772 606h-264l-64 -360h279q91 0 139 36.5t62 114.5l10 58q13 78 -26 114.5t-136 36.5z" />
    <glyph glyph-name="C" unicode="C" horiz-adv-x="1337" 
d="M649 -25q-281 0 -417 138.5t-93 380.5l86 485q41 235 202 357t429 122q282 0 410 -118t90 -341l-10 -57q-5 -26 -23.5 -42.5t-44.5 -16.5h-215q-26 0 -38 15t-7 42l10 57q20 106 -27 155.5t-170 49.5q-110 0 -177.5 -56t-86.5 -165l-92 -528q-19 -109 31.5 -165.5
t167.5 -56.5t176.5 48.5t79.5 158.5l12 70q9 59 66 59h215q54 0 45 -59l-17 -92q-41 -226 -187.5 -333.5t-414.5 -107.5z" />
    <glyph glyph-name="D" unicode="D" horiz-adv-x="1406" 
d="M594 0h-412q-56 0 -82 31.5t-16 85.5l211 1200q11 54 47.5 85.5t91.5 31.5h381q312 0 456 -147.5t97 -416.5l-59 -338q-47 -268 -225 -400t-490 -132zM793 1178h-185l-162 -922h187q280 0 330 276l65 369q25 141 -32 209t-203 68z" />
    <glyph glyph-name="E" unicode="E" horiz-adv-x="1202" 
d="M971 0h-789q-56 0 -82 31.5t-16 85.5l211 1200q7 54 45 85.5t92 31.5h795q73 0 61 -74l-20 -117q-12 -72 -88 -72h-576l-55 -309h424q60 0 92 -36.5t22 -96.5l-2 -12q-11 -57 -50.5 -89t-100.5 -32h-430l-60 -334h576q73 0 61 -72l-20 -116q-12 -74 -90 -74z" />
    <glyph glyph-name="F" unicode="F" horiz-adv-x="1157" 
d="M315 0h-174q-37 0 -55 22.5t-12 59.5l217 1235q7 54 45 85.5t92 31.5h778q74 0 62 -76l-21 -117q-12 -74 -90 -74h-553l-61 -344h434q60 0 91.5 -36.5t21.5 -96.5l-3 -12q-7 -57 -47 -90t-102 -33h-442l-84 -473q-6 -37 -33 -59.5t-64 -22.5z" />
    <glyph glyph-name="G" unicode="G" horiz-adv-x="1355" 
d="M664 -25q-287 0 -427.5 138.5t-97.5 380.5l86 485q41 233 205 356t434 123t403.5 -113t98.5 -311l-6 -35q-4 -23 -20 -37t-37 -14h-230q-48 0 -39 51l4 25q17 93 -32 136.5t-168 43.5q-233 0 -271 -223l-92 -526q-20 -110 35.5 -169t179.5 -59q115 0 175 45.5t77 145.5
l16 92h-172q-42 0 -62.5 25.5t-12.5 68.5l14 82q16 86 104 86h402q91 0 76 -94l-52 -289q-35 -201 -186.5 -307.5t-404.5 -106.5z" />
    <glyph glyph-name="H" unicode="H" horiz-adv-x="1454" 
d="M315 0h-174q-37 0 -55 22.5t-12 59.5l223 1270q6 37 32.5 59.5t63.5 22.5h174q37 0 55.5 -22.5t12.5 -59.5l-84 -482h485l84 482q6 37 33 59.5t64 22.5h172q38 0 56.5 -22.5t12.5 -59.5l-223 -1270q-6 -37 -33 -59.5t-65 -22.5h-172q-37 0 -55.5 22.5t-12.5 59.5l90 508
h-485l-90 -508q-6 -37 -33 -59.5t-64 -22.5z" />
    <glyph glyph-name="I" unicode="I" horiz-adv-x="649" 
d="M324 0h-172q-38 0 -57 22.5t-13 59.5l223 1270q6 37 32.5 59.5t63.5 22.5h172q38 0 57 -22.5t13 -59.5l-223 -1270q-6 -37 -32.5 -59.5t-63.5 -22.5z" />
    <glyph glyph-name="J" unicode="J" horiz-adv-x="1220" 
d="M528 -25q-252 0 -370.5 111.5t-83.5 314.5l14 82q27 156 172 156h23q72 0 107.5 -42.5t23.5 -111.5l-15 -82q-27 -165 156 -165q85 0 136.5 43.5t64.5 128.5l166 942q6 37 32.5 59.5t63.5 22.5h174q37 0 55.5 -22.5t12.5 -59.5l-170 -959q-37 -204 -180.5 -311
t-381.5 -107z" />
    <glyph glyph-name="K" unicode="K" horiz-adv-x="1329" 
d="M315 0h-174q-37 0 -55 22.5t-12 59.5l223 1270q6 37 32.5 59.5t63.5 22.5h174q37 0 55.5 -22.5t12.5 -59.5l-223 -1270q-6 -37 -33 -59.5t-64 -22.5zM1114 -4q-67 -26 -129.5 -1.5t-97.5 91.5l-244 477q-37 73 -25.5 157.5t68.5 156.5l395 489q31 38 59.5 53t69.5 15h154
q70 0 70 -60q0 -26 -12 -50t-44 -62l-446 -537l268 -506q35 -66 10.5 -129t-96.5 -94z" />
    <glyph glyph-name="L" unicode="L" horiz-adv-x="1116" 
d="M930 0h-748q-56 0 -82 31.5t-16 85.5l217 1235q6 37 32.5 59.5t63.5 22.5h174q37 0 55.5 -22.5t12.5 -59.5l-190 -1086h528q75 0 63 -73l-20 -117q-12 -76 -90 -76z" />
    <glyph glyph-name="M" unicode="M" horiz-adv-x="1607" 
d="M281 0h-142q-37 0 -54 21.5t-11 58.5l217 1229q11 58 50.5 91.5t98.5 33.5h123q63 0 90.5 -19.5t46.5 -79.5l156 -491l334 491q41 60 75.5 79.5t100.5 19.5h131q60 0 89 -34t18 -91l-218 -1229q-6 -37 -31.5 -58.5t-60.5 -21.5h-143q-37 0 -54.5 21.5t-11.5 58.5l154 866
l-336 -489q-31 -44 -57.5 -62t-63.5 -18q-73 0 -98 88l-156 483l-153 -868q-6 -37 -31.5 -58.5t-62.5 -21.5z" />
    <glyph glyph-name="N" unicode="N" horiz-adv-x="1443" 
d="M287 0h-148q-37 0 -54 21.5t-11 58.5l217 1229q10 59 49.5 92t97.5 33h123q60 0 88 -22t51 -85l293 -821l150 848q6 37 31.5 58.5t60.5 21.5h147q37 0 54.5 -21.5t11.5 -58.5l-215 -1229q-11 -58 -51 -91.5t-99 -33.5h-114q-60 0 -88.5 21.5t-51.5 84.5l-301 828
l-149 -854q-6 -37 -31.5 -58.5t-60.5 -21.5z" />
    <glyph glyph-name="O" unicode="O" horiz-adv-x="1402" 
d="M666 -25q-287 0 -428 138q-142 139 -99 379l86 487q41 233 208 356t439 123q286 0 428 -139t99 -377l-86 -487q-41 -233 -208 -356.5t-439 -123.5zM690 231q240 0 281 228l90 516q20 110 -34.5 168.5t-178.5 58.5q-240 0 -281 -227l-90 -516q-20 -111 34.5 -169.5
t178.5 -58.5z" />
    <glyph glyph-name="P" unicode="P" horiz-adv-x="1306" 
d="M315 0h-174q-37 0 -55 22.5t-12 59.5l215 1221q11 60 52.5 95.5t102.5 35.5h400q275 0 396 -113t83 -334l-20 -117q-37 -213 -178.5 -313t-405.5 -100h-242l-65 -375q-6 -37 -33 -59.5t-64 -22.5zM805 1180h-199l-84 -471h213q103 0 157 42t71 134l20 116
q17 92 -26 135.5t-152 43.5z" />
    <glyph glyph-name="Q" unicode="Q" horiz-adv-x="1402" 
d="M827 -262l-139 237h-22q-287 0 -428 138q-142 139 -99 379l86 487q41 233 208 356t439 123q286 0 428 -139t99 -377l-86 -487q-54 -291 -295 -410l90 -139q41 -62 25 -127t-78 -101q-61 -35 -127 -18t-101 78zM690 231q240 0 281 228l90 516q20 110 -34.5 168.5
t-178.5 58.5q-240 0 -281 -227l-90 -516q-20 -111 34.5 -169.5t178.5 -58.5z" />
    <glyph glyph-name="R" unicode="R" horiz-adv-x="1351" 
d="M315 0h-174q-37 0 -55 22.5t-12 59.5l215 1221q11 60 52 95.5t101 35.5h457q256 0 375 -111t82 -315l-17 -93q-29 -164 -114.5 -251t-245.5 -113l197 -322q38 -63 19 -128.5t-85 -100.5q-63 -32 -130.5 -11.5t-102.5 83.5l-236 411q-41 68 -29 133l4 25q8 44 38 69t77 25
h57q95 0 145.5 41t63.5 131l19 105q17 90 -22 131t-138 41h-250l-194 -1102q-6 -37 -33 -59.5t-64 -22.5z" />
    <glyph glyph-name="S" unicode="S" horiz-adv-x="1255" 
d="M590 -25q-293 0 -419 97t-89 295l10 57q5 26 21 41.5t41 15.5h213q26 0 38 -14t7 -39l-11 -57q-17 -84 29 -119t174 -35q121 0 176.5 36t69.5 124l4 24q11 63 -13.5 95t-97.5 51l-292 78q-163 42 -221 135.5t-29 259.5l6 35q35 198 183 300.5t401 102.5q288 0 409 -96
t86 -297l-8 -47q-9 -60 -61 -60h-216q-52 0 -43 54l9 47q13 86 -30.5 122t-162.5 36q-113 0 -166.5 -35.5t-66.5 -120.5l-4 -25q-10 -66 12 -96t96 -49l293 -78q163 -43 222 -136.5t30 -258.5l-6 -35q-37 -201 -187 -304.5t-407 -103.5z" />
    <glyph glyph-name="T" unicode="T" horiz-adv-x="1179" 
d="M588 0h-172q-37 0 -55.5 22.5t-12.5 59.5l191 1085h-322q-75 0 -63 76l20 115q12 76 90 76h981q76 0 64 -76l-21 -115q-12 -76 -90 -76h-321l-191 -1085q-6 -37 -33 -59.5t-65 -22.5z" />
    <glyph glyph-name="U" unicode="U" horiz-adv-x="1402" 
d="M662 -25q-278 0 -410.5 134.5t-91.5 373.5l151 869q6 37 33.5 59.5t65.5 22.5h168q38 0 56.5 -22.5t12.5 -59.5l-158 -895q-19 -106 32.5 -162.5t166.5 -56.5q110 0 177.5 56.5t86.5 162.5l158 895q6 37 32.5 59.5t63.5 22.5h170q37 0 55.5 -22.5t12.5 -59.5l-160 -906
q-41 -232 -199 -351.5t-423 -119.5z" />
    <glyph glyph-name="V" unicode="V" horiz-adv-x="1331" 
d="M1219 1434h141q74 0 74 -60q0 -37 -35 -108l-539 -1129q-37 -80 -78.5 -110.5t-113.5 -30.5h-183q-74 0 -106.5 31t-42.5 110l-137 1098q-9 62 -9 88q0 52 27 81.5t76 29.5h137q41 0 61.5 -19t24.5 -63l115 -1026l473 1026q21 44 47 63t68 19z" />
    <glyph glyph-name="W" unicode="W" horiz-adv-x="1787" 
d="M500 -6h-189q-100 0 -100 121l8 1179q0 78 22 109t76 31h117q87 0 84 -88l-18 -957l350 825q31 73 66 102.5t92 29.5h59q57 0 84 -30t31 -102l61 -821l316 953q34 88 114 88h121q68 0 68 -60q0 -32 -19 -80l-407 -1179q-41 -121 -144 -121h-186q-51 0 -77 31t-32 100
l-51 686l-291 -686q-30 -69 -66 -100t-89 -31z" />
    <glyph glyph-name="X" unicode="X" horiz-adv-x="1308" 
d="M197 0h-154q-32 0 -51 15.5t-19 41.5q0 46 54 111l444 569l-244 527q-22 45 -22 79q0 41 26 66t70 25h141q38 0 62 -15.5t41 -52.5l186 -420l320 420q26 37 55 52.5t70 15.5h153q35 0 53.5 -15.5t18.5 -42.5q0 -23 -11 -44.5t-44 -65.5l-437 -557l250 -539q21 -47 21 -80
q0 -41 -26.5 -65.5t-70.5 -24.5h-141q-38 0 -61.5 15.5t-40.5 52.5l-191 432l-327 -432q-29 -37 -58 -52.5t-67 -15.5z" />
    <glyph glyph-name="Y" unicode="Y" horiz-adv-x="1263" 
d="M627 0h-174q-37 0 -55.5 22.5t-12.5 59.5l86 483l-278 699q-21 56 -21 77q0 43 26 68t70 25h142q41 0 63.5 -16.5t36.5 -55.5l184 -485l346 485q29 41 55.5 56.5t67.5 15.5h152q71 0 71 -60q0 -41 -53 -112l-528 -713l-82 -467q-6 -37 -32.5 -59.5t-63.5 -22.5z" />
    <glyph glyph-name="Z" unicode="Z" horiz-adv-x="1177" 
d="M961 0h-852q-134 0 -111 129l12 68q8 45 23.5 74t56.5 73l758 823h-580q-75 0 -63 76l20 115q12 76 90 76h830q68 0 95 -31.5t15 -97.5l-12 -68q-7 -43 -24 -74t-56 -76l-755 -821h600q73 0 61 -76l-18 -114q-12 -76 -90 -76z" />
    <glyph glyph-name="bracketleft" unicode="[" horiz-adv-x="882" 
d="M606 -410h-502q-99 0 -84 99l289 1646q15 99 113 99h504q71 0 59 -76l-16 -86q-9 -60 -74 -60h-305l-246 -1400h297q32 0 47.5 -19.5t9.5 -54.5l-16 -86q-12 -62 -76 -62z" />
    <glyph glyph-name="backslash" unicode="\" horiz-adv-x="772" 
d="M301 1475q56 8 94.5 -21.5t48.5 -89.5l215 -1253q11 -60 -17 -101.5t-85 -48.5q-56 -8 -94.5 21.5t-48.5 89.5l-215 1253q-11 60 17 101.5t85 48.5z" />
    <glyph glyph-name="bracketright" unicode="]" horiz-adv-x="882" 
d="M285 1434h499q53 0 73.5 -24.5t12.5 -74.5l-290 -1646q-15 -99 -113 -99h-504q-71 0 -59 76l16 86q9 60 74 60h305l246 1400h-297q-33 0 -48.5 19.5t-9.5 54.5l17 86q12 62 78 62z" />
    <glyph glyph-name="asciicircum" unicode="^" horiz-adv-x="956" 
d="M711 815l-101 395l-237 -395q-23 -38 -38 -48.5t-46 -10.5h-154q-31 0 -39.5 20t10.5 51l326 527q30 45 62 64.5t81 19.5h140q51 0 76.5 -18.5t37.5 -65.5l138 -527q8 -31 -6.5 -51t-45.5 -20h-141q-31 0 -43.5 11.5t-19.5 47.5z" />
    <glyph glyph-name="underscore" unicode="_" horiz-adv-x="1024" 
d="M866 -410h-1030q-32 0 -48.5 21.5t-10.5 54.5l16 86q6 32 29 51t55 19h1030q32 0 49 -22t11 -54l-17 -86q-6 -32 -29 -51t-55 -19z" />
    <glyph glyph-name="grave" unicode="`" horiz-adv-x="921" 
d="M557 1206l-137 129q-26 27 -23 58l2 12q8 35 47 35h152q32 0 49 -8.5t41 -38.5l103 -131q17 -20 14 -45l-2 -13q-9 -35 -47 -35h-99q-38 0 -57.5 7t-42.5 30z" />
    <glyph glyph-name="a" unicode="a" horiz-adv-x="1175" 
d="M428 -25q-201 0 -301 88t-74 242l6 35q25 143 135.5 209.5t325.5 66.5q101 0 215 -24l25 139q11 56 -21.5 82.5t-111.5 26.5q-71 0 -106.5 -20.5t-43.5 -65.5l-2 -13q-8 -43 -47 -43h-221q-46 0 -37 50l4 24q49 295 475 295q240 0 350.5 -94.5t79.5 -274.5l-71 -409
l53 -53q35 -35 36 -76.5t-32 -73.5l-74 -72q-33 -33 -73.5 -33t-75.5 35l-92 93q-116 -134 -322 -134zM377 336l-4 -25q-21 -112 135 -112q69 0 119 35.5t61 91.5l17 92q-84 20 -156 20q-79 0 -120.5 -24t-51.5 -78z" />
    <glyph glyph-name="b" unicode="b" 
d="M623 -25q-188 0 -273 117q-17 -54 -56 -83t-93 -29h-11q-69 0 -104.5 38t-24.5 101l215 1214q11 56 45.5 87.5t88.5 31.5h94q55 0 82.5 -32.5t19.5 -86.5l-59 -336q98 70 241 70q198 0 306 -123t73 -317l-41 -234q-35 -198 -167.5 -308t-335.5 -110zM592 217
q172 0 199 166l49 283q27 165 -154 165q-172 0 -199 -165l-49 -283q-27 -166 154 -166z" />
    <glyph glyph-name="c" unicode="c" horiz-adv-x="1153" 
d="M541 -25q-239 0 -359 117q-119 117 -82 316l45 251q35 196 177.5 302t371.5 106q232 0 348.5 -92t87.5 -252l-8 -47q-5 -25 -23 -40t-44 -15h-207q-25 0 -36.5 14t-6.5 39l6 35q12 61 -23 89.5t-122 28.5q-160 0 -187 -161l-51 -289q-13 -84 21 -122t122 -38
q82 0 124.5 29.5t52.5 95.5l6 35q5 23 20.5 37t38.5 14h209q25 0 37.5 -15t7.5 -40l-10 -58q-31 -172 -158 -256t-358 -84z" />
    <glyph glyph-name="d" unicode="d" horiz-adv-x="1255" 
d="M479 -25q-201 0 -309 123q-107 122 -72 318l43 239q35 195 165 303.5t325 108.5q158 0 243 -94l64 360q11 56 45.5 87.5t87.5 31.5h94q55 0 83 -32.5t20 -86.5l-185 -1042l56 -55q35 -35 36 -75t-34 -75l-72 -72q-33 -33 -74.5 -33t-76.5 35l-101 101
q-117 -142 -338 -142zM672 831q-82 0 -131.5 -41.5t-63.5 -121.5l-51 -285q-13 -82 25.5 -124t126.5 -42q80 0 129.5 42.5t62.5 123.5l51 285q27 163 -149 163z" />
    <glyph glyph-name="e" unicode="e" horiz-adv-x="1165" 
d="M551 -25q-246 0 -369 111t-88 303l49 277q35 198 174.5 299.5t374.5 101.5q238 0 352.5 -111t79.5 -307l-22 -129q-15 -94 -107 -94h-569l-14 -84q-14 -80 24 -113.5t142 -33.5q79 0 115.5 20.5t43.5 69.5l2 12q8 31 39 31h234q41 0 32 -39l-4 -25
q-26 -152 -141.5 -220.5t-347.5 -68.5zM668 852q-86 0 -133 -38t-60 -120l-12 -69h342l12 69q14 82 -21.5 120t-127.5 38z" />
    <glyph glyph-name="f" unicode="f" horiz-adv-x="747" 
d="M365 0h-181q-35 0 -51 20.5t-10 55.5l127 723h-107q-25 0 -38 15t-9 38l25 139q4 23 22 37t43 14h107l18 105q29 158 108 222.5t243 64.5h126q49 0 74 -22t19 -60l-15 -82q-6 -32 -31 -51t-63 -19h-74q-31 0 -47 -12t-20 -41l-19 -105h160q25 0 37.5 -15t7.5 -38
l-24 -139q-5 -23 -22 -37t-42 -14h-149l-127 -723q-6 -35 -29.5 -55.5t-58.5 -20.5z" />
    <glyph glyph-name="g" unicode="g" 
d="M471 -434q-245 0 -362 78.5t-91 224.5l7 35q10 45 51 45h229q36 0 33 -39l-4 -25q-7 -49 32 -71.5t132 -22.5q91 0 137.5 33.5t58.5 107.5l29 162q-100 -69 -246 -69q-201 0 -309 114q-105 114 -70 305l37 207q35 196 168 306t336 110q184 0 272 -117q19 54 57.5 83.5
t92.5 29.5h10q69 0 104.5 -38t24.5 -101l-172 -975q-70 -383 -557 -383zM582 252q170 0 198 164l43 246q13 79 -26 121t-127 42q-82 0 -134 -42t-65 -121l-43 -246q-13 -79 26.5 -121.5t127.5 -42.5z" />
    <glyph glyph-name="h" unicode="h" horiz-adv-x="1230" 
d="M291 0h-178q-35 0 -52.5 20.5t-11.5 55.5l221 1257q11 56 45.5 87.5t87.5 31.5h95q55 0 82.5 -32.5t19.5 -86.5l-59 -340q103 74 252 74q190 0 284 -119q98 -116 64 -309l-99 -563q-6 -35 -29.5 -55.5t-58.5 -20.5h-180q-35 0 -51 20.5t-10 55.5l100 569q14 82 -21 125
t-116 43q-82 0 -133 -43t-64 -125l-100 -569q-6 -35 -29.5 -55.5t-58.5 -20.5z" />
    <glyph glyph-name="i" unicode="i" horiz-adv-x="712" 
d="M528 1147h-147q-50 0 -73.5 26.5t-16.5 73.5l16 92q21 99 117 99h147q50 0 74 -27t17 -74l-17 -92q-21 -98 -117 -98zM526 0h-120q-317 0 -259 293l97 506h-103q-25 0 -37.5 15t-7.5 38l25 139q4 23 22 37t43 14h336q49 0 67.5 -23.5t10.5 -74.5l-121 -643q-5 -29 4 -41
t35 -12h68q25 0 36.5 -16t6.5 -42l-21 -116q-12 -74 -82 -74z" />
    <glyph glyph-name="j" unicode="j" horiz-adv-x="649" 
d="M535 1147h-150q-51 0 -74.5 26.5t-15.5 73.5l16 92q20 99 115 99h149q51 0 75 -27t16 -74l-17 -92q-11 -51 -38 -74.5t-76 -23.5zM72 -410h-131q-99 0 -84 78l18 105q5 29 27 46t57 17h70q29 0 43 12t20 43l160 908h-100q-24 0 -37 15t-9 38l25 139q1 20 21 35.5t43 15.5
h333q49 0 67.5 -23.5t10.5 -74.5l-188 -1077q-26 -154 -103 -215.5t-243 -61.5z" />
    <glyph glyph-name="k" unicode="k" horiz-adv-x="1167" 
d="M291 0h-178q-35 0 -52.5 20.5t-11.5 55.5l221 1257q11 56 45.5 87.5t87.5 31.5h95q55 0 82.5 -32.5t19.5 -86.5l-221 -1257q-6 -35 -29.5 -55.5t-58.5 -20.5zM958 -2q-60 -27 -122.5 -3t-98.5 89l-172 301q-39 67 -30.5 143t63.5 138l260 309q32 37 62 52t71 15h137
q72 0 72 -63q0 -43 -57 -105l-291 -333l184 -318q38 -66 16 -129.5t-94 -95.5z" />
    <glyph glyph-name="l" unicode="l" horiz-adv-x="649" 
d="M475 0h-115q-158 0 -221 71t-37 220l185 1042q11 56 45.5 87.5t87.5 31.5h94q55 0 82.5 -32.5t19.5 -86.5l-182 -1032q-4 -30 4.5 -41.5t34.5 -11.5h64q25 0 37 -16t8 -42l-21 -116q-12 -74 -86 -74z" />
    <glyph glyph-name="m" unicode="m" horiz-adv-x="1875" 
d="M326 0h-179q-35 0 -52 20.5t-11 55.5l119 678l-53 53q-35 35 -36 75t31 72l74 74q32 33 73.5 32t76.5 -36l100 -100q110 143 319 143q109 0 189 -39t123 -113q116 152 332 152q195 0 291.5 -114t64.5 -306l-100 -571q-6 -35 -30 -55.5t-59 -20.5h-180q-35 0 -51 20.5
t-10 55.5l102 579q14 76 -20 117t-111 41q-149 0 -176 -158l-102 -579q-6 -35 -29.5 -55.5t-58.5 -20.5h-179q-35 0 -52 20.5t-11 55.5l102 579q27 158 -131 158q-149 0 -176 -158l-102 -579q-6 -35 -29.5 -55.5t-58.5 -20.5z" />
    <glyph glyph-name="n" unicode="n" horiz-adv-x="1257" 
d="M326 0h-179q-35 0 -52 20.5t-11 55.5l119 678l-53 53q-35 35 -36 75t31 72l74 74q32 33 73.5 32t76.5 -36l104 -104q116 147 330 147q201 0 300 -116t64 -312l-98 -563q-6 -35 -29.5 -55.5t-58.5 -20.5h-180q-35 0 -51.5 20.5t-10.5 55.5l101 569q14 82 -22 125t-118 43
q-158 0 -186 -168l-100 -569q-6 -35 -29.5 -55.5t-58.5 -20.5z" />
    <glyph glyph-name="o" unicode="o" horiz-adv-x="1202" 
d="M555 -25q-246 0 -370 117t-87 318l45 252q35 195 181 300t381 105q246 0 369.5 -116.5t86.5 -317.5l-45 -252q-35 -195 -180.5 -300.5t-380.5 -105.5zM582 215q86 0 134.5 39.5t65.5 124.5l52 285q17 84 -22 123.5t-134 39.5q-87 0 -135.5 -39t-65.5 -124l-51 -285
q-17 -84 22 -124t134 -40z" />
    <glyph glyph-name="p" unicode="p" horiz-adv-x="1255" 
d="M659 -25q-157 0 -243 95l-68 -379q-11 -56 -46 -87.5t-89 -31.5h-96q-54 0 -81.5 32.5t-19.5 86.5l189 1063l-53 53q-35 35 -36 75t31 72l74 74q32 33 73.5 32t76.5 -36l100 -100q119 143 340 143q199 0 307 -123q108 -124 74 -317l-43 -240q-35 -195 -165 -303.5
t-325 -108.5zM618 211q82 0 131.5 42t63.5 122l51 284q27 166 -151 166q-80 0 -130 -42.5t-63 -123.5l-51 -284q-27 -164 149 -164z" />
    <glyph glyph-name="q" unicode="q" 
d="M643 1067q184 0 272 -117q19 54 57.5 83.5t92.5 29.5h10q69 0 104.5 -38t24.5 -101l-217 -1233q-11 -56 -45.5 -87.5t-87.5 -31.5h-94q-55 0 -84 32.5t-21 86.5l64 354q-107 -70 -244 -70q-197 0 -305 123q-107 122 -72 318l41 231q35 200 168 310t336 110zM674 825
q-172 0 -199 -166l-51 -284q-27 -164 156 -164q82 0 132 42t64 122l51 284q27 166 -153 166z" />
    <glyph glyph-name="r" unicode="r" horiz-adv-x="841" 
d="M326 0h-179q-35 0 -52 20.5t-11 55.5l119 678l-53 53q-35 35 -36 75t31 72l74 74q32 33 73.5 32t76.5 -36l110 -111q102 142 252 142h25q75 0 109.5 -32.5t23.5 -94.5l-12 -70q-10 -49 -47.5 -76.5t-94.5 -27.5h-45q-78 0 -122.5 -41t-61.5 -127l-92 -510
q-6 -35 -29.5 -55.5t-58.5 -20.5z" />
    <glyph glyph-name="s" unicode="s" horiz-adv-x="1079" 
d="M479 -25q-235 0 -342 75t-82 224l4 25q1 18 17 30.5t35 12.5h204q38 0 35 -37l-4 -24q-8 -45 30 -66.5t128 -21.5q86 0 129.5 21.5t50.5 68.5l4 24q6 36 -10 53.5t-66 24.5l-223 37q-161 26 -220 97t-36 208l4 25q26 155 152.5 235t347.5 80q230 0 334.5 -74t79.5 -221
l-4 -24q-5 -19 -18.5 -31t-31.5 -12h-204q-40 0 -37 38l4 25q6 43 -29 62.5t-121 19.5q-155 0 -170 -90l-4 -25q-6 -36 10 -52.5t66 -23.5l223 -36q164 -29 221.5 -99t34.5 -207l-4 -24q-52 -318 -508 -318z" />
    <glyph glyph-name="t" unicode="t" horiz-adv-x="776" 
d="M592 0h-143q-183 0 -254.5 76.5t-40.5 242.5l88 480h-107q-23 0 -36 15t-9 38l25 139q4 23 22 37t41 14h107l30 164q10 54 46.5 84.5t87.5 30.5h104q54 0 78.5 -30.5t13.5 -84.5l-31 -164h166q23 0 36 -15t9 -38l-24 -139q-4 -23 -22 -37t-42 -14h-166l-86 -471
q-8 -41 6.5 -58.5t55.5 -17.5h90q56 0 47 -59l-22 -130q-6 -30 -24.5 -46.5t-45.5 -16.5z" />
    <glyph glyph-name="u" unicode="u" horiz-adv-x="1257" 
d="M963 1042h178q35 0 52 -20t11 -55l-119 -678l54 -53q35 -35 36 -75.5t-32 -72.5l-74 -74q-32 -33 -73 -32t-76 36l-105 105q-57 -72 -142 -110t-188 -38q-201 0 -300 116t-64 312l98 564q6 35 29.5 55t58.5 20h180q35 0 51.5 -20t10.5 -55l-100 -570q-14 -82 21.5 -125
t117.5 -43q158 0 186 168l100 570q6 35 30 55t59 20z" />
    <glyph glyph-name="v" unicode="v" horiz-adv-x="1103" 
d="M563 -4h-209q-57 0 -83.5 25t-37.5 88l-110 747q-8 44 -8 76q0 110 96 110h129q45 0 64.5 -19.5t25.5 -72.5l78 -667l317 667q26 53 52 72.5t71 19.5h127q68 0 68 -59q0 -48 -29 -100l-389 -774q-31 -63 -66.5 -88t-95.5 -25z" />
    <glyph glyph-name="w" unicode="w" horiz-adv-x="1591" 
d="M455 -4h-187q-95 0 -98 98l-29 787q-4 90 19 125.5t84 35.5h104q86 0 86 -86l8 -620l258 557q32 69 65 94t93 25h53q57 0 83.5 -26t33.5 -93l62 -557l227 620q17 45 45 65.5t72 20.5h112q70 0 70 -59q0 -38 -29 -102l-307 -787q-37 -98 -133 -98h-182q-47 0 -71 24.5
t-30 79.5l-53 471l-219 -471q-25 -55 -57 -79.5t-80 -24.5z" />
    <glyph glyph-name="x" unicode="x" horiz-adv-x="1099" 
d="M176 0h-137q-70 0 -70 63q0 49 51 105l312 369l-174 337q-23 45 -23 80q0 41 25 64.5t69 23.5h129q42 0 66.5 -16.5t44.5 -58.5l115 -242l192 242q35 42 65.5 58.5t73.5 16.5h136q71 0 71 -63q0 -23 -11 -44.5t-42 -60.5l-299 -354l180 -352q23 -45 23 -80
q0 -41 -25 -64.5t-69 -23.5h-129q-43 0 -67 16t-44 60l-123 256l-203 -256q-32 -42 -63 -59t-74 -17z" />
    <glyph glyph-name="y" unicode="y" horiz-adv-x="1103" 
d="M252 -199l121 199h-37q-52 0 -76 21.5t-31 76.5l-106 758q0 4 -4 35.5t-4 40.5q0 110 96 110h129q45 0 64.5 -19.5t25.5 -72.5l76 -690l319 690q25 52 51 72t72 20h127q68 0 68 -59q0 -48 -29 -100l-606 -1235q-29 -60 -85.5 -77.5t-117.5 13.5t-76 92.5t23 124.5z" />
    <glyph glyph-name="z" unicode="z" horiz-adv-x="995" 
d="M797 0h-709q-57 0 -86.5 32t-19.5 83l10 57q8 44 25.5 74.5t58.5 68.5l536 482h-426q-71 0 -59 71l18 105q12 69 84 69h684q60 0 88.5 -31.5t18.5 -86.5l-10 -58q-7 -44 -25 -73.5t-57 -65.5l-539 -481h451q71 0 59 -70l-18 -104q-12 -72 -84 -72z" />
    <glyph glyph-name="braceleft" unicode="{" horiz-adv-x="966" 
d="M776 -274l-14 -78q-12 -62 -80 -62h-176q-169 0 -266 72.5t-97 196.5q0 56 22 111.5t83 146.5q42 63 55.5 92.5t13.5 54.5q0 114 -219 135q-33 5 -44 19.5t-5 46.5l19 102q6 35 22 50t51 16q147 13 212 53t65 115q0 28 -23 123q-33 120 -33 188q0 158 105.5 244t300.5 86
h233q37 0 54.5 -22.5t9.5 -59.5l-14 -76q-12 -63 -80 -63h-164q-69 0 -107 -29.5t-38 -83.5q0 -37 22 -125q31 -109 31 -170q0 -113 -88.5 -192.5t-247.5 -108.5q117 -29 178 -92.5t61 -155.5q0 -48 -19.5 -96t-76.5 -123q-43 -59 -57 -89.5t-14 -57.5q0 -89 114 -89h148
q75 0 63 -79z" />
    <glyph glyph-name="bar" unicode="|" horiz-adv-x="612" 
d="M586 1335l-256 -1454q-11 -57 -46.5 -89t-90.5 -32h-11q-56 0 -86 38.5t-20 95.5l254 1454q7 57 44 88.5t93 31.5h12q56 0 86.5 -38t20.5 -95z" />
    <glyph glyph-name="braceright" unicode="}" horiz-adv-x="966" 
d="M578 104q30 -118 30 -190q0 -156 -105 -242t-300 -86h-232q-37 0 -53 21t-10 59l14 78q4 29 25.5 45t54.5 16h162q69 0 107 29.5t38 83.5q0 50 -24 127q-29 111 -29 168q0 115 88 193.5t248 107.5q-117 29 -178.5 93t-61.5 155q0 45 20.5 93t76.5 128q45 58 59 88.5
t14 58.5q0 87 -114 87h-148q-36 0 -52.5 21t-10.5 58l14 78q4 30 25.5 47t54.5 17h176q169 0 265.5 -73t96.5 -198q0 -55 -22 -108.5t-84 -149.5q-42 -61 -56 -91t-14 -54q0 -111 219 -135q35 -4 46.5 -19.5t5.5 -48.5l-19 -102q-6 -33 -22.5 -48t-51.5 -16
q-147 -14 -211.5 -53t-64.5 -117q0 -29 23 -121z" />
    <glyph glyph-name="asciitilde" unicode="~" 
d="M1083 606q-47 -47 -113.5 -73.5t-138.5 -26.5q-66 0 -120 16t-129 62q-49 31 -76 41t-55 10t-49.5 -12t-57.5 -54q-35 -39 -54 -49t-50 -10q-50 0 -82.5 33t-32.5 84q0 75 82 157q47 47 113.5 74t138.5 27q66 0 119.5 -16t128.5 -62q81 -51 133 -51q28 0 48.5 12t57.5 53
q34 37 55 48.5t48 11.5q51 0 83.5 -34t32.5 -85q0 -74 -82 -156z" />
    <glyph glyph-name="uni00A0" unicode="&#xa0;" horiz-adv-x="382" 
 />
    <glyph glyph-name="exclamdown" unicode="&#xa1;" horiz-adv-x="557" 
d="M319 1053h101q61 0 88 -30t16 -87l-20 -111q-12 -58 -43 -84t-90 -26h-101q-62 0 -87 28t-15 88l18 111q11 58 42.5 84.5t90.5 26.5zM287 629h14q69 0 104 -43.5t23 -112.5l-143 -815q-6 -36 -26.5 -52t-59.5 -16h-158q-76 0 -64 68l144 815q12 73 56 114.5t110 41.5z
" />
    <glyph glyph-name="cent" unicode="&#xa2;" 
d="M709 111l-25 -138q-10 -60 -47 -92.5t-94 -32.5h-13q-56 0 -87 39t-21 99l22 137q-174 35 -254 148t-49 284l43 244q31 167 148 269.5t303 125.5l22 125q10 60 47 92.5t93 32.5h12q57 0 89.5 -40t21.5 -97l-21 -119q168 -29 245 -118t52 -228l-6 -35q-4 -25 -23 -39
t-45 -14h-207q-23 0 -34 14t-7 39l7 35q12 68 -27 99.5t-135 31.5q-82 0 -132 -40t-63 -118l-55 -311q-27 -170 156 -170q86 0 132 30.5t56 96.5l8 47q4 25 21.5 39t42.5 14h207q23 0 35 -15t8 -38l-11 -57q-26 -149 -131 -235t-284 -105z" />
    <glyph glyph-name="sterling" unicode="&#xa3;" 
d="M1087 135l-4 -22q-11 -54 -46.5 -83.5t-90.5 -29.5h-801q-56 0 -80 30t-14 85l12 69q6 35 23.5 58.5t60.5 54.5l56 39q54 36 79 78t31 102h-123q-44 0 -72 26.5t-28 69.5q0 50 29 78.5t80 28.5h92q-26 108 -29 131q-6 40 -6 80q0 234 143 360.5t408 126.5
q241 0 351.5 -97t78.5 -280l-8 -47q-13 -69 -76 -69h-182q-32 0 -47 17t-9 48l11 58q12 69 -23.5 106t-114.5 37q-206 0 -206 -236q0 -51 16 -139l20 -96h267q47 0 73.5 -25.5t26.5 -70.5q0 -50 -28.5 -78.5t-77.5 -28.5h-263q-34 -143 -184 -250h543q60 0 91.5 -37
t20.5 -94z" />
    <glyph glyph-name="currency" unicode="&#xa4;" 
d="M369 297l-121 -102q-44 -37 -92 -35t-80 43q-32 38 -24 84.5t52 83.5l119 98q-33 73 -33 164q0 159 103 299l-76 92q-35 43 -32 90t44 82q41 32 88 27.5t82 -45.5l74 -88q113 61 240 61q121 0 219 -61l121 102q44 37 92 35t80 -43q32 -38 24 -84.5t-53 -83.5l-119 -101
q33 -73 33 -161q0 -162 -102 -301l75 -93q35 -41 32 -88t-44 -82t-88 -29.5t-82 48.5l-74 88q-113 -61 -239 -61q-121 0 -219 61zM623 475q98 0 168 76q69 75 69 174q0 82 -50 133t-132 51q-99 0 -168 -75q-70 -73 -70 -172q0 -82 51 -134.5t132 -52.5z" />
    <glyph glyph-name="yen" unicode="&#xa5;" 
d="M930 160h-211l-17 -97q-4 -29 -24.5 -46t-50.5 -17h-209q-29 0 -42.5 16.5t-8.5 46.5l16 97h-182q-43 0 -69 25t-26 67q0 41 26 66.5t69 25.5h213l16 94h-178q-44 0 -69 24.5t-25 67.5t25.5 69t68.5 26h178l-205 549q-32 81 -32 124q0 95 90 95h151q44 0 69 -18t38 -62
l155 -467l316 467q29 43 60.5 61.5t74.5 18.5h106q64 0 64 -58q0 -26 -16.5 -57.5t-67.5 -103.5l-399 -549h147q43 0 68.5 -25t25.5 -68t-25.5 -68.5t-68.5 -25.5h-213l-16 -94h178q44 0 70 -24.5t26 -65.5q0 -43 -26 -68.5t-70 -25.5z" />
    <glyph glyph-name="brokenbar" unicode="&#xa6;" horiz-adv-x="612" 
d="M586 1335l-94 -532q-10 -59 -46 -90t-92 -31h-10q-56 0 -86 38t-20 95l92 533q7 57 44 88.5t93 31.5h12q56 0 86.5 -38t20.5 -95zM424 414l-94 -533q-21 -121 -137 -121h-11q-56 0 -86 38.5t-20 95.5l92 532q7 57 44 89t93 32h12q56 0 86.5 -38t20.5 -95z" />
    <glyph glyph-name="section" unicode="&#xa7;" 
d="M1077 102l-6 -34q-26 -150 -164.5 -227t-382.5 -77q-266 0 -380.5 76.5t-88.5 237.5l4 24q9 48 60 48h196q52 0 43 -48l-4 -24q-7 -55 35.5 -76.5t153.5 -21.5q206 0 221 96l2 12q8 50 -13 71t-98 38l-239 49q-206 40 -273 114q-65 74 -41 207l7 35q17 86 69 138t146 77
q-121 87 -88 262l6 35q52 303 534 303q257 0 368 -76.5t85 -236.5l-4 -25q-9 -47 -60 -47h-196q-52 0 -43 47l4 25q7 55 -31.5 76.5t-142.5 21.5q-192 0 -207 -96l-2 -12q-8 -51 12 -73.5t90 -35.5l240 -49q198 -41 265 -113.5t42 -208.5l-6 -34q-13 -85 -64 -136.5
t-143 -76.5q127 -86 94 -265zM567 487l146 -30h41q53 0 87 26.5t42 71.5l2 12q8 55 -21.5 81t-126.5 46l-145 31h-47q-53 0 -87 -26.5t-42 -71.5l-2 -13q-8 -55 22 -81t131 -46z" />
    <glyph glyph-name="dieresis" unicode="&#xa8;" horiz-adv-x="921" 
d="M285 1260l16 92q7 49 34 71.5t77 22.5h77q99 0 84 -96l-16 -93q-7 -49 -34 -71.5t-77 -22.5h-77q-99 0 -84 97zM924 1350l-17 -93q-7 -49 -33.5 -71.5t-76.5 -22.5h-78q-99 0 -84 97l16 92q7 49 34 71.5t77 22.5h78q99 0 84 -96z" />
    <glyph glyph-name="copyright" unicode="&#xa9;" horiz-adv-x="1556" 
d="M760 -25q-340 0 -496 162t-102 457l53 293q51 278 238.5 424.5t490.5 146.5q340 0 496 -161.5t102 -456.5l-53 -293q-51 -279 -237.5 -425.5t-491.5 -146.5zM764 106q242 0 391.5 116t187.5 335l52 293q41 235 -74.5 356t-380.5 121q-242 0 -392.5 -116.5t-187.5 -331.5
l-51 -295q-41 -235 75 -356.5t380 -121.5zM1165 604l-10 -57q-23 -129 -107.5 -191.5t-236.5 -62.5q-168 0 -251 78.5t-58 214.5l51 291q23 128 118.5 196t250.5 68q158 0 236.5 -67t58.5 -185l-9 -47q-9 -35 -41 -35h-143q-32 0 -29 33l9 47q8 43 -16.5 63.5t-84.5 20.5
q-106 0 -121 -90l-55 -318q-15 -100 98 -100q56 0 85 21.5t36 70.5l8 47q10 37 37 37h146q32 0 28 -35z" />
    <glyph glyph-name="ordfeminine" unicode="&#xaa;" horiz-adv-x="878" 
d="M709 674l-74 74q-87 -107 -238 -107q-137 0 -206 62.5t-50 170.5l4 25q19 103 95.5 151t222.5 48q65 0 158 -19l18 99q8 43 -11.5 62.5t-70.5 19.5q-50 0 -74 -14.5t-28 -49.5l-2 -12q-8 -31 -35 -31h-166q-36 0 -27 35l2 12q34 217 342 217q172 0 253.5 -70t58.5 -198
l-47 -264l40 -43q29 -29 29.5 -62t-26.5 -59l-48 -47q-26 -26 -58.5 -26t-61.5 26zM387 899l-2 -12q-6 -42 15.5 -63t72.5 -21q44 0 74.5 23t38.5 61l14 74q-34 10 -94 10q-56 0 -84.5 -17t-34.5 -55z" />
    <glyph glyph-name="uni00AB" unicode="&#xab;" horiz-adv-x="1050" 
d="M444 178q-44 -29 -93 -18.5t-81 57.5l-170 246q-78 116 33 227l266 262q41 41 91.5 44.5t87.5 -33.5q35 -36 29 -83t-48 -89l-233 -226l149 -217q31 -44 22 -91.5t-53 -78.5zM895 178q-44 -31 -93 -19.5t-81 58.5l-172 246q-78 114 35 227l266 262q42 39 92 42.5
t86 -31.5q35 -36 29.5 -83t-47.5 -89l-234 -226l150 -217q31 -44 22 -92.5t-53 -77.5z" />
    <glyph glyph-name="registered" unicode="&#xae;" horiz-adv-x="858" 
d="M496 686q-184 0 -267 84.5t-57 243.5l25 141q26 148 127.5 225.5t271.5 77.5q184 0 267 -84.5t57 -240.5l-25 -144q-25 -148 -127 -225.5t-272 -77.5zM502 762q129 0 209 60t100 173l25 142q23 123 -38.5 184t-207.5 61q-129 0 -209.5 -60.5t-99.5 -170.5l-25 -143
q-46 -246 246 -246zM670 860q-25 -10 -48 -1t-34 32l-53 121q-8 13 -5 39l2 12q2 12 9 19.5t18 7.5h12q49 0 52 40l6 35q2 19 -7 28t-32 9h-66l-55 -315q-1 -12 -10 -19.5t-21 -7.5h-69q-24 0 -21 27l64 362q1 20 15.5 31.5t35.5 11.5h147q80 0 116 -28.5t26 -85.5l-9 -48
q-11 -70 -90 -90l49 -100q12 -25 3 -47.5t-35 -32.5z" />
    <glyph glyph-name="overscore" unicode="&#xaf;" horiz-adv-x="921" 
d="M291 1303q0 47 29.5 75.5t76.5 28.5h408q44 0 72 -26.5t28 -69.5q0 -50 -28.5 -78.5t-77.5 -28.5h-408q-44 0 -72 27.5t-28 71.5z" />
    <glyph glyph-name="degree" unicode="&#xb0;" horiz-adv-x="921" 
d="M942 1061q0 -168 -121 -289t-293 -121q-160 0 -266 103q-104 101 -104 254q0 167 121 288t296 121q161 0 263 -102q104 -101 104 -254zM379 1020q0 -70 44.5 -116t115.5 -46q77 0 129.5 55.5t52.5 135.5q0 70 -44.5 115.5t-115.5 45.5q-77 0 -129.5 -55.5t-52.5 -134.5z
" />
    <glyph glyph-name="uni00B2" unicode="&#xb2;" horiz-adv-x="735" 
d="M537 1614q167 0 244 -64.5t57 -187.5l-9 -47q-14 -88 -65 -133t-168 -70l-164 -35q-35 -6 -51 -20t-21 -39l-6 -35h328q38 0 58.5 -26.5t13.5 -67.5l-4 -23q-6 -35 -29.5 -55t-58.5 -20h-498q-76 0 -64 75l25 144q19 104 69.5 154t163.5 75l146 33q42 10 60 26.5t24 47.5
l8 47q6 32 -12 48.5t-60 16.5q-81 0 -90 -59l-6 -35q-10 -41 -47 -41h-152q-42 0 -39 45l7 35q37 211 340 211z" />
    <glyph glyph-name="uni00B3" unicode="&#xb3;" horiz-adv-x="763" 
d="M803 1016l-6 -35q-37 -207 -359 -207q-172 0 -252 58.5t-61 168.5l2 13q1 20 15.5 31.5t37.5 11.5h148q21 0 32 -12.5t7 -32.5l-2 -13q-6 -37 13 -53t68 -16q86 0 99 65l8 47q5 33 -12.5 52.5t-53.5 19.5h-65q-35 0 -53 20.5t-13 55.5l4 24q5 32 27 50t59 18h66
q37 0 61.5 17.5t28.5 48.5l8 47q6 29 -14 46t-61 17q-90 0 -99 -55l-4 -25q-10 -41 -49 -41h-152q-45 0 -36 47l4 25q39 205 348 205q173 0 253.5 -58t61.5 -170l-6 -34q-10 -62 -52 -99.5t-118 -54.5q141 -47 117 -182z" />
    <glyph glyph-name="acute" unicode="&#xb4;" horiz-adv-x="921" 
d="M791 1331l-160 -125q-27 -21 -50.5 -29t-60.5 -8h-121q-18 0 -27.5 10.5t-4.5 24.5l2 13q3 24 28 49l127 127q31 31 47.5 39t46.5 8h181q21 0 31 -10.5t6 -28.5l-2 -12q-13 -39 -43 -58z" />
    <glyph glyph-name="paragraph" unicode="&#xb6;" 
d="M776 -125l234 1325h-193l-235 -1333q-7 -49 -36.5 -76t-72.5 -27h-6q-47 0 -72 31t-18 80l108 619h-57q-167 0 -242.5 91.5t-44.5 258.5l39 221q29 160 128 244t259 84h576q51 0 74.5 -29t13.5 -80l-250 -1417q-7 -49 -36.5 -76t-72.5 -27h-6q-47 0 -72 31t-18 80z" />
    <glyph glyph-name="middot" unicode="&#xb7;" horiz-adv-x="589" 
d="M127 551l23 127q12 62 45 89.5t94 27.5h114q128 0 107 -123l-21 -127q-11 -60 -44.5 -88.5t-96.5 -28.5h-112q-63 0 -91 31.5t-18 91.5z" />
    <glyph glyph-name="cedilla" unicode="&#xb8;" horiz-adv-x="921" 
d="M547 -262l-2 -12q-12 -84 -74 -122t-182 -38h-131q-35 0 -55.5 20.5t-20.5 53.5q0 35 21.5 56t58.5 21h112q40 0 43 31l2 12q2 18 -4 25.5t-24 11.5l-33 6q-38 8 -46 39.5t17 81.5l54 105q13 29 29.5 40t43.5 11h54q49 0 28 -53l-45 -113q93 -20 129.5 -62t24.5 -114z
" />
    <glyph glyph-name="uni00B9" unicode="&#xb9;" horiz-adv-x="550" 
d="M444 791h-163q-46 0 -37 47l92 522l-33 -12q-37 -13 -53 -13q-32 0 -47.5 21t-9.5 59l4 25q6 39 22.5 62t50.5 36l97 39q68 29 120 29h74q74 0 62 -72l-123 -696q-2 -20 -17.5 -33.5t-38.5 -13.5z" />
    <glyph glyph-name="ordmasculine" unicode="&#xba;" horiz-adv-x="868" 
d="M164 961l31 174q25 135 129 208.5t270 73.5q180 0 268.5 -84t63.5 -233l-31 -174q-25 -135 -129.5 -210t-269.5 -75q-183 0 -270.5 85t-61.5 235zM451 1147l-41 -225q-21 -111 100 -111q57 0 87.5 24.5t41.5 75.5l41 226q21 112 -100 112q-57 0 -88 -24t-41 -78z" />
    <glyph glyph-name="uni00BB" unicode="&#xbb;" horiz-adv-x="1050" 
d="M498 463l-267 -264q-41 -41 -91 -44.5t-87 33.5q-35 36 -29 83t48 89l233 226l-149 217q-31 47 -22.5 94t52.5 78q44 29 93 17.5t81 -58.5l170 -246q79 -114 -32 -225zM948 463l-268 -264q-42 -39 -91 -42.5t-85 31.5q-35 37 -30.5 85.5t46.5 86.5l236 226l-152 217
q-31 44 -21 92.5t54 79.5q43 29 91.5 17.5t80.5 -58.5l172 -246q78 -114 -33 -225z" />
    <glyph glyph-name="onequarter" unicode="&#xbc;" horiz-adv-x="1624" 
d="M221 -16q-36 0 -63 25.5t-27 60.5q0 34 25 59l1095 1282q35 41 80 41q35 0 61.5 -25.5t26.5 -60.5q0 -34 -22 -59l-1098 -1282q-35 -41 -78 -41zM1473 162h-54l-22 -121q-1 -18 -15 -29.5t-32 -11.5h-170q-38 0 -35 41l22 121h-290q-85 0 -70 80l10 59q8 47 49 100
l277 355q23 29 45.5 41t54.5 12h225q33 0 48.5 -17t9.5 -47l-76 -411h41q35 0 52 -20.5t11 -53.5l-6 -35q-5 -29 -24.5 -46t-50.5 -17zM1012 328h184l64 340zM416 627h-164q-46 0 -37 47l92 522l-33 -12q-37 -13 -53 -13q-32 0 -47.5 21t-9.5 59l4 25q6 39 23 62t51 36
l96 39q68 29 121 29h73q74 0 62 -72l-123 -696q-2 -20 -17 -33.5t-38 -13.5z" />
    <glyph glyph-name="onehalf" unicode="&#xbd;" horiz-adv-x="1644" 
d="M221 -16q-36 0 -63 25.5t-27 60.5q0 34 25 59l1095 1282q35 41 80 41q35 0 61.5 -25.5t26.5 -60.5q0 -34 -22 -59l-1098 -1282q-35 -41 -78 -41zM1307 823q167 0 244 -64.5t57 -187.5l-9 -47q-14 -88 -65 -132.5t-168 -69.5l-164 -35q-34 -6 -50.5 -20.5t-21.5 -39.5
l-6 -34h328q38 0 58.5 -27t13.5 -68l-4 -22q-6 -35 -29.5 -55.5t-58.5 -20.5h-498q-76 0 -64 76l25 143q19 104 70 154.5t163 75.5l146 32q42 10 60 26.5t24 47.5l8 47q6 33 -12 49.5t-60 16.5q-81 0 -90 -60l-6 -35q-10 -41 -47 -41h-152q-41 0 -38 46l6 34q37 211 340 211
zM416 627h-164q-46 0 -37 47l92 522l-33 -12q-37 -13 -53 -13q-32 0 -47.5 21t-9.5 59l4 25q6 39 23 62t51 36l96 39q68 29 121 29h73q74 0 62 -72l-123 -696q-2 -20 -17 -33.5t-38 -13.5z" />
    <glyph glyph-name="threequarters" unicode="&#xbe;" horiz-adv-x="1845" 
d="M432 -16q-36 0 -63 25.5t-27 60.5q0 34 25 59l1095 1282q35 41 80 41q35 0 61.5 -25.5t26.5 -60.5q0 -34 -22 -59l-1098 -1282q-35 -41 -78 -41zM1692 162h-54l-22 -121q-1 -18 -15 -29.5t-32 -11.5h-170q-38 0 -35 41l22 121h-290q-85 0 -70 80l10 59q8 47 49 100
l277 355q23 29 45.5 41t54.5 12h226q33 0 48 -17t9 -47l-76 -411h41q35 0 52.5 -20.5t11.5 -53.5l-7 -35q-5 -29 -24.5 -46t-50.5 -17zM1231 328h184l64 340zM774 852l-6 -35q-19 -105 -106.5 -156t-251.5 -51q-171 0 -252 59t-62 169l2 12q1 20 16 31.5t38 11.5h147
q21 0 32 -12.5t7 -32.5l-2 -12q-6 -37 13.5 -53.5t68.5 -16.5q85 0 98 65l8 48q5 33 -12 52t-53 19h-66q-35 0 -52.5 20.5t-12.5 55.5l4 25q9 67 86 67h65q37 0 61.5 17.5t28.5 48.5l9 47q6 29 -14.5 46t-61.5 17q-89 0 -98 -55l-5 -25q-10 -40 -49 -40h-151q-46 0 -37 47
l4 24q39 205 348 205q174 0 254.5 -57.5t61.5 -169.5l-7 -35q-10 -62 -52 -99.5t-118 -54.5q141 -47 117 -182z" />
    <glyph glyph-name="questiondown" unicode="&#xbf;" horiz-adv-x="1069" 
d="M608 1053h101q126 0 104 -117l-20 -111q-12 -58 -43.5 -84t-90.5 -26h-100q-125 0 -104 116l20 111q12 58 43 84.5t90 26.5zM946 -2l-12 -74q-58 -358 -506 -358q-239 0 -353.5 109.5t-82.5 306.5l16 94q31 179 128 267.5t274 98.5l8 47q12 66 53 103t104 37h15
q67 0 102.5 -42t24.5 -110l-25 -147q-7 -47 -38 -73t-79 -26h-71q-80 0 -120.5 -38t-53.5 -130l-19 -108q-13 -85 19 -124.5t114 -39.5q85 0 128.5 36t56.5 120l8 51q4 32 25.5 51t52.5 19h176q31 0 45.5 -19t9.5 -51z" />
    <glyph glyph-name="Agrave" unicode="&#xc0;" horiz-adv-x="1353" 
d="M176 0h-135q-74 0 -74 59q0 38 35 109l539 1128q38 80 79.5 111t110.5 31h209q73 0 106 -32t44 -110l135 -1099q8 -55 8 -86q0 -52 -27 -81.5t-76 -29.5h-131q-41 0 -61.5 19t-24.5 63l-30 283h-461l-129 -283q-36 -82 -117 -82zM858 627l-59 567l-260 -567h319z
M776 1587l-137 129q-27 26 -23 58l2 12q8 35 48 35h151q32 0 49 -8.5t41 -38.5l103 -132q17 -20 14 -45l-2 -12q-9 -35 -47 -35h-98q-38 0 -58 7t-43 30z" />
    <glyph glyph-name="Aacute" unicode="&#xc1;" horiz-adv-x="1353" 
d="M176 0h-135q-74 0 -74 59q0 38 35 109l539 1128q38 80 79.5 111t110.5 31h209q73 0 106 -32t44 -110l135 -1099q8 -55 8 -86q0 -52 -27 -81.5t-76 -29.5h-131q-41 0 -61.5 19t-24.5 63l-30 283h-461l-129 -283q-36 -82 -117 -82zM858 627l-59 567l-260 -567h319z
M1133 1712l-160 -125q-27 -21 -50.5 -29t-60.5 -8h-121q-18 0 -27.5 10.5t-4.5 24.5l2 12q3 25 28 50l127 127q31 31 48 39t47 8h180q21 0 31 -10.5t6 -28.5l-2 -13q-12 -37 -43 -57z" />
    <glyph glyph-name="Acircumflex" unicode="&#xc2;" horiz-adv-x="1353" 
d="M176 0h-135q-74 0 -74 59q0 38 35 109l539 1128q38 80 79.5 111t110.5 31h209q73 0 106 -32t44 -110l135 -1099q8 -55 8 -86q0 -52 -27 -81.5t-76 -29.5h-131q-41 0 -61.5 19t-24.5 63l-30 283h-461l-129 -283q-36 -82 -117 -82zM858 627l-59 567l-260 -567h319z
M1174 1579q-23 -37 -66 -46t-84 15l-141 92l-191 -98q-41 -20 -77.5 -8t-55.5 51q-19 38 -3 75t60 60l222 111q35 18 61 18h4q28 0 58 -18l178 -113q41 -25 50.5 -61.5t-15.5 -77.5z" />
    <glyph glyph-name="Atilde" unicode="&#xc3;" horiz-adv-x="1353" 
d="M176 0h-135q-74 0 -74 59q0 38 35 109l539 1128q38 80 79.5 111t110.5 31h209q73 0 106 -32t44 -110l135 -1099q8 -55 8 -86q0 -52 -27 -81.5t-76 -29.5h-131q-41 0 -61.5 19t-24.5 63l-30 283h-461l-129 -283q-36 -82 -117 -82zM858 627l-59 567l-260 -567h319z
M1165 1612q-31 -31 -76 -49.5t-92 -18.5q-46 0 -85.5 15t-88.5 55q-40 35 -61 35q-14 0 -25 -10.5t-30 -41.5q-31 -53 -82 -53q-41 0 -67 25.5t-26 64.5q0 78 64 142q69 69 170 69q47 0 85 -15t87 -56q44 -35 63 -35q14 0 25.5 10.5t28.5 40.5q34 55 82 55q41 0 66.5 -25.5
t25.5 -66.5q0 -74 -64 -141z" />
    <glyph glyph-name="Adieresis" unicode="&#xc4;" horiz-adv-x="1353" 
d="M176 0h-135q-74 0 -74 59q0 38 35 109l539 1128q38 80 79.5 111t110.5 31h209q73 0 106 -32t44 -110l135 -1099q8 -55 8 -86q0 -52 -27 -81.5t-76 -29.5h-131q-41 0 -61.5 19t-24.5 63l-30 283h-461l-129 -283q-36 -82 -117 -82zM858 627l-59 567l-260 -567h319z
M561 1640l17 93q7 49 33.5 71.5t76.5 22.5h78q99 0 84 -96l-16 -93q-7 -49 -34 -71.5t-77 -22.5h-78q-99 0 -84 96zM1200 1731l-16 -93q-7 -49 -34 -71.5t-77 -22.5h-78q-99 0 -84 96l17 93q7 49 33.5 71.5t76.5 22.5h78q99 0 84 -96z" />
    <glyph glyph-name="Aring" unicode="&#xc5;" horiz-adv-x="1353" 
d="M176 0h-135q-74 0 -74 59q0 38 35 109l539 1128q43 87 92 119q-54 54 -39 146l4 24q34 205 287 205q129 0 193.5 -58t47.5 -157l-4 -25q-15 -97 -75 -143q34 -32 43 -111l135 -1099q8 -55 8 -86q0 -52 -27 -81.5t-76 -29.5h-131q-41 0 -61.5 19t-24.5 63l-30 283h-461
l-129 -283q-36 -82 -117 -82zM778 1581l-8 -47q-12 -84 72 -84q43 0 66 19t30 61l8 47q12 84 -74 84q-42 0 -64.5 -19t-29.5 -61zM858 627l-59 567l-260 -567h319z" />
    <glyph glyph-name="AE" unicode="&#xc6;" horiz-adv-x="1994" 
d="M1866 190l-21 -116q-12 -74 -90 -74h-776q-54 0 -80 31.5t-16 85.5l45 260h-434l-203 -311q-44 -66 -107 -66h-151q-74 0 -74 61q0 42 41 99l782 1157q44 65 89.5 91t113.5 26h1026q74 0 62 -74l-21 -117q-12 -72 -88 -72h-561l-55 -309h409q61 0 93 -37t22 -96l-2 -12
q-11 -57 -51 -89t-101 -32h-415l-60 -334h561q74 0 62 -72zM668 641h307l94 535h-53z" />
    <glyph glyph-name="Ccedilla" unicode="&#xc7;" horiz-adv-x="1337" 
d="M836 -262l-2 -12q-12 -84 -74 -122t-182 -38h-132q-35 0 -55 20.5t-20 53.5q0 35 21.5 56t58.5 21h112q40 0 43 31l2 12q2 18 -4 25.5t-24 11.5l-33 6q-38 8 -46 39.5t17 81.5l29 56q-233 25 -342 159.5t-72 354.5l86 485q41 235 202 357t429 122q282 0 410 -118t90 -341
l-11 -57q-5 -26 -23 -42.5t-44 -16.5h-215q-26 0 -38 15t-7 42l10 57q20 106 -27 155.5t-170 49.5q-110 0 -177.5 -56t-86.5 -165l-92 -528q-19 -109 31.5 -165.5t167.5 -56.5t176.5 48.5t79.5 158.5l12 70q9 59 65 59h216q54 0 45 -59l-17 -92q-37 -211 -169 -319
t-369 -120l-25 -63q93 -20 129.5 -62t24.5 -114z" />
    <glyph glyph-name="Egrave" unicode="&#xc8;" horiz-adv-x="1202" 
d="M971 0h-789q-56 0 -82 31.5t-16 85.5l211 1200q7 54 45 85.5t92 31.5h795q73 0 61 -74l-20 -117q-12 -72 -88 -72h-576l-55 -309h424q60 0 92 -36.5t22 -96.5l-2 -12q-11 -57 -50.5 -89t-100.5 -32h-430l-60 -334h576q73 0 61 -72l-20 -116q-12 -74 -90 -74zM741 1587
l-137 129q-26 26 -22 58l2 12q8 35 47 35h151q32 0 49 -8.5t41 -38.5l103 -132q17 -20 14 -45l-2 -12q-9 -35 -47 -35h-98q-38 0 -58 7t-43 30z" />
    <glyph glyph-name="Eacute" unicode="&#xc9;" horiz-adv-x="1202" 
d="M971 0h-789q-56 0 -82 31.5t-16 85.5l211 1200q7 54 45 85.5t92 31.5h795q73 0 61 -74l-20 -117q-12 -72 -88 -72h-576l-55 -309h424q60 0 92 -36.5t22 -96.5l-2 -12q-11 -57 -50.5 -89t-100.5 -32h-430l-60 -334h576q73 0 61 -72l-20 -116q-12 -74 -90 -74zM1098 1712
l-160 -125q-27 -21 -50.5 -29t-60.5 -8h-120q-18 0 -28 10.5t-5 24.5l2 12q3 24 29 50l126 127q31 31 48 39t47 8h180q21 0 31 -10.5t6 -28.5l-2 -13q-12 -37 -43 -57z" />
    <glyph glyph-name="Ecircumflex" unicode="&#xca;" horiz-adv-x="1202" 
d="M971 0h-789q-56 0 -82 31.5t-16 85.5l211 1200q7 54 45 85.5t92 31.5h795q73 0 61 -74l-20 -117q-12 -72 -88 -72h-576l-55 -309h424q60 0 92 -36.5t22 -96.5l-2 -12q-11 -57 -50.5 -89t-100.5 -32h-430l-60 -334h576q73 0 61 -72l-20 -116q-12 -74 -90 -74zM1139 1579
q-23 -37 -66 -46t-84 15l-141 92l-191 -98q-41 -20 -77.5 -8t-55.5 51q-18 38 -2.5 75t60.5 60l221 111q35 18 61 18h4q28 0 58 -18l178 -113q41 -25 50.5 -61.5t-15.5 -77.5z" />
    <glyph glyph-name="Edieresis" unicode="&#xcb;" horiz-adv-x="1202" 
d="M971 0h-789q-56 0 -82 31.5t-16 85.5l211 1200q7 54 45 85.5t92 31.5h795q73 0 61 -74l-20 -117q-12 -72 -88 -72h-576l-55 -309h424q60 0 92 -36.5t22 -96.5l-2 -12q-11 -57 -50.5 -89t-100.5 -32h-430l-60 -334h576q73 0 61 -72l-20 -116q-12 -74 -90 -74zM526 1640
l17 93q7 49 33.5 71.5t76.5 22.5h78q99 0 84 -96l-16 -93q-7 -49 -34 -71.5t-77 -22.5h-78q-99 0 -84 96zM1165 1731l-16 -93q-7 -49 -34 -71.5t-77 -22.5h-77q-99 0 -84 96l16 93q7 49 34 71.5t77 22.5h77q99 0 84 -96z" />
    <glyph glyph-name="Igrave" unicode="&#xcc;" horiz-adv-x="649" 
d="M319 0h-172q-38 0 -56.5 22.5t-12.5 59.5l223 1270q6 37 32.5 59.5t63.5 22.5h172q38 0 57 -22.5t13 -59.5l-223 -1270q-6 -37 -33 -59.5t-64 -22.5zM424 1587l-137 129q-27 26 -23 58l2 12q8 35 47 35h152q32 0 49 -8.5t41 -38.5l102 -132q18 -21 15 -45l-2 -12
q-9 -35 -47 -35h-99q-38 0 -57.5 7t-42.5 30z" />
    <glyph glyph-name="Iacute" unicode="&#xcd;" horiz-adv-x="649" 
d="M319 0h-172q-38 0 -56.5 22.5t-12.5 59.5l223 1270q6 37 32.5 59.5t63.5 22.5h172q38 0 57 -22.5t13 -59.5l-223 -1270q-6 -37 -33 -59.5t-64 -22.5zM780 1712l-159 -125q-27 -21 -50.5 -29t-60.5 -8h-121q-18 0 -28 10.5t-5 24.5l2 12q3 24 29 50l127 127q31 31 47.5 39
t46.5 8h180q21 0 31 -10.5t6 -28.5l-2 -13q-12 -37 -43 -57z" />
    <glyph glyph-name="Icircumflex" unicode="&#xce;" horiz-adv-x="649" 
d="M319 0h-172q-38 0 -56.5 22.5t-12.5 59.5l223 1270q6 37 32.5 59.5t63.5 22.5h172q38 0 57 -22.5t13 -59.5l-223 -1270q-6 -37 -33 -59.5t-64 -22.5zM823 1579q-23 -37 -65.5 -46t-83.5 15l-142 92l-190 -98q-41 -20 -77.5 -8t-55.5 51q-19 38 -3 75t60 60l221 111
q35 18 62 18h4q27 0 57 -18l178 -113q41 -25 50.5 -61.5t-15.5 -77.5z" />
    <glyph glyph-name="Idieresis" unicode="&#xcf;" horiz-adv-x="649" 
d="M319 0h-172q-38 0 -56.5 22.5t-12.5 59.5l223 1270q6 37 32.5 59.5t63.5 22.5h172q38 0 57 -22.5t13 -59.5l-223 -1270q-6 -37 -33 -59.5t-64 -22.5zM211 1640l16 93q7 49 34 71.5t77 22.5h78q99 0 84 -96l-17 -93q-7 -49 -33.5 -71.5t-76.5 -22.5h-78q-99 0 -84 96z
M850 1731l-16 -93q-7 -49 -34 -71.5t-77 -22.5h-78q-99 0 -84 96l17 93q7 49 33.5 71.5t76.5 22.5h78q99 0 84 -96z" />
    <glyph glyph-name="Eth" unicode="&#xd0;" horiz-adv-x="1431" 
d="M610 0h-411q-56 0 -82.5 31.5t-16.5 85.5l90 510h-57q-44 0 -71 26.5t-27 69.5q0 44 27 71t71 27h90l88 496q11 54 48 85.5t92 31.5h380q312 0 456 -147.5t97 -416.5l-59 -338q-47 -268 -225 -400t-490 -132zM698 627h-170l-65 -371h186q280 0 330 276l65 369
q25 141 -32 209t-203 68h-184l-64 -357h137q44 0 71.5 -27t27.5 -71q0 -43 -27.5 -69.5t-71.5 -26.5z" />
    <glyph glyph-name="Ntilde" unicode="&#xd1;" horiz-adv-x="1443" 
d="M283 0h-148q-37 0 -54 21.5t-11 58.5l217 1229q10 59 49.5 92t97.5 33h123q60 0 88 -22t51 -85l293 -821l150 848q6 37 31.5 58.5t60.5 21.5h147q37 0 54.5 -21.5t11.5 -58.5l-215 -1229q-11 -58 -51 -91.5t-99 -33.5h-114q-60 0 -88.5 21.5t-51.5 84.5l-301 828
l-149 -854q-6 -37 -31.5 -58.5t-60.5 -21.5zM1217 1612q-31 -31 -76 -49.5t-92 -18.5q-46 0 -86 15t-89 55q-40 35 -61 35q-14 0 -25 -10.5t-30 -41.5q-31 -53 -82 -53q-41 0 -66.5 25.5t-25.5 64.5q0 79 63 142q69 69 170 69q47 0 85 -15t87 -56q44 -35 64 -35
q14 0 25 10.5t28 40.5q34 55 82 55q41 0 66.5 -25.5t25.5 -66.5q0 -75 -63 -141z" />
    <glyph glyph-name="Ograve" unicode="&#xd2;" horiz-adv-x="1402" 
d="M633 -25q-287 0 -428 138q-142 139 -99 379l87 487q41 233 208 356t439 123q286 0 428 -139q141 -138 98 -377l-86 -487q-41 -233 -208 -356.5t-439 -123.5zM657 231q240 0 281 228l90 516q20 110 -34.5 168.5t-178.5 58.5q-239 0 -280 -227l-91 -516
q-20 -111 34.5 -169.5t178.5 -58.5zM791 1587l-138 129q-26 26 -22 58l2 12q8 35 47 35h151q32 0 49.5 -8.5t41.5 -38.5l102 -132q17 -20 14 -45l-2 -12q-9 -35 -47 -35h-98q-38 0 -57.5 7t-42.5 30z" />
    <glyph glyph-name="Oacute" unicode="&#xd3;" horiz-adv-x="1402" 
d="M633 -25q-287 0 -428 138q-142 139 -99 379l87 487q41 233 208 356t439 123q286 0 428 -139q141 -138 98 -377l-86 -487q-41 -233 -208 -356.5t-439 -123.5zM657 231q240 0 281 228l90 516q20 110 -34.5 168.5t-178.5 58.5q-239 0 -280 -227l-91 -516
q-20 -111 34.5 -169.5t178.5 -58.5zM1149 1712l-160 -125q-27 -21 -50 -29t-60 -8h-121q-18 0 -28 10.5t-5 24.5l2 12q3 24 29 50l127 127q31 31 47.5 39t46.5 8h180q21 0 31 -10.5t6 -28.5l-2 -13q-12 -37 -43 -57z" />
    <glyph glyph-name="Ocircumflex" unicode="&#xd4;" horiz-adv-x="1402" 
d="M633 -25q-287 0 -428 138q-142 139 -99 379l87 487q41 233 208 356t439 123q286 0 428 -139q141 -138 98 -377l-86 -487q-41 -233 -208 -356.5t-439 -123.5zM657 231q240 0 281 228l90 516q20 110 -34.5 168.5t-178.5 58.5q-239 0 -280 -227l-91 -516
q-20 -111 34.5 -169.5t178.5 -58.5zM1190 1579q-23 -37 -66 -46t-84 15l-141 92l-190 -98q-41 -20 -78 -8t-56 51q-18 38 -2.5 75t60.5 60l221 111q35 18 61 18h5q27 0 57 -18l178 -113q41 -25 50.5 -61.5t-15.5 -77.5z" />
    <glyph glyph-name="Otilde" unicode="&#xd5;" horiz-adv-x="1402" 
d="M633 -25q-287 0 -428 138q-142 139 -99 379l87 487q41 233 208 356t439 123q286 0 428 -139q141 -138 98 -377l-86 -487q-41 -233 -208 -356.5t-439 -123.5zM657 231q240 0 281 228l90 516q20 110 -34.5 168.5t-178.5 58.5q-239 0 -280 -227l-91 -516
q-20 -111 34.5 -169.5t178.5 -58.5zM1182 1612q-31 -31 -76 -49.5t-92 -18.5q-46 0 -85.5 15t-88.5 55q-40 35 -62 35q-14 0 -25 -10.5t-30 -41.5q-31 -53 -82 -53q-41 0 -66.5 25.5t-25.5 64.5q0 79 63 142q69 69 170 69q47 0 85 -15t87 -56q44 -35 64 -35q14 0 25 10.5
t28 40.5q34 55 82 55q41 0 66.5 -25.5t25.5 -66.5q0 -75 -63 -141z" />
    <glyph glyph-name="Odieresis" unicode="&#xd6;" horiz-adv-x="1402" 
d="M633 -25q-287 0 -428 138q-142 139 -99 379l87 487q41 233 208 356t439 123q286 0 428 -139q141 -138 98 -377l-86 -487q-41 -233 -208 -356.5t-439 -123.5zM657 231q240 0 281 228l90 516q20 110 -34.5 168.5t-178.5 58.5q-239 0 -280 -227l-91 -516
q-20 -111 34.5 -169.5t178.5 -58.5zM578 1640l16 93q7 49 34 71.5t77 22.5h77q99 0 84 -96l-16 -93q-7 -49 -34 -71.5t-77 -22.5h-77q-99 0 -84 96zM1217 1731l-17 -93q-7 -49 -33.5 -71.5t-76.5 -22.5h-78q-99 0 -84 96l16 93q7 49 34 71.5t77 22.5h78q99 0 84 -96z" />
    <glyph glyph-name="multiply" unicode="&#xd7;" 
d="M819 285l-186 225l-285 -242q-47 -38 -101 -36.5t-89 44.5q-37 44 -30 97.5t54 91.5l287 244l-188 227q-37 44 -33.5 98t47.5 90q44 37 96 31.5t90 -49.5l189 -225l282 241q44 39 99 36.5t92 -44.5q37 -44 29.5 -97t-54.5 -91l-284 -244l188 -227q37 -44 32.5 -97.5
t-48.5 -91.5q-44 -37 -97 -31t-90 50z" />
    <glyph glyph-name="Oslash" unicode="&#xd8;" horiz-adv-x="1402" 
d="M125 -252q-37 23 -45.5 63t16.5 78l133 207q-162 141 -116 396l86 487q41 233 208 356t439 123q121 0 223 -26l119 190q24 37 63 46t78 -15q37 -23 45 -62t-16 -80l-109 -170q170 -140 123 -399l-86 -487q-41 -233 -208 -356.5t-439 -123.5q-121 0 -231 29l-142 -225
q-24 -37 -63 -46t-78 15zM664 231q239 0 280 228l90 516q20 110 -34.5 168.5t-178.5 58.5q-239 0 -280 -227l-90 -516q-20 -111 34.5 -169.5t178.5 -58.5z" />
    <glyph glyph-name="Ugrave" unicode="&#xd9;" horiz-adv-x="1402" 
d="M631 -25q-278 0 -410.5 134.5t-91.5 373.5l152 869q6 37 33 59.5t65 22.5h168q38 0 56.5 -22.5t12.5 -59.5l-157 -895q-19 -106 32 -162.5t166 -56.5q110 0 178 56.5t87 162.5l157 895q6 37 33 59.5t64 22.5h170q37 0 55 -22.5t12 -59.5l-160 -906q-41 -232 -199 -351.5
t-423 -119.5zM801 1587l-137 129q-26 26 -23 58l2 12q8 35 47 35h152q32 0 49 -8.5t41 -38.5l102 -132q18 -21 15 -45l-2 -12q-9 -35 -48 -35h-98q-38 0 -57.5 7t-42.5 30z" />
    <glyph glyph-name="Uacute" unicode="&#xda;" horiz-adv-x="1402" 
d="M631 -25q-278 0 -410.5 134.5t-91.5 373.5l152 869q6 37 33 59.5t65 22.5h168q38 0 56.5 -22.5t12.5 -59.5l-157 -895q-19 -106 32 -162.5t166 -56.5q110 0 178 56.5t87 162.5l157 895q6 37 33 59.5t64 22.5h170q37 0 55 -22.5t12 -59.5l-160 -906q-41 -232 -199 -351.5
t-423 -119.5zM1159 1712l-160 -125q-27 -21 -50 -29t-60 -8h-121q-18 0 -28 10.5t-5 24.5l2 12q3 24 29 50l127 127q31 31 47.5 39t46.5 8h180q21 0 31 -10.5t6 -28.5l-2 -13q-12 -37 -43 -57z" />
    <glyph glyph-name="Ucircumflex" unicode="&#xdb;" horiz-adv-x="1402" 
d="M631 -25q-278 0 -410.5 134.5t-91.5 373.5l152 869q6 37 33 59.5t65 22.5h168q38 0 56.5 -22.5t12.5 -59.5l-157 -895q-19 -106 32 -162.5t166 -56.5q110 0 178 56.5t87 162.5l157 895q6 37 33 59.5t64 22.5h170q37 0 55 -22.5t12 -59.5l-160 -906q-41 -232 -199 -351.5
t-423 -119.5zM1200 1579q-23 -37 -65.5 -46t-83.5 15l-142 92l-190 -98q-41 -20 -77.5 -8t-55.5 51q-19 38 -3 75t60 60l221 111q35 18 62 18h4q27 0 57 -18l178 -113q41 -25 50.5 -61.5t-15.5 -77.5z" />
    <glyph glyph-name="Udieresis" unicode="&#xdc;" horiz-adv-x="1402" 
d="M631 -25q-278 0 -410.5 134.5t-91.5 373.5l152 869q6 37 33 59.5t65 22.5h168q38 0 56.5 -22.5t12.5 -59.5l-157 -895q-19 -106 32 -162.5t166 -56.5q110 0 178 56.5t87 162.5l157 895q6 37 33 59.5t64 22.5h170q37 0 55 -22.5t12 -59.5l-160 -906q-41 -232 -199 -351.5
t-423 -119.5zM588 1640l16 93q7 49 34 71.5t77 22.5h78q99 0 84 -96l-17 -93q-7 -49 -33.5 -71.5t-76.5 -22.5h-78q-99 0 -84 96zM1227 1731l-17 -93q-7 -49 -33.5 -71.5t-76.5 -22.5h-78q-99 0 -84 96l16 93q7 49 34 71.5t77 22.5h78q99 0 84 -96z" />
    <glyph glyph-name="Yacute" unicode="&#xdd;" horiz-adv-x="1263" 
d="M627 0h-174q-37 0 -55.5 22.5t-12.5 59.5l86 483l-278 699q-21 56 -21 77q0 43 26 68t70 25h142q41 0 63.5 -16.5t36.5 -55.5l184 -485l346 485q29 41 55.5 56.5t67.5 15.5h152q71 0 71 -60q0 -41 -53 -112l-528 -713l-82 -467q-6 -37 -32.5 -59.5t-63.5 -22.5z
M1083 1712l-159 -125q-27 -21 -50.5 -29t-60.5 -8h-121q-18 0 -28 10.5t-5 24.5l3 12q3 25 28 50l127 127q31 31 47.5 39t46.5 8h181q21 0 30.5 -10.5t5.5 -28.5l-2 -13q-12 -37 -43 -57z" />
    <glyph glyph-name="Thorn" unicode="&#xde;" horiz-adv-x="1335" 
d="M315 0h-174q-37 0 -55 22.5t-12 59.5l223 1270q6 37 32.5 59.5t63.5 22.5h174q37 0 55.5 -22.5t12.5 -59.5l-31 -174h227q263 0 379.5 -106.5t79.5 -313.5l-18 -105q-35 -198 -170 -292.5t-385 -94.5h-273l-32 -184q-6 -37 -33 -59.5t-64 -22.5zM782 928h-221l-74 -412
h236q96 0 147 39.5t68 126.5l14 82q17 86 -24 125t-146 39z" />
    <glyph glyph-name="germandbls" unicode="&#xdf;" horiz-adv-x="1257" 
d="M291 0h-178q-35 0 -52.5 20.5t-11.5 55.5l178 1011q64 371 551 371q226 0 344.5 -76.5t118.5 -222.5q0 -76 -28 -134.5t-95 -117.5l-102 -92q-35 -32 -35 -63q0 -27 37 -72l82 -107q44 -57 62 -104t18 -104q0 -164 -109 -267q-106 -100 -285 -100h-163q-57 0 -84 29.5
t-17 83.5l8 41q10 49 39.5 71.5t83.5 22.5h99q44 0 70 20.5t26 55.5q0 37 -29 71l-102 135q-64 80 -64 160q0 138 99 223l92 82q43 39 58.5 66.5t15.5 68.5q0 97 -158 97q-182 0 -205 -152l-176 -997q-6 -35 -29.5 -55.5t-58.5 -20.5z" />
    <glyph glyph-name="agrave" unicode="&#xe0;" horiz-adv-x="1175" 
d="M428 -25q-201 0 -301 88t-74 242l6 35q25 143 135.5 209.5t325.5 66.5q101 0 215 -24l25 139q11 56 -21.5 82.5t-111.5 26.5q-71 0 -106.5 -20.5t-43.5 -65.5l-2 -13q-8 -43 -47 -43h-221q-46 0 -37 50l4 24q49 295 475 295q240 0 350.5 -94.5t79.5 -274.5l-71 -409
l53 -53q35 -35 36 -76.5t-32 -73.5l-74 -72q-33 -33 -73.5 -33t-75.5 35l-92 93q-116 -134 -322 -134zM377 336l-4 -25q-21 -112 135 -112q69 0 119 35.5t61 91.5l17 92q-84 20 -156 20q-79 0 -120.5 -24t-51.5 -78zM578 1206l-138 129q-26 26 -22 58l2 12q8 35 47 35h151
q32 0 49.5 -8.5t41.5 -38.5l102 -131q17 -20 14 -45l-2 -13q-9 -35 -47 -35h-98q-38 0 -57.5 7t-42.5 30z" />
    <glyph glyph-name="aacute" unicode="&#xe1;" horiz-adv-x="1175" 
d="M428 -25q-201 0 -301 88t-74 242l6 35q25 143 135.5 209.5t325.5 66.5q101 0 215 -24l25 139q11 56 -21.5 82.5t-111.5 26.5q-71 0 -106.5 -20.5t-43.5 -65.5l-2 -13q-8 -43 -47 -43h-221q-46 0 -37 50l4 24q49 295 475 295q240 0 350.5 -94.5t79.5 -274.5l-71 -409
l53 -53q35 -35 36 -76.5t-32 -73.5l-74 -72q-33 -33 -73.5 -33t-75.5 35l-92 93q-116 -134 -322 -134zM377 336l-4 -25q-21 -112 135 -112q69 0 119 35.5t61 91.5l17 92q-84 20 -156 20q-79 0 -120.5 -24t-51.5 -78zM934 1331l-160 -125q-27 -21 -50 -29t-60 -8h-121
q-18 0 -28 10.5t-5 24.5l2 13q3 23 29 49l127 127q31 31 47.5 39t46.5 8h180q21 0 31 -10.5t6 -28.5l-2 -12q-13 -39 -43 -58z" />
    <glyph glyph-name="acircumflex" unicode="&#xe2;" horiz-adv-x="1175" 
d="M428 -25q-201 0 -301 88t-74 242l6 35q25 143 135.5 209.5t325.5 66.5q101 0 215 -24l25 139q11 56 -21.5 82.5t-111.5 26.5q-71 0 -106.5 -20.5t-43.5 -65.5l-2 -13q-8 -43 -47 -43h-221q-46 0 -37 50l4 24q49 295 475 295q240 0 350.5 -94.5t79.5 -274.5l-71 -409
l53 -53q35 -35 36 -76.5t-32 -73.5l-74 -72q-33 -33 -73.5 -33t-75.5 35l-92 93q-116 -134 -322 -134zM377 336l-4 -25q-21 -112 135 -112q69 0 119 35.5t61 91.5l17 92q-84 20 -156 20q-79 0 -120.5 -24t-51.5 -78zM977 1198q-23 -37 -66 -46t-84 15l-141 93l-190 -99
q-41 -20 -78 -8t-56 51q-18 38 -2.5 75t60.5 60l221 111q35 18 61 18h5q27 0 57 -18l178 -113q41 -25 50.5 -61.5t-15.5 -77.5z" />
    <glyph glyph-name="atilde" unicode="&#xe3;" horiz-adv-x="1175" 
d="M428 -25q-201 0 -301 88t-74 242l6 35q25 143 135.5 209.5t325.5 66.5q101 0 215 -24l25 139q11 56 -21.5 82.5t-111.5 26.5q-71 0 -106.5 -20.5t-43.5 -65.5l-2 -13q-8 -43 -47 -43h-221q-46 0 -37 50l4 24q49 295 475 295q240 0 350.5 -94.5t79.5 -274.5l-71 -409
l53 -53q35 -35 36 -76.5t-32 -73.5l-74 -72q-33 -33 -73.5 -33t-75.5 35l-92 93q-116 -134 -322 -134zM377 336l-4 -25q-21 -112 135 -112q69 0 119 35.5t61 91.5l17 92q-84 20 -156 20q-79 0 -120.5 -24t-51.5 -78zM969 1231q-31 -31 -76 -49.5t-92 -18.5q-46 0 -85.5 15
t-88.5 55q-40 35 -62 35q-14 0 -25.5 -10.5t-29.5 -40.5q-32 -54 -82 -54q-41 0 -66.5 25.5t-25.5 64.5q0 79 63 142q69 69 170 69q47 0 85 -15t87 -56q44 -35 64 -35q14 0 25 10.5t28 40.5q34 55 82 55q41 0 66.5 -25.5t25.5 -66.5q0 -75 -63 -141z" />
    <glyph glyph-name="adieresis" unicode="&#xe4;" horiz-adv-x="1175" 
d="M428 -25q-201 0 -301 88t-74 242l6 35q25 143 135.5 209.5t325.5 66.5q101 0 215 -24l25 139q11 56 -21.5 82.5t-111.5 26.5q-71 0 -106.5 -20.5t-43.5 -65.5l-2 -13q-8 -43 -47 -43h-221q-46 0 -37 50l4 24q49 295 475 295q240 0 350.5 -94.5t79.5 -274.5l-71 -409
l53 -53q35 -35 36 -76.5t-32 -73.5l-74 -72q-33 -33 -73.5 -33t-75.5 35l-92 93q-116 -134 -322 -134zM377 336l-4 -25q-21 -112 135 -112q69 0 119 35.5t61 91.5l17 92q-84 20 -156 20q-79 0 -120.5 -24t-51.5 -78zM365 1260l16 92q7 49 34 71.5t77 22.5h77q99 0 84 -96
l-16 -93q-7 -49 -34 -71.5t-77 -22.5h-77q-99 0 -84 97zM1004 1350l-17 -93q-7 -49 -33.5 -71.5t-76.5 -22.5h-78q-99 0 -84 97l16 92q7 49 34 71.5t77 22.5h78q99 0 84 -96z" />
    <glyph glyph-name="aring" unicode="&#xe5;" horiz-adv-x="1175" 
d="M428 -25q-201 0 -301 88t-74 242l6 35q25 143 135.5 209.5t325.5 66.5q101 0 215 -24l25 139q11 56 -21.5 82.5t-111.5 26.5q-71 0 -106.5 -20.5t-43.5 -65.5l-2 -13q-8 -43 -47 -43h-221q-46 0 -37 50l4 24q49 295 475 295q240 0 350.5 -94.5t79.5 -274.5l-71 -409
l53 -53q35 -35 36 -76.5t-32 -73.5l-74 -72q-33 -33 -73.5 -33t-75.5 35l-92 93q-116 -134 -322 -134zM377 336l-4 -25q-21 -112 135 -112q69 0 119 35.5t61 91.5l17 92q-84 20 -156 20q-79 0 -120.5 -24t-51.5 -78zM668 1141q-123 0 -186 53t-46 143l6 35q17 96 83 141.5
t188 45.5q123 0 185.5 -53t45.5 -144l-6 -35q-17 -96 -82.5 -141t-187.5 -45zM678 1262q78 0 90 71l6 35q6 35 -11.5 52.5t-60.5 17.5q-78 0 -90 -72l-6 -35q-6 -35 11.5 -52t60.5 -17z" />
    <glyph glyph-name="ae" unicode="&#xe6;" horiz-adv-x="1769" 
d="M967 985q125 82 331 82q235 0 347 -110t77 -308l-22 -129q-15 -94 -107 -94h-565l-14 -84q-14 -80 24 -113.5t142 -33.5q76 0 112 20.5t43 69.5l2 12q8 31 39 31h234q41 0 32 -39l-4 -25q-26 -152 -141 -220.5t-342 -68.5q-136 0 -235.5 40.5t-153.5 115.5
q-56 -75 -143 -115.5t-195 -40.5q-201 0 -301 88t-74 242l6 35q25 143 135.5 209.5t325.5 66.5q101 0 215 -24l25 139q11 56 -21.5 82.5t-111.5 26.5q-71 0 -106.5 -20.5t-43.5 -65.5l-2 -13q-8 -43 -47 -43h-221q-46 0 -37 50l4 24q49 295 475 295q211 0 318 -82zM1270 852
q-86 0 -133 -38t-60 -120l-12 -69h338l12 69q14 82 -20.5 120t-124.5 38zM377 336l-4 -25q-21 -112 135 -112q69 0 119 35.5t61 91.5l17 92q-84 20 -156 20q-79 0 -120.5 -24t-51.5 -78z" />
    <glyph glyph-name="ccedilla" unicode="&#xe7;" horiz-adv-x="1153" 
d="M735 -262l-2 -12q-12 -84 -74 -122t-182 -38h-131q-35 0 -55.5 20.5t-20.5 53.5q0 35 21.5 56t58.5 21h113q40 0 43 31l2 12q2 17 -4 25t-25 12l-33 6q-38 7 -45.5 39.5t17.5 81.5l28 56q-197 25 -289.5 137.5t-60.5 290.5l45 251q35 196 177.5 302t371.5 106
q232 0 348.5 -92t87.5 -252l-8 -47q-5 -25 -23 -40t-44 -15h-207q-25 0 -36.5 14t-6.5 39l6 35q12 61 -23 89.5t-122 28.5q-160 0 -187 -161l-51 -289q-13 -84 21 -122t122 -38q82 0 124 29.5t52 95.5l7 35q5 23 20.5 37t38.5 14h209q25 0 37.5 -15t7.5 -40l-10 -58
q-29 -160 -139 -243t-308 -95l-24 -63q93 -20 129 -62t24 -114z" />
    <glyph glyph-name="egrave" unicode="&#xe8;" horiz-adv-x="1165" 
d="M551 -25q-246 0 -369 111t-88 303l49 277q35 198 174.5 299.5t374.5 101.5q238 0 352.5 -111t79.5 -307l-22 -129q-15 -94 -107 -94h-569l-14 -84q-14 -80 24 -113.5t142 -33.5q79 0 115.5 20.5t43.5 69.5l2 12q8 31 39 31h234q41 0 32 -39l-4 -25
q-26 -152 -141.5 -220.5t-347.5 -68.5zM668 852q-86 0 -133 -38t-60 -120l-12 -69h342l12 69q14 82 -21.5 120t-127.5 38zM614 1206l-137 129q-26 26 -22 58l2 12q8 35 47 35h151q32 0 49 -8.5t41 -38.5l103 -131q17 -20 14 -45l-2 -13q-9 -35 -47 -35h-98q-38 0 -58 7
t-43 30z" />
    <glyph glyph-name="eacute" unicode="&#xe9;" horiz-adv-x="1165" 
d="M551 -25q-246 0 -369 111t-88 303l49 277q35 198 174.5 299.5t374.5 101.5q238 0 352.5 -111t79.5 -307l-22 -129q-15 -94 -107 -94h-569l-14 -84q-14 -80 24 -113.5t142 -33.5q79 0 115.5 20.5t43.5 69.5l2 12q8 31 39 31h234q41 0 32 -39l-4 -25
q-26 -152 -141.5 -220.5t-347.5 -68.5zM668 852q-86 0 -133 -38t-60 -120l-12 -69h342l12 69q14 82 -21.5 120t-127.5 38zM971 1331l-160 -125q-27 -21 -50.5 -29t-60.5 -8h-120q-18 0 -28 10.5t-5 24.5l2 13q3 23 29 49l127 127q31 31 47.5 39t46.5 8h180q21 0 31 -10.5
t6 -28.5l-2 -12q-13 -39 -43 -58z" />
    <glyph glyph-name="ecircumflex" unicode="&#xea;" horiz-adv-x="1165" 
d="M551 -25q-246 0 -369 111t-88 303l49 277q35 198 174.5 299.5t374.5 101.5q238 0 352.5 -111t79.5 -307l-22 -129q-15 -94 -107 -94h-569l-14 -84q-14 -80 24 -113.5t142 -33.5q79 0 115.5 20.5t43.5 69.5l2 12q8 31 39 31h234q41 0 32 -39l-4 -25
q-26 -152 -141.5 -220.5t-347.5 -68.5zM668 852q-86 0 -133 -38t-60 -120l-12 -69h342l12 69q14 82 -21.5 120t-127.5 38zM1014 1198q-23 -37 -66 -46t-84 15l-141 93l-191 -99q-41 -20 -77.5 -8t-55.5 51q-18 38 -2.5 75t60.5 60l221 111q35 18 61 18h4q28 0 58 -18
l178 -113q41 -25 50.5 -61.5t-15.5 -77.5z" />
    <glyph glyph-name="edieresis" unicode="&#xeb;" horiz-adv-x="1165" 
d="M551 -25q-246 0 -369 111t-88 303l49 277q35 198 174.5 299.5t374.5 101.5q238 0 352.5 -111t79.5 -307l-22 -129q-15 -94 -107 -94h-569l-14 -84q-14 -80 24 -113.5t142 -33.5q79 0 115.5 20.5t43.5 69.5l2 12q8 31 39 31h234q41 0 32 -39l-4 -25
q-26 -152 -141.5 -220.5t-347.5 -68.5zM668 852q-86 0 -133 -38t-60 -120l-12 -69h342l12 69q14 82 -21.5 120t-127.5 38zM401 1260l17 92q7 49 33.5 71.5t76.5 22.5h78q99 0 84 -96l-16 -93q-7 -49 -34 -71.5t-77 -22.5h-78q-99 0 -84 97zM1040 1350l-16 -93
q-7 -49 -34 -71.5t-77 -22.5h-77q-99 0 -84 97l16 92q7 49 34 71.5t77 22.5h77q99 0 84 -96z" />
    <glyph glyph-name="igrave" unicode="&#xec;" horiz-adv-x="712" 
d="M524 0h-121q-316 0 -258 293l97 506h-103q-25 0 -37.5 15t-7.5 38l25 139q4 23 22 37t43 14h336q49 0 67.5 -23.5t10.5 -74.5l-121 -643q-5 -29 4 -41t35 -12h68q25 0 36.5 -16t6.5 -42l-21 -116q-12 -74 -82 -74zM360 1206l-137 129q-26 26 -22 58l2 12q8 35 47 35h151
q32 0 49.5 -8.5t41.5 -38.5l102 -131q17 -20 14 -45l-2 -13q-9 -35 -47 -35h-98q-38 0 -58 7t-43 30z" />
    <glyph glyph-name="iacute" unicode="&#xed;" horiz-adv-x="712" 
d="M524 0h-121q-316 0 -258 293l97 506h-103q-25 0 -37.5 15t-7.5 38l25 139q4 23 22 37t43 14h336q49 0 67.5 -23.5t10.5 -74.5l-121 -643q-5 -29 4 -41t35 -12h68q25 0 36.5 -16t6.5 -42l-21 -116q-12 -74 -82 -74zM717 1331l-160 -125q-27 -21 -50.5 -29t-60.5 -8h-120
q-18 0 -28 10.5t-5 24.5l2 13q3 23 29 49l127 127q31 31 47.5 39t46.5 8h180q21 0 31 -10.5t6 -28.5l-2 -12q-13 -39 -43 -58z" />
    <glyph glyph-name="icircumflex" unicode="&#xee;" horiz-adv-x="712" 
d="M524 0h-121q-316 0 -258 293l97 506h-103q-25 0 -37.5 15t-7.5 38l25 139q4 23 22 37t43 14h336q49 0 67.5 -23.5t10.5 -74.5l-121 -643q-5 -29 4 -41t35 -12h68q25 0 36.5 -16t6.5 -42l-21 -116q-12 -74 -82 -74zM758 1198q-23 -37 -66 -46t-84 15l-141 93l-191 -99
q-41 -20 -77.5 -8t-55.5 51q-18 38 -2.5 75t60.5 60l221 111q35 18 61 18h4q28 0 58 -18l178 -113q41 -25 50.5 -61.5t-15.5 -77.5z" />
    <glyph glyph-name="idieresis" unicode="&#xef;" horiz-adv-x="712" 
d="M524 0h-121q-316 0 -258 293l97 506h-103q-25 0 -37.5 15t-7.5 38l25 139q4 23 22 37t43 14h336q49 0 67.5 -23.5t10.5 -74.5l-121 -643q-5 -29 4 -41t35 -12h68q25 0 36.5 -16t6.5 -42l-21 -116q-12 -74 -82 -74zM145 1260l17 92q7 49 33.5 71.5t76.5 22.5h78
q99 0 84 -96l-16 -93q-7 -49 -34 -71.5t-77 -22.5h-78q-99 0 -84 97zM784 1350l-16 -93q-7 -49 -34 -71.5t-77 -22.5h-77q-99 0 -84 97l16 92q7 49 34 71.5t77 22.5h77q99 0 84 -96z" />
    <glyph glyph-name="eth" unicode="&#xf0;" horiz-adv-x="1196" 
d="M563 -25q-253 0 -377.5 116.5t-89.5 320.5l31 178q31 173 153 267.5t314 94.5q151 0 244 -80q-24 76 -103 144l-69 59l-168 -59q-42 -14 -76 2t-47 57q-14 42 2 75t57 46l70 25q-37 44 -35.5 95.5t39.5 92.5q45 45 104 46t111 -46l90 -80l164 60q42 14 76 -1.5t47 -56.5
q14 -41 -2.5 -74.5t-57.5 -46.5l-67 -24q128 -121 169.5 -247.5t10.5 -299.5l-47 -270q-32 -192 -171.5 -293t-371.5 -101zM578 213q170 0 196 160l39 215q14 75 -26 115t-130 40q-81 0 -130.5 -40t-63.5 -115l-39 -215q-14 -82 24 -121t130 -39z" />
    <glyph glyph-name="ntilde" unicode="&#xf1;" horiz-adv-x="1257" 
d="M322 0h-179q-35 0 -52 20.5t-11 55.5l119 678l-54 53q-35 35 -36 75t32 72l74 74q32 33 73.5 32t76.5 -36l104 -104q116 147 330 147q201 0 300 -116t64 -312l-98 -563q-6 -35 -29.5 -55.5t-58.5 -20.5h-180q-35 0 -51.5 20.5t-10.5 55.5l101 569q14 82 -22 125t-118 43
q-158 0 -186 -168l-100 -569q-6 -35 -29.5 -55.5t-58.5 -20.5zM1067 1231q-31 -31 -76 -49.5t-92 -18.5q-46 0 -85.5 15t-88.5 55q-40 35 -61 35q-14 0 -26 -10.5t-30 -40.5q-32 -54 -82 -54q-41 0 -66.5 25.5t-25.5 64.5q0 78 64 142q69 69 170 69q47 0 85 -15t87 -56
q44 -35 63 -35q14 0 25 10.5t28 40.5q34 55 82 55q41 0 66.5 -25.5t25.5 -66.5q0 -75 -63 -141z" />
    <glyph glyph-name="ograve" unicode="&#xf2;" horiz-adv-x="1202" 
d="M528 -25q-246 0 -369.5 117t-86.5 318l45 252q35 195 180.5 300t380.5 105q247 0 370.5 -116.5t86.5 -317.5l-45 -252q-35 -195 -181 -300.5t-381 -105.5zM555 215q86 0 135 39.5t66 124.5l51 285q17 84 -22 123.5t-134 39.5q-86 0 -134.5 -39t-65.5 -124l-52 -285
q-17 -84 22 -124t134 -40zM627 1206l-138 129q-26 26 -22 58l2 12q8 35 47 35h152q32 0 49 -8.5t41 -38.5l102 -131q17 -20 14 -45l-2 -13q-9 -35 -47 -35h-98q-38 0 -57.5 7t-42.5 30z" />
    <glyph glyph-name="oacute" unicode="&#xf3;" horiz-adv-x="1202" 
d="M528 -25q-246 0 -369.5 117t-86.5 318l45 252q35 195 180.5 300t380.5 105q247 0 370.5 -116.5t86.5 -317.5l-45 -252q-35 -195 -181 -300.5t-381 -105.5zM555 215q86 0 135 39.5t66 124.5l51 285q17 84 -22 123.5t-134 39.5q-86 0 -134.5 -39t-65.5 -124l-52 -285
q-17 -84 22 -124t134 -40zM985 1331l-160 -125q-27 -21 -50 -29t-60 -8h-121q-18 0 -28 10.5t-5 24.5l2 13q3 23 29 49l127 127q31 31 47.5 39t46.5 8h180q21 0 31 -10.5t6 -28.5l-2 -12q-13 -39 -43 -58z" />
    <glyph glyph-name="ocircumflex" unicode="&#xf4;" horiz-adv-x="1202" 
d="M528 -25q-246 0 -369.5 117t-86.5 318l45 252q35 195 180.5 300t380.5 105q247 0 370.5 -116.5t86.5 -317.5l-45 -252q-35 -195 -181 -300.5t-381 -105.5zM555 215q86 0 135 39.5t66 124.5l51 285q17 84 -22 123.5t-134 39.5q-86 0 -134.5 -39t-65.5 -124l-52 -285
q-17 -84 22 -124t134 -40zM1026 1198q-23 -37 -65.5 -46t-83.5 15l-142 93l-190 -99q-41 -20 -77.5 -8t-55.5 51q-19 38 -3 75t60 60l221 111q35 18 62 18h4q27 0 57 -18l178 -113q41 -25 50.5 -61.5t-15.5 -77.5z" />
    <glyph glyph-name="otilde" unicode="&#xf5;" horiz-adv-x="1202" 
d="M528 -25q-246 0 -369.5 117t-86.5 318l45 252q35 195 180.5 300t380.5 105q247 0 370.5 -116.5t86.5 -317.5l-45 -252q-35 -195 -181 -300.5t-381 -105.5zM555 215q86 0 135 39.5t66 124.5l51 285q17 84 -22 123.5t-134 39.5q-86 0 -134.5 -39t-65.5 -124l-52 -285
q-17 -84 22 -124t134 -40zM1018 1231q-31 -31 -76 -49.5t-92 -18.5q-46 0 -85.5 15t-88.5 55q-40 35 -62 35q-14 0 -25.5 -10.5t-29.5 -40.5q-32 -54 -82 -54q-41 0 -66.5 25.5t-25.5 64.5q0 78 64 142q69 69 169 69q47 0 85.5 -15t87.5 -56q44 -35 63 -35q14 0 25 10.5
t28 40.5q34 55 82 55q41 0 66.5 -25.5t25.5 -66.5q0 -75 -63 -141z" />
    <glyph glyph-name="odieresis" unicode="&#xf6;" horiz-adv-x="1202" 
d="M528 -25q-246 0 -369.5 117t-86.5 318l45 252q35 195 180.5 300t380.5 105q247 0 370.5 -116.5t86.5 -317.5l-45 -252q-35 -195 -181 -300.5t-381 -105.5zM555 215q86 0 135 39.5t66 124.5l51 285q17 84 -22 123.5t-134 39.5q-86 0 -134.5 -39t-65.5 -124l-52 -285
q-17 -84 22 -124t134 -40zM414 1260l16 92q7 49 34 71.5t77 22.5h77q99 0 84 -96l-16 -93q-7 -49 -34 -71.5t-77 -22.5h-77q-99 0 -84 97zM1053 1350l-17 -93q-7 -49 -33.5 -71.5t-76.5 -22.5h-78q-99 0 -84 97l16 92q7 49 34 71.5t77 22.5h78q99 0 84 -96z" />
    <glyph glyph-name="divide" unicode="&#xf7;" 
d="M893 1114l-16 -90q-20 -111 -129 -111h-101q-115 0 -100 113l14 90q15 113 131 113h101q60 0 85.5 -29.5t14.5 -85.5zM1028 571h-782q-56 0 -85.5 33t-19.5 84l4 25q7 49 42.5 76.5t91.5 27.5h782q56 0 85 -33t19 -84l-4 -24q-7 -51 -41.5 -78t-91.5 -27zM416 274l14 88
q21 113 131 113h101q58 0 83 -29t15 -86l-15 -88q-11 -57 -42.5 -84.5t-88.5 -27.5h-100q-119 0 -98 114z" />
    <glyph glyph-name="oslash" unicode="&#xf8;" horiz-adv-x="1202" 
d="M121 -242q-35 20 -42.5 57t17.5 74l111 172q-81 57 -113 146.5t-12 202.5l45 252q35 195 180.5 300t380.5 105q78 0 150 -14l123 188q23 35 58.5 43t72.5 -12q37 -23 44 -59.5t-18 -73.5l-100 -156q82 -57 114.5 -147.5t12.5 -202.5l-45 -252q-35 -195 -180.5 -300.5
t-380.5 -105.5q-89 0 -154 15l-131 -203q-23 -36 -59.5 -44t-73.5 15zM565 215q86 0 135 39.5t66 124.5l51 285q17 84 -21.5 123.5t-133.5 39.5q-87 0 -135.5 -39t-65.5 -124l-51 -285q-17 -84 21.5 -124t133.5 -40z" />
    <glyph glyph-name="ugrave" unicode="&#xf9;" horiz-adv-x="1257" 
d="M938 1042h178q35 0 52.5 -20t11.5 -55l-119 -678l53 -53q35 -35 36 -75.5t-32 -72.5l-74 -74q-32 -33 -73 -32t-76 36l-104 105q-57 -72 -142 -110t-188 -38q-201 0 -300.5 116t-64.5 312l99 564q6 35 29.5 55t58.5 20h180q35 0 51 -20t10 -55l-100 -570
q-14 -82 21.5 -125t117.5 -43q78 0 125.5 43t61.5 125l100 570q6 35 29.5 55t58.5 20zM639 1206l-137 129q-26 27 -23 58l2 12q8 35 47 35h152q32 0 49 -8.5t41 -38.5l102 -131q18 -21 15 -45l-2 -13q-9 -35 -47 -35h-99q-38 0 -57.5 7t-42.5 30z" />
    <glyph glyph-name="uacute" unicode="&#xfa;" horiz-adv-x="1257" 
d="M938 1042h178q35 0 52.5 -20t11.5 -55l-119 -678l53 -53q35 -35 36 -75.5t-32 -72.5l-74 -74q-32 -33 -73 -32t-76 36l-104 105q-57 -72 -142 -110t-188 -38q-201 0 -300.5 116t-64.5 312l99 564q6 35 29.5 55t58.5 20h180q35 0 51 -20t10 -55l-100 -570
q-14 -82 21.5 -125t117.5 -43q78 0 125.5 43t61.5 125l100 570q6 35 29.5 55t58.5 20zM995 1331l-159 -125q-27 -21 -50.5 -29t-60.5 -8h-121q-18 0 -28 10.5t-5 24.5l2 13q3 23 29 49l127 127q31 31 47.5 39t46.5 8h181q21 0 30.5 -10.5t5.5 -28.5l-2 -12q-13 -39 -43 -58z
" />
    <glyph glyph-name="ucircumflex" unicode="&#xfb;" horiz-adv-x="1257" 
d="M938 1042h178q35 0 52.5 -20t11.5 -55l-119 -678l53 -53q35 -35 36 -75.5t-32 -72.5l-74 -74q-32 -33 -73 -32t-76 36l-104 105q-57 -72 -142 -110t-188 -38q-201 0 -300.5 116t-64.5 312l99 564q6 35 29.5 55t58.5 20h180q35 0 51 -20t10 -55l-100 -570
q-14 -82 21.5 -125t117.5 -43q78 0 125.5 43t61.5 125l100 570q6 35 29.5 55t58.5 20zM1038 1198q-23 -37 -65.5 -46t-83.5 15l-141 93l-191 -99q-41 -20 -77.5 -8t-55.5 51q-19 38 -3 75t60 60l221 111q35 18 62 18h4q27 0 57 -18l179 -113q41 -25 50 -61.5t-16 -77.5z" />
    <glyph glyph-name="udieresis" unicode="&#xfc;" horiz-adv-x="1257" 
d="M938 1042h178q35 0 52.5 -20t11.5 -55l-119 -678l53 -53q35 -35 36 -75.5t-32 -72.5l-74 -74q-32 -33 -73 -32t-76 36l-104 105q-57 -72 -142 -110t-188 -38q-201 0 -300.5 116t-64.5 312l99 564q6 35 29.5 55t58.5 20h180q35 0 51 -20t10 -55l-100 -570
q-14 -82 21.5 -125t117.5 -43q78 0 125.5 43t61.5 125l100 570q6 35 29.5 55t58.5 20zM426 1260l16 92q7 49 34 71.5t77 22.5h78q99 0 84 -96l-17 -93q-7 -49 -33.5 -71.5t-76.5 -22.5h-78q-99 0 -84 97zM1065 1350l-16 -93q-7 -49 -34 -71.5t-77 -22.5h-78q-99 0 -84 97
l17 92q7 49 33.5 71.5t76.5 22.5h78q99 0 84 -96z" />
    <glyph glyph-name="yacute" unicode="&#xfd;" horiz-adv-x="1103" 
d="M252 -199l121 199h-37q-52 0 -76 21.5t-31 76.5l-106 758q0 4 -4 35.5t-4 40.5q0 110 96 110h129q45 0 64.5 -19.5t25.5 -72.5l76 -690l319 690q25 52 51 72t72 20h127q68 0 68 -59q0 -48 -29 -100l-606 -1235q-29 -60 -85.5 -77.5t-117.5 13.5t-76 92.5t23 124.5z
M942 1331l-160 -125q-27 -21 -50 -29t-60 -8h-121q-18 0 -28 10.5t-5 24.5l2 13q3 23 29 49l127 127q31 31 47.5 39t46.5 8h180q21 0 31 -10.5t6 -28.5l-2 -12q-13 -39 -43 -58z" />
    <glyph glyph-name="thorn" unicode="&#xfe;" 
d="M178 -428h-94q-53 0 -80.5 32.5t-19.5 84.5l290 1644q11 56 45.5 87.5t88.5 31.5h94q55 0 82.5 -32.5t19.5 -86.5l-59 -336q98 70 241 70q198 0 306 -123t73 -317l-43 -240q-35 -195 -165.5 -303.5t-327.5 -108.5q-165 0 -248 95l-68 -379q-11 -56 -46 -87.5t-89 -31.5z
M588 211q170 0 198 164l52 291q27 165 -154 165q-172 0 -199 -165l-51 -291q-27 -164 154 -164z" />
    <glyph glyph-name="ydieresis" unicode="&#xff;" horiz-adv-x="1103" 
d="M252 -199l121 199h-37q-52 0 -76 21.5t-31 76.5l-106 758q0 4 -4 35.5t-4 40.5q0 110 96 110h129q45 0 64.5 -19.5t25.5 -72.5l76 -690l319 690q25 52 51 72t72 20h127q68 0 68 -59q0 -48 -29 -100l-606 -1235q-29 -60 -85.5 -77.5t-117.5 13.5t-76 92.5t23 124.5z
M373 1260l16 92q7 49 34 71.5t77 22.5h78q99 0 84 -96l-17 -93q-7 -49 -33.5 -71.5t-76.5 -22.5h-78q-99 0 -84 97zM1012 1350l-17 -93q-7 -49 -33.5 -71.5t-76.5 -22.5h-78q-99 0 -84 97l16 92q7 49 34 71.5t77 22.5h78q99 0 84 -96z" />
    <glyph glyph-name="Amacron" unicode="&#x100;" horiz-adv-x="1353" 
d="M176 0h-135q-74 0 -74 59q0 38 35 109l539 1128q38 80 79.5 111t110.5 31h209q73 0 106 -32t44 -110l135 -1099q8 -55 8 -86q0 -52 -27 -81.5t-76 -29.5h-131q-41 0 -61.5 19t-24.5 63l-30 283h-461l-129 -283q-36 -82 -117 -82zM858 627l-59 567l-260 -567h319z
M571 1683q0 47 30 76t77 29h407q44 0 72.5 -26.5t28.5 -69.5q0 -50 -29 -78.5t-78 -28.5h-407q-45 0 -73 27t-28 71z" />
    <glyph glyph-name="amacron" unicode="&#x101;" horiz-adv-x="1175" 
d="M428 -25q-201 0 -301 88t-74 242l6 35q25 143 135.5 209.5t325.5 66.5q101 0 215 -24l25 139q11 56 -21.5 82.5t-111.5 26.5q-71 0 -106.5 -20.5t-43.5 -65.5l-2 -13q-8 -43 -47 -43h-221q-46 0 -37 50l4 24q49 295 475 295q240 0 350.5 -94.5t79.5 -274.5l-71 -409
l53 -53q35 -35 36 -76.5t-32 -73.5l-74 -72q-33 -33 -73.5 -33t-75.5 35l-92 93q-116 -134 -322 -134zM377 336l-4 -25q-21 -112 135 -112q69 0 119 35.5t61 91.5l17 92q-84 20 -156 20q-79 0 -120.5 -24t-51.5 -78zM375 1303q0 47 29.5 75.5t76.5 28.5h408q44 0 72 -26.5
t28 -69.5q0 -50 -28.5 -78.5t-77.5 -28.5h-408q-44 0 -72 27.5t-28 71.5z" />
    <glyph glyph-name="Abreve" unicode="&#x102;" horiz-adv-x="1353" 
d="M176 0h-135q-74 0 -74 59q0 38 35 109l539 1128q38 80 79.5 111t110.5 31h209q73 0 106 -32t44 -110l135 -1099q8 -55 8 -86q0 -52 -27 -81.5t-76 -29.5h-131q-41 0 -61.5 19t-24.5 63l-30 283h-461l-129 -283q-36 -82 -117 -82zM858 627l-59 567l-260 -567h319z
M756 1806q49 -71 125 -71q83 0 145 71q46 49 88 49q38 0 64 -24.5t26 -61.5q0 -63 -61 -124q-105 -105 -269 -105q-145 0 -233 88q-63 69 -63 125q0 47 27.5 74.5t72.5 27.5q41 0 78 -49z" />
    <glyph glyph-name="abreve" unicode="&#x103;" horiz-adv-x="1175" 
d="M428 -25q-201 0 -301 88t-74 242l6 35q25 143 135.5 209.5t325.5 66.5q101 0 215 -24l25 139q11 56 -21.5 82.5t-111.5 26.5q-71 0 -106.5 -20.5t-43.5 -65.5l-2 -13q-8 -43 -47 -43h-221q-46 0 -37 50l4 24q49 295 475 295q240 0 350.5 -94.5t79.5 -274.5l-71 -409
l53 -53q35 -35 36 -76.5t-32 -73.5l-74 -72q-33 -33 -73.5 -33t-75.5 35l-92 93q-116 -134 -322 -134zM377 336l-4 -25q-21 -112 135 -112q69 0 119 35.5t61 91.5l17 92q-84 20 -156 20q-79 0 -120.5 -24t-51.5 -78zM559 1425q49 -71 125 -71q83 0 145 71q47 50 89 50
q38 0 64 -24.5t26 -61.5q0 -63 -62 -125q-105 -105 -268 -105q-146 0 -234 88q-63 69 -63 125q0 47 27.5 75t72.5 28q40 0 78 -50z" />
    <glyph glyph-name="Aogonek" unicode="&#x104;" horiz-adv-x="1353" 
d="M1085 -410h-102q-110 0 -164.5 50t-40.5 137l4 24q14 84 117 160l62 45q-39 12 -48 76l-30 283h-461l-129 -283q-36 -82 -117 -82h-135q-74 0 -74 59q0 38 35 109l539 1128q38 80 79.5 111t110.5 31h209q73 0 106 -32t44 -110l135 -1099q8 -55 8 -86q0 -37 -12.5 -59.5
t-49.5 -51.5l-135 -104q-34 -24 -37 -50l-2 -12q-2 -20 10.5 -29.5t41.5 -9.5h67q38 0 60 -25.5t16 -62.5l-6 -35q-6 -38 -33 -60t-68 -22zM858 627l-59 567l-260 -567h319z" />
    <glyph glyph-name="aogonek" unicode="&#x105;" horiz-adv-x="1175" 
d="M1079 698l-71 -409l55 -56q35 -35 32.5 -77t-40.5 -74l-213 -184q-30 -27 -33 -52l-2 -12q-4 -20 8 -29.5t41 -9.5h76q41 0 62.5 -24.5t15.5 -63.5l-6 -35q-6 -37 -34 -59.5t-69 -22.5h-108q-110 0 -164.5 50t-40.5 137l4 24q8 42 33.5 79t81.5 83l106 88l-61 62
q-117 -138 -324 -138q-201 0 -301 88t-74 242l6 35q25 143 135.5 209.5t325.5 66.5q101 0 215 -24l25 139q11 56 -21.5 82.5t-111.5 26.5q-71 0 -106.5 -20.5t-43.5 -65.5l-2 -13q-8 -43 -47 -43h-221q-46 0 -37 50l4 24q49 295 475 295q240 0 350.5 -94.5t79.5 -274.5z
M377 336l-4 -25q-21 -112 135 -112q69 0 119 35.5t61 91.5l17 92q-84 20 -156 20q-79 0 -120.5 -24t-51.5 -78z" />
    <glyph glyph-name="Cacute" unicode="&#x106;" horiz-adv-x="1337" 
d="M649 -25q-281 0 -417 138.5t-93 380.5l86 485q41 235 202 357t429 122q282 0 410 -118t90 -341l-10 -57q-5 -26 -23.5 -42.5t-44.5 -16.5h-215q-26 0 -38 15t-7 42l10 57q20 106 -27 155.5t-170 49.5q-110 0 -177.5 -56t-86.5 -165l-92 -528q-19 -109 31.5 -165.5
t167.5 -56.5t176.5 48.5t79.5 158.5l12 70q9 59 66 59h215q54 0 45 -59l-17 -92q-41 -226 -187.5 -333.5t-414.5 -107.5zM1137 1712l-160 -125q-27 -21 -50.5 -29t-60.5 -8h-121q-18 0 -27.5 10.5t-4.5 24.5l2 12q3 25 28 50l127 127q31 31 48 39t47 8h180q21 0 31 -10.5
t6 -28.5l-2 -13q-12 -37 -43 -57z" />
    <glyph glyph-name="cacute" unicode="&#x107;" horiz-adv-x="1153" 
d="M541 -25q-239 0 -359 117q-119 117 -82 316l45 251q35 196 177.5 302t371.5 106q232 0 348.5 -92t87.5 -252l-8 -47q-5 -25 -23 -40t-44 -15h-207q-25 0 -36.5 14t-6.5 39l6 35q12 61 -23 89.5t-122 28.5q-160 0 -187 -161l-51 -289q-13 -84 21 -122t122 -38
q82 0 124.5 29.5t52.5 95.5l6 35q5 23 20.5 37t38.5 14h209q25 0 37.5 -15t7.5 -40l-10 -58q-31 -172 -158 -256t-358 -84zM973 1331l-160 -125q-27 -21 -50.5 -29t-60.5 -8h-120q-18 0 -28 10.5t-5 24.5l2 13q3 23 29 49l127 127q31 31 47.5 39t46.5 8h180q21 0 31 -10.5
t6 -28.5l-2 -12q-13 -39 -43 -58z" />
    <glyph glyph-name="Ccircumflex" unicode="&#x108;" horiz-adv-x="1337" 
d="M649 -25q-281 0 -417 138.5t-93 380.5l86 485q41 235 202 357t429 122q282 0 410 -118t90 -341l-10 -57q-5 -26 -23.5 -42.5t-44.5 -16.5h-215q-26 0 -38 15t-7 42l10 57q20 106 -27 155.5t-170 49.5q-110 0 -177.5 -56t-86.5 -165l-92 -528q-19 -109 31.5 -165.5
t167.5 -56.5t176.5 48.5t79.5 158.5l12 70q9 59 66 59h215q54 0 45 -59l-17 -92q-41 -226 -187.5 -333.5t-414.5 -107.5zM1178 1579q-23 -37 -66 -46t-84 15l-141 92l-191 -98q-41 -20 -77.5 -8t-55.5 51q-18 38 -2.5 75t60.5 60l221 111q35 18 61 18h4q28 0 58 -18
l178 -113q41 -25 50.5 -61.5t-15.5 -77.5z" />
    <glyph glyph-name="ccircumflex" unicode="&#x109;" horiz-adv-x="1153" 
d="M541 -25q-239 0 -359 117q-119 117 -82 316l45 251q35 196 177.5 302t371.5 106q232 0 348.5 -92t87.5 -252l-8 -47q-5 -25 -23 -40t-44 -15h-207q-25 0 -36.5 14t-6.5 39l6 35q12 61 -23 89.5t-122 28.5q-160 0 -187 -161l-51 -289q-13 -84 21 -122t122 -38
q82 0 124.5 29.5t52.5 95.5l6 35q5 23 20.5 37t38.5 14h209q25 0 37.5 -15t7.5 -40l-10 -58q-31 -172 -158 -256t-358 -84zM1014 1198q-23 -37 -66 -46t-84 15l-141 93l-191 -99q-41 -20 -77.5 -8t-55.5 51q-18 38 -2.5 75t60.5 60l221 111q35 18 61 18h4q28 0 58 -18
l178 -113q41 -25 50.5 -61.5t-15.5 -77.5z" />
    <glyph glyph-name="uni010A" unicode="&#x10a;" horiz-adv-x="1337" 
d="M649 -25q-281 0 -417 138.5t-93 380.5l86 485q41 235 202 357t429 122q282 0 410 -118t90 -341l-10 -57q-5 -26 -23.5 -42.5t-44.5 -16.5h-215q-26 0 -38 15t-7 42l10 57q20 106 -27 155.5t-170 49.5q-110 0 -177.5 -56t-86.5 -165l-92 -528q-19 -109 31.5 -165.5
t167.5 -56.5t176.5 48.5t79.5 158.5l12 70q9 59 66 59h215q54 0 45 -59l-17 -92q-41 -226 -187.5 -333.5t-414.5 -107.5zM729 1640l16 95q15 92 111 92h102q99 0 84 -96l-16 -95q-15 -92 -111 -92h-102q-99 0 -84 96z" />
    <glyph glyph-name="uni010B" unicode="&#x10b;" horiz-adv-x="1153" 
d="M541 -25q-239 0 -359 117q-119 117 -82 316l45 251q35 196 177.5 302t371.5 106q232 0 348.5 -92t87.5 -252l-8 -47q-5 -25 -23 -40t-44 -15h-207q-25 0 -36.5 14t-6.5 39l6 35q12 61 -23 89.5t-122 28.5q-160 0 -187 -161l-51 -289q-13 -84 21 -122t122 -38
q82 0 124.5 29.5t52.5 95.5l6 35q5 23 20.5 37t38.5 14h209q25 0 37.5 -15t7.5 -40l-10 -58q-31 -172 -158 -256t-358 -84zM565 1260l17 94q8 47 34.5 69.5t75.5 22.5h103q99 0 84 -96l-17 -95q-8 -47 -34.5 -69.5t-75.5 -22.5h-103q-99 0 -84 97z" />
    <glyph glyph-name="Ccaron" unicode="&#x10c;" horiz-adv-x="1337" 
d="M649 -25q-281 0 -417 138.5t-93 380.5l86 485q41 235 202 357t429 122q282 0 410 -118t90 -341l-10 -57q-5 -26 -23.5 -42.5t-44.5 -16.5h-215q-26 0 -38 15t-7 42l10 57q20 106 -27 155.5t-170 49.5q-110 0 -177.5 -56t-86.5 -165l-92 -528q-19 -109 31.5 -165.5
t167.5 -56.5t176.5 48.5t79.5 158.5l12 70q9 59 66 59h215q54 0 45 -59l-17 -92q-41 -226 -187.5 -333.5t-414.5 -107.5zM1149 1663l-221 -111q-35 -18 -62 -18h-6q-25 0 -55 18l-178 113q-86 55 -35 139q23 37 66 46t81 -15l142 -92l192 98q41 20 77.5 8t55.5 -51
q18 -39 2 -75t-59 -60z" />
    <glyph glyph-name="ccaron" unicode="&#x10d;" horiz-adv-x="1153" 
d="M541 -25q-239 0 -359 117q-119 117 -82 316l45 251q35 196 177.5 302t371.5 106q232 0 348.5 -92t87.5 -252l-8 -47q-5 -25 -23 -40t-44 -15h-207q-25 0 -36.5 14t-6.5 39l6 35q12 61 -23 89.5t-122 28.5q-160 0 -187 -161l-51 -289q-13 -84 21 -122t122 -38
q82 0 124.5 29.5t52.5 95.5l6 35q5 23 20.5 37t38.5 14h209q25 0 37.5 -15t7.5 -40l-10 -58q-31 -172 -158 -256t-358 -84zM985 1282l-221 -111q-35 -18 -62 -18h-6q-25 0 -55 18l-178 113q-86 55 -35 139q23 37 66 46t81 -15l142 -92l192 98q41 20 77.5 8t55.5 -51
q18 -39 2 -75t-59 -60z" />
    <glyph glyph-name="Dcaron" unicode="&#x10e;" horiz-adv-x="1406" 
d="M588 0h-412q-56 0 -82 31.5t-16 85.5l211 1200q11 54 47.5 85.5t91.5 31.5h381q312 0 456 -147.5t97 -416.5l-59 -338q-47 -268 -225 -400t-490 -132zM786 1178h-184l-162 -922h187q279 0 329 276l66 369q25 141 -32.5 209t-203.5 68zM1149 1663l-221 -111
q-35 -18 -62 -18h-6q-25 0 -55 18l-178 113q-86 55 -35 139q23 37 66 46t81 -15l142 -92l192 98q41 20 77.5 8t55.5 -51q18 -39 2 -75t-59 -60z" />
    <glyph glyph-name="dcaron" unicode="&#x10f;" horiz-adv-x="1529" 
d="M1413 840q-53 0 -72.5 45t13.5 88l119 157h-23q-47 0 -69.5 26t-14.5 71l20 116q15 99 125 99h95q115 0 94 -107l-23 -129q-17 -95 -73 -166l-117 -157q-37 -43 -74 -43zM479 -25q-201 0 -309 123q-107 122 -72 318l43 239q35 195 165 303.5t325 108.5q158 0 243 -94
l64 360q11 56 45.5 87.5t87.5 31.5h94q55 0 83 -32.5t20 -86.5l-185 -1042l56 -55q35 -35 36 -75t-34 -75l-72 -72q-33 -33 -74.5 -33t-76.5 35l-101 101q-117 -142 -338 -142zM672 831q-82 0 -131.5 -41.5t-63.5 -121.5l-51 -285q-13 -82 25.5 -124t126.5 -42
q80 0 129.5 42.5t62.5 123.5l51 285q27 163 -149 163z" />
    <glyph glyph-name="Dcroat" unicode="&#x110;" horiz-adv-x="1431" 
d="M610 0h-411q-56 0 -82.5 31.5t-16.5 85.5l90 510h-57q-44 0 -71 26.5t-27 69.5q0 44 27 71t71 27h90l88 496q11 54 48 85.5t92 31.5h380q312 0 456 -147.5t97 -416.5l-59 -338q-47 -268 -225 -400t-490 -132zM698 627h-170l-65 -371h186q280 0 330 276l65 369
q25 141 -32 209t-203 68h-184l-64 -357h137q44 0 71.5 -27t27.5 -71q0 -43 -27.5 -69.5t-71.5 -26.5z" />
    <glyph glyph-name="dslash" unicode="&#x111;" horiz-adv-x="1255" 
d="M479 -25q-201 0 -309 123q-107 122 -72 318l41 231q35 190 164 296t326 106q155 0 243 -91l29 166h-98q-44 0 -70 26t-26 69t26 68.5t70 25.5h131l4 24q11 55 45 85t88 30h94q55 0 83 -31.5t20 -83.5l-4 -24h36q44 0 70.5 -25.5t26.5 -68.5t-26.5 -69t-70.5 -26h-69
l-148 -833l56 -55q35 -35 36 -75t-34 -75l-72 -72q-33 -33 -74.5 -33t-76.5 35l-101 101q-117 -142 -338 -142zM575 217q82 0 132 42t63 124l49 274q27 166 -149 166q-82 0 -132 -42t-63 -124l-49 -274q-27 -166 149 -166z" />
    <glyph glyph-name="Emacron" unicode="&#x112;" horiz-adv-x="1202" 
d="M971 0h-789q-56 0 -82 31.5t-16 85.5l211 1200q7 54 45 85.5t92 31.5h795q73 0 61 -74l-20 -117q-12 -72 -88 -72h-576l-55 -309h424q60 0 92 -36.5t22 -96.5l-2 -12q-11 -57 -50.5 -89t-100.5 -32h-430l-60 -334h576q73 0 61 -72l-20 -116q-12 -74 -90 -74zM537 1683
q0 47 29.5 76t76.5 29h408q44 0 72 -26.5t28 -69.5q0 -50 -28.5 -78.5t-78.5 -28.5h-407q-44 0 -72 27t-28 71z" />
    <glyph glyph-name="emacron" unicode="&#x113;" horiz-adv-x="1165" 
d="M551 -25q-246 0 -369 111t-88 303l49 277q35 198 174.5 299.5t374.5 101.5q238 0 352.5 -111t79.5 -307l-22 -129q-15 -94 -107 -94h-569l-14 -84q-14 -80 24 -113.5t142 -33.5q79 0 115.5 20.5t43.5 69.5l2 12q8 31 39 31h234q41 0 32 -39l-4 -25
q-26 -152 -141.5 -220.5t-347.5 -68.5zM668 852q-86 0 -133 -38t-60 -120l-12 -69h342l12 69q14 82 -21.5 120t-127.5 38zM412 1303q0 47 29.5 75.5t76.5 28.5h408q44 0 72 -26.5t28 -69.5q0 -50 -28.5 -78.5t-77.5 -28.5h-408q-44 0 -72 27.5t-28 71.5z" />
    <glyph glyph-name="Ebreve" unicode="&#x114;" horiz-adv-x="1202" 
d="M971 0h-789q-56 0 -82 31.5t-16 85.5l211 1200q7 54 45 85.5t92 31.5h795q73 0 61 -74l-20 -117q-12 -72 -88 -72h-576l-55 -309h424q60 0 92 -36.5t22 -96.5l-2 -12q-11 -57 -50.5 -89t-100.5 -32h-430l-60 -334h576q73 0 61 -72l-20 -116q-12 -74 -90 -74zM721 1806
q49 -71 125 -71q83 0 145 71q46 49 88 49q38 0 64 -24.5t26 -61.5q0 -63 -61 -124q-105 -105 -268 -105q-146 0 -234 88q-63 69 -63 125q0 47 27.5 74.5t72.5 27.5q41 0 78 -49z" />
    <glyph glyph-name="ebreve" unicode="&#x115;" horiz-adv-x="1165" 
d="M551 -25q-246 0 -369 111t-88 303l49 277q35 198 174.5 299.5t374.5 101.5q238 0 352.5 -111t79.5 -307l-22 -129q-15 -94 -107 -94h-569l-14 -84q-14 -80 24 -113.5t142 -33.5q79 0 115.5 20.5t43.5 69.5l2 12q8 31 39 31h234q41 0 32 -39l-4 -25
q-26 -152 -141.5 -220.5t-347.5 -68.5zM668 852q-86 0 -133 -38t-60 -120l-12 -69h342l12 69q14 82 -21.5 120t-127.5 38zM596 1425q49 -71 125 -71q83 0 145 71q47 50 88 50q38 0 64 -24.5t26 -61.5q0 -64 -61 -125q-105 -105 -268 -105q-146 0 -234 88q-63 69 -63 125
q0 47 27.5 75t72.5 28q40 0 78 -50z" />
    <glyph glyph-name="uni0116" unicode="&#x116;" horiz-adv-x="1202" 
d="M971 0h-789q-56 0 -82 31.5t-16 85.5l211 1200q7 54 45 85.5t92 31.5h795q73 0 61 -74l-20 -117q-12 -72 -88 -72h-576l-55 -309h424q60 0 92 -36.5t22 -96.5l-2 -12q-11 -57 -50.5 -89t-100.5 -32h-430l-60 -334h576q73 0 61 -72l-20 -116q-12 -74 -90 -74zM690 1640
l17 95q8 47 34.5 69.5t75.5 22.5h103q99 0 84 -96l-17 -95q-8 -47 -34.5 -69.5t-75.5 -22.5h-103q-99 0 -84 96z" />
    <glyph glyph-name="uni0117" unicode="&#x117;" horiz-adv-x="1165" 
d="M551 -25q-246 0 -369 111t-88 303l49 277q35 198 174.5 299.5t374.5 101.5q238 0 352.5 -111t79.5 -307l-22 -129q-15 -94 -107 -94h-569l-14 -84q-14 -80 24 -113.5t142 -33.5q79 0 115.5 20.5t43.5 69.5l2 12q8 31 39 31h234q41 0 32 -39l-4 -25
q-26 -152 -141.5 -220.5t-347.5 -68.5zM668 852q-86 0 -133 -38t-60 -120l-12 -69h342l12 69q14 82 -21.5 120t-127.5 38zM565 1260l17 94q8 47 34.5 69.5t75.5 22.5h103q99 0 84 -96l-17 -95q-8 -47 -34.5 -69.5t-75.5 -22.5h-103q-99 0 -84 97z" />
    <glyph glyph-name="Eogonek" unicode="&#x118;" horiz-adv-x="1202" 
d="M713 -49l67 49h-598q-56 0 -82 31.5t-16 85.5l211 1200q7 54 45 85.5t92 31.5h795q73 0 61 -74l-20 -117q-12 -72 -88 -72h-576l-55 -309h424q60 0 92 -36.5t22 -96.5l-2 -12q-11 -57 -50.5 -89t-100.5 -32h-430l-60 -334h576q73 0 61 -72l-18 -104q-6 -31 -17 -47.5
t-42 -38.5l-152 -109q-34 -22 -37 -45l-2 -12q-4 -20 8 -29.5t41 -9.5h70q37 0 59.5 -25.5t16.5 -62.5l-7 -35q-6 -37 -33.5 -59.5t-68.5 -22.5h-100q-110 0 -164.5 49.5t-40.5 135.5l4 24q6 42 32 76.5t83 75.5z" />
    <glyph glyph-name="eogonek" unicode="&#x119;" horiz-adv-x="1165" 
d="M856 -293l-6 -35q-6 -38 -32.5 -60t-67.5 -22h-103q-110 0 -164.5 50t-40.5 137l4 24q14 84 117 160l21 14h-33q-246 0 -369 111t-88 303l49 277q35 198 174.5 299.5t374.5 101.5q238 0 352.5 -111t79.5 -307l-22 -129q-15 -94 -107 -94h-569l-14 -84q-14 -80 24 -113.5
t142 -33.5q79 0 115.5 20.5t43.5 69.5l2 12q8 31 39 31h234q41 0 32 -39l-4 -25q-15 -101 -84 -170q-19 -19 -86 -69q-54 -39 -86 -64l-86 -65q-31 -24 -34 -50l-2 -12q-2 -20 10 -29.5t41 -9.5h67q38 0 60 -25t16 -63zM668 852q-86 0 -133 -38t-60 -120l-12 -69h342l12 69
q14 82 -21.5 120t-127.5 38z" />
    <glyph glyph-name="Ecaron" unicode="&#x11a;" horiz-adv-x="1202" 
d="M971 0h-789q-56 0 -82 31.5t-16 85.5l211 1200q7 54 45 85.5t92 31.5h795q73 0 61 -74l-20 -117q-12 -72 -88 -72h-576l-55 -309h424q60 0 92 -36.5t22 -96.5l-2 -12q-11 -57 -50.5 -89t-100.5 -32h-430l-60 -334h576q73 0 61 -72l-20 -116q-12 -74 -90 -74zM1110 1663
l-221 -111q-35 -18 -62 -18h-6q-25 0 -55 18l-178 113q-86 55 -35 139q23 37 66 46t81 -15l142 -92l192 98q41 20 77.5 8t55.5 -51q18 -39 2 -75t-59 -60z" />
    <glyph glyph-name="ecaron" unicode="&#x11b;" horiz-adv-x="1165" 
d="M551 -25q-246 0 -369 111t-88 303l49 277q35 198 174.5 299.5t374.5 101.5q238 0 352.5 -111t79.5 -307l-22 -129q-15 -94 -107 -94h-569l-14 -84q-14 -80 24 -113.5t142 -33.5q79 0 115.5 20.5t43.5 69.5l2 12q8 31 39 31h234q41 0 32 -39l-4 -25
q-26 -152 -141.5 -220.5t-347.5 -68.5zM668 852q-86 0 -133 -38t-60 -120l-12 -69h342l12 69q14 82 -21.5 120t-127.5 38zM985 1282l-221 -111q-35 -18 -62 -18h-6q-25 0 -55 18l-178 113q-86 55 -35 139q23 37 66 46t81 -15l142 -92l192 98q41 20 77.5 8t55.5 -51
q18 -39 2 -75t-59 -60z" />
    <glyph glyph-name="Gcircumflex" unicode="&#x11c;" horiz-adv-x="1355" 
d="M664 -25q-287 0 -427.5 138.5t-97.5 380.5l86 485q41 233 205 356t434 123t403.5 -113t98.5 -311l-6 -35q-4 -23 -20 -37t-37 -14h-230q-48 0 -39 51l4 25q17 93 -32 136.5t-168 43.5q-233 0 -271 -223l-92 -526q-20 -110 35.5 -169t179.5 -59q115 0 175 45.5t77 145.5
l16 92h-172q-42 0 -62.5 25.5t-12.5 68.5l14 82q16 86 104 86h402q91 0 76 -94l-52 -289q-35 -201 -186.5 -307.5t-404.5 -106.5zM1184 1579q-23 -37 -66 -46t-84 15l-141 92l-191 -98q-41 -20 -77.5 -8t-55.5 51q-18 38 -2.5 75t60.5 60l221 111q35 18 61 18h4q28 0 58 -18
l178 -113q41 -25 50.5 -61.5t-15.5 -77.5z" />
    <glyph glyph-name="gcircumflex" unicode="&#x11d;" 
d="M471 -434q-245 0 -362 78.5t-91 224.5l7 35q10 45 51 45h229q36 0 33 -39l-4 -25q-7 -49 32 -71.5t132 -22.5q91 0 137.5 33.5t58.5 107.5l29 162q-100 -69 -246 -69q-201 0 -309 114q-105 114 -70 305l37 207q35 196 168 306t336 110q184 0 272 -117q19 54 57.5 83.5
t92.5 29.5h10q69 0 104.5 -38t24.5 -101l-172 -975q-70 -383 -557 -383zM582 252q170 0 198 164l43 246q13 79 -26 121t-127 42q-82 0 -134 -42t-65 -121l-43 -246q-13 -79 26.5 -121.5t127.5 -42.5zM1047 1198q-23 -37 -66 -46t-84 15l-141 93l-191 -99q-41 -20 -77.5 -8
t-55.5 51q-19 38 -3 75t60 60l222 111q35 18 61 18h4q28 0 58 -18l178 -113q41 -25 50.5 -61.5t-15.5 -77.5z" />
    <glyph glyph-name="Gbreve" unicode="&#x11e;" horiz-adv-x="1355" 
d="M664 -25q-287 0 -427.5 138.5t-97.5 380.5l86 485q41 233 205 356t434 123t403.5 -113t98.5 -311l-6 -35q-4 -23 -20 -37t-37 -14h-230q-48 0 -39 51l4 25q17 93 -32 136.5t-168 43.5q-233 0 -271 -223l-92 -526q-20 -110 35.5 -169t179.5 -59q115 0 175 45.5t77 145.5
l16 92h-172q-42 0 -62.5 25.5t-12.5 68.5l14 82q16 86 104 86h402q91 0 76 -94l-52 -289q-35 -201 -186.5 -307.5t-404.5 -106.5zM766 1806q49 -71 125 -71q83 0 145 71q46 49 88 49q38 0 64 -24.5t26 -61.5q0 -63 -61 -124q-105 -105 -268 -105q-146 0 -234 88
q-63 69 -63 125q0 47 27.5 74.5t72.5 27.5q41 0 78 -49z" />
    <glyph glyph-name="gbreve" unicode="&#x11f;" 
d="M471 -434q-245 0 -362 78.5t-91 224.5l7 35q10 45 51 45h229q36 0 33 -39l-4 -25q-7 -49 32 -71.5t132 -22.5q91 0 137.5 33.5t58.5 107.5l29 162q-100 -69 -246 -69q-201 0 -309 114q-105 114 -70 305l37 207q35 196 168 306t336 110q184 0 272 -117q19 54 57.5 83.5
t92.5 29.5h10q69 0 104.5 -38t24.5 -101l-172 -975q-70 -383 -557 -383zM582 252q170 0 198 164l43 246q13 79 -26 121t-127 42q-82 0 -134 -42t-65 -121l-43 -246q-13 -79 26.5 -121.5t127.5 -42.5zM629 1425q49 -71 125 -71q83 0 145 71q47 50 88 50q38 0 64 -24.5
t26 -61.5q0 -64 -61 -125q-105 -105 -268 -105q-146 0 -234 88q-63 69 -63 125q0 47 27.5 75t72.5 28q40 0 78 -50z" />
    <glyph glyph-name="uni0120" unicode="&#x120;" horiz-adv-x="1355" 
d="M664 -25q-287 0 -427.5 138.5t-97.5 380.5l86 485q41 233 205 356t434 123t403.5 -113t98.5 -311l-6 -35q-4 -23 -20 -37t-37 -14h-230q-48 0 -39 51l4 25q17 93 -32 136.5t-168 43.5q-233 0 -271 -223l-92 -526q-20 -110 35.5 -169t179.5 -59q115 0 175 45.5t77 145.5
l16 92h-172q-42 0 -62.5 25.5t-12.5 68.5l14 82q16 86 104 86h402q91 0 76 -94l-52 -289q-35 -201 -186.5 -307.5t-404.5 -106.5zM735 1640l17 95q8 47 34.5 69.5t75.5 22.5h103q99 0 84 -96l-17 -95q-8 -47 -34.5 -69.5t-75.5 -22.5h-103q-99 0 -84 96z" />
    <glyph glyph-name="uni0121" unicode="&#x121;" 
d="M471 -434q-245 0 -362 78.5t-91 224.5l7 35q10 45 51 45h229q36 0 33 -39l-4 -25q-7 -49 32 -71.5t132 -22.5q91 0 137.5 33.5t58.5 107.5l29 162q-100 -69 -246 -69q-201 0 -309 114q-105 114 -70 305l37 207q35 196 168 306t336 110q184 0 272 -117q19 54 57.5 83.5
t92.5 29.5h10q69 0 104.5 -38t24.5 -101l-172 -975q-70 -383 -557 -383zM582 252q170 0 198 164l43 246q13 79 -26 121t-127 42q-82 0 -134 -42t-65 -121l-43 -246q-13 -79 26.5 -121.5t127.5 -42.5zM598 1260l16 94q15 92 111 92h102q99 0 84 -96l-16 -95q-15 -92 -111 -92
h-102q-99 0 -84 97z" />
    <glyph glyph-name="uni0122" unicode="&#x122;" horiz-adv-x="1355" 
d="M664 -25q-287 0 -427.5 138.5t-97.5 380.5l86 485q41 233 205 356t434 123t403.5 -113t98.5 -311l-6 -35q-4 -23 -20 -37t-37 -14h-230q-48 0 -39 51l4 25q17 93 -32 136.5t-168 43.5q-233 0 -271 -223l-92 -526q-20 -110 35.5 -169t179.5 -59q115 0 175 45.5t77 145.5
l16 92h-172q-42 0 -62.5 25.5t-12.5 68.5l14 82q16 86 104 86h402q91 0 76 -94l-52 -289q-35 -201 -186.5 -307.5t-404.5 -106.5zM352 -313l92 135q20 29 35.5 37t46.5 8h164q23 0 32 -8t5 -25l-2 -12q-10 -41 -43 -74l-113 -121q-19 -21 -40.5 -29t-59.5 -8h-107
q-23 0 -31 8.5t-3 28.5l2 13q3 23 22 47z" />
    <glyph glyph-name="uni0123" unicode="&#x123;" 
d="M961 1346l-91 -127q-20 -29 -35.5 -37t-46.5 -8h-163q-24 0 -32.5 7.5t-4.5 24.5l2 13q9 39 43 73l110 113q37 37 101 37h106q23 0 31 -8.5t4 -28.5l-2 -12q-3 -23 -22 -47zM471 -434q-245 0 -362 78.5t-91 224.5l7 35q10 45 51 45h229q36 0 33 -39l-4 -25
q-7 -49 32 -71.5t132 -22.5q91 0 137.5 33.5t58.5 107.5l29 162q-100 -69 -246 -69q-201 0 -309 114q-105 114 -70 305l37 207q35 196 168 306t336 110q184 0 272 -117q19 54 57.5 83.5t92.5 29.5h10q69 0 104.5 -38t24.5 -101l-172 -975q-70 -383 -557 -383zM582 252
q170 0 198 164l43 246q13 79 -26 121t-127 42q-82 0 -134 -42t-65 -121l-43 -246q-13 -79 26.5 -121.5t127.5 -42.5z" />
    <glyph glyph-name="Hcircumflex" unicode="&#x124;" horiz-adv-x="1454" 
d="M311 0h-174q-37 0 -55 22.5t-12 59.5l223 1270q6 37 32.5 59.5t63.5 22.5h174q37 0 55.5 -22.5t12.5 -59.5l-84 -482h485l84 482q6 37 32.5 59.5t63.5 22.5h172q38 0 57 -22.5t13 -59.5l-223 -1270q-6 -37 -33 -59.5t-65 -22.5h-172q-37 0 -55.5 22.5t-12.5 59.5l90 508
h-485l-90 -508q-6 -37 -33 -59.5t-64 -22.5zM1225 1579q-23 -37 -66 -46t-84 15l-141 92l-191 -98q-41 -20 -77.5 -8t-55.5 51q-18 38 -2.5 75t60.5 60l221 111q35 18 61 18h4q28 0 58 -18l178 -113q41 -25 50.5 -61.5t-15.5 -77.5z" />
    <glyph glyph-name="hcircumflex" unicode="&#x125;" horiz-adv-x="1230" 
d="M287 0h-178q-35 0 -52.5 20.5t-11.5 55.5l221 1257q11 56 45.5 87.5t87.5 31.5h95q55 0 82.5 -32.5t19.5 -86.5l-59 -340q103 74 251 74q191 0 285 -119q98 -116 64 -309l-99 -563q-6 -35 -29.5 -55.5t-58.5 -20.5h-180q-35 0 -51 20.5t-10 55.5l100 569q14 82 -21 125
t-116 43q-82 0 -133 -43t-64 -125l-100 -569q-6 -35 -29.5 -55.5t-58.5 -20.5zM788 1589q-23 -37 -65.5 -45.5t-83.5 15.5l-141 92l-191 -99q-41 -20 -77.5 -8t-55.5 51q-19 38 -3 75.5t60 60.5l222 110q37 19 61 19h4q26 0 57 -19l179 -112q41 -25 50 -62t-16 -78z" />
    <glyph glyph-name="Hbar" unicode="&#x126;" horiz-adv-x="1474" 
d="M326 0h-174q-37 0 -55.5 22.5t-12.5 59.5l164 930h-47q-45 0 -73 27t-28 71q0 43 28.5 69.5t72.5 26.5h82l24 146q6 37 32.5 59.5t63.5 22.5h175q37 0 55 -22.5t12 -59.5l-27 -152h486l26 152q6 37 33 59.5t64 22.5h172q38 0 56.5 -22.5t12.5 -59.5l-24 -146h47
q44 0 72 -26.5t28 -69.5q0 -44 -28 -71t-72 -27h-82l-164 -930q-6 -37 -33 -59.5t-65 -22.5h-172q-37 0 -55.5 22.5t-12.5 59.5l90 508h-485l-90 -508q-6 -37 -32.5 -59.5t-63.5 -22.5zM1073 1024h-485l-27 -154h486z" />
    <glyph glyph-name="hbar" unicode="&#x127;" horiz-adv-x="1243" 
d="M305 0h-180q-35 0 -51.5 20.5t-10.5 55.5l185 1048h-37q-44 0 -71 26t-27 69t27 68.5t71 25.5h70l4 24q11 55 45 85t88 30h94q55 0 83.5 -32t20.5 -83l-4 -24h97q43 0 69.5 -25.5t26.5 -68.5t-26.5 -69t-69.5 -26h-129l-27 -147q105 76 252 76q192 0 288.5 -114
t61.5 -304l-98 -559q-6 -35 -30.5 -55.5t-59.5 -20.5h-179q-35 0 -52 20.5t-11 55.5l98 561q14 82 -21 125t-116 43q-82 0 -131 -43t-63 -125l-99 -561q-6 -35 -29.5 -55.5t-58.5 -20.5z" />
    <glyph glyph-name="Itilde" unicode="&#x128;" horiz-adv-x="649" 
d="M319 0h-172q-38 0 -56.5 22.5t-12.5 59.5l223 1270q6 37 32.5 59.5t63.5 22.5h172q38 0 57 -22.5t13 -59.5l-223 -1270q-6 -37 -33 -59.5t-64 -22.5zM815 1612q-31 -31 -76 -49.5t-92 -18.5q-46 0 -85.5 15t-88.5 55q-40 35 -61 35q-14 0 -26 -11t-30 -41
q-31 -53 -82 -53q-41 0 -66.5 25.5t-25.5 64.5q0 78 64 142q69 69 170 69q47 0 85 -15t87 -56q44 -35 63 -35q14 0 25.5 10.5t28.5 40.5q34 55 81 55q41 0 67 -25.5t26 -66.5q0 -74 -64 -141z" />
    <glyph glyph-name="itilde" unicode="&#x129;" horiz-adv-x="712" 
d="M524 0h-121q-316 0 -258 293l97 506h-103q-25 0 -37.5 15t-7.5 38l25 139q4 23 22 37t43 14h336q49 0 67.5 -23.5t10.5 -74.5l-121 -643q-5 -29 4 -41t35 -12h68q25 0 36.5 -16t6.5 -42l-21 -116q-12 -74 -82 -74zM750 1231q-31 -31 -76 -49.5t-92 -18.5q-46 0 -85.5 15
t-88.5 55q-40 35 -62 35q-14 0 -25.5 -10.5t-29.5 -40.5q-32 -54 -82 -54q-41 0 -66.5 25.5t-25.5 64.5q0 79 63 142q69 69 170 69q47 0 85 -15t87 -56q44 -35 64 -35q14 0 25 10.5t28 40.5q34 55 82 55q41 0 66.5 -25.5t25.5 -66.5q0 -75 -63 -141z" />
    <glyph glyph-name="Imacron" unicode="&#x12a;" horiz-adv-x="649" 
d="M319 0h-172q-38 0 -56.5 22.5t-12.5 59.5l223 1270q6 37 32.5 59.5t63.5 22.5h172q38 0 57 -22.5t13 -59.5l-223 -1270q-6 -37 -33 -59.5t-64 -22.5zM221 1683q0 47 30 76t77 29h407q44 0 72.5 -26.5t28.5 -69.5q0 -50 -29 -78.5t-78 -28.5h-407q-45 0 -73 27t-28 71z
" />
    <glyph glyph-name="imacron" unicode="&#x12b;" horiz-adv-x="712" 
d="M524 0h-121q-316 0 -258 293l97 506h-103q-25 0 -37.5 15t-7.5 38l25 139q4 23 22 37t43 14h336q49 0 67.5 -23.5t10.5 -74.5l-121 -643q-5 -29 4 -41t35 -12h68q25 0 36.5 -16t6.5 -42l-21 -116q-12 -74 -82 -74zM156 1303q0 47 29.5 75.5t76.5 28.5h408q44 0 72 -26.5
t28 -69.5q0 -50 -28.5 -78.5t-77.5 -28.5h-408q-44 0 -72 27.5t-28 71.5z" />
    <glyph glyph-name="Ibreve" unicode="&#x12c;" horiz-adv-x="649" 
d="M319 0h-172q-38 0 -56.5 22.5t-12.5 59.5l223 1270q6 37 32.5 59.5t63.5 22.5h172q38 0 57 -22.5t13 -59.5l-223 -1270q-6 -37 -33 -59.5t-64 -22.5zM406 1806q49 -71 124 -71q84 0 146 71q46 49 88 49q38 0 64 -24.5t26 -61.5q0 -63 -61 -124q-105 -105 -269 -105
q-145 0 -233 88q-64 70 -64 125q0 47 28 74.5t73 27.5q41 0 78 -49z" />
    <glyph glyph-name="ibreve" unicode="&#x12d;" horiz-adv-x="712" 
d="M524 0h-121q-316 0 -258 293l97 506h-103q-25 0 -37.5 15t-7.5 38l25 139q4 23 22 37t43 14h336q49 0 67.5 -23.5t10.5 -74.5l-121 -643q-5 -29 4 -41t35 -12h68q25 0 36.5 -16t6.5 -42l-21 -116q-12 -74 -82 -74zM340 1425q49 -71 125 -71q83 0 145 71q47 50 88 50
q38 0 64 -24.5t26 -61.5q0 -64 -61 -125q-105 -105 -268 -105q-146 0 -234 88q-63 69 -63 125q0 47 27.5 75t72.5 28q40 0 78 -50z" />
    <glyph glyph-name="Iogonek" unicode="&#x12e;" horiz-adv-x="649" 
d="M301 -410h-100q-110 0 -164.5 50t-40.5 137l4 24q6 41 31 75t86 83l51 41h-8q-38 0 -57 22.5t-13 59.5l223 1270q6 37 33 59.5t64 22.5h174q38 0 56.5 -22.5t12.5 -59.5l-223 -1266q-6 -39 -20.5 -62t-49.5 -47l-104 -75q-28 -20 -37 -56l-2 -12q-4 -20 8 -29.5t41 -9.5
h66q38 0 60 -25.5t16 -62.5l-7 -35q-6 -38 -32.5 -60t-67.5 -22z" />
    <glyph glyph-name="iogonek" unicode="&#x12f;" horiz-adv-x="712" 
d="M528 1147h-147q-50 0 -73.5 26.5t-16.5 73.5l16 92q21 99 117 99h147q50 0 74 -27t17 -74l-17 -92q-21 -98 -117 -98zM358 -154l-2 -12q-2 -20 10.5 -29.5t41.5 -9.5h63q38 0 60 -25t16 -63l-6 -35q-6 -38 -33 -60t-68 -22h-98q-110 0 -164.5 50t-40.5 137l4 24
q6 42 31 75t84 75l74 53q-232 34 -183 289l97 506h-103q-25 0 -37.5 15t-7.5 38l25 139q4 23 22 37t43 14h336q49 0 67.5 -23.5t10.5 -74.5l-121 -643q-5 -29 4 -41t35 -12h68q25 0 36.5 -16t6.5 -42l-17 -92q-6 -36 -18 -55t-47 -43l-152 -109q-34 -22 -37 -45z" />
    <glyph glyph-name="uni0130" unicode="&#x130;" horiz-adv-x="649" 
d="M319 0h-172q-38 0 -56.5 22.5t-12.5 59.5l223 1270q6 37 32.5 59.5t63.5 22.5h172q38 0 57 -22.5t13 -59.5l-223 -1270q-6 -37 -33 -59.5t-64 -22.5zM375 1640l16 95q15 92 111 92h102q99 0 84 -96l-16 -95q-15 -92 -111 -92h-102q-99 0 -84 96z" />
    <glyph glyph-name="uni0131" unicode="&#x131;" horiz-adv-x="712" 
d="M526 0h-120q-317 0 -259 293l97 506h-103q-25 0 -37.5 15t-7.5 38l25 139q4 23 22 37t43 14h336q49 0 67.5 -23.5t10.5 -74.5l-121 -643q-5 -29 4 -41t35 -12h68q25 0 36.5 -16t6.5 -42l-21 -116q-12 -74 -82 -74z" />
    <glyph glyph-name="uni0132" unicode="&#x132;" horiz-adv-x="1869" 
d="M319 0h-172q-38 0 -56.5 22.5t-12.5 59.5l223 1270q6 37 32.5 59.5t63.5 22.5h172q38 0 57 -22.5t13 -59.5l-223 -1270q-6 -37 -33 -59.5t-64 -22.5zM1151 -25q-252 0 -371 111.5t-84 314.5l15 82q27 156 172 156h22q72 0 107.5 -42.5t23.5 -111.5l-14 -82
q-27 -165 156 -165q85 0 136 43.5t64 128.5l166 942q6 37 32.5 59.5t63.5 22.5h175q37 0 55 -22.5t12 -59.5l-170 -959q-37 -204 -180 -311t-381 -107z" />
    <glyph glyph-name="uni0133" unicode="&#x133;" horiz-adv-x="1327" 
d="M528 1147h-147q-50 0 -73.5 26.5t-16.5 73.5l16 92q21 99 117 99h147q50 0 74 -27t17 -74l-17 -92q-21 -98 -117 -98zM526 0h-120q-317 0 -259 293l97 506h-103q-25 0 -37.5 15t-7.5 38l25 139q4 23 22 37t43 14h336q49 0 67.5 -23.5t10.5 -74.5l-121 -643q-5 -29 4 -41
t35 -12h68q25 0 36.5 -16t6.5 -42l-21 -116q-12 -74 -82 -74zM1206 1147h-149q-51 0 -74.5 26.5t-15.5 73.5l16 92q20 99 115 99h149q51 0 74.5 -26.5t15.5 -74.5l-16 -92q-11 -51 -38.5 -74.5t-76.5 -23.5zM743 -410h-131q-99 0 -84 78l19 105q5 29 27 46t57 17h69
q29 0 43.5 12t20.5 43l160 908h-101q-23 0 -36 15t-9 38l25 139q1 20 20.5 35.5t42.5 15.5h334q49 0 67.5 -23.5t10.5 -74.5l-188 -1077q-26 -154 -103.5 -215.5t-243.5 -61.5z" />
    <glyph glyph-name="Jcircumflex" unicode="&#x134;" horiz-adv-x="1220" 
d="M502 -25q-252 0 -371 111.5t-84 314.5l14 82q27 156 172 156h23q72 0 107.5 -42.5t23.5 -111.5l-14 -82q-27 -165 155 -165q85 0 136.5 43.5t64.5 128.5l166 942q6 37 32.5 59.5t63.5 22.5h174q37 0 55.5 -22.5t12.5 -59.5l-170 -959q-37 -204 -180 -311t-381 -107z
M1415 1579q-23 -37 -65.5 -46t-83.5 15l-142 92l-190 -98q-41 -20 -77.5 -8t-55.5 51q-19 38 -3 75t60 60l221 111q35 18 62 18h4q27 0 57 -18l178 -113q41 -25 50.5 -61.5t-15.5 -77.5z" />
    <glyph glyph-name="jcircumflex" unicode="&#x135;" horiz-adv-x="649" 
d="M66 -410h-132q-99 0 -84 78l19 105q5 29 27 46t57 17h70q29 0 43 12t20 43l160 908h-101q-23 0 -36 15t-9 38l25 139q1 20 20.5 35.5t42.5 15.5h334q49 0 67.5 -23.5t10.5 -74.5l-188 -1077q-26 -154 -103 -215.5t-243 -61.5zM750 1198q-23 -37 -66 -46t-84 15l-141 93
l-191 -99q-41 -20 -77.5 -8t-55.5 51q-18 38 -2.5 75t60.5 60l221 111q35 18 61 18h4q28 0 58 -18l178 -113q41 -25 50.5 -61.5t-15.5 -77.5z" />
    <glyph glyph-name="uni0136" unicode="&#x136;" horiz-adv-x="1329" 
d="M311 0h-174q-37 0 -55 22.5t-12 59.5l223 1270q6 37 32.5 59.5t63.5 22.5h174q37 0 55.5 -22.5t12.5 -59.5l-223 -1270q-6 -37 -33 -59.5t-64 -22.5zM1110 -4q-67 -26 -129.5 -1.5t-97.5 91.5l-244 477q-37 73 -25.5 157.5t68.5 156.5l395 489q31 38 59.5 53t69.5 15h154
q70 0 70 -60q0 -26 -12 -50t-44 -62l-446 -537l268 -506q35 -66 10.5 -129t-96.5 -94zM360 -313l93 135q20 29 35.5 37t46.5 8h163q23 0 32 -8t5 -25l-2 -12q-10 -41 -43 -74l-112 -121q-34 -37 -101 -37h-106q-23 0 -31 8.5t-4 28.5l2 13q3 23 22 47z" />
    <glyph glyph-name="uni0137" unicode="&#x137;" horiz-adv-x="1167" 
d="M287 0h-178q-35 0 -52.5 20.5t-11.5 55.5l221 1257q11 56 45.5 87.5t87.5 31.5h95q55 0 82.5 -32.5t19.5 -86.5l-221 -1257q-6 -35 -29.5 -55.5t-58.5 -20.5zM954 -2q-60 -27 -122.5 -3t-98.5 89l-172 301q-39 67 -30.5 143t63.5 138l260 309q32 37 62 52t71 15h137
q72 0 72 -63q0 -43 -57 -105l-291 -333l184 -318q38 -66 16 -129.5t-94 -95.5zM276 -313l93 135q20 29 35.5 37t46.5 8h163q23 0 32 -8t5 -25l-2 -12q-10 -41 -43 -74l-112 -121q-34 -37 -101 -37h-106q-23 0 -31 8.5t-4 28.5l2 13q3 23 22 47z" />
    <glyph glyph-name="Lacute" unicode="&#x139;" horiz-adv-x="1116" 
d="M924 0h-748q-56 0 -82 31.5t-16 85.5l217 1235q6 37 32.5 59.5t63.5 22.5h174q37 0 55.5 -22.5t12.5 -59.5l-191 -1086h529q75 0 63 -73l-20 -117q-12 -76 -90 -76zM774 1712l-160 -125q-27 -21 -50 -29t-60 -8h-121q-18 0 -28 10.5t-5 24.5l2 12q3 24 29 50l127 127
q31 31 47.5 39t46.5 8h180q21 0 31 -10.5t6 -28.5l-2 -13q-12 -37 -43 -57z" />
    <glyph glyph-name="lacute" unicode="&#x13a;" horiz-adv-x="649" 
d="M457 0h-115q-158 0 -221 71t-37 220l184 1042q11 56 45.5 87.5t87.5 31.5h95q55 0 82.5 -32.5t19.5 -86.5l-182 -1032q-4 -30 4.5 -41.5t34.5 -11.5h63q25 0 37 -16t8 -42l-20 -116q-12 -74 -86 -74zM750 1722l-160 -125q-27 -21 -50 -28.5t-61 -7.5h-121q-18 0 -27.5 10
t-4.5 24l2 13q3 24 28 49l127 127q31 31 48 39t47 8h180q21 0 31 -10.5t6 -28.5l-2 -12q-13 -39 -43 -58z" />
    <glyph glyph-name="uni013B" unicode="&#x13b;" horiz-adv-x="1116" 
d="M924 0h-748q-56 0 -82 31.5t-16 85.5l217 1235q6 37 32.5 59.5t63.5 22.5h174q37 0 55.5 -22.5t12.5 -59.5l-191 -1086h529q75 0 63 -73l-20 -117q-12 -76 -90 -76zM268 -313l92 135q20 29 35.5 37t46.5 8h164q23 0 32 -8t5 -25l-2 -12q-10 -41 -43 -74l-113 -121
q-19 -21 -40.5 -29t-59.5 -8h-106q-23 0 -31 8.5t-4 28.5l2 13q3 23 22 47z" />
    <glyph glyph-name="uni013C" unicode="&#x13c;" horiz-adv-x="649" 
d="M457 0h-115q-158 0 -221 71t-37 220l184 1042q11 56 45.5 87.5t87.5 31.5h95q55 0 82.5 -32.5t19.5 -86.5l-182 -1032q-4 -30 4.5 -41.5t34.5 -11.5h63q25 0 37 -16t8 -42l-20 -116q-12 -74 -86 -74zM41 -313l92 135q20 29 35.5 37t46.5 8h164q23 0 32 -8t5 -25l-2 -12
q-10 -41 -43 -74l-113 -121q-19 -21 -40.5 -29t-59.5 -8h-107q-23 0 -31 8.5t-4 28.5l2 13q3 21 23 47z" />
    <glyph glyph-name="Lcaron" unicode="&#x13d;" horiz-adv-x="1159" 
d="M954 840q-53 0 -72.5 45t13.5 88l119 157h-23q-47 0 -69.5 26t-14.5 71l21 116q15 99 125 99h94q115 0 94 -107l-22 -129q-16 -94 -74 -166l-117 -157q-37 -43 -74 -43zM930 0h-748q-56 0 -82 31.5t-16 85.5l217 1235q6 37 32.5 59.5t63.5 22.5h174q37 0 55.5 -22.5
t12.5 -59.5l-190 -1086h528q75 0 63 -73l-20 -117q-12 -76 -90 -76z" />
    <glyph glyph-name="lcaron" unicode="&#x13e;" horiz-adv-x="882" 
d="M758 840q-53 0 -73 45t13 88l119 157h-22q-47 0 -69.5 26t-14.5 71l20 116q15 99 125 99h94q115 0 94 -107l-22 -129q-16 -94 -74 -166l-117 -157q-37 -43 -73 -43zM475 0h-115q-158 0 -221 71t-37 220l185 1042q11 56 45.5 87.5t87.5 31.5h94q55 0 82.5 -32.5
t19.5 -86.5l-182 -1032q-4 -30 4.5 -41.5t34.5 -11.5h64q25 0 37 -16t8 -42l-21 -116q-12 -74 -86 -74z" />
    <glyph glyph-name="Ldot" unicode="&#x13f;" horiz-adv-x="1130" 
d="M737 735l17 92q10 61 41.5 88t93.5 27h94q123 0 102 -119l-16 -92q-10 -61 -41.5 -88t-93.5 -27h-94q-124 0 -103 119zM930 0h-748q-56 0 -82 31.5t-16 85.5l217 1235q6 37 32.5 59.5t63.5 22.5h174q37 0 55.5 -22.5t12.5 -59.5l-190 -1086h528q75 0 63 -73l-20 -117
q-12 -76 -90 -76z" />
    <glyph glyph-name="uni0140" unicode="&#x140;" horiz-adv-x="956" 
d="M823 449h-88q-123 0 -102 112l18 105q11 57 42 82.5t91 25.5h88q124 0 103 -112l-19 -105q-11 -57 -42 -82.5t-91 -25.5zM475 0h-115q-158 0 -221 71t-37 220l185 1042q11 56 45.5 87.5t87.5 31.5h94q55 0 82.5 -32.5t19.5 -86.5l-182 -1032q-4 -30 4.5 -41.5t34.5 -11.5
h64q25 0 37 -16t8 -42l-21 -116q-12 -74 -86 -74z" />
    <glyph glyph-name="Lslash" unicode="&#x141;" horiz-adv-x="1138" 
d="M954 0h-747q-56 0 -82 31.5t-16 85.5l59 340l-25 -11q-43 -17 -77.5 -4t-53.5 54q-17 38 -2 74t56 55l143 63l117 664q6 37 32.5 59.5t63.5 22.5h174q37 0 55.5 -22.5t12.5 -59.5l-89 -498l195 86q43 19 78.5 5.5t52.5 -54.5t2.5 -75.5t-55.5 -53.5l-313 -139l-62 -357
h528q76 0 64 -73l-21 -117q-12 -76 -90 -76z" />
    <glyph glyph-name="lslash" unicode="&#x142;" horiz-adv-x="692" 
d="M498 0h-115q-158 0 -221 71t-37 220l22 127q-39 -24 -75.5 -14t-57.5 49q-20 37 -9.5 71.5t48.5 57.5l137 73l119 678q11 56 45.5 87.5t87.5 31.5h95q55 0 82.5 -32.5t19.5 -86.5l-84 -477l23 12q38 20 73.5 10t55.5 -47q20 -38 9.5 -72t-48.5 -57l-156 -86l-55 -315
q-4 -30 4.5 -41.5t34.5 -11.5h63q25 0 37 -16t8 -42l-20 -116q-12 -74 -86 -74z" />
    <glyph glyph-name="Nacute" unicode="&#x143;" horiz-adv-x="1443" 
d="M283 0h-148q-37 0 -54 21.5t-11 58.5l217 1229q10 59 49.5 92t97.5 33h123q60 0 88 -22t51 -85l293 -821l150 848q6 37 31.5 58.5t60.5 21.5h147q37 0 54.5 -21.5t11.5 -58.5l-215 -1229q-11 -58 -51 -91.5t-99 -33.5h-114q-60 0 -88.5 21.5t-51.5 84.5l-301 828
l-149 -854q-6 -37 -31.5 -58.5t-60.5 -21.5zM1184 1712l-160 -125q-27 -21 -50.5 -29t-60.5 -8h-120q-18 0 -28 10.5t-5 24.5l2 12q3 24 29 50l127 127q31 31 47.5 39t46.5 8h180q21 0 31 -10.5t6 -28.5l-2 -13q-12 -37 -43 -57z" />
    <glyph glyph-name="nacute" unicode="&#x144;" horiz-adv-x="1257" 
d="M322 0h-179q-35 0 -52 20.5t-11 55.5l119 678l-54 53q-35 35 -36 75t32 72l74 74q32 33 73.5 32t76.5 -36l104 -104q116 147 330 147q201 0 300 -116t64 -312l-98 -563q-6 -35 -29.5 -55.5t-58.5 -20.5h-180q-35 0 -51.5 20.5t-10.5 55.5l101 569q14 82 -22 125t-118 43
q-158 0 -186 -168l-100 -569q-6 -35 -29.5 -55.5t-58.5 -20.5zM1032 1331l-160 -125q-27 -21 -50 -29t-60 -8h-121q-18 0 -28 10.5t-5 24.5l2 13q3 23 29 49l127 127q31 31 47.5 39t46.5 8h180q21 0 31 -10.5t6 -28.5l-2 -12q-13 -39 -43 -58z" />
    <glyph glyph-name="uni0145" unicode="&#x145;" horiz-adv-x="1443" 
d="M283 0h-148q-37 0 -54 21.5t-11 58.5l217 1229q10 59 49.5 92t97.5 33h123q60 0 88 -22t51 -85l293 -821l150 848q6 37 31.5 58.5t60.5 21.5h147q37 0 54.5 -21.5t11.5 -58.5l-215 -1229q-11 -58 -51 -91.5t-99 -33.5h-114q-60 0 -88.5 21.5t-51.5 84.5l-301 828
l-149 -854q-6 -37 -31.5 -58.5t-60.5 -21.5zM365 -313l92 135q20 29 35.5 37t46.5 8h163q23 0 32 -8t5 -25l-2 -12q-10 -41 -43 -74l-112 -121q-34 -37 -101 -37h-106q-23 0 -31 8.5t-4 28.5l2 13q3 21 23 47z" />
    <glyph glyph-name="uni0146" unicode="&#x146;" horiz-adv-x="1257" 
d="M322 0h-179q-35 0 -52 20.5t-11 55.5l119 678l-54 53q-35 35 -36 75t32 72l74 74q32 33 73.5 32t76.5 -36l104 -104q116 147 330 147q201 0 300 -116t64 -312l-98 -563q-6 -35 -29.5 -55.5t-58.5 -20.5h-180q-35 0 -51.5 20.5t-10.5 55.5l101 569q14 82 -22 125t-118 43
q-158 0 -186 -168l-100 -569q-6 -35 -29.5 -55.5t-58.5 -20.5zM297 -313l92 135q20 29 35.5 37t46.5 8h164q23 0 32 -8t5 -25l-2 -12q-10 -41 -43 -74l-113 -121q-19 -21 -40.5 -29t-59.5 -8h-107q-23 0 -31 8.5t-4 28.5l2 13q3 21 23 47z" />
    <glyph glyph-name="Ncaron" unicode="&#x147;" horiz-adv-x="1443" 
d="M283 0h-148q-37 0 -54 21.5t-11 58.5l217 1229q10 59 49.5 92t97.5 33h123q60 0 88 -22t51 -85l293 -821l150 848q6 37 31.5 58.5t60.5 21.5h147q37 0 54.5 -21.5t11.5 -58.5l-215 -1229q-11 -58 -51 -91.5t-99 -33.5h-114q-60 0 -88.5 21.5t-51.5 84.5l-301 828
l-149 -854q-6 -37 -31.5 -58.5t-60.5 -21.5zM1196 1663l-221 -111q-35 -18 -62 -18h-6q-25 0 -55 18l-178 113q-86 55 -35 139q23 37 66 46t81 -15l142 -92l192 98q41 20 77.5 8t55.5 -51q18 -39 2 -75t-59 -60z" />
    <glyph glyph-name="ncaron" unicode="&#x148;" horiz-adv-x="1257" 
d="M322 0h-179q-35 0 -52 20.5t-11 55.5l119 678l-54 53q-35 35 -36 75t32 72l74 74q32 33 73.5 32t76.5 -36l104 -104q116 147 330 147q201 0 300 -116t64 -312l-98 -563q-6 -35 -29.5 -55.5t-58.5 -20.5h-180q-35 0 -51.5 20.5t-10.5 55.5l101 569q14 82 -22 125t-118 43
q-158 0 -186 -168l-100 -569q-6 -35 -29.5 -55.5t-58.5 -20.5zM1047 1282l-222 -111q-35 -18 -61 -18h-6q-26 0 -56 18l-178 113q-86 55 -35 139q23 37 66.5 46.5t81.5 -15.5l141 -92l193 98q41 20 77.5 8t55.5 -51q18 -39 2 -75t-59 -60z" />
    <glyph glyph-name="napostrophe" unicode="&#x149;" horiz-adv-x="1581" 
d="M240 846q-53 0 -73 45t13 88l117 151h-23q-44 0 -64.5 26t-12.5 71l20 116q15 99 119 99h94q115 0 94 -107l-22 -129q-16 -94 -74 -166l-115 -151q-37 -43 -73 -43zM657 0h-178q-35 0 -52 20.5t-11 55.5l119 678l-54 53q-35 35 -36 75t32 72l74 74q32 33 73 32t76 -36
l105 -104q116 147 330 147q201 0 300 -116t64 -312l-98 -563q-6 -35 -29.5 -55.5t-58.5 -20.5h-180q-35 0 -51.5 20.5t-10.5 55.5l100 569q14 82 -21.5 125t-117.5 43q-158 0 -186 -168l-101 -569q-6 -35 -29.5 -55.5t-58.5 -20.5z" />
    <glyph glyph-name="Omacron" unicode="&#x14c;" horiz-adv-x="1402" 
d="M633 -25q-287 0 -428 138q-142 139 -99 379l87 487q41 233 208 356t439 123q286 0 428 -139q141 -138 98 -377l-86 -487q-41 -233 -208 -356.5t-439 -123.5zM657 231q240 0 281 228l90 516q20 110 -34.5 168.5t-178.5 58.5q-239 0 -280 -227l-91 -516
q-20 -111 34.5 -169.5t178.5 -58.5zM588 1683q0 47 29.5 76t76.5 29h408q44 0 72 -26.5t28 -69.5q0 -50 -28.5 -78.5t-77.5 -28.5h-408q-44 0 -72 27t-28 71z" />
    <glyph glyph-name="omacron" unicode="&#x14d;" horiz-adv-x="1202" 
d="M528 -25q-246 0 -369.5 117t-86.5 318l45 252q35 195 180.5 300t380.5 105q247 0 370.5 -116.5t86.5 -317.5l-45 -252q-35 -195 -181 -300.5t-381 -105.5zM555 215q86 0 135 39.5t66 124.5l51 285q17 84 -22 123.5t-134 39.5q-86 0 -134.5 -39t-65.5 -124l-52 -285
q-17 -84 22 -124t134 -40zM424 1303q0 47 29.5 75.5t76.5 28.5h408q44 0 72 -26.5t28 -69.5q0 -50 -28.5 -78.5t-77.5 -28.5h-408q-44 0 -72 27.5t-28 71.5z" />
    <glyph glyph-name="Obreve" unicode="&#x14e;" horiz-adv-x="1402" 
d="M633 -25q-287 0 -428 138q-142 139 -99 379l87 487q41 233 208 356t439 123q286 0 428 -139q141 -138 98 -377l-86 -487q-41 -233 -208 -356.5t-439 -123.5zM657 231q240 0 281 228l90 516q20 110 -34.5 168.5t-178.5 58.5q-239 0 -280 -227l-91 -516
q-20 -111 34.5 -169.5t178.5 -58.5zM772 1806q49 -71 125 -71q83 0 145 71q46 49 88 49q38 0 64.5 -24.5t26.5 -61.5q0 -62 -62 -124q-105 -105 -268 -105q-146 0 -234 88q-63 69 -63 125q0 47 27.5 74.5t72.5 27.5q41 0 78 -49z" />
    <glyph glyph-name="obreve" unicode="&#x14f;" horiz-adv-x="1202" 
d="M528 -25q-246 0 -369.5 117t-86.5 318l45 252q35 195 180.5 300t380.5 105q247 0 370.5 -116.5t86.5 -317.5l-45 -252q-35 -195 -181 -300.5t-381 -105.5zM555 215q86 0 135 39.5t66 124.5l51 285q17 84 -22 123.5t-134 39.5q-86 0 -134.5 -39t-65.5 -124l-52 -285
q-17 -84 22 -124t134 -40zM608 1425q49 -71 125 -71q84 0 146 71q47 50 88 50q38 0 64 -24.5t26 -61.5q0 -63 -62 -125q-105 -105 -268 -105q-145 0 -233 88q-64 70 -64 125q0 47 27.5 75t72.5 28q40 0 78 -50z" />
    <glyph glyph-name="Ohungarumlaut" unicode="&#x150;" horiz-adv-x="1402" 
d="M633 -25q-287 0 -428 138q-142 139 -99 379l87 487q41 233 208 356t439 123q286 0 428 -139q141 -138 98 -377l-86 -487q-41 -233 -208 -356.5t-439 -123.5zM657 231q240 0 281 228l90 516q20 110 -34.5 168.5t-178.5 58.5q-239 0 -280 -227l-91 -516
q-20 -111 34.5 -169.5t178.5 -58.5zM629 1645l84 129q19 29 34 38t44 9h137q24 0 33.5 -8t5.5 -25l-2 -12q-3 -27 -47 -74l-99 -115q-32 -37 -96 -37h-84q-21 0 -30 8t-5 25l2 12q3 17 23 50zM963 1645l86 129q20 30 33.5 38.5t43.5 8.5h138q23 0 31.5 -8t4.5 -25l-2 -12
q-7 -28 -45 -74l-100 -115q-32 -37 -96 -37h-84q-21 0 -30 8t-5 25l2 12q3 28 23 50z" />
    <glyph glyph-name="ohungarumlaut" unicode="&#x151;" horiz-adv-x="1202" 
d="M528 -25q-246 0 -369.5 117t-86.5 318l45 252q35 195 180.5 300t380.5 105q247 0 370.5 -116.5t86.5 -317.5l-45 -252q-35 -195 -181 -300.5t-381 -105.5zM555 215q86 0 135 39.5t66 124.5l51 285q17 84 -22 123.5t-134 39.5q-86 0 -134.5 -39t-65.5 -124l-52 -285
q-17 -84 22 -124t134 -40zM465 1264l84 129q19 29 34 38t44 9h137q24 0 33.5 -8t5.5 -25l-2 -12q-3 -27 -47 -74l-99 -115q-32 -37 -96 -37h-84q-21 0 -30 8t-5 25l2 12q3 17 23 50zM799 1264l86 129q20 30 34 38.5t44 8.5h137q23 0 32 -8t5 -25l-2 -12q-7 -28 -45 -74
l-101 -115q-32 -37 -96 -37h-84q-21 0 -30 8t-5 25l2 12q3 28 23 50z" />
    <glyph glyph-name="OE" unicode="&#x152;" horiz-adv-x="1964" 
d="M154 563l59 338q47 268 225 400.5t490 132.5h1087q74 0 62 -74l-21 -117q-12 -72 -88 -72h-561l-55 -309h409q61 0 93 -37t22 -96l-2 -12q-11 -57 -51 -89t-101 -32h-415l-60 -334h561q74 0 62 -72l-21 -116q-12 -74 -90 -74h-1052q-312 0 -456 147t-97 416zM729 256h184
l162 922h-186q-280 0 -330 -277l-65 -369q-25 -141 32 -208.5t203 -67.5z" />
    <glyph glyph-name="oe" unicode="&#x153;" horiz-adv-x="1845" 
d="M905 74q-138 -99 -352 -99q-245 0 -368.5 117t-86.5 318l45 252q35 195 180.5 300t378.5 105q207 0 326 -98q131 98 348 98q238 0 351.5 -110.5t78.5 -307.5l-22 -129q-15 -94 -107 -94h-565l-14 -84q-14 -80 23.5 -113.5t140.5 -33.5q78 0 114 20.5t43 69.5l2 12
q8 31 39 31h234q41 0 32 -39l-4 -25q-26 -152 -142 -220.5t-345 -68.5q-204 0 -330 99zM1352 852q-86 0 -131.5 -38t-59.5 -120l-12 -69h338l12 69q14 82 -21.5 120t-125.5 38zM580 215q86 0 133.5 39.5t64.5 124.5l51 285q17 84 -20.5 123.5t-132.5 39.5q-86 0 -134 -39
t-65 -124l-51 -285q-17 -84 21 -124t133 -40z" />
    <glyph glyph-name="Racute" unicode="&#x154;" horiz-adv-x="1351" 
d="M311 0h-174q-37 0 -55 22.5t-12 59.5l215 1221q11 60 52 95.5t101 35.5h457q256 0 375 -111t82 -315l-17 -93q-29 -164 -114.5 -251t-245.5 -113l196 -322q38 -63 19.5 -128.5t-84.5 -100.5q-63 -32 -131 -11.5t-103 83.5l-235 411q-41 68 -29 133l4 25q8 44 38 69t77 25
h57q95 0 145.5 41t63.5 131l19 105q17 90 -22 131t-138 41h-250l-194 -1102q-6 -37 -33 -59.5t-64 -22.5zM1153 1712l-160 -125q-27 -21 -50 -29t-60 -8h-121q-18 0 -28 10.5t-5 24.5l2 12q3 24 29 50l127 127q31 31 47.5 39t46.5 8h180q21 0 31 -10.5t6 -28.5l-2 -13
q-12 -37 -43 -57z" />
    <glyph glyph-name="racute" unicode="&#x155;" horiz-adv-x="841" 
d="M322 0h-179q-35 0 -52 20.5t-11 55.5l119 678l-54 53q-35 35 -36 75t32 72l74 74q32 33 73.5 32t76.5 -36l110 -111q102 142 252 142h25q75 0 109.5 -32.5t23.5 -94.5l-13 -70q-11 -50 -47.5 -77t-93.5 -27h-45q-78 0 -122.5 -41t-61.5 -127l-92 -510q-6 -35 -29.5 -55.5
t-58.5 -20.5zM821 1331l-159 -125q-27 -21 -50.5 -29t-60.5 -8h-121q-18 0 -28 10.5t-5 24.5l2 13q3 23 29 49l127 127q31 31 47.5 39t46.5 8h180q21 0 31 -10.5t6 -28.5l-2 -12q-13 -39 -43 -58z" />
    <glyph glyph-name="uni0156" unicode="&#x156;" horiz-adv-x="1351" 
d="M311 0h-174q-37 0 -55 22.5t-12 59.5l215 1221q11 60 52 95.5t101 35.5h457q256 0 375 -111t82 -315l-17 -93q-29 -164 -114.5 -251t-245.5 -113l196 -322q38 -63 19.5 -128.5t-84.5 -100.5q-63 -32 -131 -11.5t-103 83.5l-235 411q-41 68 -29 133l4 25q8 44 38 69t77 25
h57q95 0 145.5 41t63.5 131l19 105q17 90 -22 131t-138 41h-250l-194 -1102q-6 -37 -33 -59.5t-64 -22.5zM352 -313l92 135q20 29 35.5 37t46.5 8h164q23 0 32 -8t5 -25l-2 -12q-10 -41 -43 -74l-113 -121q-19 -21 -40.5 -29t-59.5 -8h-107q-23 0 -31 8.5t-3 28.5l2 13
q3 23 22 47z" />
    <glyph glyph-name="uni0157" unicode="&#x157;" horiz-adv-x="841" 
d="M322 0h-179q-35 0 -52 20.5t-11 55.5l119 678l-54 53q-35 35 -36 75t32 72l74 74q32 33 73.5 32t76.5 -36l110 -111q102 142 252 142h25q75 0 109.5 -32.5t23.5 -94.5l-13 -70q-11 -50 -47.5 -77t-93.5 -27h-45q-78 0 -122.5 -41t-61.5 -127l-92 -510q-6 -35 -29.5 -55.5
t-58.5 -20.5zM-31 -313l92 135q20 29 35.5 37t46.5 8h164q23 0 32 -8t5 -25l-2 -12q-10 -41 -43 -74l-113 -121q-19 -21 -40.5 -29t-59.5 -8h-106q-23 0 -31 8.5t-4 28.5l2 13q3 23 22 47z" />
    <glyph glyph-name="Rcaron" unicode="&#x158;" horiz-adv-x="1351" 
d="M311 0h-174q-37 0 -55 22.5t-12 59.5l215 1221q11 60 52 95.5t101 35.5h457q256 0 375 -111t82 -315l-17 -93q-29 -164 -114.5 -251t-245.5 -113l196 -322q38 -63 19.5 -128.5t-84.5 -100.5q-63 -32 -131 -11.5t-103 83.5l-235 411q-41 68 -29 133l4 25q8 44 38 69t77 25
h57q95 0 145.5 41t63.5 131l19 105q17 90 -22 131t-138 41h-250l-194 -1102q-6 -37 -33 -59.5t-64 -22.5zM1165 1663l-221 -111q-35 -18 -61 -18h-6q-26 0 -56 18l-178 113q-86 55 -35 139q23 37 66.5 46.5t81.5 -15.5l141 -92l193 98q41 20 77.5 8t55.5 -51q18 -39 2 -75
t-60 -60z" />
    <glyph glyph-name="rcaron" unicode="&#x159;" horiz-adv-x="841" 
d="M322 0h-179q-35 0 -52 20.5t-11 55.5l119 678l-54 53q-35 35 -36 75t32 72l74 74q32 33 73.5 32t76.5 -36l110 -111q102 142 252 142h25q75 0 109.5 -32.5t23.5 -94.5l-13 -70q-11 -50 -47.5 -77t-93.5 -27h-45q-78 0 -122.5 -41t-61.5 -127l-92 -510q-6 -35 -29.5 -55.5
t-58.5 -20.5zM834 1282l-222 -111q-35 -18 -61 -18h-6q-26 0 -56 18l-178 113q-86 55 -35 139q23 37 66.5 46.5t81.5 -15.5l141 -92l193 98q41 20 77.5 8t55.5 -51q18 -39 2 -75t-59 -60z" />
    <glyph glyph-name="Sacute" unicode="&#x15a;" horiz-adv-x="1255" 
d="M563 -25q-293 0 -419 97t-89 295l11 57q10 57 61 57h213q26 0 38 -14t7 -39l-10 -57q-17 -84 29 -119t174 -35q121 0 176 36t69 124l4 24q11 63 -13 95t-97 51l-293 78q-163 42 -221 135.5t-29 259.5l6 35q35 198 183 300.5t401 102.5q288 0 409.5 -96t86.5 -297l-9 -47
q-9 -60 -61 -60h-215q-52 0 -43 54l8 47q14 86 -30 122t-162 36q-113 0 -167 -35.5t-67 -120.5l-4 -25q-10 -66 12 -96t96 -49l293 -78q163 -43 222 -136.5t30 -258.5l-6 -35q-37 -201 -187 -304.5t-407 -103.5zM1073 1712l-160 -125q-27 -21 -50 -29t-60 -8h-121
q-18 0 -28 10.5t-5 24.5l2 12q3 24 29 50l127 127q31 31 47.5 39t46.5 8h180q21 0 31 -10.5t6 -28.5l-2 -13q-12 -37 -43 -57z" />
    <glyph glyph-name="sacute" unicode="&#x15b;" horiz-adv-x="1079" 
d="M461 -25q-235 0 -342 75t-82 224l4 25q1 18 16.5 30.5t34.5 12.5h205q38 0 35 -37l-4 -24q-8 -45 29.5 -66.5t127.5 -21.5q87 0 130.5 21.5t50.5 68.5l4 24q6 36 -10 53.5t-66 24.5l-223 37q-161 26 -220 97t-36 208l4 25q26 156 152 235.5t347 79.5q230 0 334.5 -74
t79.5 -221l-4 -24q-5 -19 -18 -31t-31 -12h-205q-40 0 -37 38l4 25q6 43 -28.5 62.5t-120.5 19.5q-155 0 -170 -90l-4 -25q-6 -36 10 -52.5t66 -23.5l223 -36q164 -29 221.5 -99t34.5 -207l-4 -24q-52 -318 -508 -318zM920 1331l-160 -125q-27 -21 -50.5 -29t-60.5 -8h-121
q-18 0 -27.5 10.5t-4.5 24.5l2 13q3 24 28 49l127 127q31 31 48 39t47 8h180q21 0 31 -10.5t6 -28.5l-2 -12q-13 -39 -43 -58z" />
    <glyph glyph-name="Scircumflex" unicode="&#x15c;" horiz-adv-x="1255" 
d="M563 -25q-293 0 -419 97t-89 295l11 57q10 57 61 57h213q26 0 38 -14t7 -39l-10 -57q-17 -84 29 -119t174 -35q121 0 176 36t69 124l4 24q11 63 -13 95t-97 51l-293 78q-163 42 -221 135.5t-29 259.5l6 35q35 198 183 300.5t401 102.5q288 0 409.5 -96t86.5 -297l-9 -47
q-9 -60 -61 -60h-215q-52 0 -43 54l8 47q14 86 -30 122t-162 36q-113 0 -167 -35.5t-67 -120.5l-4 -25q-10 -66 12 -96t96 -49l293 -78q163 -43 222 -136.5t30 -258.5l-6 -35q-37 -201 -187 -304.5t-407 -103.5zM1114 1579q-23 -37 -65.5 -46t-83.5 15l-142 92l-190 -98
q-41 -20 -77.5 -8t-55.5 51q-19 38 -3 75t60 60l221 111q35 18 62 18h4q27 0 57 -18l178 -113q41 -25 50.5 -61.5t-15.5 -77.5z" />
    <glyph glyph-name="scircumflex" unicode="&#x15d;" horiz-adv-x="1079" 
d="M461 -25q-235 0 -342 75t-82 224l4 25q1 18 16.5 30.5t34.5 12.5h205q38 0 35 -37l-4 -24q-8 -45 29.5 -66.5t127.5 -21.5q87 0 130.5 21.5t50.5 68.5l4 24q6 36 -10 53.5t-66 24.5l-223 37q-161 26 -220 97t-36 208l4 25q26 156 152 235.5t347 79.5q230 0 334.5 -74
t79.5 -221l-4 -24q-5 -19 -18 -31t-31 -12h-205q-40 0 -37 38l4 25q6 43 -28.5 62.5t-120.5 19.5q-155 0 -170 -90l-4 -25q-6 -36 10 -52.5t66 -23.5l223 -36q164 -29 221.5 -99t34.5 -207l-4 -24q-52 -318 -508 -318zM961 1198q-23 -37 -66 -46t-84 15l-141 93l-191 -99
q-41 -20 -77.5 -8t-55.5 51q-19 38 -3 75t60 60l222 111q35 18 61 18h4q28 0 58 -18l178 -113q41 -25 50.5 -61.5t-15.5 -77.5z" />
    <glyph glyph-name="uni015E" unicode="&#x15e;" horiz-adv-x="1255" 
d="M778 -262l-2 -12q-12 -84 -74 -122t-182 -38h-131q-35 0 -55.5 20.5t-20.5 53.5q0 35 21.5 56t58.5 21h113q40 0 43 31l2 12q2 17 -4 25t-25 12l-33 6q-38 7 -45.5 39.5t17.5 81.5l26 53q-239 17 -340 113.5t-69 276.5l10 57q5 26 21 41.5t41 15.5h212q26 0 38.5 -14
t7.5 -39l-11 -57q-17 -84 29 -119t174 -35q121 0 176.5 36t69.5 124l4 24q11 63 -13.5 95t-97.5 51l-293 78q-163 42 -221 135.5t-28 259.5l6 35q35 198 182.5 300.5t400.5 102.5q288 0 409.5 -96t86.5 -297l-8 -47q-9 -60 -62 -60h-215q-52 0 -43 54l9 47q13 86 -30.5 122
t-162.5 36q-113 0 -166.5 -35.5t-66.5 -120.5l-5 -25q-10 -66 12.5 -96t96.5 -49l293 -78q163 -43 222 -136.5t30 -258.5l-6 -35q-35 -189 -169 -291.5t-362 -114.5l-24 -63q93 -20 129 -62t24 -114z" />
    <glyph glyph-name="uni015F" unicode="&#x15f;" horiz-adv-x="1079" 
d="M682 -262l-2 -12q-12 -84 -74 -122t-182 -38h-131q-35 0 -55.5 20.5t-20.5 53.5q0 35 21.5 56t58.5 21h113q40 0 43 31l2 12q2 17 -4 25t-25 12l-33 6q-38 7 -45.5 39.5t17.5 81.5l26 53q-191 12 -276 87t-62 210l4 25q1 18 17 30.5t35 12.5h204q38 0 35 -37l-4 -24
q-8 -45 30 -66.5t128 -21.5q86 0 129.5 21.5t50.5 68.5l4 24q6 36 -10 53.5t-66 24.5l-223 37q-161 26 -220 97t-36 208l4 25q26 155 152.5 235t347.5 80q230 0 334.5 -74t79.5 -221l-5 -24q-5 -19 -18 -31t-31 -12h-204q-40 0 -37 38l4 25q6 43 -29 62.5t-121 19.5
q-155 0 -170 -90l-4 -25q-6 -36 10 -52.5t66 -23.5l223 -36q164 -29 221.5 -99t34.5 -207l-4 -24q-52 -292 -432 -316l-25 -63q93 -20 129.5 -62t24.5 -114z" />
    <glyph glyph-name="Scaron" unicode="&#x160;" horiz-adv-x="1255" 
d="M563 -25q-293 0 -419 97t-89 295l11 57q10 57 61 57h213q26 0 38 -14t7 -39l-10 -57q-17 -84 29 -119t174 -35q121 0 176 36t69 124l4 24q11 63 -13 95t-97 51l-293 78q-163 42 -221 135.5t-29 259.5l6 35q35 198 183 300.5t401 102.5q288 0 409.5 -96t86.5 -297l-9 -47
q-9 -60 -61 -60h-215q-52 0 -43 54l8 47q14 86 -30 122t-162 36q-113 0 -167 -35.5t-67 -120.5l-4 -25q-10 -66 12 -96t96 -49l293 -78q163 -43 222 -136.5t30 -258.5l-6 -35q-37 -201 -187 -304.5t-407 -103.5zM1085 1663l-221 -111q-35 -18 -61 -18h-6q-26 0 -56 18
l-178 113q-86 55 -35 139q23 37 66.5 46.5t81.5 -15.5l141 -92l193 98q41 20 77.5 8t55.5 -51q18 -39 2 -75t-60 -60z" />
    <glyph glyph-name="scaron" unicode="&#x161;" horiz-adv-x="1079" 
d="M461 -25q-235 0 -342 75t-82 224l4 25q1 18 16.5 30.5t34.5 12.5h205q38 0 35 -37l-4 -24q-8 -45 29.5 -66.5t127.5 -21.5q87 0 130.5 21.5t50.5 68.5l4 24q6 36 -10 53.5t-66 24.5l-223 37q-161 26 -220 97t-36 208l4 25q26 156 152 235.5t347 79.5q230 0 334.5 -74
t79.5 -221l-4 -24q-5 -19 -18 -31t-31 -12h-205q-40 0 -37 38l4 25q6 43 -28.5 62.5t-120.5 19.5q-155 0 -170 -90l-4 -25q-6 -36 10 -52.5t66 -23.5l223 -36q164 -29 221.5 -99t34.5 -207l-4 -24q-52 -318 -508 -318zM932 1282l-221 -111q-35 -18 -62 -18h-6q-25 0 -55 18
l-178 113q-86 55 -35 139q23 37 66 46t81 -15l142 -92l192 98q41 20 77.5 8t55.5 -51q18 -39 2 -75t-59 -60z" />
    <glyph glyph-name="Tcommaaccent" unicode="&#x162;" horiz-adv-x="1179" 
d="M383 -76l39 76h-6q-37 0 -55.5 22.5t-12.5 59.5l191 1085h-322q-75 0 -63 76l20 115q12 76 90 76h981q76 0 64 -76l-21 -115q-12 -76 -90 -76h-321l-191 -1085q-6 -37 -33 -59.5t-65 -22.5h-6l-35 -86q93 -20 129 -62t24 -114l-2 -12q-12 -84 -74 -122t-182 -38h-131
q-35 0 -55 20.5t-20 53.5q0 35 21 56t58 21h113q40 0 43 31l2 12q2 17 -4 25t-25 12l-32 6q-38 8 -46 39.5t17 81.5z" />
    <glyph glyph-name="tcommaaccent" unicode="&#x163;" horiz-adv-x="776" 
d="M596 -262l-2 -12q-12 -84 -74 -122t-182 -38h-131q-35 0 -55.5 20.5t-20.5 53.5q0 35 21.5 56t58.5 21h113q40 0 43 31l2 12q2 17 -4 25t-25 12l-33 6q-38 7 -45.5 39.5t17.5 81.5l45 88q-111 25 -153 99.5t-17 207.5l88 480h-107q-23 0 -36 15t-9 38l25 139q4 23 22 37
t41 14h107l30 164q10 54 46.5 84.5t87.5 30.5h104q54 0 78.5 -30.5t13.5 -84.5l-31 -164h166q23 0 36 -15t9 -38l-24 -139q-4 -23 -22 -37t-42 -14h-166l-86 -471q-8 -41 6.5 -58.5t55.5 -17.5h90q56 0 47 -59l-22 -130q-6 -30 -24.5 -46.5t-45.5 -16.5h-115l-35 -86
q93 -20 129.5 -62t24.5 -114z" />
    <glyph glyph-name="Tcaron" unicode="&#x164;" horiz-adv-x="1179" 
d="M584 0h-172q-37 0 -55.5 22.5t-12.5 59.5l191 1085h-322q-75 0 -63 76l20 115q12 76 90 76h981q76 0 64 -76l-21 -115q-12 -76 -90 -76h-322l-190 -1085q-6 -37 -33 -59.5t-65 -22.5zM1061 1663l-221 -111q-35 -18 -62 -18h-6q-25 0 -55 18l-178 113q-86 55 -35 139
q23 37 66 46t81 -15l142 -92l192 98q41 20 77.5 8t55.5 -51q18 -39 2 -75t-59 -60z" />
    <glyph glyph-name="tcaron" unicode="&#x165;" horiz-adv-x="811" 
d="M788 1149q-50 0 -71 41q-20 42 8 78l90 114h-27q-44 0 -64 23.5t-13 67.5l18 104q21 100 119 100h90q111 0 90 -100l-20 -117q-16 -91 -62 -149l-90 -121q-27 -41 -68 -41zM602 0h-153q-183 0 -254.5 76.5t-40.5 242.5l88 480h-107q-23 0 -36 15t-9 38l25 139q4 23 22 37
t41 14h107l30 164q10 54 46.5 84.5t87.5 30.5h94q54 0 78.5 -30.5t13.5 -84.5l-31 -164h187q23 0 36 -15t9 -38l-25 -139q-4 -23 -22 -37t-41 -14h-177l-86 -471q-8 -41 6.5 -58.5t55.5 -17.5h100q56 0 47 -59l-22 -130q-6 -30 -24.5 -46.5t-45.5 -16.5z" />
    <glyph glyph-name="Tbar" unicode="&#x166;" horiz-adv-x="1179" 
d="M588 0h-172q-37 0 -55.5 22.5t-12.5 59.5l88 504h-143q-44 0 -71 26.5t-27 69.5q0 44 27 70t71 26h178l68 389h-322q-75 0 -63 76l20 115q12 76 90 76h981q76 0 64 -76l-21 -115q-12 -76 -90 -76h-321l-68 -389h143q45 0 72 -26t27 -70q0 -43 -27.5 -69.5t-71.5 -26.5
h-178l-88 -504q-6 -37 -33 -59.5t-65 -22.5z" />
    <glyph glyph-name="tbar" unicode="&#x167;" horiz-adv-x="788" 
d="M598 0h-143q-183 0 -254.5 76.5t-40.5 242.5l24 132h-39q-43 0 -68.5 24.5t-25.5 65.5t25.5 66.5t68.5 25.5h72l31 166h-107q-23 0 -36 15t-9 38l25 139q4 23 22 37t41 14h107l31 164q10 54 46 84.5t87 30.5h104q54 0 78.5 -30.5t13.5 -84.5l-30 -164h165q23 0 36 -15
t9 -38l-24 -139q-4 -23 -22 -37t-42 -14h-165l-31 -166h86q43 0 67.5 -24.5t24.5 -67.5q0 -41 -24.5 -65.5t-67.5 -24.5h-119l-22 -123q-8 -41 6 -58.5t55 -17.5h90q56 0 47 -59l-22 -130q-6 -30 -24.5 -46.5t-45.5 -16.5z" />
    <glyph glyph-name="Utilde" unicode="&#x168;" horiz-adv-x="1402" 
d="M631 -25q-278 0 -410.5 134.5t-91.5 373.5l152 869q6 37 33 59.5t65 22.5h168q38 0 56.5 -22.5t12.5 -59.5l-157 -895q-19 -106 32 -162.5t166 -56.5q110 0 178 56.5t87 162.5l157 895q6 37 33 59.5t64 22.5h170q37 0 55 -22.5t12 -59.5l-160 -906q-41 -232 -199 -351.5
t-423 -119.5zM1192 1612q-31 -31 -76 -49.5t-92 -18.5q-46 0 -85.5 15t-88.5 55q-40 35 -62 35q-14 0 -25 -10.5t-30 -41.5q-31 -53 -82 -53q-41 0 -66.5 25.5t-25.5 64.5q0 78 64 142q69 69 170 69q47 0 85 -15t87 -56q44 -35 63 -35q14 0 25 10.5t28 40.5q34 55 82 55
q41 0 66.5 -25.5t25.5 -66.5q0 -75 -63 -141z" />
    <glyph glyph-name="utilde" unicode="&#x169;" horiz-adv-x="1257" 
d="M938 1042h178q35 0 52.5 -20t11.5 -55l-119 -678l53 -53q35 -35 36 -75.5t-32 -72.5l-74 -74q-32 -33 -73 -32t-76 36l-104 105q-57 -72 -142 -110t-188 -38q-201 0 -300.5 116t-64.5 312l99 564q6 35 29.5 55t58.5 20h180q35 0 51 -20t10 -55l-100 -570
q-14 -82 21.5 -125t117.5 -43q78 0 125.5 43t61.5 125l100 570q6 35 29.5 55t58.5 20zM1030 1231q-31 -31 -76 -49.5t-92 -18.5q-46 0 -85.5 15t-88.5 55q-40 35 -61 35q-14 0 -26 -10.5t-30 -40.5q-32 -54 -82 -54q-41 0 -66.5 25.5t-25.5 64.5q0 78 64 142q69 69 170 69
q47 0 85 -15t87 -56q44 -35 63 -35q14 0 25.5 10.5t28.5 40.5q34 55 81 55q41 0 67 -25.5t26 -66.5q0 -74 -64 -141z" />
    <glyph glyph-name="Umacron" unicode="&#x16a;" horiz-adv-x="1402" 
d="M631 -25q-278 0 -410.5 134.5t-91.5 373.5l152 869q6 37 33 59.5t65 22.5h168q38 0 56.5 -22.5t12.5 -59.5l-157 -895q-19 -106 32 -162.5t166 -56.5q110 0 178 56.5t87 162.5l157 895q6 37 33 59.5t64 22.5h170q37 0 55 -22.5t12 -59.5l-160 -906q-41 -232 -199 -351.5
t-423 -119.5zM598 1683q0 47 30 76t77 29h407q44 0 72 -26.5t28 -69.5q0 -50 -28.5 -78.5t-77.5 -28.5h-408q-44 0 -72 27t-28 71z" />
    <glyph glyph-name="umacron" unicode="&#x16b;" horiz-adv-x="1257" 
d="M938 1042h178q35 0 52.5 -20t11.5 -55l-119 -678l53 -53q35 -35 36 -75.5t-32 -72.5l-74 -74q-32 -33 -73 -32t-76 36l-104 105q-57 -72 -142 -110t-188 -38q-201 0 -300.5 116t-64.5 312l99 564q6 35 29.5 55t58.5 20h180q35 0 51 -20t10 -55l-100 -570
q-14 -82 21.5 -125t117.5 -43q78 0 125.5 43t61.5 125l100 570q6 35 29.5 55t58.5 20zM436 1303q0 47 29.5 75.5t77.5 28.5h407q44 0 72.5 -26.5t28.5 -69.5q0 -49 -28.5 -78t-78.5 -29h-407q-44 0 -72.5 27.5t-28.5 71.5z" />
    <glyph glyph-name="Ubreve" unicode="&#x16c;" horiz-adv-x="1402" 
d="M631 -25q-278 0 -410.5 134.5t-91.5 373.5l152 869q6 37 33 59.5t65 22.5h168q38 0 56.5 -22.5t12.5 -59.5l-157 -895q-19 -106 32 -162.5t166 -56.5q110 0 178 56.5t87 162.5l157 895q6 37 33 59.5t64 22.5h170q37 0 55 -22.5t12 -59.5l-160 -906q-41 -232 -199 -351.5
t-423 -119.5zM782 1806q49 -71 125 -71q84 0 146 71q46 49 88 49q38 0 64 -24.5t26 -61.5q0 -62 -62 -124q-105 -105 -268 -105q-145 0 -233 88q-64 70 -64 125q0 47 28 74.5t73 27.5q40 0 77 -49z" />
    <glyph glyph-name="ubreve" unicode="&#x16d;" horiz-adv-x="1257" 
d="M938 1042h178q35 0 52.5 -20t11.5 -55l-119 -678l53 -53q35 -35 36 -75.5t-32 -72.5l-74 -74q-32 -33 -73 -32t-76 36l-104 105q-57 -72 -142 -110t-188 -38q-201 0 -300.5 116t-64.5 312l99 564q6 35 29.5 55t58.5 20h180q35 0 51 -20t10 -55l-100 -570
q-14 -82 21.5 -125t117.5 -43q78 0 125.5 43t61.5 125l100 570q6 35 29.5 55t58.5 20zM621 1425q49 -71 124 -71q84 0 146 71q47 50 88 50q38 0 64 -24.5t26 -61.5q0 -64 -61 -125q-105 -105 -269 -105q-145 0 -233 88q-64 70 -64 125q0 47 28 75t73 28q40 0 78 -50z" />
    <glyph glyph-name="Uring" unicode="&#x16e;" horiz-adv-x="1402" 
d="M631 -25q-278 0 -410.5 134.5t-91.5 373.5l152 869q6 37 33 59.5t65 22.5h168q38 0 56.5 -22.5t12.5 -59.5l-157 -895q-19 -106 32 -162.5t166 -56.5q110 0 178 56.5t87 162.5l157 895q6 37 33 59.5t64 22.5h170q37 0 55 -22.5t12 -59.5l-160 -906q-41 -232 -199 -351.5
t-423 -119.5zM891 1522q-123 0 -186 53t-46 143l7 35q17 96 82.5 141t187.5 45q123 0 185.5 -52.5t45.5 -143.5l-6 -35q-17 -96 -82.5 -141t-187.5 -45zM901 1642q78 0 90 72l6 35q6 35 -11.5 52.5t-59.5 17.5q-78 0 -90 -72l-7 -35q-6 -35 11.5 -52.5t60.5 -17.5z" />
    <glyph glyph-name="uring" unicode="&#x16f;" horiz-adv-x="1257" 
d="M938 1042h178q35 0 52.5 -20t11.5 -55l-119 -678l53 -53q35 -35 36 -75.5t-32 -72.5l-74 -74q-32 -33 -73 -32t-76 36l-104 105q-57 -72 -142 -110t-188 -38q-201 0 -300.5 116t-64.5 312l99 564q6 35 29.5 55t58.5 20h180q35 0 51 -20t10 -55l-100 -570
q-14 -82 21.5 -125t117.5 -43q78 0 125.5 43t61.5 125l100 570q6 35 29.5 55t58.5 20zM729 1141q-123 0 -185.5 52.5t-45.5 143.5l6 35q17 97 82.5 142t187.5 45q123 0 186 -53t46 -144l-7 -35q-17 -96 -82.5 -141t-187.5 -45zM739 1262q78 0 90 71l7 35q6 35 -11.5 52.5
t-60.5 17.5q-78 0 -90 -72l-6 -35q-6 -35 11 -52t60 -17z" />
    <glyph glyph-name="Uhungarumlaut" unicode="&#x170;" horiz-adv-x="1402" 
d="M631 -25q-278 0 -410.5 134.5t-91.5 373.5l152 869q6 37 33 59.5t65 22.5h168q38 0 56.5 -22.5t12.5 -59.5l-157 -895q-19 -106 32 -162.5t166 -56.5q110 0 178 56.5t87 162.5l157 895q6 37 33 59.5t64 22.5h170q37 0 55 -22.5t12 -59.5l-160 -906q-41 -232 -199 -351.5
t-423 -119.5zM639 1645l84 129q19 29 34 38t44 9h137q24 0 33.5 -8t5.5 -25l-2 -12q-3 -27 -47 -74l-99 -115q-32 -37 -96 -37h-84q-21 0 -30 8t-5 25l2 12q3 17 23 50zM973 1645l86 129q20 30 34 38.5t44 8.5h137q23 0 32 -8t5 -25l-2 -12q-7 -28 -45 -74l-101 -115
q-32 -37 -96 -37h-84q-21 0 -30 8t-5 25l2 12q3 28 23 50z" />
    <glyph glyph-name="uhungarumlaut" unicode="&#x171;" horiz-adv-x="1257" 
d="M938 1042h178q35 0 52.5 -20t11.5 -55l-119 -678l53 -53q35 -35 36 -75.5t-32 -72.5l-74 -74q-32 -33 -73 -32t-76 36l-104 105q-57 -72 -142 -110t-188 -38q-201 0 -300.5 116t-64.5 312l99 564q6 35 29.5 55t58.5 20h180q35 0 51 -20t10 -55l-100 -570
q-14 -82 21.5 -125t117.5 -43q78 0 125.5 43t61.5 125l100 570q6 35 29.5 55t58.5 20zM475 1264l84 129q19 29 34 38t44 9h137q24 0 33.5 -8t5.5 -25l-2 -12q-3 -27 -47 -74l-98 -115q-32 -37 -97 -37h-84q-21 0 -29.5 8t-4.5 25l2 12q4 19 22 50zM809 1264l86 129
q20 30 34 38.5t44 8.5h137q23 0 32 -8t5 -25l-2 -12q-7 -28 -45 -74l-101 -115q-32 -37 -96 -37h-84q-21 0 -30 8t-5 25l2 12q3 28 23 50z" />
    <glyph glyph-name="Uogonek" unicode="&#x172;" horiz-adv-x="1402" 
d="M811 -410h-127q-108 0 -159.5 48t-37.5 135l5 24q15 91 122 164l21 14q-264 6 -390 140.5t-85 367.5l151 869q6 37 33.5 59.5t65.5 22.5h168q38 0 56.5 -22.5t12.5 -59.5l-158 -895q-19 -106 32.5 -162.5t166.5 -56.5q110 0 177.5 56.5t86.5 162.5l158 895
q6 37 32.5 59.5t63.5 22.5h170q37 0 55.5 -22.5t12.5 -59.5l-160 -906q-38 -196 -154 -313q-34 -34 -72 -58.5t-104 -54.5q-91 -38 -139 -75l-65 -49q-36 -27 -39 -50l-2 -12q-5 -20 6.5 -29.5t40.5 -9.5h86q38 0 60 -25t16 -63l-7 -35q-6 -37 -34 -59.5t-66 -22.5z" />
    <glyph glyph-name="uogonek" unicode="&#x173;" horiz-adv-x="1257" 
d="M1087 -293l-6 -35q-6 -37 -33.5 -59.5t-68.5 -22.5h-109q-110 0 -164 50t-40 137l4 24q8 42 33 79t81 83l107 88l-72 72q-123 -148 -334 -148q-201 0 -300 116t-64 312l98 564q6 35 29.5 55t58.5 20h180q35 0 51.5 -20t10.5 -55l-100 -570q-14 -82 21.5 -125t117.5 -43
q158 0 186 168l100 570q6 35 30 55t59 20h178q35 0 52 -20t11 -55l-119 -678l56 -56q35 -35 32.5 -77t-40.5 -74l-213 -184q-30 -27 -33 -52l-2 -12q-4 -20 8 -29.5t41 -9.5h76q41 0 62 -24.5t15 -63.5z" />
    <glyph glyph-name="uni0174" unicode="&#x174;" horiz-adv-x="1787" 
d="M500 -6h-189q-100 0 -100 121l8 1179q0 78 22 109t76 31h117q87 0 84 -88l-18 -957l350 825q31 73 66 102.5t92 29.5h59q57 0 84 -30t31 -102l61 -821l316 953q34 88 114 88h121q68 0 68 -60q0 -32 -19 -80l-407 -1179q-41 -121 -144 -121h-186q-51 0 -77 31t-32 100
l-51 686l-291 -686q-30 -69 -66 -100t-89 -31zM1391 1559q-23 -37 -66 -46t-84 15l-141 92l-191 -98q-41 -20 -77.5 -8t-55.5 51q-18 38 -2.5 75t60.5 60l221 110q37 19 61 19h4q27 0 58 -19l178 -112q41 -25 50.5 -61.5t-15.5 -77.5z" />
    <glyph glyph-name="uni0175" unicode="&#x175;" horiz-adv-x="1591" 
d="M453 -4h-187q-95 0 -98 98l-29 787q-4 90 19 125.5t84 35.5h104q86 0 86 -86l8 -620l258 557q32 69 65 94t93 25h53q57 0 83.5 -26t33.5 -93l61 -557l228 620q17 45 45 65.5t72 20.5h112q70 0 70 -59q0 -38 -29 -102l-307 -787q-37 -98 -133 -98h-182q-47 0 -71 24.5
t-30 79.5l-53 471l-219 -471q-25 -55 -57 -79.5t-80 -24.5zM1225 1198q-23 -37 -66 -46t-84 15l-141 93l-191 -99q-41 -20 -77.5 -8t-55.5 51q-18 38 -2.5 75t60.5 60l221 111q35 18 61 18h4q28 0 58 -18l178 -113q41 -25 50.5 -61.5t-15.5 -77.5z" />
    <glyph glyph-name="Ycircumflex" unicode="&#x176;" horiz-adv-x="1263" 
d="M627 0h-174q-37 0 -55.5 22.5t-12.5 59.5l86 483l-278 699q-21 56 -21 77q0 43 26 68t70 25h142q41 0 63.5 -16.5t36.5 -55.5l184 -485l346 485q29 41 55.5 56.5t67.5 15.5h152q71 0 71 -60q0 -41 -53 -112l-528 -713l-82 -467q-6 -37 -32.5 -59.5t-63.5 -22.5z
M1124 1579q-23 -37 -65.5 -46t-83.5 15l-141 92l-191 -98q-41 -20 -77.5 -8t-55.5 51q-19 38 -3 75t60 60l221 111q35 18 62 18h4q27 0 57 -18l179 -113q41 -25 50 -61.5t-16 -77.5z" />
    <glyph glyph-name="ycircumflex" unicode="&#x177;" horiz-adv-x="1103" 
d="M252 -199l121 199h-37q-52 0 -76 21.5t-31 76.5l-106 758q0 4 -4 35.5t-4 40.5q0 110 96 110h129q45 0 64.5 -19.5t25.5 -72.5l76 -690l319 690q25 52 51 72t72 20h127q68 0 68 -59q0 -48 -29 -100l-606 -1235q-29 -60 -85.5 -77.5t-117.5 13.5t-76 92.5t23 124.5z
M985 1198q-23 -37 -65.5 -46t-83.5 15l-142 93l-190 -99q-41 -20 -77.5 -8t-55.5 51q-19 38 -3 75t60 60l221 111q35 18 62 18h4q27 0 57 -18l178 -113q41 -25 50.5 -61.5t-15.5 -77.5z" />
    <glyph glyph-name="Ydieresis" unicode="&#x178;" horiz-adv-x="1263" 
d="M627 0h-174q-37 0 -55.5 22.5t-12.5 59.5l86 483l-278 699q-21 56 -21 77q0 43 26 68t70 25h142q41 0 63.5 -16.5t36.5 -55.5l184 -485l346 485q29 41 55.5 56.5t67.5 15.5h152q71 0 71 -60q0 -41 -53 -112l-528 -713l-82 -467q-6 -37 -32.5 -59.5t-63.5 -22.5zM512 1640
l16 93q7 49 34 71.5t77 22.5h78q99 0 84 -96l-17 -93q-7 -49 -33.5 -71.5t-76.5 -22.5h-78q-99 0 -84 96zM1151 1731l-16 -93q-7 -49 -34 -71.5t-77 -22.5h-78q-99 0 -84 96l17 93q7 49 33.5 71.5t76.5 22.5h78q99 0 84 -96z" />
    <glyph glyph-name="Zacute" unicode="&#x179;" horiz-adv-x="1177" 
d="M950 0h-852q-68 0 -95 31.5t-15 97.5l12 68q8 45 23.5 74t56.5 73l758 823h-580q-75 0 -63 76l20 115q12 76 90 76h830q68 0 95 -31.5t15 -97.5l-12 -68q-7 -43 -24 -74t-56 -76l-756 -821h600q74 0 62 -76l-19 -114q-12 -76 -90 -76zM1044 1712l-159 -125
q-27 -21 -50.5 -29t-60.5 -8h-121q-18 0 -27.5 10.5t-4.5 24.5l2 12q3 25 28 50l127 127q31 31 47.5 39t46.5 8h181q21 0 31 -10.5t6 -28.5l-3 -13q-12 -37 -43 -57z" />
    <glyph glyph-name="zacute" unicode="&#x17a;" horiz-adv-x="995" 
d="M788 0h-708q-57 0 -87 32t-20 83l11 57q8 44 25.5 74.5t58.5 68.5l536 482h-426q-71 0 -59 71l18 105q12 69 84 69h684q60 0 88.5 -31.5t18.5 -86.5l-11 -58q-7 -44 -24.5 -73.5t-56.5 -65.5l-539 -481h450q72 0 60 -70l-19 -104q-12 -72 -84 -72zM889 1331l-160 -125
q-27 -21 -50.5 -29t-60.5 -8h-120q-18 0 -28 10.5t-5 24.5l2 13q3 23 29 49l127 127q31 31 47.5 39t46.5 8h180q21 0 31 -10.5t6 -28.5l-2 -12q-13 -39 -43 -58z" />
    <glyph glyph-name="uni017B" unicode="&#x17b;" horiz-adv-x="1177" 
d="M950 0h-852q-68 0 -95 31.5t-15 97.5l12 68q8 45 23.5 74t56.5 73l758 823h-580q-75 0 -63 76l20 115q12 76 90 76h830q68 0 95 -31.5t15 -97.5l-12 -68q-7 -43 -24 -74t-56 -76l-756 -821h600q74 0 62 -76l-19 -114q-12 -76 -90 -76zM637 1640l16 95q15 92 111 92h102
q99 0 84 -96l-16 -95q-15 -92 -111 -92h-102q-99 0 -84 96z" />
    <glyph glyph-name="uni017C" unicode="&#x17c;" horiz-adv-x="995" 
d="M788 0h-708q-57 0 -87 32t-20 83l11 57q8 44 25.5 74.5t58.5 68.5l536 482h-426q-71 0 -59 71l18 105q12 69 84 69h684q60 0 88.5 -31.5t18.5 -86.5l-11 -58q-7 -44 -24.5 -73.5t-56.5 -65.5l-539 -481h450q72 0 60 -70l-19 -104q-12 -72 -84 -72zM481 1260l17 94
q8 47 34.5 69.5t75.5 22.5h103q99 0 84 -96l-17 -95q-8 -47 -34.5 -69.5t-75.5 -22.5h-103q-99 0 -84 97z" />
    <glyph glyph-name="Zcaron" unicode="&#x17d;" horiz-adv-x="1177" 
d="M950 0h-852q-68 0 -95 31.5t-15 97.5l12 68q8 45 23.5 74t56.5 73l758 823h-580q-75 0 -63 76l20 115q12 76 90 76h830q68 0 95 -31.5t15 -97.5l-12 -68q-7 -43 -24 -74t-56 -76l-756 -821h600q74 0 62 -76l-19 -114q-12 -76 -90 -76zM1057 1663l-221 -111
q-35 -18 -62 -18h-6q-25 0 -55 18l-178 113q-86 55 -35 139q23 37 66 46t81 -15l141 -92l193 98q41 20 77.5 8t55.5 -51q18 -39 2 -75t-59 -60z" />
    <glyph glyph-name="zcaron" unicode="&#x17e;" horiz-adv-x="995" 
d="M788 0h-708q-57 0 -87 32t-20 83l11 57q8 44 25.5 74.5t58.5 68.5l536 482h-426q-71 0 -59 71l18 105q12 69 84 69h684q60 0 88.5 -31.5t18.5 -86.5l-11 -58q-7 -44 -24.5 -73.5t-56.5 -65.5l-539 -481h450q72 0 60 -70l-19 -104q-12 -72 -84 -72zM901 1282l-221 -111
q-35 -18 -62 -18h-6q-25 0 -55 18l-178 113q-86 55 -35 139q23 37 66.5 46.5t81.5 -15.5l141 -92l192 98q41 20 77.5 8t55.5 -51q18 -39 2 -75t-59 -60z" />
    <glyph glyph-name="uni0192" unicode="&#x192;" 
d="M1098 696h-273l-170 -647q-43 -170 -141.5 -244.5t-277.5 -74.5h-148q-97 0 -82 88l12 69q6 35 31 53.5t64 18.5h84q51 0 79 22t41 76l168 639h-190q-24 0 -36.5 14.5t-8.5 37.5l20 120q1 20 21 36t43 16h209l41 153q44 170 143 245t277 75h176q97 0 82 -88l-13 -70
q-6 -35 -30.5 -53.5t-63.5 -18.5h-113q-54 0 -80 -22t-40 -76l-39 -145h254q24 0 36.5 -14.5t8.5 -37.5l-21 -120q-2 -20 -21 -36t-42 -16z" />
    <glyph glyph-name="AEacute" unicode="&#x1fc;" horiz-adv-x="1994" 
d="M1866 190l-21 -116q-12 -74 -90 -74h-776q-54 0 -80 31.5t-16 85.5l45 260h-434l-203 -311q-44 -66 -107 -66h-151q-74 0 -74 61q0 42 41 99l782 1157q44 65 89.5 91t113.5 26h1026q74 0 62 -74l-21 -117q-12 -72 -88 -72h-561l-55 -309h409q61 0 93 -37t22 -96l-2 -12
q-11 -57 -51 -89t-101 -32h-415l-60 -334h561q74 0 62 -72zM668 641h307l94 535h-53zM1755 1712l-160 -125q-27 -21 -50 -29t-60 -8h-121q-18 0 -28 10.5t-5 24.5l2 12q3 24 29 50l127 127q31 31 47.5 39t46.5 8h180q21 0 31 -10.5t6 -28.5l-2 -13q-12 -37 -43 -57z" />
    <glyph glyph-name="aeacute" unicode="&#x1fd;" horiz-adv-x="1769" 
d="M967 985q125 82 331 82q235 0 347 -110t77 -308l-22 -129q-15 -94 -107 -94h-565l-14 -84q-14 -80 24 -113.5t142 -33.5q76 0 112 20.5t43 69.5l2 12q8 31 39 31h234q41 0 32 -39l-4 -25q-26 -152 -141 -220.5t-342 -68.5q-136 0 -235.5 40.5t-153.5 115.5
q-56 -75 -143 -115.5t-195 -40.5q-201 0 -301 88t-74 242l6 35q25 143 135.5 209.5t325.5 66.5q101 0 215 -24l25 139q11 56 -21.5 82.5t-111.5 26.5q-71 0 -106.5 -20.5t-43.5 -65.5l-2 -13q-8 -43 -47 -43h-221q-46 0 -37 50l4 24q49 295 475 295q211 0 318 -82zM1270 852
q-86 0 -133 -38t-60 -120l-12 -69h338l12 69q14 82 -20.5 120t-124.5 38zM377 336l-4 -25q-21 -112 135 -112q69 0 119 35.5t61 91.5l17 92q-84 20 -156 20q-79 0 -120.5 -24t-51.5 -78zM1264 1331l-160 -125q-27 -21 -50.5 -29t-60.5 -8h-121q-18 0 -27.5 10.5t-4.5 24.5
l2 13q3 24 28 49l127 127q31 31 48 39t47 8h180q21 0 31 -10.5t6 -28.5l-2 -12q-13 -39 -43 -58z" />
    <glyph glyph-name="uni0218" unicode="&#x218;" horiz-adv-x="1255" 
d="M563 -25q-293 0 -419 97t-89 295l11 57q10 57 61 57h213q26 0 38 -14t7 -39l-10 -57q-17 -84 29 -119t174 -35q121 0 176 36t69 124l4 24q11 63 -13 95t-97 51l-293 78q-163 42 -221 135.5t-29 259.5l6 35q35 198 183 300.5t401 102.5q288 0 409.5 -96t86.5 -297l-9 -47
q-9 -60 -61 -60h-215q-52 0 -43 54l8 47q14 86 -30 122t-162 36q-113 0 -167 -35.5t-67 -120.5l-4 -25q-10 -66 12 -96t96 -49l293 -78q163 -43 222 -136.5t30 -258.5l-6 -35q-37 -201 -187 -304.5t-407 -103.5zM283 -313l92 135q20 29 35.5 37t46.5 8h164q23 0 31.5 -8
t4.5 -25l-2 -12q-10 -41 -43 -74l-112 -121q-34 -37 -101 -37h-106q-23 0 -31 8.5t-4 28.5l2 13q3 21 23 47z" />
    <glyph glyph-name="uni0219" unicode="&#x219;" horiz-adv-x="1079" 
d="M461 -25q-235 0 -342 75t-82 224l4 25q1 18 16.5 30.5t34.5 12.5h205q38 0 35 -37l-4 -24q-8 -45 29.5 -66.5t127.5 -21.5q87 0 130.5 21.5t50.5 68.5l4 24q6 36 -10 53.5t-66 24.5l-223 37q-161 26 -220 97t-36 208l4 25q26 156 152 235.5t347 79.5q230 0 334.5 -74
t79.5 -221l-4 -24q-5 -19 -18 -31t-31 -12h-205q-40 0 -37 38l4 25q6 43 -28.5 62.5t-120.5 19.5q-155 0 -170 -90l-4 -25q-6 -36 10 -52.5t66 -23.5l223 -36q164 -29 221.5 -99t34.5 -207l-4 -24q-52 -318 -508 -318zM195 -313l92 135q20 29 35.5 37t46.5 8h163q23 0 32 -8
t5 -25l-2 -12q-10 -41 -43 -74l-112 -121q-34 -37 -101 -37h-106q-23 0 -31 8.5t-4 28.5l2 13q3 21 23 47z" />
    <glyph glyph-name="uni021A" unicode="&#x21a;" horiz-adv-x="1179" 
d="M584 0h-172q-37 0 -55.5 22.5t-12.5 59.5l191 1085h-322q-75 0 -63 76l20 115q12 76 90 76h981q76 0 64 -76l-21 -115q-12 -76 -90 -76h-322l-190 -1085q-6 -37 -33 -59.5t-65 -22.5zM238 -313l92 135q20 29 35.5 37t46.5 8h163q23 0 32 -8t5 -25l-2 -12q-10 -41 -43 -74
l-112 -121q-34 -37 -101 -37h-106q-23 0 -31 8.5t-4 28.5l2 13q3 21 23 47z" />
    <glyph glyph-name="uni021B" unicode="&#x21b;" horiz-adv-x="776" 
d="M590 0h-144q-183 0 -254 76.5t-40 242.5l88 480h-107q-23 0 -36 15t-9 38l25 139q4 23 22 37t41 14h107l30 164q10 54 46 84.5t87 30.5h105q54 0 78.5 -30.5t13.5 -84.5l-31 -164h166q23 0 36 -15t9 -38l-24 -139q-4 -23 -22 -37t-42 -14h-166l-86 -471q-8 -41 6.5 -58.5
t55.5 -17.5h90q56 0 47 -59l-23 -130q-12 -63 -69 -63zM121 -313l92 135q20 29 35.5 37t46.5 8h164q23 0 32 -8t5 -25l-2 -12q-10 -41 -43 -74l-113 -121q-19 -21 -40.5 -29t-59.5 -8h-107q-23 0 -31 8.5t-4 28.5l2 13q3 21 23 47z" />
    <glyph glyph-name="uni0237" unicode="&#x237;" horiz-adv-x="649" 
d="M72 -410h-131q-99 0 -84 78l18 105q5 29 27 46t57 17h70q29 0 43 12t20 43l160 908h-100q-24 0 -37 15t-9 38l25 139q1 20 21 35.5t43 15.5h333q49 0 67.5 -23.5t10.5 -74.5l-188 -1077q-26 -154 -103 -215.5t-243 -61.5z" />
    <glyph glyph-name="circumflex" unicode="&#x2c6;" horiz-adv-x="921" 
d="M901 1198q-23 -37 -65.5 -46t-83.5 15l-142 93l-190 -99q-41 -20 -77.5 -8t-55.5 51q-19 38 -3 75t60 60l221 111q35 18 62 18h4q27 0 57 -18l178 -113q41 -25 50.5 -61.5t-15.5 -77.5z" />
    <glyph glyph-name="caron" unicode="&#x2c7;" horiz-adv-x="921" 
d="M870 1282l-221 -111q-35 -18 -61 -18h-6q-26 0 -56 18l-178 113q-86 55 -35 139q23 37 66.5 46.5t81.5 -15.5l141 -92l193 98q41 20 77.5 8t55.5 -51q18 -39 2 -75t-60 -60z" />
    <glyph glyph-name="breve" unicode="&#x2d8;" horiz-adv-x="921" 
d="M475 1425q49 -71 125 -71q83 0 145 71q47 50 89 50q38 0 64 -24.5t26 -61.5q0 -63 -62 -125q-105 -105 -268 -105q-146 0 -234 88q-63 69 -63 125q0 47 27.5 75t72.5 28q40 0 78 -50z" />
    <glyph glyph-name="dotaccent" unicode="&#x2d9;" horiz-adv-x="921" 
d="M449 1260l16 94q8 47 34.5 69.5t75.5 22.5h103q99 0 84 -96l-17 -95q-8 -47 -34.5 -69.5t-75.5 -22.5h-103q-98 0 -83 97z" />
    <glyph glyph-name="ring" unicode="&#x2da;" horiz-adv-x="921" 
d="M596 1141q-123 0 -185.5 52.5t-45.5 143.5l6 35q17 97 82.5 142t187.5 45q123 0 185.5 -53t45.5 -144l-6 -35q-17 -96 -82.5 -141t-187.5 -45zM606 1262q78 0 90 71l6 35q6 35 -11 52.5t-60 17.5q-78 0 -90 -72l-6 -35q-6 -35 11 -52t60 -17z" />
    <glyph glyph-name="ogonek" unicode="&#x2db;" horiz-adv-x="921" 
d="M436 -410h-102q-110 0 -164.5 50t-40.5 137l4 24q14 84 117 160l125 90q23 17 41 23t47 6h63q18 0 23.5 -7t1.5 -24l-2 -12q-2 -15 -27 -37l-135 -104q-34 -24 -37 -50l-2 -12q-2 -20 10 -29.5t41 -9.5h68q38 0 60 -25t16 -63l-6 -35q-6 -38 -33 -60t-68 -22z" />
    <glyph glyph-name="tilde" unicode="&#x2dc;" horiz-adv-x="921" 
d="M885 1231q-31 -31 -76 -49.5t-92 -18.5q-46 0 -85.5 15t-88.5 55q-40 35 -62 35q-14 0 -25.5 -10.5t-29.5 -40.5q-32 -54 -82 -54q-41 0 -66.5 25.5t-25.5 64.5q0 79 63 142q69 69 170 69q47 0 85 -15t87 -56q44 -35 64 -35q14 0 25 10.5t28 40.5q34 55 82 55
q41 0 66.5 -25.5t25.5 -66.5q0 -75 -63 -141z" />
    <glyph glyph-name="hungarumlaut" unicode="&#x2dd;" horiz-adv-x="921" 
d="M276 1264l84 129q19 29 34 38t44 9h137q24 0 33.5 -8t5.5 -25l-2 -12q-3 -27 -47 -74l-98 -115q-32 -37 -96 -37h-84q-21 0 -30 8t-5 25l2 12q4 19 22 50zM610 1264l86 129q20 30 34 38.5t44 8.5h137q23 0 32 -8t5 -25l-2 -12q-7 -28 -45 -74l-100 -115q-32 -37 -96 -37
h-84q-21 0 -30 8t-5 25l2 12q4 29 22 50z" />
    <glyph glyph-name="uni0300" unicode="&#x300;" horiz-adv-x="0" 
d="M-72 1206l-137 129q-26 26 -22 58l2 12q8 35 47 35h151q32 0 49 -8.5t41 -38.5l103 -131q17 -20 14 -45l-2 -13q-9 -35 -47 -35h-98q-38 0 -58 7t-43 30z" />
    <glyph glyph-name="uni0301" unicode="&#x301;" horiz-adv-x="0" 
d="M295 1331l-160 -125q-27 -21 -50 -29t-60 -8h-121q-18 0 -28 10.5t-5 24.5l2 13q3 23 29 49l127 127q31 31 47.5 39t46.5 8h180q21 0 31 -10.5t6 -28.5l-2 -12q-13 -39 -43 -58z" />
    <glyph glyph-name="uni0302" unicode="&#x302;" horiz-adv-x="0" 
d="M340 1198q-23 -37 -66 -46t-84 15l-141 93l-190 -99q-41 -20 -77.5 -8t-55.5 51q-19 38 -3 75t60 60l221 111q35 18 62 18h4q27 0 57 -18l178 -113q41 -25 50.5 -61.5t-15.5 -77.5z" />
    <glyph glyph-name="uni0303" unicode="&#x303;" horiz-adv-x="0" 
d="M332 1231q-31 -31 -76 -49.5t-92 -18.5q-46 0 -85.5 15t-88.5 55q-40 35 -62 35q-14 0 -25.5 -10.5t-29.5 -40.5q-32 -54 -82 -54q-41 0 -66.5 25.5t-25.5 64.5q0 79 63 142q69 69 170 69q47 0 85 -15t87 -56q44 -35 64 -35q14 0 25 10.5t28 40.5q34 55 82 55
q41 0 66.5 -25.5t25.5 -66.5q0 -75 -63 -141z" />
    <glyph glyph-name="uni0304" unicode="&#x304;" horiz-adv-x="0" 
d="M-262 1303q0 47 29.5 75.5t76.5 28.5h408q44 0 72 -26.5t28 -69.5q0 -50 -28.5 -78.5t-77.5 -28.5h-408q-44 0 -72 27.5t-28 71.5z" />
    <glyph glyph-name="uni0306" unicode="&#x306;" horiz-adv-x="0" 
d="M-90 1425q49 -71 125 -71q83 0 145 71q47 50 88 50q38 0 64 -24.5t26 -61.5q0 -64 -61 -125q-105 -105 -268 -105q-146 0 -234 88q-63 69 -63 125q0 47 27.5 75t72.5 28q40 0 78 -50z" />
    <glyph glyph-name="uni0307" unicode="&#x307;" horiz-adv-x="0" 
d="M-109 1260l17 94q8 47 34.5 69.5t75.5 22.5h103q99 0 84 -96l-17 -95q-8 -47 -34.5 -69.5t-75.5 -22.5h-103q-99 0 -84 97z" />
    <glyph glyph-name="uni0308" unicode="&#x308;" horiz-adv-x="0" 
d="M-272 1260l16 92q7 49 34 71.5t77 22.5h77q99 0 84 -96l-16 -93q-7 -49 -34 -71.5t-77 -22.5h-77q-99 0 -84 97zM367 1350l-17 -93q-7 -49 -33.5 -71.5t-76.5 -22.5h-78q-99 0 -84 97l16 92q7 49 34 71.5t77 22.5h78q99 0 84 -96z" />
    <glyph glyph-name="uni030A" unicode="&#x30a;" horiz-adv-x="0" 
d="M25 1141q-123 0 -186 53t-46 143l6 35q17 96 83 141.5t188 45.5q123 0 185.5 -53t45.5 -144l-6 -35q-17 -96 -82.5 -141t-187.5 -45zM35 1262q78 0 90 71l6 35q6 35 -11.5 52.5t-60.5 17.5q-78 0 -90 -72l-6 -35q-6 -35 11.5 -52t60.5 -17z" />
    <glyph glyph-name="uni030B" unicode="&#x30b;" horiz-adv-x="0" 
d="M-227 1264l84 129q19 29 33.5 38t43.5 9h138q24 0 33.5 -8t5.5 -25l-2 -12q-3 -26 -48 -74l-98 -115q-32 -37 -96 -37h-84q-21 0 -30 8t-5 25l2 12q3 17 23 50zM106 1264l87 129q20 30 33.5 38.5t43.5 8.5h138q23 0 31.5 -8t4.5 -25l-2 -12q-7 -28 -45 -74l-100 -115
q-32 -37 -96 -37h-84q-21 0 -30 8t-5 25l2 12q4 29 22 50z" />
    <glyph glyph-name="uni030C" unicode="&#x30c;" horiz-adv-x="0" 
d="M311 1282l-221 -111q-35 -18 -61 -18h-6q-26 0 -56 18l-178 113q-86 55 -35 139q23 37 66.5 46.5t81.5 -15.5l141 -92l193 98q41 20 77.5 8t55.5 -51q18 -39 2 -75t-60 -60z" />
    <glyph glyph-name="uni0323" unicode="&#x323;" horiz-adv-x="0" 
d="M-199 -324l17 95q8 47 34.5 69.5t75.5 22.5h103q99 0 84 -96l-17 -95q-8 -47 -34.5 -69.5t-75.5 -22.5h-103q-99 0 -84 96z" />
    <glyph glyph-name="uni0326" unicode="&#x326;" horiz-adv-x="0" 
d="M-258 -313l92 135q20 29 35.5 37t46.5 8h164q23 0 32 -8t5 -25l-2 -12q-10 -41 -43 -74l-113 -121q-19 -21 -40.5 -29t-59.5 -8h-107q-23 0 -31 8.5t-4 28.5l2 13q3 21 23 47z" />
    <glyph glyph-name="uni0327" unicode="&#x327;" horiz-adv-x="0" 
d="M197 -262l-2 -12q-12 -84 -74 -122t-182 -38h-132q-35 0 -55 20.5t-20 53.5q0 35 21.5 56t58.5 21h112q40 0 43 31l2 12q2 18 -4 25.5t-24 11.5l-33 6q-38 8 -46 39.5t17 81.5l53 105q13 29 30 40t44 11h53q50 0 29 -53l-45 -113q93 -20 129.5 -62t24.5 -114z" />
    <glyph glyph-name="uni0328" unicode="&#x328;" horiz-adv-x="0" 
d="M35 -410h-103q-110 0 -164 50t-40 137l4 24q8 45 34.5 82t81.5 78l125 90q23 17 41 23t47 6h64q18 0 23.5 -7t1.5 -24l-3 -12q-2 -16 -26 -37l-135 -104q-34 -24 -37 -50l-2 -12q-2 -20 10 -29.5t41 -9.5h68q38 0 59.5 -25t15.5 -63l-6 -35q-6 -38 -32.5 -60t-67.5 -22z
" />
    <glyph glyph-name="uni1E80" unicode="&#x1e80;" horiz-adv-x="1787" 
d="M500 -6h-189q-100 0 -100 121l8 1179q0 78 22 109t76 31h117q87 0 84 -88l-18 -957l350 825q31 73 66 102.5t92 29.5h59q57 0 84 -30t31 -102l61 -821l316 953q34 88 114 88h121q68 0 68 -60q0 -32 -19 -80l-407 -1179q-41 -121 -144 -121h-186q-51 0 -77 31t-32 100
l-51 686l-291 -686q-30 -69 -66 -100t-89 -31zM993 1567l-137 129q-26 26 -22 57l2 12q8 35 47 35h151q32 0 49 -8.5t41 -38.5l103 -131q17 -20 14 -45l-2 -12q-9 -35 -47 -35h-98q-38 0 -58 7t-43 30z" />
    <glyph glyph-name="uni1E81" unicode="&#x1e81;" horiz-adv-x="1591" 
d="M453 -4h-187q-95 0 -98 98l-29 787q-4 90 19 125.5t84 35.5h104q86 0 86 -86l8 -620l258 557q32 69 65 94t93 25h53q57 0 83.5 -26t33.5 -93l61 -557l228 620q17 45 45 65.5t72 20.5h112q70 0 70 -59q0 -38 -29 -102l-307 -787q-37 -98 -133 -98h-182q-47 0 -71 24.5
t-30 79.5l-53 471l-219 -471q-25 -55 -57 -79.5t-80 -24.5zM827 1206l-137 129q-26 26 -22 58l2 12q8 35 47 35h151q32 0 49 -8.5t41 -38.5l103 -131q17 -20 14 -45l-2 -13q-9 -35 -47 -35h-98q-38 0 -58 7t-43 30z" />
    <glyph glyph-name="uni1E82" unicode="&#x1e82;" horiz-adv-x="1787" 
d="M500 -6h-189q-100 0 -100 121l8 1179q0 78 22 109t76 31h117q87 0 84 -88l-18 -957l350 825q31 73 66 102.5t92 29.5h59q57 0 84 -30t31 -102l61 -821l316 953q34 88 114 88h121q68 0 68 -60q0 -32 -19 -80l-407 -1179q-41 -121 -144 -121h-186q-51 0 -77 31t-32 100
l-51 686l-291 -686q-30 -69 -66 -100t-89 -31zM1350 1692l-160 -125q-27 -21 -50.5 -29t-60.5 -8h-121q-18 0 -27.5 10.5t-4.5 24.5l2 12q3 24 28 49l127 127q31 31 48 39t47 8h180q21 0 31 -10.5t6 -28.5l-2 -12q-12 -37 -43 -57z" />
    <glyph glyph-name="uni1E83" unicode="&#x1e83;" horiz-adv-x="1591" 
d="M453 -4h-187q-95 0 -98 98l-29 787q-4 90 19 125.5t84 35.5h104q86 0 86 -86l8 -620l258 557q32 69 65 94t93 25h53q57 0 83.5 -26t33.5 -93l61 -557l228 620q17 45 45 65.5t72 20.5h112q70 0 70 -59q0 -38 -29 -102l-307 -787q-37 -98 -133 -98h-182q-47 0 -71 24.5
t-30 79.5l-53 471l-219 -471q-25 -55 -57 -79.5t-80 -24.5zM1184 1331l-160 -125q-27 -21 -50.5 -29t-60.5 -8h-120q-18 0 -28 10.5t-5 24.5l2 13q3 23 29 49l127 127q31 31 47.5 39t46.5 8h180q21 0 31 -10.5t6 -28.5l-2 -12q-13 -39 -43 -58z" />
    <glyph glyph-name="uni1E84" unicode="&#x1e84;" horiz-adv-x="1787" 
d="M500 -6h-189q-100 0 -100 121l8 1179q0 78 22 109t76 31h117q87 0 84 -88l-18 -957l350 825q31 73 66 102.5t92 29.5h59q57 0 84 -30t31 -102l61 -821l316 953q34 88 114 88h121q68 0 68 -60q0 -32 -19 -80l-407 -1179q-41 -121 -144 -121h-186q-51 0 -77 31t-32 100
l-51 686l-291 -686q-30 -69 -66 -100t-89 -31zM778 1620l17 92q7 49 33.5 71.5t76.5 22.5h78q99 0 84 -96l-16 -92q-7 -49 -34 -71.5t-77 -22.5h-78q-99 0 -84 96zM1417 1710l-16 -92q-7 -49 -34 -71.5t-77 -22.5h-78q-99 0 -84 96l17 92q7 49 33.5 71.5t76.5 22.5h78
q99 0 84 -96z" />
    <glyph glyph-name="uni1E85" unicode="&#x1e85;" horiz-adv-x="1591" 
d="M453 -4h-187q-95 0 -98 98l-29 787q-4 90 19 125.5t84 35.5h104q86 0 86 -86l8 -620l258 557q32 69 65 94t93 25h53q57 0 83.5 -26t33.5 -93l61 -557l228 620q17 45 45 65.5t72 20.5h112q70 0 70 -59q0 -38 -29 -102l-307 -787q-37 -98 -133 -98h-182q-47 0 -71 24.5
t-30 79.5l-53 471l-219 -471q-25 -55 -57 -79.5t-80 -24.5zM612 1260l17 92q7 49 33.5 71.5t76.5 22.5h78q99 0 84 -96l-16 -93q-7 -49 -34 -71.5t-77 -22.5h-78q-99 0 -84 97zM1251 1350l-16 -93q-7 -49 -34 -71.5t-77 -22.5h-77q-99 0 -84 97l16 92q7 49 34 71.5t77 22.5
h77q99 0 84 -96z" />
    <glyph glyph-name="uni1EBC" unicode="&#x1ebc;" horiz-adv-x="1202" 
d="M971 0h-789q-56 0 -82 31.5t-16 85.5l211 1200q7 54 45 85.5t92 31.5h795q73 0 61 -74l-20 -117q-12 -72 -88 -72h-576l-55 -309h424q60 0 92 -36.5t22 -96.5l-2 -12q-11 -57 -50.5 -89t-100.5 -32h-430l-60 -334h576q73 0 61 -72l-20 -116q-12 -74 -90 -74zM1130 1612
q-68 -68 -167 -68q-46 0 -86 15t-89 55q-40 35 -61 35q-14 0 -25 -10.5t-30 -41.5q-31 -53 -82 -53q-41 0 -66.5 25.5t-25.5 64.5q0 79 63 142q69 69 170 69q47 0 85 -15t87 -56q44 -35 64 -35q14 0 25 10.5t28 40.5q34 55 82 55q41 0 66.5 -25.5t25.5 -66.5q0 -74 -64 -141
z" />
    <glyph glyph-name="uni1EBD" unicode="&#x1ebd;" horiz-adv-x="1165" 
d="M551 -25q-246 0 -369 111t-88 303l49 277q35 198 174.5 299.5t374.5 101.5q238 0 352.5 -111t79.5 -307l-22 -129q-15 -94 -107 -94h-569l-14 -84q-14 -80 24 -113.5t142 -33.5q79 0 115.5 20.5t43.5 69.5l2 12q8 31 39 31h234q41 0 32 -39l-4 -25
q-26 -152 -141.5 -220.5t-347.5 -68.5zM668 852q-86 0 -133 -38t-60 -120l-12 -69h342l12 69q14 82 -21.5 120t-127.5 38zM1006 1231q-31 -31 -76 -49.5t-92 -18.5q-46 0 -85.5 15t-88.5 55q-40 35 -62 35q-14 0 -25.5 -10.5t-29.5 -40.5q-32 -54 -82 -54q-41 0 -66.5 25.5
t-25.5 64.5q0 79 63 142q69 69 170 69q47 0 85 -15t87 -56q44 -35 64 -35q14 0 25 10.5t28 40.5q34 55 82 55q41 0 66.5 -25.5t25.5 -66.5q0 -75 -63 -141z" />
    <glyph glyph-name="Ygrave" unicode="&#x1ef2;" horiz-adv-x="1263" 
d="M627 0h-174q-37 0 -55.5 22.5t-12.5 59.5l86 483l-278 699q-21 56 -21 77q0 43 26 68t70 25h142q41 0 63.5 -16.5t36.5 -55.5l184 -485l346 485q29 41 55.5 56.5t67.5 15.5h152q71 0 71 -60q0 -41 -53 -112l-528 -713l-82 -467q-6 -37 -32.5 -59.5t-63.5 -22.5zM727 1587
l-137 129q-26 26 -23 58l2 12q8 35 47 35h152q32 0 49 -8.5t41 -38.5l103 -132q17 -20 14 -45l-2 -12q-9 -35 -47 -35h-99q-38 0 -57.5 7t-42.5 30z" />
    <glyph glyph-name="ygrave" unicode="&#x1ef3;" horiz-adv-x="1103" 
d="M252 -199l121 199h-37q-52 0 -76 21.5t-31 76.5l-106 758q0 4 -4 35.5t-4 40.5q0 110 96 110h129q45 0 64.5 -19.5t25.5 -72.5l76 -690l319 690q25 52 51 72t72 20h127q68 0 68 -59q0 -48 -29 -100l-606 -1235q-29 -60 -85.5 -77.5t-117.5 13.5t-76 92.5t23 124.5z
M586 1206l-137 129q-27 27 -23 58l2 12q8 35 47 35h152q32 0 49 -8.5t41 -38.5l102 -131q18 -21 15 -45l-3 -13q-9 -35 -47 -35h-98q-38 0 -57.5 7t-42.5 30z" />
    <glyph glyph-name="uni1EF8" unicode="&#x1ef8;" horiz-adv-x="1263" 
d="M627 0h-174q-37 0 -55.5 22.5t-12.5 59.5l86 483l-278 699q-21 56 -21 77q0 43 26 68t70 25h142q41 0 63.5 -16.5t36.5 -55.5l184 -485l346 485q29 41 55.5 56.5t67.5 15.5h152q71 0 71 -60q0 -41 -53 -112l-528 -713l-82 -467q-6 -37 -32.5 -59.5t-63.5 -22.5z
M1116 1612q-31 -31 -76 -49.5t-92 -18.5q-46 0 -85.5 15t-88.5 55q-40 35 -61 35q-14 0 -26 -11t-30 -41q-31 -53 -82 -53q-41 0 -66.5 25.5t-25.5 64.5q0 78 64 142q69 69 170 69q47 0 85 -15t87 -56q44 -35 63 -35q14 0 25.5 10.5t28.5 40.5q34 55 81 55q41 0 67 -25.5
t26 -66.5q0 -74 -64 -141z" />
    <glyph glyph-name="uni1EF9" unicode="&#x1ef9;" horiz-adv-x="1103" 
d="M252 -199l121 199h-37q-52 0 -76 21.5t-31 76.5l-106 758q0 4 -4 35.5t-4 40.5q0 110 96 110h129q45 0 64.5 -19.5t25.5 -72.5l76 -690l319 690q25 52 51 72t72 20h127q68 0 68 -59q0 -48 -29 -100l-606 -1235q-29 -60 -85.5 -77.5t-117.5 13.5t-76 92.5t23 124.5z
M977 1231q-31 -31 -76 -49.5t-92 -18.5q-46 0 -85.5 15t-88.5 55q-40 35 -62 35q-14 0 -25.5 -10.5t-29.5 -40.5q-32 -54 -82 -54q-41 0 -66.5 25.5t-25.5 64.5q0 78 64 142q69 69 170 69q47 0 85 -15t87 -56q44 -35 63 -35q14 0 25 10.5t28 40.5q34 55 82 55
q41 0 66.5 -25.5t25.5 -66.5q0 -75 -63 -141z" />
    <glyph glyph-name="uni2007" unicode="&#x2007;" 
 />
    <glyph glyph-name="uni2009" unicode="&#x2009;" horiz-adv-x="143" 
 />
    <glyph glyph-name="endash" unicode="&#x2013;" horiz-adv-x="1024" 
d="M872 489h-702q-56 0 -86.5 35t-20.5 86l3 13q7 51 42.5 78.5t92.5 27.5h700q58 0 88.5 -33.5t20.5 -87.5l-2 -12q-8 -50 -44.5 -78.5t-91.5 -28.5z" />
    <glyph glyph-name="emdash" unicode="&#x2014;" horiz-adv-x="1536" 
d="M1382 489h-1212q-56 0 -86.5 35t-20.5 86l3 13q7 51 42.5 78.5t92.5 27.5h1212q56 0 86.5 -34t20.5 -87l-2 -12q-7 -51 -43 -79t-93 -28z" />
    <glyph glyph-name="quoteleft" unicode="&#x2018;" horiz-adv-x="532" 
d="M276 1247l123 162q37 49 86 49q61 0 83.5 -50t-15.5 -101l-135 -181h31q56 0 80 -29.5t14 -84.5l-21 -121q-10 -61 -44 -89t-97 -28h-113q-63 0 -90.5 31.5t-17.5 91.5l24 143q21 112 92 207z" />
    <glyph glyph-name="quoteright" unicode="&#x2019;" horiz-adv-x="532" 
d="M487 973l-122 -164q-37 -49 -86 -49q-61 0 -83.5 50t15.5 101l135 183h-31q-115 0 -94 112l21 121q10 61 43.5 89t95.5 28h115q127 0 106 -123l-24 -141q-13 -99 -91 -207z" />
    <glyph glyph-name="quotesinglbase" unicode="&#x201a;" horiz-adv-x="532" 
d="M295 -117l-123 -162q-39 -51 -86 -51q-64 0 -84 51q-23 53 16 103l136 180h-31q-56 0 -80 30t-14 85l20 119q10 61 43 88.5t96 27.5h115q128 0 107 -121l-25 -143q-21 -118 -90 -207z" />
    <glyph glyph-name="quotedblleft" unicode="&#x201c;" horiz-adv-x="980" 
d="M723 1247l123 162q37 49 86 49q61 0 83 -50t-16 -101l-135 -181h31q56 0 80 -29.5t14 -84.5l-20 -121q-10 -61 -44 -89t-96 -28h-114q-128 0 -107 123l25 143q21 114 90 207zM276 1247l123 162q37 49 86 49q61 0 83.5 -50t-15.5 -101l-135 -181h31q56 0 80 -29.5
t14 -84.5l-21 -121q-10 -61 -44 -89t-97 -28h-113q-63 0 -90.5 31.5t-17.5 91.5l24 143q21 112 92 207z" />
    <glyph glyph-name="quotedblright" unicode="&#x201d;" horiz-adv-x="980" 
d="M487 973l-122 -164q-37 -49 -86 -49q-61 0 -83.5 50t15.5 101l135 183h-31q-115 0 -94 112l21 121q10 61 43.5 89t95.5 28h115q127 0 106 -123l-24 -141q-13 -99 -91 -207zM934 973l-123 -164q-37 -49 -86 -49q-61 0 -83.5 50t15.5 101l136 183h-31q-115 0 -94 112
l20 121q10 61 44 89t97 28h113q130 0 109 -123l-25 -141q-14 -103 -92 -207z" />
    <glyph glyph-name="quotedblbase" unicode="&#x201e;" horiz-adv-x="980" 
d="M295 -117l-123 -162q-39 -51 -86 -51q-64 0 -84 51q-23 53 16 103l136 180h-31q-56 0 -80 30t-14 85l20 119q10 61 43 88.5t96 27.5h115q128 0 107 -121l-25 -143q-21 -118 -90 -207zM741 -117l-123 -162q-36 -51 -86 -51q-63 0 -83 51q-23 53 16 103l135 180h-31
q-56 0 -80 30t-14 85l21 119q10 61 44 88.5t97 27.5h113q129 0 108 -121l-24 -143q-14 -101 -93 -207z" />
    <glyph glyph-name="dagger" unicode="&#x2020;" horiz-adv-x="786" 
d="M713 997h-115l-70 -391q-11 -57 -44.5 -89t-84.5 -32h-10q-54 0 -82 33.5t-20 87.5l69 391h-100q-44 0 -70 25.5t-26 67.5q0 54 32.5 85t88.5 31h112l25 133q10 59 43.5 90t85.5 31h10q54 0 82 -33.5t20 -87.5l-24 -133h102q43 0 68.5 -24.5t25.5 -67.5
q0 -54 -31.5 -85.5t-86.5 -31.5z" />
    <glyph glyph-name="daggerdbl" unicode="&#x2021;" horiz-adv-x="808" 
d="M647 571h-112l-23 -129q-11 -57 -44.5 -88.5t-84.5 -31.5h-10q-54 0 -82.5 33t-20.5 87l23 129h-103q-43 0 -68.5 25t-25.5 66q0 55 31.5 85.5t87.5 30.5h115l39 228h-101q-44 0 -70 24.5t-26 65.5q0 55 32 85.5t89 30.5h113l22 127q11 57 44.5 89t84.5 32h10
q54 0 82.5 -33.5t20.5 -87.5l-23 -127h101q44 0 70 -24.5t26 -65.5q0 -55 -32 -85.5t-89 -30.5h-113l-39 -228h101q44 0 70 -24.5t26 -65.5q0 -55 -32.5 -86t-88.5 -31z" />
    <glyph glyph-name="bullet" unicode="&#x2022;" horiz-adv-x="815" 
d="M729 655q0 -123 -88 -211q-86 -86 -209 -86q-122 0 -211 86q-86 89 -86 211q0 123 86 209q88 88 211 88q124 0 209 -88q88 -85 88 -209z" />
    <glyph glyph-name="ellipsis" unicode="&#x2026;" horiz-adv-x="1912" 
d="M76 111l22 125q10 61 44 87.5t96 26.5h110q130 0 109 -121l-23 -125q-10 -61 -43.5 -87.5t-95.5 -26.5h-113q-127 0 -106 121zM1094 229l-23 -125q-10 -61 -43.5 -87.5t-95.5 -26.5h-111q-129 0 -108 121l22 125q10 61 43.5 87.5t95.5 26.5h113q128 0 107 -121zM1731 229
l-21 -125q-11 -60 -43.5 -87t-95.5 -27h-113q-127 0 -106 121l20 125q11 60 43.5 87t95.5 27h113q128 0 107 -121z" />
    <glyph glyph-name="perthousand" unicode="&#x2030;" horiz-adv-x="1843" 
d="M365 760q-135 0 -200.5 68.5t-45.5 189.5l26 158q19 109 99 169t205 60q135 0 201.5 -69t43.5 -187l-28 -158q-20 -110 -99 -170.5t-202 -60.5zM1245 1264l-1073 -1241q-56 -65 -117 -13q-29 25 -30.5 56.5t24.5 60.5l1073 1243q55 64 117 12q29 -24 30 -56.5t-24 -61.5z
M381 911q60 0 72 68l36 203q12 71 -57 71q-63 0 -74 -65l-36 -203q-12 -74 59 -74zM1790 375l-29 -158q-20 -110 -99 -170.5t-202 -60.5q-137 0 -203 68.5t-43 189.5l29 157q20 110 98.5 170t202.5 60q137 0 203 -67.5t43 -188.5zM1176 375l-29 -158q-20 -110 -99 -170.5
t-202 -60.5q-137 0 -203 68.5t-43 189.5l29 157q20 110 98.5 170t202.5 60q137 0 203 -67.5t43 -188.5zM840 414l-35 -203q-12 -74 57 -74q31 0 50 18t24 50l35 203q12 71 -58 71q-64 0 -73 -65zM1454 414l-35 -203q-12 -74 58 -74q31 0 49.5 18t23.5 50l35 203
q12 71 -57 71q-65 0 -74 -65z" />
    <glyph glyph-name="guilsinglleft" unicode="&#x2039;" horiz-adv-x="600" 
d="M444 178q-44 -29 -93 -18.5t-81 57.5l-170 246q-78 116 33 227l266 262q41 41 91.5 44.5t87.5 -33.5q35 -36 29 -83t-48 -89l-233 -226l149 -217q31 -44 22 -91.5t-53 -78.5z" />
    <glyph glyph-name="guilsinglright" unicode="&#x203a;" horiz-adv-x="602" 
d="M498 463l-269 -264q-42 -39 -91 -42.5t-85 31.5q-35 37 -30 85t47 87l235 226l-151 217q-31 44 -21.5 92.5t53.5 79.5q43 29 91.5 17.5t80.5 -58.5l172 -246q79 -114 -32 -225z" />
    <glyph glyph-name="fraction" unicode="&#x2044;" horiz-adv-x="382" 
d="M-330 -16q-36 0 -63 25.5t-27 60.5q0 34 25 59l1095 1282q35 41 80 41q35 0 61.5 -25.5t26.5 -60.5q0 -34 -22 -59l-1098 -1282q-35 -41 -78 -41z" />
    <glyph glyph-name="uni2070" unicode="&#x2070;" horiz-adv-x="831" 
d="M154 1061l53 299q23 123 121 188.5t262 65.5q178 0 265.5 -75.5t62.5 -209.5l-54 -299q-23 -125 -120 -190.5t-261 -65.5q-179 0 -266.5 76t-62.5 211zM580 1454q-98 0 -113 -84l-61 -344q-15 -90 88 -90q97 0 112 84l60 342q16 92 -86 92z" />
    <glyph glyph-name="uni2074" unicode="&#x2074;" horiz-adv-x="792" 
d="M780 952h-53l-22 -121q-1 -18 -15.5 -29t-32.5 -11h-170q-37 0 -34 40l22 121h-291q-84 0 -69 80l10 60q8 47 49 100l277 354q23 29 45.5 41t54.5 12h225q33 0 48.5 -16.5t9.5 -46.5l-76 -412h41q35 0 52 -20t11 -53l-6 -35q-5 -29 -25 -46.5t-51 -17.5zM319 1118h185
l63 340z" />
    <glyph glyph-name="uni2075" unicode="&#x2075;" horiz-adv-x="751" 
d="M578 1315q125 0 189.5 -62t45.5 -166l-14 -75q-25 -125 -111 -181.5t-250 -56.5q-166 0 -245 51t-62 148l4 24q10 39 49 39h154q44 0 35 -39l-2 -12q-4 -25 16 -38t62 -13q81 0 92 67l16 99q6 35 -11.5 52t-60.5 17q-59 0 -86 -41q-10 -17 -21.5 -21.5t-35.5 -4.5h-121
q-74 0 -53 72l113 374q15 49 71 49h428q39 0 59.5 -24.5t14.5 -65.5l-4 -24q-6 -32 -30.5 -52t-59.5 -20h-301l-45 -154q64 58 164 58z" />
    <glyph glyph-name="uni2076" unicode="&#x2076;" horiz-adv-x="794" 
d="M842 1055l-8 -45q-20 -115 -115 -175.5t-254 -60.5q-168 0 -251 74.5t-60 204.5l53 307q23 124 118 189t253 65q165 0 246.5 -58.5t62.5 -162.5l-2 -13q-1 -18 -14.5 -28.5t-34.5 -10.5h-156q-42 0 -33 37l2 13q4 32 -16.5 49.5t-63.5 17.5q-86 0 -98 -72l-27 -145
q62 45 170 45q124 0 185.5 -61.5t42.5 -169.5zM481 928q84 0 99 80l12 65q8 38 -12.5 58t-67.5 20q-86 0 -98 -78l-11 -57q-15 -88 78 -88z" />
    <glyph glyph-name="uni2077" unicode="&#x2077;" horiz-adv-x="688" 
d="M774 1364l-334 -537q-25 -41 -66.5 -52.5t-82.5 11.5q-43 23 -54 66t15 84l305 469h-295q-33 0 -49 20.5t-10 55.5l8 47q6 32 29.5 50.5t56.5 18.5h453q92 0 77 -86l-6 -34q-9 -52 -47 -113z" />
    <glyph glyph-name="uni2078" unicode="&#x2078;" horiz-adv-x="786" 
d="M829 1028l-8 -47q-37 -207 -364 -207q-180 0 -262 59.5t-62 174.5l8 47q20 116 166 153q-122 46 -102 160l8 47q34 199 352 199q178 0 259.5 -56.5t62.5 -166.5l-8 -48q-11 -57 -48.5 -91.5t-109.5 -51.5q129 -45 108 -172zM461 1393l-8 -47q-6 -35 14.5 -53.5
t64.5 -18.5q43 0 66 15t29 50l8 47q6 37 -13.5 54.5t-66.5 17.5q-43 0 -65.5 -15t-28.5 -50zM393 1055l-8 -47q-6 -39 14.5 -58.5t69.5 -19.5q47 0 70.5 17t29.5 54l9 48q6 39 -13.5 57t-68.5 18q-92 0 -103 -69z" />
    <glyph glyph-name="uni2079" unicode="&#x2079;" horiz-adv-x="794" 
d="M881 1337l-54 -309q-20 -123 -116 -188.5t-254 -65.5q-167 0 -249 54.5t-65 154.5l2 12q3 35 45 35h164q34 0 31 -33l-2 -12q-4 -26 17.5 -39.5t64.5 -13.5q88 0 100 72l23 129q-68 -48 -170 -48q-125 0 -186 62.5t-42 171.5l11 57q20 117 114 177.5t254 60.5
q170 0 252.5 -73t59.5 -204zM553 1460q-85 0 -100 -80l-15 -82q-6 -41 13.5 -60t66.5 -19q41 0 66.5 21.5t31.5 59.5l13 70q8 43 -12 66.5t-64 23.5z" />
    <glyph glyph-name="uni2080" unicode="&#x2080;" horiz-adv-x="831" 
d="M-23 66l54 299q23 123 121 188t262 65q178 0 265 -75t62 -209l-53 -299q-23 -125 -120 -190.5t-261 -65.5q-179 0 -267 76t-63 211zM403 459q-97 0 -112 -84l-62 -344q-15 -90 88 -90q98 0 113 84l59 342q16 92 -86 92z" />
    <glyph glyph-name="uni2081" unicode="&#x2081;" horiz-adv-x="550" 
d="M268 -205h-164q-45 0 -36 47l92 523l-33 -13q-35 -12 -53 -12q-33 0 -48.5 21t-9.5 59l4 24q6 39 23 62.5t51 36.5l96 39q66 28 121 28h74q73 0 61 -71l-122 -697q-2 -20 -17.5 -33.5t-38.5 -13.5z" />
    <glyph glyph-name="uni2082" unicode="&#x2082;" horiz-adv-x="735" 
d="M362 618q167 0 244.5 -64t57.5 -187l-9 -48q-14 -88 -65 -132.5t-168 -69.5l-164 -35q-35 -6 -51 -20t-21 -39l-6 -35h328q38 0 58.5 -26.5t13.5 -67.5l-5 -23q-6 -35 -29.5 -55.5t-58.5 -20.5h-497q-76 0 -64 76l25 143q19 104 70 154.5t163 75.5l146 32q42 10 60 26.5
t24 47.5l8 47q6 33 -12 49.5t-60 16.5q-81 0 -90 -60l-6 -34q-10 -41 -47 -41h-152q-42 0 -39 45l7 35q37 210 339 210z" />
    <glyph glyph-name="uni2083" unicode="&#x2083;" horiz-adv-x="763" 
d="M629 20l-6 -34q-37 -207 -359 -207q-172 0 -252 58.5t-61 168.5l2 12q1 20 15.5 31.5t37.5 11.5h148q21 0 32 -12.5t7 -32.5l-3 -12q-6 -37 13.5 -53.5t68.5 -16.5q41 0 67 17.5t32 48.5l8 47q5 33 -12.5 52.5t-53.5 19.5h-65q-35 0 -53 20.5t-13 55.5l4 24q5 32 27 50
t59 18h66q37 0 61.5 17.5t28.5 47.5l8 47q6 29 -14.5 46.5t-61.5 17.5q-89 0 -98 -55l-4 -25q-10 -41 -49 -41h-152q-46 0 -37 47l5 25q38 204 348 204q174 0 254 -57.5t61 -169.5l-6 -35q-10 -62 -52 -98.5t-118 -54.5q141 -48 117 -183z" />
    <glyph glyph-name="uni2084" unicode="&#x2084;" horiz-adv-x="792" 
d="M606 -43h-53l-23 -121q-1 -18 -15 -29.5t-32 -11.5h-170q-37 0 -34 41l22 121h-291q-84 0 -69 80l10 59q8 48 49 101l276 354q23 29 46 41t55 12h225q33 0 48 -16.5t9 -46.5l-75 -412h41q35 0 52 -20.5t11 -53.5l-6 -35q-4 -29 -24.5 -46t-51.5 -17zM145 123h185l63 340z
" />
    <glyph glyph-name="uni2085" unicode="&#x2085;" horiz-adv-x="751" 
d="M401 319q125 0 190 -61.5t46 -165.5l-14 -76q-25 -124 -111 -180.5t-250 -56.5q-166 0 -245 50.5t-62 147.5l4 25q10 39 49 39h154q44 0 35 -39l-2 -12q-4 -25 16 -38t61 -13q82 0 93 67l16 98q6 35 -11.5 52.5t-60.5 17.5q-59 0 -86 -41q-10 -17 -21.5 -22t-35.5 -5
h-121q-74 0 -53 72l112 375q15 49 72 49h428q39 0 59.5 -24.5t14.5 -65.5l-4 -25q-6 -32 -30.5 -51.5t-59.5 -19.5h-301l-45 -154q63 57 163 57z" />
    <glyph glyph-name="uni2086" unicode="&#x2086;" horiz-adv-x="794" 
d="M668 59l-9 -45q-20 -115 -114.5 -175t-253.5 -60q-168 0 -251 74t-60 204l53 308q23 124 117.5 188.5t252.5 64.5q166 0 247.5 -58.5t62.5 -162.5l-2 -12q-1 -18 -14.5 -28.5t-34.5 -10.5h-156q-42 0 -33 37l2 12q5 32 -16 50t-64 18q-86 0 -98 -72l-27 -145
q62 45 170 45q124 0 185.5 -62t42.5 -170zM307 -68q84 0 99 80l12 66q8 38 -12.5 58t-67.5 20q-86 0 -98 -78l-11 -58q-15 -88 78 -88z" />
    <glyph glyph-name="uni2087" unicode="&#x2087;" horiz-adv-x="688" 
d="M598 369l-334 -537q-25 -41 -66.5 -52.5t-82.5 11.5q-43 23 -54 66t15 84l305 469h-295q-33 0 -49 20t-10 55l8 47q6 32 29.5 51t56.5 19h452q93 0 78 -86l-6 -35q-9 -51 -47 -112z" />
    <glyph glyph-name="uni2088" unicode="&#x2088;" horiz-adv-x="786" 
d="M653 33l-8 -47q-37 -207 -364 -207q-180 0 -262 59t-62 174l8 47q20 117 166 154q-122 46 -102 160l8 47q34 198 352 198q178 0 259.5 -56.5t62.5 -166.5l-9 -47q-11 -57 -48 -91.5t-109 -51.5q129 -45 108 -172zM285 397l-9 -47q-6 -35 14.5 -53t65.5 -18q43 0 66 15
t29 50l8 47q6 37 -13.5 54.5t-66.5 17.5q-83 0 -94 -66zM217 59l-8 -47q-6 -39 14.5 -58.5t69.5 -19.5q47 0 70.5 17.5t29.5 54.5l8 47q6 39 -13.5 57.5t-68.5 18.5q-91 0 -102 -70z" />
    <glyph glyph-name="uni2089" unicode="&#x2089;" horiz-adv-x="794" 
d="M705 342l-54 -309q-20 -123 -116 -188.5t-254 -65.5q-167 0 -249 54.5t-65 154.5l2 12q3 35 45 35h164q34 0 31 -33l-2 -12q-4 -26 17.5 -39.5t64.5 -13.5q88 0 100 71l23 129q-67 -47 -170 -47q-125 0 -186 62.5t-42 171.5l11 57q20 117 114 177t254 60q170 0 252.5 -73
t59.5 -203zM377 465q-86 0 -101 -80l-14 -82q-6 -41 13.5 -60.5t66.5 -19.5q41 0 66.5 21.5t31.5 60.5l13 70q8 43 -12 66.5t-64 23.5z" />
    <glyph glyph-name="Euro" unicode="&#x20ac;" 
d="M1102 143l-10 -49q-21 -94 -134 -94h-237q-269 0 -390.5 111.5t-92.5 332.5h-78q-43 0 -70 25.5t-27 67.5q0 43 28.5 69.5t72.5 26.5h106l23 131h-78q-43 0 -68.5 24.5t-25.5 65.5q0 44 28 71t72 27h105q41 229 175.5 335t387.5 106h317q51 0 77.5 -29t19.5 -76l-9 -51
q-7 -44 -39.5 -68t-83.5 -24h-305q-93 0 -138 -43.5t-64 -149.5h337q43 0 69 -25.5t26 -66.5q0 -43 -28.5 -69.5t-72.5 -26.5h-364l-23 -131h336q43 0 69.5 -24.5t26.5 -65.5q0 -44 -28 -71.5t-72 -27.5h-365q-17 -105 21 -150.5t143 -45.5h277q48 0 72 -29t14 -76z" />
    <glyph glyph-name="uni20B9" unicode="&#x20b9;" 
d="M819 20q-55 -47 -125 -42.5t-119 59.5l-405 444q-48 54 -37 119l4 25q6 35 28.5 54t57.5 19h217q82 0 130 32.5t59 94.5l2 13h-355q-43 0 -68.5 24.5t-25.5 65.5q0 42 27 69t70 27h385l2 12q11 63 -25.5 95t-120.5 32h-211q-32 0 -50.5 21.5t-12.5 52.5l16 88
q13 68 80 68h856q43 0 68.5 -24.5t25.5 -65.5q0 -43 -26.5 -69t-69.5 -26h-233q53 -74 41 -184h131q43 0 67.5 -24.5t24.5 -65.5q0 -43 -26.5 -69.5t-70.5 -26.5h-157l-2 -13q-23 -140 -117.5 -214t-271.5 -91l249 -260q51 -55 48 -123t-60 -117z" />
    <glyph glyph-name="uni20BA" unicode="&#x20ba;" 
d="M1180 516l-11 -57q-41 -238 -184 -348.5t-407 -110.5h-345q-52 0 -76 29t-14 82l47 274l-59 -20q-38 -13 -70.5 3t-44.5 54q-11 39 6 70.5t58 44.5l147 51l19 114l-58 -20q-39 -14 -69.5 1t-42.5 56q-12 39 5 70.5t58 44.5l144 49l73 426q4 29 25.5 46.5t50.5 17.5h209
q29 0 43.5 -17.5t9.5 -46.5l-53 -303l184 64q41 13 71.5 -3t41.5 -55q12 -41 -4 -70.5t-57 -43.5l-271 -93l-20 -116l182 63q42 14 71.5 -1t41.5 -56t-4.5 -71.5t-59.5 -43.5l-266 -92l-49 -270h92q137 0 210 55.5t93 177.5l8 47q12 72 80 72h131q35 0 52.5 -20.5
t11.5 -53.5z" />
    <glyph glyph-name="uni20BD" unicode="&#x20bd;" horiz-adv-x="1280" 
d="M721 197h-232l-22 -134q-4 -29 -24.5 -46t-49.5 -17h-196q-29 0 -43.5 17t-10.5 46l25 134h-80q-43 0 -69.5 25.5t-26.5 68.5q0 45 27.5 71.5t74.5 26.5h107l22 121h-80q-44 0 -70 24.5t-26 67.5q0 45 28 72.5t75 27.5h106l104 588q11 48 42.5 75.5t78.5 27.5h385
q248 0 362 -99.5t79 -287.5l-29 -154q-64 -346 -524 -346h-209l-21 -117h203q43 0 69.5 -24.5t26.5 -65.5q0 -47 -27.5 -74.5t-74.5 -27.5zM842 1169h-180l-78 -446h180q170 0 194 149l25 146q24 151 -141 151z" />
    <glyph glyph-name="uni20BF" unicode="&#x20bf;" 
d="M795 53l-33 -188q-11 -51 -41.5 -79t-77.5 -28t-73.5 32.5t-18.5 82.5l29 168h-115l-31 -176q-22 -107 -117 -107q-49 0 -75.5 32.5t-18.5 82.5l29 168h-115q-45 0 -66 26.5t-14 73.5l197 1112q8 45 39 72t78 27h114l27 155q8 50 39 78.5t78 28.5q49 0 77 -34t17 -81
l-27 -147h115l29 155q22 107 116 107q47 0 75 -34t20 -81l-31 -166q257 -61 211 -319l-10 -58q-37 -198 -269 -247q232 -59 191 -289l-10 -58q-46 -260 -338 -309zM776 1128h-217l-55 -317h217q144 0 164 117l14 82q10 62 -19.5 90t-103.5 28zM694 598h-229l-57 -332h227
q75 0 115.5 29.5t52.5 95.5l14 82q21 125 -123 125z" />
    <glyph glyph-name="uni2116" unicode="&#x2116;" horiz-adv-x="2459" 
d="M1952 451q-222 0 -327 103.5t-73 289.5l39 215q31 166 154.5 256t320.5 90q221 0 325.5 -103.5t72.5 -289.5l-37 -215q-29 -164 -154 -255t-321 -91zM778 88l-227 870l-156 -876q-6 -37 -32.5 -59.5t-63.5 -22.5h-145q-37 0 -55.5 22.5t-12.5 59.5l211 1198q8 51 43.5 82
t89.5 31h234q50 0 76 -18.5t38 -65.5l213 -867l154 869q6 37 32.5 59.5t63.5 22.5h145q37 0 55.5 -22.5t12.5 -59.5l-211 -1198q-7 -51 -43.5 -82t-87.5 -31h-207q-56 0 -85 19.5t-42 68.5zM1974 666q127 0 148 125l45 260q12 72 -18 105.5t-105 33.5q-127 0 -148 -125
l-47 -260q-24 -139 125 -139zM1985 0h-269q-55 0 -83.5 33.5t-20.5 87.5l4 24q8 50 44.5 79.5t90.5 29.5h268q54 0 82.5 -33.5t20.5 -87.5l-4 -24q-8 -50 -43.5 -79.5t-89.5 -29.5z" />
    <glyph glyph-name="uni2117" unicode="&#x2117;" horiz-adv-x="1556" 
d="M760 -25q-340 0 -496 162t-102 457l53 293q51 278 238.5 424.5t490.5 146.5q340 0 496 -161.5t102 -456.5l-53 -293q-51 -279 -237.5 -425.5t-491.5 -146.5zM764 106q242 0 391.5 116t187.5 335l52 293q41 235 -74.5 356t-380.5 121q-242 0 -392.5 -116.5t-187.5 -331.5
l-51 -295q-41 -235 75 -356.5t380 -121.5zM907 567h-135l-37 -213q-9 -49 -57 -49h-127q-23 0 -34 13t-7 36l123 688q6 38 32 60t64 22h246q155 0 222.5 -58t47.5 -175l-20 -117q-37 -207 -318 -207zM940 958h-98l-41 -231h98q94 0 109 86l10 57q7 42 -13 65t-65 23z" />
    <glyph glyph-name="uni2120" unicode="&#x2120;" horiz-adv-x="1327" 
d="M467 1446q127 0 183 -44t42 -132l-2 -13q-3 -22 -26 -22h-132q-21 0 -18 20l2 13q6 26 -9 37.5t-54 11.5q-41 0 -58 -10t-22 -35l-2 -12q-2 -20 6 -30t33 -16l102 -24q90 -20 122.5 -63t18.5 -123l-2 -13q-13 -90 -86 -137t-198 -47q-129 0 -185 43.5t-43 134.5l2 12
q3 23 27 23h131q21 0 18 -21l-2 -12q-6 -29 10 -41t58 -12q41 0 59.5 10.5t24.5 36.5l2 12q2 18 -6.5 27t-34.5 16l-100 25q-92 23 -125 65.5t-19 122.5l2 13q13 90 85 137t196 47zM967 1001l-45 179l-58 -322q-9 -39 -45 -39h-84q-39 0 -30 39l92 516q5 26 24 43t45 17h117
q43 0 55 -48l41 -178l105 178q26 48 71 48h117q26 0 40 -17t9 -43l-92 -516q-3 -39 -45 -39h-94q-40 0 -31 39l55 322l-110 -183q-34 -53 -74 -53q-51 0 -63 57z" />
    <glyph glyph-name="trademark" unicode="&#x2122;" horiz-adv-x="1320" 
d="M176 1319l12 70q2 20 16.5 32.5t37.5 12.5h442q46 0 37 -45l-12 -70q-9 -47 -54 -47h-129l-73 -414q-9 -39 -47 -39h-105q-40 0 -31 39l72 414h-129q-46 0 -37 47zM950 1001l-45 183l-57 -326q-3 -39 -45 -39h-84q-40 0 -31 39l90 516q5 26 24.5 43t45.5 17h117
q45 0 57 -48l41 -174l102 174q26 48 74 48h117q26 0 39 -16.5t8 -43.5l-90 -516q-1 -18 -14.5 -28.5t-32.5 -10.5h-92q-36 0 -33 39l57 324l-111 -185q-19 -29 -35.5 -41t-39.5 -12q-50 0 -62 57z" />
    <glyph glyph-name="onethird" unicode="&#x2153;" horiz-adv-x="1675" 
d="M221 -16q-36 0 -63 25.5t-27 60.5q0 34 25 59l1095 1282q35 41 80 41q35 0 61.5 -25.5t26.5 -60.5q0 -34 -22 -59l-1098 -1282q-35 -41 -78 -41zM1573 225l-6 -35q-19 -104 -107 -155t-252 -51q-172 0 -252 58.5t-61 168.5l2 12q1 20 15.5 31.5t37.5 11.5h148
q21 0 32 -12.5t7 -32.5l-2 -12q-6 -37 13.5 -53.5t68.5 -16.5q85 0 98 66l8 47q5 33 -12.5 52.5t-53.5 19.5h-65q-35 0 -52.5 20t-13.5 55l4 25q4 32 27 50t60 18h65q37 0 61.5 17.5t28.5 47.5l8 47q6 29 -14 46.5t-61 17.5q-89 0 -99 -56l-4 -24q-10 -41 -49 -41h-152
q-45 0 -36 47l4 24q39 205 348 205q174 0 254 -57.5t61 -169.5l-6 -35q-10 -62 -52 -98.5t-118 -54.5q141 -48 117 -183zM416 627h-164q-46 0 -37 47l92 522l-33 -12q-37 -13 -53 -13q-32 0 -47.5 21t-9.5 59l4 25q6 39 23 62t51 36l96 39q68 29 121 29h73q74 0 62 -72
l-123 -696q-2 -20 -17 -33.5t-38 -13.5z" />
    <glyph glyph-name="twothirds" unicode="&#x2154;" horiz-adv-x="1871" 
d="M406 -16q-36 0 -63.5 25.5t-27.5 60.5q0 34 25 59l1096 1282q35 41 80 41q35 0 61.5 -25.5t26.5 -60.5q0 -33 -23 -59l-1098 -1282q-35 -41 -77 -41zM1772 225l-7 -35q-19 -105 -106.5 -155.5t-251.5 -50.5q-172 0 -252 58.5t-61 168.5l2 12q1 20 15.5 31.5t37.5 11.5
h147q21 0 32 -12.5t7 -32.5l-2 -12q-6 -37 13.5 -53.5t68.5 -16.5q85 0 98 66l9 47q5 33 -12.5 52.5t-53.5 19.5h-65q-35 0 -52.5 20t-13.5 55l4 25q5 32 27 50t59 18h66q37 0 61.5 17.5t28.5 47.5l8 47q6 29 -14.5 46.5t-61.5 17.5q-88 0 -98 -56l-4 -24q-10 -41 -49 -41
h-152q-46 0 -37 47l4 24q39 205 349 205q174 0 254 -57.5t61 -169.5l-6 -35q-10 -62 -52 -98.5t-118 -54.5q141 -48 117 -183zM508 1450q167 0 244 -64.5t57 -187.5l-8 -47q-14 -88 -65.5 -133t-168.5 -70l-164 -35q-34 -6 -50 -20t-21 -39l-6 -35h327q38 0 58.5 -26.5
t13.5 -67.5l-4 -23q-6 -35 -29.5 -55t-58.5 -20h-498q-75 0 -63 75l24 144q19 104 70 154t164 75l145 33q42 10 60 26.5t24 47.5l8 47q6 33 -11.5 49t-59.5 16q-81 0 -90 -59l-7 -35q-10 -41 -47 -41h-151q-42 0 -39 45l6 35q37 211 340 211z" />
    <glyph glyph-name="uni215B" unicode="&#x215b;" horiz-adv-x="1703" 
d="M221 -16q-36 0 -63 25.5t-27 60.5q0 34 25 59l1095 1282q35 41 80 41q35 0 61.5 -25.5t26.5 -60.5q0 -34 -22 -59l-1098 -1282q-35 -41 -78 -41zM1608 238l-9 -48q-37 -206 -364 -206q-180 0 -262 59t-62 174l9 47q20 117 165 154q-122 46 -102 160l8 47q34 198 352 198
q178 0 259.5 -56.5t62.5 -166.5l-8 -47q-11 -57 -48.5 -91.5t-109.5 -51.5q130 -46 109 -172zM1239 602l-8 -47q-6 -35 15 -53.5t65 -18.5q83 0 94 66l8 47q6 37 -13.5 54.5t-66.5 17.5q-83 0 -94 -66zM1171 264l-8 -47q-6 -39 14.5 -58.5t69.5 -19.5q47 0 71 17.5t30 54.5
l8 47q6 39 -13.5 57.5t-68.5 18.5q-92 0 -103 -70zM416 627h-164q-46 0 -37 47l92 522l-33 -12q-37 -13 -53 -13q-32 0 -47.5 21t-9.5 59l4 25q6 39 23 62t51 36l96 39q68 29 121 29h73q74 0 62 -72l-123 -696q-2 -20 -17 -33.5t-38 -13.5z" />
    <glyph glyph-name="uni215C" unicode="&#x215c;" horiz-adv-x="1906" 
d="M424 -16q-36 0 -63 25.5t-27 60.5t24 59l1096 1282q35 41 80 41q35 0 61.5 -25.5t26.5 -60.5q0 -33 -23 -59l-1097 -1282q-35 -41 -78 -41zM1817 238l-9 -48q-37 -206 -364 -206q-180 0 -262 59t-62 174l8 47q20 117 166 154q-122 46 -102 160l8 47q34 198 352 198
q178 0 259.5 -56.5t62.5 -166.5l-8 -47q-11 -57 -48.5 -91.5t-109.5 -51.5q130 -46 109 -172zM1448 602l-8 -47q-6 -35 15 -53.5t65 -18.5q83 0 94 66l8 47q6 37 -13.5 54.5t-66.5 17.5q-83 0 -94 -66zM1380 264l-8 -47q-6 -39 14.5 -58.5t69.5 -19.5q47 0 70.5 17.5
t29.5 54.5l9 47q6 39 -13.5 57.5t-68.5 18.5q-92 0 -103 -70zM774 852l-6 -35q-19 -105 -106.5 -156t-251.5 -51q-171 0 -252 59t-62 169l2 12q1 20 16 31.5t38 11.5h147q21 0 32 -12.5t7 -32.5l-2 -12q-6 -37 13.5 -53.5t68.5 -16.5q85 0 98 65l8 48q5 33 -12 52t-53 19
h-66q-35 0 -52.5 20.5t-12.5 55.5l4 25q9 67 86 67h65q37 0 61.5 17.5t28.5 48.5l9 47q6 29 -14.5 46t-61.5 17q-89 0 -98 -55l-5 -25q-10 -40 -49 -40h-151q-46 0 -37 47l4 24q39 205 348 205q174 0 254.5 -57.5t61.5 -169.5l-7 -35q-10 -62 -52 -99.5t-118 -54.5
q141 -47 117 -182z" />
    <glyph glyph-name="uni215D" unicode="&#x215d;" horiz-adv-x="1900" 
d="M412 -16q-36 0 -63 25.5t-27 60.5t24 59l1096 1282q35 41 80 41q35 0 61.5 -25.5t26.5 -60.5q0 -33 -23 -59l-1098 -1282q-35 -41 -77 -41zM1804 238l-8 -48q-37 -206 -364 -206q-180 0 -262 59t-62 174l8 47q20 117 166 154q-122 46 -102 160l8 47q34 198 352 198
q178 0 259.5 -56.5t62.5 -166.5l-9 -47q-11 -57 -48 -91.5t-109 -51.5q129 -45 108 -172zM1436 602l-9 -47q-6 -35 15 -53.5t65 -18.5q84 0 95 66l8 47q6 37 -13.5 54.5t-66.5 17.5q-83 0 -94 -66zM1368 264l-8 -47q-6 -39 14.5 -58.5t69.5 -19.5q47 0 70.5 17.5t29.5 54.5
l8 47q6 39 -13.5 57.5t-68.5 18.5q-91 0 -102 -70zM547 1151q125 0 189.5 -61.5t45.5 -165.5l-14 -76q-25 -125 -110.5 -181.5t-249.5 -56.5q-166 0 -245.5 51t-62.5 148l4 25q10 38 50 38h153q44 0 35 -38l-2 -13q-4 -25 16 -38t62 -13q80 0 92 68l16 98q6 35 -11 52.5
t-60 17.5q-59 0 -86 -41q-10 -17 -22 -22t-36 -5h-121q-74 0 -53 72l113 374q15 50 72 50h428q38 0 58.5 -25t14.5 -66l-4 -24q-6 -32 -30.5 -52t-59.5 -20h-301l-45 -153q63 57 164 57z" />
    <glyph glyph-name="uni215E" unicode="&#x215e;" horiz-adv-x="1744" 
d="M256 -16q-36 0 -63 25.5t-27 60.5t24 59l1096 1282q35 41 80 41q35 0 61.5 -25.5t26.5 -60.5q0 -34 -22 -59l-1098 -1282q-35 -41 -78 -41zM1649 238l-9 -48q-37 -206 -364 -206q-180 0 -262 59t-62 174l9 47q20 117 165 154q-122 46 -102 160l8 47q34 198 352 198
q178 0 259.5 -56.5t62.5 -166.5l-8 -47q-11 -57 -48.5 -91.5t-109.5 -51.5q130 -46 109 -172zM1280 602l-8 -47q-6 -35 15 -53.5t65 -18.5q83 0 94 66l8 47q6 37 -13.5 54.5t-66.5 17.5q-83 0 -94 -66zM1212 264l-8 -47q-6 -39 14.5 -58.5t69.5 -19.5q47 0 71 17.5t30 54.5
l8 47q6 39 -13.5 57.5t-68.5 18.5q-92 0 -103 -70zM745 1200l-333 -536q-25 -41 -67 -52.5t-83 11.5q-43 23 -54 65.5t15 83.5l305 469h-295q-33 0 -49 20.5t-10 55.5l8 47q6 32 29.5 51t56.5 19h453q93 0 78 -86l-6 -35q-9 -50 -48 -113z" />
    <glyph glyph-name="uni2190" unicode="&#x2190;" horiz-adv-x="1331" 
d="M655 872l-231 -227l768 2q54 0 85.5 -30.5t31.5 -81.5v-29q0 -51 -31.5 -82t-85.5 -31l-768 2l231 -227q33 -33 36 -71.5t-27 -69.5l-27 -27q-31 -31 -68.5 -28t-72.5 38l-451 451q-26 26 -26 59.5t26 59.5l451 450q35 35 72.5 38t68.5 -28l27 -26q30 -31 27 -70t-36 -72
z" />
    <glyph glyph-name="uni2191" unicode="&#x2191;" horiz-adv-x="1331" 
d="M1020 633l-227 231l2 -768q0 -54 -31 -85t-82 -31h-29q-51 0 -81.5 31t-30.5 85l2 768l-228 -231q-33 -33 -71.5 -35.5t-69.5 27.5l-27 26q-31 31 -27.5 69t38.5 73l450 450q26 26 59.5 26t59.5 -26l451 -450q35 -35 38 -73t-28 -69l-27 -26q-31 -30 -69.5 -27.5
t-71.5 35.5z" />
    <glyph glyph-name="uni2192" unicode="&#x2192;" horiz-adv-x="1331" 
d="M137 647l768 -2l-231 227q-33 33 -35.5 72t27.5 70l26 26q31 31 69 28t73 -38l450 -450q26 -26 26 -59.5t-26 -59.5l-450 -451q-35 -35 -73 -38t-69 28l-26 27q-30 31 -27.5 69.5t35.5 71.5l231 227l-768 -2q-54 0 -85.5 31t-31.5 82v29q0 51 31.5 81.5t85.5 30.5z" />
    <glyph glyph-name="uni2193" unicode="&#x2193;" horiz-adv-x="1331" 
d="M795 1145l-2 -768l227 231q33 33 71.5 35.5t69.5 -27.5l27 -26q31 -31 28 -68.5t-38 -72.5l-451 -451q-26 -26 -59.5 -26t-59.5 26l-450 451q-35 35 -38.5 72.5t27.5 68.5l27 26q31 30 69.5 27.5t71.5 -35.5l228 -231l-2 768q0 54 30.5 85.5t81.5 31.5h29q51 0 82 -31.5
t31 -85.5z" />
    <glyph glyph-name="uni2194" unicode="&#x2194;" horiz-adv-x="1945" 
d="M1901 461l-451 -451q-35 -35 -72.5 -38t-68.5 28l-27 27q-30 31 -27.5 69.5t35.5 71.5l232 227h-1098l231 -227q33 -33 36 -71.5t-27 -69.5l-27 -27q-31 -31 -68.5 -28t-72.5 38l-451 451q-26 26 -26 59.5t26 59.5l451 450q35 35 72.5 38t68.5 -28l27 -26q30 -31 27 -70
t-36 -72l-231 -227h1098l-232 227q-33 33 -35.5 72t27.5 70l27 26q31 31 68.5 28t72.5 -38l451 -450q26 -26 26 -59.5t-26 -59.5z" />
    <glyph glyph-name="uni2195" unicode="&#x2195;" horiz-adv-x="1331" 
d="M1178 41l-451 -451q-26 -26 -59.5 -26t-59.5 26l-450 451q-35 35 -38.5 72.5t27.5 68.5l27 27q31 30 69.5 27.5t71.5 -35.5l228 -232v1086l-228 -232q-33 -33 -71.5 -35.5t-69.5 27.5l-27 27q-31 31 -27.5 68.5t38.5 72.5l450 451q26 26 59.5 26t59.5 -26l451 -451
q35 -35 38 -72.5t-28 -68.5l-27 -27q-31 -30 -69.5 -27.5t-71.5 35.5l-227 232v-1086l227 232q33 33 71.5 35.5t69.5 -27.5l27 -27q31 -31 28 -68.5t-38 -72.5z" />
    <glyph glyph-name="uni2196" unicode="&#x2196;" horiz-adv-x="1331" 
d="M932 817l-324 2l545 -540q38 -37 38.5 -81t-36.5 -81l-20 -21q-37 -37 -81 -36.5t-81 38.5l-541 545l2 -324q0 -47 -25.5 -76.5t-68.5 -29.5h-37q-43 0 -68.5 29.5t-25.5 76.5v639q0 37 23.5 60.5t60.5 23.5h639q47 0 76.5 -25.5t29.5 -68.5v-37q0 -43 -29.5 -68.5
t-76.5 -25.5z" />
    <glyph glyph-name="uni2197" unicode="&#x2197;" horiz-adv-x="1331" 
d="M178 279l545 540l-324 -2q-47 0 -76.5 25.5t-29.5 68.5v37q0 43 29.5 68.5t76.5 25.5h639q37 0 60.5 -23.5t23.5 -60.5v-639q0 -47 -25.5 -76.5t-68.5 -29.5h-37q-43 0 -68.5 29.5t-25.5 76.5l2 324l-541 -545q-37 -38 -80.5 -38.5t-80.5 36.5l-21 21q-37 37 -36.5 81
t38.5 81z" />
    <glyph glyph-name="uni2198" unicode="&#x2198;" horiz-adv-x="1331" 
d="M399 225l324 -2l-545 541q-38 37 -38.5 81t36.5 81l21 20q37 37 80.5 36.5t80.5 -38.5l541 -545l-2 324q0 47 25.5 76.5t68.5 29.5h37q43 0 68.5 -29.5t25.5 -76.5v-639q0 -37 -23.5 -60.5t-60.5 -23.5h-639q-47 0 -76.5 25.5t-29.5 68.5v37q0 43 29.5 68.5t76.5 25.5z
" />
    <glyph glyph-name="uni2199" unicode="&#x2199;" horiz-adv-x="1331" 
d="M1153 764l-545 -541l324 2q47 0 76.5 -25.5t29.5 -68.5v-37q0 -43 -29.5 -68.5t-76.5 -25.5h-639q-37 0 -60.5 23.5t-23.5 60.5v639q0 47 25.5 76.5t68.5 29.5h37q43 0 68.5 -29.5t25.5 -76.5l-2 -324l541 545q37 38 81 38.5t81 -36.5l20 -20q37 -37 36.5 -81t-38.5 -81z
" />
    <glyph glyph-name="uni21E6" unicode="&#x21e6;" horiz-adv-x="1331" 
d="M1276 631v-86q0 -148 -68 -226.5t-196 -78.5h-211v-140q0 -93 -80 -120q-78 -27 -146 38l-520 519q-51 51 0 102l520 518q69 66 146 39q80 -27 80 -121v-139h211q128 0 196 -78.5t68 -226.5zM1090 539v98q0 98 -93 98h-305q-51 0 -51 53v170l-371 -370l371 -371v170
q0 53 51 53h305q93 0 93 99z" />
    <glyph glyph-name="uni21E7" unicode="&#x21e7;" horiz-adv-x="1331" 
d="M729 -29h-86q-148 0 -226.5 68.5t-78.5 196.5v235h-139q-97 0 -125 78q-27 79 41 147l520 521q51 51 102 0l518 -521q66 -69 39 -147q-28 -78 -120 -78h-140v-235q0 -128 -78.5 -196.5t-226.5 -68.5zM637 158h98q99 0 99 92v330q0 51 53 51h170l-371 370l-371 -370h170
q54 0 54 -51v-330q0 -92 98 -92z" />
    <glyph glyph-name="uni21E8" unicode="&#x21e8;" horiz-adv-x="1331" 
d="M41 545v86q0 148 68 226.5t196 78.5h236v139q0 94 77 121q79 27 148 -39l520 -518q51 -51 0 -102l-520 -519q-68 -65 -148 -38q-77 27 -77 120v140h-236q-128 0 -196 78.5t-68 226.5zM227 637v-98q0 -99 92 -99h330q51 0 51 -53v-170l371 371l-371 370v-170
q0 -53 -51 -53h-330q-92 0 -92 -98z" />
    <glyph glyph-name="uni21E9" unicode="&#x21e9;" horiz-adv-x="1331" 
d="M643 1202h86q148 0 226.5 -68t78.5 -196v-236h140q93 0 120 -79q27 -77 -39 -146l-518 -520q-51 -51 -102 0l-520 520q-68 68 -41 146q27 79 125 79h139v236q0 128 78.5 196t226.5 68zM735 1016h-98q-98 0 -98 -92v-330q0 -51 -54 -51h-170l371 -371l371 371h-170
q-53 0 -53 51v330q0 92 -99 92z" />
    <glyph glyph-name="minus" unicode="&#x2212;" 
d="M1022 563h-772q-60 0 -91 34.5t-20 90.5l4 25q21 110 142 110h772q57 0 87.5 -35t20.5 -90l-4 -24q-22 -111 -139 -111z" />
    <glyph glyph-name="uni25A0" unicode="&#x25a0;" horiz-adv-x="1331" 
d="M1071 0h-811q-60 0 -88.5 28.5t-28.5 88.5v809q0 60 28.5 88t88.5 28h811q60 0 88.5 -28t28.5 -88v-809q0 -60 -28.5 -88.5t-88.5 -28.5z" />
    <glyph glyph-name="uni25A1" unicode="&#x25a1;" horiz-adv-x="1331" 
d="M1071 0h-811q-60 0 -88.5 28.5t-28.5 88.5v809q0 60 28.5 88t88.5 28h811q60 0 88.5 -28t28.5 -88v-809q0 -60 -28.5 -88.5t-88.5 -28.5zM971 838h-611v-633h611v633z" />
    <glyph glyph-name="triagup" unicode="&#x25b2;" horiz-adv-x="1331" 
d="M1161 0h-962q-61 0 -88 49q-27 52 0 101l481 874q27 53 88 53t88 -53l481 -874q27 -49 0 -101q-27 -49 -88 -49z" />
    <glyph glyph-name="uni25B3" unicode="&#x25b3;" horiz-adv-x="1331" 
d="M1161 0h-962q-61 0 -88 49q-27 52 0 101l481 874q27 53 88 53t88 -53l481 -874q27 -49 0 -101q-27 -49 -88 -49zM680 764l-305 -563h610z" />
    <glyph glyph-name="triagrt" unicode="&#x25ba;" horiz-adv-x="1331" 
d="M168 74v964q0 59 49 86q51 29 100 2l875 -483q53 -27 53 -88q0 -59 -53 -86l-875 -483q-49 -27 -100 2q-49 27 -49 86z" />
    <glyph glyph-name="uni25BB" unicode="&#x25bb;" horiz-adv-x="1331" 
d="M168 74v964q0 59 49 86q51 29 100 2l875 -483q53 -27 53 -88q0 -59 -53 -86l-875 -483q-49 -27 -100 2q-49 27 -49 86zM369 250l563 305l-563 307v-612z" />
    <glyph glyph-name="triagdn" unicode="&#x25bc;" horiz-adv-x="1331" 
d="M199 1042h962q60 0 86 -51q28 -51 2 -98l-481 -875q-27 -53 -88 -53t-88 53l-481 875q-26 47 2 98q26 51 86 51z" />
    <glyph glyph-name="uni25BD" unicode="&#x25bd;" horiz-adv-x="1331" 
d="M199 1042h962q60 0 86 -51q28 -51 2 -98l-481 -875q-27 -53 -88 -53t-88 53l-481 875q-26 47 2 98q26 51 86 51zM375 840l305 -561l305 561h-610z" />
    <glyph glyph-name="triaglf" unicode="&#x25c4;" horiz-adv-x="1331" 
d="M1163 1038v-964q0 -59 -49 -86q-51 -28 -98 -2l-877 483q-51 26 -51 86q0 62 51 88l877 483q47 26 98 -2q49 -27 49 -86z" />
    <glyph glyph-name="uni25C5" unicode="&#x25c5;" horiz-adv-x="1331" 
d="M1163 1038v-964q0 -59 -49 -86q-51 -28 -98 -2l-877 483q-51 26 -51 86q0 62 51 88l877 483q47 26 98 -2q49 -27 49 -86zM399 555l564 -305v612z" />
    </font>
</defs>
</svg>
